<svg width="64" height="64" viewBox="0 0 64 64" fill="none" xmlns="http://www.w3.org/2000/svg">
<path d="M56.24 48.0001C56.6933 48.1601 56.9867 48.0001 57.2 47.5201V41.7067C57.1062 41.2 56.9054 40.7191 56.6111 40.2961C56.3168 39.8731 55.9358 39.5176 55.4933 39.2534C55.28 39.1201 55.4933 39.0134 55.4933 38.8801C55.9124 38.2461 56.1435 37.5065 56.16 36.7467C56.16 35.2001 56.16 33.6001 56.16 32.0534C56.0987 31.306 55.7509 30.6113 55.1894 30.1144C54.6278 29.6174 53.8959 29.3567 53.1467 29.3867H49.84C49.4299 29.3674 49.0203 29.4344 48.6377 29.5834C48.2551 29.7324 47.908 29.9601 47.619 30.2516C47.3299 30.5432 47.1053 30.8922 46.9596 31.2761C46.8139 31.66 46.7505 32.0701 46.7733 32.4801C46.7733 33.7334 46.7733 35.0134 46.7733 36.2934C46.7388 37.2241 46.9602 38.1464 47.4133 38.9601C47.4133 39.1467 47.4133 39.2267 47.4133 39.3334C47.0304 39.5836 46.7035 39.9104 46.4533 40.2934L43.1733 44.6401C43.0985 44.7538 42.995 44.8457 42.8732 44.9065C42.7515 44.9674 42.6158 44.9951 42.48 44.9867H40.4267C40 44.9867 39.9467 44.9867 39.9467 44.4801C39.9467 43.9734 39.9467 43.0401 39.9467 42.3201C39.9751 41.8119 39.881 41.3044 39.6721 40.8403C39.4633 40.3762 39.1459 39.9691 38.7467 39.6534C38.2887 39.2549 37.777 38.9228 37.2267 38.6667C36.5067 38.2934 36.5067 38.2934 36.64 37.4667C36.6794 37.1212 36.6794 36.7723 36.64 36.4267V30.2401C36.64 29.4934 36.4 29.2534 35.6267 29.2534H30.2933C29.881 29.2302 29.4685 29.2944 29.0827 29.4416C28.6969 29.5889 28.3465 29.8159 28.0545 30.1079C27.7625 30.3999 27.5355 30.7503 27.3882 31.1361C27.241 31.5219 27.1768 31.9344 27.2 32.3467C27.2 33.6801 27.2 35.0134 27.2 36.3467C27.1504 36.8806 27.2233 37.4187 27.4133 37.9201C27.5733 38.2401 27.4133 38.3467 27.1733 38.4534C26.4959 38.7453 25.8736 39.1512 25.3333 39.6534C24.9717 39.954 24.6847 40.3345 24.495 40.7648C24.3053 41.1951 24.218 41.6636 24.24 42.1334C24.24 42.8801 24.24 43.6267 24.24 44.3734C24.24 44.7201 24.24 44.8534 23.8133 44.8267H21.76C21.6241 44.8351 21.4885 44.8074 21.3668 44.7465C21.245 44.6857 21.1415 44.5938 21.0667 44.4801L17.7333 40.0001C17.5021 39.6578 17.2025 39.3673 16.8533 39.1467C16.6133 39.1467 16.6133 38.9067 16.8533 38.6934C17.2497 37.9949 17.4523 37.2031 17.44 36.4001C17.44 35.0134 17.44 33.7334 17.44 32.2401C17.438 31.8336 17.3515 31.432 17.1861 31.0607C17.0206 30.6894 16.7798 30.3566 16.479 30.0833C16.1781 29.81 15.8237 29.6022 15.4383 29.4731C15.0528 29.344 14.6448 29.2964 14.24 29.3334H11.12C10.7099 29.3149 10.3004 29.3812 9.917 29.528C9.53364 29.6749 9.18468 29.8992 8.8919 30.187C8.59912 30.4748 8.36881 30.8198 8.21535 31.2006C8.06189 31.5814 7.98858 31.9897 7.99999 32.4001V36.3201C7.95111 37.2556 8.18329 38.1843 8.66666 38.9867C8.66666 39.2001 8.66666 39.3067 8.66666 39.4667C8.20517 39.745 7.82143 40.1354 7.55105 40.6015C7.28067 41.0677 7.1324 41.5946 7.11999 42.1334C7.11999 43.8934 7.11999 45.6534 7.11999 47.4667C7.1127 47.5543 7.12281 47.6425 7.14973 47.7262C7.17666 47.8099 7.21986 47.8874 7.27687 47.9543C7.33387 48.0213 7.40355 48.0762 7.48189 48.1161C7.56023 48.156 7.64568 48.18 7.73333 48.1867C7.90296 48.2273 8.08173 48.1997 8.23128 48.11C8.38084 48.0203 8.48927 47.8755 8.53333 47.7067C8.55969 47.5478 8.55969 47.3856 8.53333 47.2267V42.2667C8.51888 41.9041 8.60611 41.5446 8.78517 41.2289C8.96423 40.9132 9.22799 40.6538 9.54666 40.4801C9.67034 40.4019 9.81366 40.3603 9.95999 40.3603C10.1063 40.3603 10.2497 40.4019 10.3733 40.4801C11.1026 40.9573 11.9551 41.2115 12.8267 41.2115C13.6982 41.2115 14.5508 40.9573 15.28 40.4801C15.4282 40.3413 15.6236 40.2642 15.8267 40.2642C16.0297 40.2642 16.2251 40.3413 16.3733 40.4801C16.5179 40.6033 16.6437 40.7471 16.7467 40.9067C17.9467 42.4801 19.1467 44.0534 20.32 45.6534C20.4414 45.843 20.6125 45.9955 20.8148 46.0942C21.017 46.193 21.2426 46.2342 21.4667 46.2134H25.9733C26.1707 46.1737 26.3744 46.1784 26.5698 46.227C26.7652 46.2756 26.9473 46.367 27.103 46.4946C27.2588 46.6221 27.3843 46.7827 27.4705 46.9646C27.5566 47.1466 27.6013 47.3454 27.6013 47.5467C27.6013 47.7481 27.5566 47.9469 27.4705 48.1288C27.3843 48.3108 27.2588 48.4713 27.103 48.5989C26.9473 48.7265 26.7652 48.8179 26.5698 48.8665C26.3744 48.9151 26.1707 48.9197 25.9733 48.8801H20.1067C19.8364 48.9154 19.5616 48.8799 19.3091 48.7771C19.0567 48.6742 18.8353 48.5076 18.6667 48.2934L15.6533 44.2934C15.3067 43.8401 14.9067 43.7334 14.5333 43.9734C14.16 44.2134 14.1333 44.6934 14.5333 45.2001L16.6933 48.0001C16.8298 48.1756 16.9048 48.3911 16.9067 48.6134V54.3201C16.9067 54.6401 16.9067 54.7201 16.48 54.7201H8.77333C8.47999 54.7201 8.37333 54.7201 8.37333 54.3201C8.37333 53.1734 8.37333 52.0267 8.37333 50.8801V50.6667C8.37333 50.1867 8.05333 49.8401 7.62666 49.8667C7.52622 49.8701 7.42748 49.8936 7.33636 49.936C7.24525 49.9784 7.16363 50.0388 7.0964 50.1135C7.02917 50.1882 6.97771 50.2757 6.94511 50.3708C6.9125 50.4658 6.89943 50.5665 6.90666 50.6667V55.3067C6.90666 56.0801 7.14666 56.2934 7.94666 56.2934H56.16C56.363 56.3116 56.5672 56.274 56.7505 56.1847C56.9338 56.0955 57.0892 55.9578 57.2 55.7867V50.2401C56.9333 49.9467 56.6667 49.6534 56.2133 49.8401C55.76 50.0267 55.7067 50.3734 55.7067 50.8001C55.7067 52.0001 55.7067 53.2001 55.7067 54.3734C55.7067 54.6934 55.7067 54.7734 55.3333 54.7734H47.6C47.2533 54.7734 47.2 54.6401 47.2 54.3467V48.6401C47.1912 48.4368 47.2576 48.2374 47.3867 48.0801C48.1333 47.1201 48.8533 46.1334 49.5733 45.1734C49.92 44.7201 49.92 44.2934 49.5733 44.0001C49.2267 43.7067 48.7733 43.8134 48.4 44.2934L45.4933 48.1867C45.3156 48.4522 45.0727 48.6676 44.7879 48.8124C44.5031 48.9571 44.1859 49.0263 43.8667 49.0134C41.9467 49.0134 40.0267 49.0134 38.08 49.0134C37.7589 49.0232 37.4455 48.9145 37.1996 48.7079C36.9536 48.5013 36.7924 48.2113 36.7467 47.8934C36.6897 47.5838 36.7442 47.2641 36.9004 46.9908C37.0565 46.7174 37.3044 46.5082 37.6 46.4001C37.8205 46.3612 38.0461 46.3612 38.2667 46.4001H42.8C43.0241 46.4209 43.2496 46.3797 43.4519 46.2809C43.6541 46.1821 43.8253 46.0296 43.9467 45.8401C45.12 44.2134 46.3467 42.6401 47.5467 41.0401C47.6621 40.8498 47.8166 40.6862 48 40.5601C48.1302 40.4492 48.2957 40.3884 48.4667 40.3884C48.6377 40.3884 48.8031 40.4492 48.9333 40.5601C49.6707 41.042 50.5325 41.2986 51.4133 41.2986C52.2942 41.2986 53.156 41.042 53.8933 40.5601C54.0087 40.4735 54.1491 40.4267 54.2933 40.4267C54.4376 40.4267 54.5779 40.4735 54.6933 40.5601C55.012 40.7338 55.2758 40.9932 55.4548 41.3089C55.6339 41.6246 55.7211 41.9841 55.7067 42.3467C55.7067 43.8934 55.7067 45.4401 55.7067 47.0134C55.7067 47.3601 55.7867 47.7334 56.24 48.0001ZM28.6933 34.6667C28.6933 34.3467 28.6933 34.2401 29.0667 34.2401H34.6667C34.9333 34.2401 35.0933 34.2401 35.0667 34.6134C35.0667 35.3867 35.0667 36.1601 35.0667 36.9334C34.9677 37.7379 34.5695 38.4757 33.9513 39.0001C33.3332 39.5244 32.5403 39.7969 31.7304 39.7632C30.9205 39.7296 30.1529 39.3924 29.5803 38.8187C29.0077 38.2449 28.672 37.4767 28.64 36.6667C28.6667 35.9734 28.6933 35.3067 28.6933 34.6667ZM34.7467 32.8001H29.04C28.7467 32.8001 28.6667 32.8001 28.6933 32.4001C28.6734 32.1802 28.7015 31.9587 28.7758 31.7509C28.8501 31.543 28.9688 31.3538 29.1236 31.1965C29.2784 31.0392 29.4656 30.9174 29.6722 30.8398C29.8788 30.7621 30.0999 30.7303 30.32 30.7467H34.6667C35.0133 30.7467 35.12 30.7467 35.0933 31.1734C35.0667 31.5641 35.0667 31.9561 35.0933 32.3467C35.2 32.6667 35.0933 32.7734 34.6667 32.7734L34.7467 32.8001ZM15.7333 37.3334C15.5568 37.9656 15.1916 38.529 14.6866 38.9483C14.1815 39.3676 13.5606 39.6229 12.9067 39.6801C12.2847 39.723 11.6634 39.5877 11.1155 39.2902C10.5677 38.9926 10.116 38.5451 9.81333 38.0001C9.71684 37.878 9.6609 37.7288 9.65333 37.5734C10.0605 37.6265 10.4728 37.6265 10.88 37.5734C11.6175 37.5232 12.3193 37.2367 12.8813 36.7564C13.4432 36.276 13.8355 35.6275 14 34.9067C14 34.5601 14.1867 34.4534 14.56 34.5867C14.8653 34.7066 15.1923 34.7611 15.52 34.7467C15.7867 34.7467 15.8933 34.7467 15.8667 35.0934C15.9071 35.8427 15.8624 36.5942 15.7333 37.3334ZM9.38666 32.4001C9.36619 32.1743 9.3956 31.9468 9.47279 31.7337C9.54998 31.5206 9.67307 31.327 9.83335 31.1668C9.99363 31.0065 10.1872 30.8834 10.4003 30.8062C10.6134 30.729 10.8409 30.6996 11.0667 30.7201H14.2133C14.4342 30.6952 14.6578 30.72 14.8678 30.7926C15.0779 30.8652 15.2691 30.9837 15.4275 31.1396C15.5859 31.2954 15.7075 31.4847 15.7835 31.6935C15.8595 31.9024 15.8879 32.1255 15.8667 32.3467C15.8667 33.2534 15.8667 33.3334 14.9067 33.0667C14.5776 32.9511 14.2709 32.7797 14 32.5601C13.8898 32.4759 13.7584 32.424 13.6204 32.4103C13.4824 32.3966 13.3433 32.4216 13.2187 32.4825C13.0941 32.5435 12.9889 32.6379 12.915 32.7552C12.841 32.8725 12.8012 33.0081 12.8 33.1467C12.7685 33.7493 12.6425 34.3432 12.4267 34.9067C12.1725 35.4188 11.7364 35.8174 11.2036 36.0246C10.6709 36.2318 10.0799 36.2326 9.54666 36.0267C9.35999 36.0267 9.38666 35.8134 9.38666 35.6801V32.4001ZM37.1467 50.4534H45.1467C45.52 50.4534 45.6533 50.4534 45.6267 50.9334C45.6267 52.0534 45.6267 53.1734 45.6267 54.2667C45.6267 54.6667 45.6267 54.7734 45.1467 54.7734H18.8533C18.48 54.7734 18.3467 54.7734 18.3733 54.2934C18.3733 53.2001 18.3733 52.1067 18.3733 50.9867C18.3733 50.5867 18.3733 50.4534 18.88 50.4534H37.1467ZM38.3467 44.4534C38.3467 44.6401 38.3467 44.8001 38.1067 44.8267C37.6037 44.7951 37.1014 44.8986 36.6518 45.1264C36.2022 45.3542 35.8217 45.6981 35.5497 46.1224C35.2778 46.5467 35.1242 47.036 35.1049 47.5396C35.0856 48.0432 35.2013 48.5429 35.44 48.9867H28.56C28.7905 48.468 28.8823 47.8983 28.8267 47.3334C28.7858 46.6543 28.487 46.0164 27.9912 45.5504C27.4955 45.0844 26.8404 44.8255 26.16 44.8267C25.7867 44.8267 25.68 44.8267 25.68 44.3734C25.68 43.5734 25.68 42.7734 25.68 41.9734C25.6637 41.7999 25.6837 41.625 25.7388 41.4597C25.7939 41.2944 25.8829 41.1424 26 41.0134C26.5756 40.3828 27.2998 39.9061 28.1067 39.6267C28.2933 39.6267 28.3467 39.6267 28.4533 39.6267C28.8879 40.0987 29.4156 40.4753 30.0031 40.733C30.5906 40.9907 31.2251 41.1237 31.8667 41.1237C32.5082 41.1237 33.1427 40.9907 33.7302 40.733C34.3177 40.4753 34.8454 40.0987 35.28 39.6267C35.3426 39.5831 35.417 39.5598 35.4933 39.5598C35.5696 39.5598 35.6441 39.5831 35.7067 39.6267C36.4892 39.9294 37.2049 40.3824 37.8133 40.9601C37.9641 41.1038 38.0825 41.2781 38.1607 41.4712C38.2389 41.6643 38.275 41.8719 38.2667 42.0801L38.3467 44.4534ZM51.4667 39.7067C50.7639 39.6984 50.0827 39.4626 49.5251 39.0348C48.9675 38.607 48.5634 38.0101 48.3733 37.3334C48.202 36.4554 48.1571 35.5574 48.24 34.6667C48.24 34.4801 48.24 34.5067 48.4533 34.5067C48.8986 34.4942 49.3393 34.4132 49.76 34.2667C49.92 34.2667 50.0267 34.2667 50.0267 34.4267C50.1081 34.9183 50.2899 35.3878 50.5608 35.806C50.8318 36.2242 51.1859 36.582 51.6013 36.8573C52.0166 37.1325 52.4842 37.3192 52.9749 37.4057C53.4656 37.4922 53.9689 37.4767 54.4533 37.3601C54.2752 38.021 53.8881 38.6067 53.3499 39.0296C52.8116 39.4525 52.151 39.6901 51.4667 39.7067ZM54.72 34.0267C54.72 34.5867 54.72 35.1734 54.72 35.7334C54.72 36.2934 54.72 36.0801 54.4 36.1067C54.0625 36.226 53.7014 36.2627 53.3469 36.2138C52.9923 36.1648 52.6547 36.0316 52.3622 35.8253C52.0697 35.619 51.8309 35.3456 51.6658 35.0281C51.5008 34.7105 51.4142 34.358 51.4133 34.0001C51.3986 33.7247 51.3986 33.4488 51.4133 33.1734C51.4127 33.0347 51.372 32.8991 51.2962 32.783C51.2203 32.6669 51.1125 32.5751 50.9858 32.5188C50.859 32.4624 50.7187 32.4439 50.5816 32.4654C50.4446 32.487 50.3167 32.5476 50.2133 32.6401C49.7771 32.9658 49.2613 33.1684 48.72 33.2267C48.48 33.2267 48.32 33.2267 48.3467 32.8801C48.3733 32.5334 48.3467 32.2134 48.3467 31.8934C48.4189 31.5639 48.6006 31.2687 48.862 31.0556C49.1235 30.8425 49.4494 30.7243 49.7867 30.7201H53.3333C53.7342 30.7339 54.1141 30.9029 54.3927 31.1915C54.6713 31.4801 54.8269 31.8656 54.8267 32.2667L54.72 34.0267Z" fill="#B860AC"/>
<path d="M10.6666 24.5867C10.9066 24.5867 10.96 24.7467 10.96 24.96V27.28C10.96 27.68 10.96 28.0534 11.44 28.2134C11.92 28.3734 12.1333 28.2134 12.4266 27.8667L15.3866 24.9867C15.4581 24.8941 15.5518 24.8211 15.659 24.7745C15.7663 24.7279 15.8835 24.7092 16 24.72H25.5466C25.8133 24.72 25.92 24.72 26 25.0667C26.1892 25.7456 26.5872 26.3478 27.1376 26.788C27.6879 27.2283 28.3628 27.4844 29.0666 27.52C30.6133 27.52 32.16 27.52 33.7066 27.52C33.831 27.5238 33.9542 27.4953 34.0643 27.4373C34.1743 27.3792 34.2675 27.2937 34.3346 27.1889C34.4018 27.0842 34.4406 26.9638 34.4474 26.8396C34.4542 26.7153 34.4287 26.5915 34.3733 26.48C34.2942 26.3342 34.1731 26.2155 34.0257 26.1394C33.8783 26.0633 33.7113 26.0333 33.5466 26.0534H29.3333C28.9181 26.0677 28.5103 25.9411 28.1762 25.6941C27.8421 25.4472 27.6014 25.0945 27.4933 24.6934C28.1364 24.7291 28.7798 24.6275 29.3805 24.3951C29.9812 24.1628 30.5255 23.805 30.9772 23.3458C31.4288 22.8866 31.7774 22.3364 31.9998 21.7319C32.2221 21.1274 32.3131 20.4825 32.2666 19.84C32.2666 18.2934 32.2666 16.7467 32.2666 15.2267C32.2666 14.96 32.2666 14.8 32.6133 14.8H44.7466C45.0252 14.7885 45.303 14.8353 45.5624 14.9374C45.8218 15.0395 46.0569 15.1948 46.2528 15.3931C46.4486 15.5915 46.6008 15.8286 46.6997 16.0893C46.7985 16.3499 46.8417 16.6283 46.8266 16.9067C46.8266 19.2267 46.8266 21.5734 46.8266 23.8934C46.841 24.1639 46.8009 24.4346 46.7089 24.6894C46.6168 24.9442 46.4746 25.178 46.2906 25.3769C46.1066 25.5757 45.8846 25.7357 45.6378 25.8473C45.3909 25.959 45.1241 26.0199 44.8533 26.0267C44.2666 26.0267 44.0533 26.32 44.0266 26.9067V28.56L41.8933 26.4C41.7851 26.2816 41.6532 26.1871 41.5063 26.1228C41.3593 26.0585 41.2004 26.0258 41.04 26.0267H37.3333C36.7733 26.0267 36.4266 26.32 36.4266 26.7734C36.4266 27.2267 36.8 27.4934 37.36 27.4934H40.7466C40.8913 27.4849 41.0361 27.5092 41.17 27.5647C41.3039 27.6201 41.4236 27.7051 41.52 27.8134L44.3466 30.6667C44.64 30.9334 44.9333 31.1734 45.3333 30.9867C45.5029 30.9033 45.6412 30.7675 45.7277 30.5994C45.8141 30.4313 45.8441 30.2399 45.8133 30.0534C45.8133 29.28 45.8133 28.5334 45.8133 27.7867C45.7977 27.6844 45.8222 27.5801 45.8819 27.4955C45.9416 27.411 46.0317 27.3529 46.1333 27.3334C46.8214 27.0923 47.416 26.6404 47.8325 26.042C48.249 25.4436 48.4663 24.729 48.4533 24C48.4533 21.7423 48.4533 19.4756 48.4533 17.2C48.4797 16.9251 48.4797 16.6483 48.4533 16.3734C48.3276 15.4899 47.8734 14.6863 47.1815 14.1229C46.4895 13.5594 45.6106 13.2775 44.72 13.3334H33.7333C33.3066 13.3334 32.7733 13.52 32.5066 13.3334C32.24 13.1467 32.5066 12.56 32.5066 12.16C32.5177 11.5536 32.4056 10.9513 32.177 10.3895C31.9484 9.8277 31.6081 9.31819 31.1768 8.89182C30.7454 8.46545 30.232 8.13111 29.6676 7.90906C29.1032 7.68701 28.4995 7.58188 27.8933 7.60003C22.56 7.60003 17.2266 7.60003 11.8933 7.60003C11.2916 7.58565 10.6931 7.69269 10.1336 7.91474C9.57414 8.1368 9.06515 8.46931 8.63705 8.89244C8.20894 9.31557 7.87049 9.82063 7.64191 10.3775C7.41333 10.9343 7.2993 11.5315 7.30664 12.1334V20.1334C7.27571 21.1474 7.59191 22.1415 8.20291 22.9513C8.81392 23.7612 9.6831 24.3381 10.6666 24.5867ZM8.7733 12.1067C8.76229 11.6975 8.83477 11.2903 8.98632 10.91C9.13788 10.5297 9.36533 10.1843 9.6548 9.89486C9.94427 9.60539 10.2897 9.37794 10.67 9.22638C11.0502 9.07483 11.4574 9.00235 11.8666 9.01336H27.8666C28.2734 8.99842 28.6788 9.06752 29.0576 9.21635C29.4365 9.36518 29.7805 9.59053 30.0683 9.87833C30.3561 10.1661 30.5815 10.5102 30.7303 10.889C30.8791 11.2678 30.9482 11.6733 30.9333 12.08C30.9333 14.7467 30.9333 17.4134 30.9333 20.08C30.9445 20.4846 30.8726 20.8871 30.7221 21.2628C30.5717 21.6384 30.3457 21.9792 30.0583 22.2641C29.7709 22.5491 29.4281 22.772 29.0512 22.9192C28.6742 23.0664 28.2711 23.1348 27.8666 23.12H15.6533C15.4593 23.1111 15.2658 23.1447 15.0861 23.2184C14.9065 23.2921 14.7451 23.4041 14.6133 23.5467L12.6133 25.6V24C12.6133 23.44 12.3466 23.2 11.8133 23.1467C11.4152 23.1364 11.0231 23.0473 10.6597 22.8845C10.2963 22.7217 9.96873 22.4886 9.69597 22.1984C9.4232 21.9083 9.21065 21.567 9.07059 21.1942C8.93053 20.8215 8.86574 20.4247 8.87997 20.0267L8.7733 12.1067Z" fill="#B860AC"/>
<path d="M13.3334 16.8534H26.6667C27.0134 16.8534 27.3334 16.8534 27.4934 16.4534C27.6534 16.0534 27.36 15.3867 26.6134 15.3867H13.3334C12.7467 15.3867 12.4 15.6534 12.4 16.1334C12.4 16.6134 12.6667 16.8534 13.3334 16.8534Z" fill="#B860AC"/>
<path d="M12.8533 12.9333C13.0212 12.9593 13.1921 12.9593 13.36 12.9333H26.3733C26.5502 12.9585 26.7298 12.9585 26.9066 12.9333C27.0591 12.8715 27.1857 12.7595 27.2656 12.6157C27.3455 12.472 27.3738 12.3052 27.3457 12.1432C27.3177 11.9812 27.235 11.8336 27.1115 11.7251C26.9879 11.6165 26.8309 11.5536 26.6666 11.5466H12.96C12.7967 11.5527 12.6413 11.6184 12.5233 11.7315C12.4053 11.8446 12.3329 11.9971 12.32 12.16C12.3007 12.246 12.2994 12.3352 12.3162 12.4218C12.333 12.5084 12.3676 12.5906 12.4176 12.6632C12.4677 12.7358 12.5323 12.7973 12.6073 12.8438C12.6822 12.8902 12.766 12.9207 12.8533 12.9333Z" fill="#B860AC"/>
<path d="M13.3333 20.7467H19.7066C20.2666 20.7467 20.5866 20.4534 20.5866 20C20.5866 19.5467 20.2933 19.28 19.68 19.28H13.3333C12.7466 19.28 12.4266 19.5467 12.4266 20C12.4266 20.4534 12.64 20.7467 13.3333 20.7467Z" fill="#B860AC"/>
</svg>
