<svg xmlns="http://www.w3.org/2000/svg" width="65" height="64" viewBox="0 0 65 64" fill="none">
  <path d="M57.0475 31.9146H54.2031C54.143 31.9316 54.0799 31.9351 54.0183 31.925C53.9566 31.9149 53.898 31.8914 53.8464 31.8561C53.7949 31.8208 53.7517 31.7747 53.72 31.7209C53.6882 31.6671 53.6686 31.607 53.6627 31.5449C52.9489 29.1408 51.8228 26.879 50.3347 24.8604C49.0556 23.0981 47.5218 21.5356 45.7835 20.224C45.7116 20.1446 45.6237 20.0812 45.5258 20.0377C45.4278 19.9943 45.3218 19.9719 45.2147 19.9719C45.1075 19.9719 45.0015 19.9943 44.9035 20.0377C44.8056 20.0812 44.7178 20.1446 44.6458 20.224C44.5761 20.3013 44.5229 20.3919 44.4894 20.4904C44.4558 20.5889 44.4426 20.6932 44.4506 20.7969C44.4586 20.9007 44.4876 21.0017 44.5358 21.0939C44.584 21.1861 44.6505 21.2676 44.7311 21.3333H44.9018C48.0612 23.7493 50.4523 27.0296 51.7853 30.7769C52.1267 31.6871 52.1267 31.6871 51.1595 31.6871C50.8182 31.6871 50.6475 31.6871 50.5053 31.2889C49.2061 27.7061 46.8595 24.5968 43.7703 22.3649C40.6811 20.133 36.9922 18.8816 33.1827 18.7733C30.5432 18.6502 27.908 19.0943 25.4547 20.0756C23.0014 21.057 20.7869 22.5527 18.9604 24.4622C16.9065 26.4597 15.3564 28.9164 14.4378 31.6302C14.4378 31.8293 14.4378 32.0569 14.068 32.0284H12.9302C12.9388 31.9053 12.9388 31.7818 12.9302 31.6586C14.601 26.5308 18.2245 22.2674 23.0159 19.7918C27.8074 17.3163 33.3811 16.8277 38.5302 18.432C39.5489 18.7806 40.5462 19.189 41.5169 19.6551C41.671 19.7499 41.8546 19.7849 42.0328 19.7534C42.2111 19.722 42.3716 19.6263 42.484 19.4844C42.5763 19.3613 42.6262 19.2116 42.6262 19.0578C42.6262 18.9039 42.5763 18.7542 42.484 18.6311C42.4182 18.5235 42.3314 18.4302 42.2288 18.3569C42.1261 18.2836 42.0098 18.2318 41.8867 18.2044C39.142 16.8137 36.1275 16.0373 33.0525 15.9292C29.9775 15.8211 26.9159 16.384 24.0804 17.5786C21.0018 18.7703 18.2412 20.6593 16.0154 23.0973C13.7896 25.5353 12.1591 28.456 11.252 31.6302C11.252 31.9431 11.0244 32.0569 10.7115 32.0284H7.83865C7.04221 32.0284 6.64398 32.4266 6.61554 33.2515V36.6933C6.61554 37.5466 7.01376 37.9164 7.86709 37.9164C8.72043 37.9164 9.57376 37.9164 10.4555 37.9164C10.7684 37.9164 10.9107 37.9164 10.8822 38.3715C10.8538 38.8266 10.8822 39.68 10.8822 40.3342C10.8822 40.9884 10.8822 40.7324 10.5124 40.7324C10.2893 40.7407 10.0755 40.8237 9.90524 40.9682C9.735 41.1126 9.61826 41.3101 9.57376 41.5289C9.47959 41.9891 9.4131 42.4545 9.37465 42.9226C9.36689 43.0198 9.37841 43.1176 9.40856 43.2103C9.43872 43.303 9.4869 43.3888 9.55034 43.4628C9.61379 43.5369 9.69124 43.5976 9.77825 43.6416C9.86525 43.6856 9.9601 43.7119 10.0573 43.7191C10.1508 43.731 10.2457 43.7242 10.3366 43.6991C10.4274 43.674 10.5124 43.6311 10.5865 43.5728C10.6606 43.5146 10.7224 43.4422 10.7683 43.3599C10.8141 43.2776 10.8432 43.187 10.8538 43.0933C10.8832 42.9335 10.8832 42.7696 10.8538 42.6098C10.8538 42.2969 10.8538 42.24 11.2804 42.24H15.1773C15.4333 42.24 15.5471 42.24 15.5755 42.5813C15.8315 44.3733 16.0591 46.1653 16.3151 47.9289C16.3151 48.1564 16.3151 48.2133 16.0307 48.2133H10.484C10.228 48.2133 10.1995 48.2133 10.2564 47.9004C10.3133 47.5875 10.2564 47.0471 10.3987 46.592C10.4413 46.4867 10.457 46.3723 10.4443 46.2594C10.4317 46.1465 10.391 46.0385 10.326 45.9453C10.261 45.8521 10.1738 45.7765 10.0722 45.7255C9.97069 45.6746 9.85801 45.6497 9.74443 45.6533C9.64637 45.6278 9.54387 45.6245 9.44437 45.6436C9.34487 45.6627 9.25086 45.7036 9.16916 45.7636C9.08746 45.8235 9.02012 45.9008 8.97203 45.99C8.92393 46.0792 8.89629 46.1779 8.8911 46.2791C8.8911 47.0186 8.66354 47.7298 8.60665 48.4693C8.58974 48.6179 8.6056 48.7685 8.65312 48.9103C8.70064 49.0522 8.77866 49.1819 8.88169 49.2903C8.98472 49.3988 9.11026 49.4834 9.24949 49.5381C9.38871 49.5928 9.53823 49.6164 9.68754 49.6071H16.7987C16.9577 49.6143 17.1163 49.5853 17.2625 49.5224C17.4087 49.4594 17.5388 49.3641 17.6428 49.2436C17.7469 49.1231 17.8222 48.9806 17.8633 48.8268C17.9043 48.673 17.9098 48.5118 17.8795 48.3555L17.7089 47.2178L16.9978 41.6995C16.9978 40.9884 16.5995 40.6755 15.8884 40.6186C15.604 40.6186 15.604 40.6186 15.604 40.2773C15.604 39.6231 15.604 38.9689 15.604 38.2862C15.604 37.6035 15.604 37.8026 16.0875 37.8026C18.932 37.8026 21.7764 37.8026 24.8484 37.8026C25.0188 37.8169 25.1901 37.8169 25.3604 37.8026C25.5365 37.7881 25.7 37.7059 25.8167 37.5733C25.9334 37.4407 25.9942 37.268 25.9862 37.0915C25.9982 37.0055 25.9929 36.918 25.9707 36.834C25.9484 36.75 25.9097 36.6714 25.8568 36.6025C25.8038 36.5337 25.7377 36.4761 25.6622 36.4331C25.5868 36.39 25.5035 36.3625 25.4173 36.352C25.2002 36.3227 24.9802 36.3227 24.7631 36.352H8.63509C8.23687 36.352 8.09465 36.352 8.1231 35.8684C8.16573 35.2813 8.16573 34.6919 8.1231 34.1049C8.1231 33.5929 8.1231 33.4791 8.74887 33.4791H56.5071C56.7915 33.4791 56.8769 33.4791 56.8769 33.8489C56.8769 34.2186 56.8769 35.1289 56.8769 35.7546C56.8769 36.3804 56.8769 36.352 56.308 36.352H29.0867C28.404 36.352 28.0627 36.608 28.0627 37.12C28.0627 37.632 28.3755 37.8595 29.0582 37.8595H48.7418C48.8551 37.8738 48.9698 37.8738 49.0831 37.8595C49.2822 37.8595 49.3675 37.8595 49.3675 38.144V40.448C49.3675 40.5902 49.3675 40.6471 49.1684 40.6755C48.3435 40.8178 48.0875 41.0453 47.9738 41.8418C47.6893 43.9751 47.4333 46.1084 47.1489 48.2133C47.0161 49.1804 47.4428 49.664 48.4289 49.664H55.0564C56.052 49.664 56.4787 49.2373 56.3364 48.2418C56.0804 46.0231 55.7675 43.8329 55.4547 41.6426C55.4473 41.3836 55.3391 41.1376 55.1532 40.957C54.9673 40.7764 54.7183 40.6754 54.4591 40.6755C54.1462 40.6755 54.1178 40.6755 54.1462 40.3058C54.1462 39.6231 54.1462 38.9404 54.1462 38.2578C54.1462 37.5751 54.1462 37.8595 54.5444 37.8595H57.0191C57.2994 37.8957 57.584 37.8439 57.8336 37.7115C58.0833 37.579 58.2857 37.3723 58.4129 37.12V32.7111C58.3073 32.4446 58.1154 32.2213 57.8678 32.0769C57.6203 31.9325 57.3314 31.8754 57.0475 31.9146ZM12.3898 38.1155C12.3898 37.888 12.3898 37.8311 12.7311 37.8026C14.1249 37.8026 14.1249 37.8026 14.1249 39.1964C14.1249 40.5902 14.1249 40.5902 12.7027 40.5049C12.4751 40.5049 12.3898 40.5049 12.3898 40.2204C12.4182 39.5946 12.4182 38.8835 12.3898 38.1155ZM20.9231 31.5164C20.9231 31.7724 20.9231 31.9431 20.6102 31.9146H15.9453C16.9582 29.1564 18.6276 26.6864 20.8093 24.7182L20.9231 31.5164ZM25.9862 31.9146H22.6867C22.4022 31.9146 22.2884 31.9146 22.2884 31.5733C22.2884 28.9849 22.2884 26.4249 22.2884 23.8364C22.2751 23.7454 22.2866 23.6524 22.3216 23.5673C22.3566 23.4822 22.414 23.4081 22.4875 23.3529C23.6572 22.5209 24.9286 21.8422 26.2707 21.3333V31.4595C26.2707 31.8578 26.1853 31.9431 25.8724 31.9146H25.9862ZM31.8742 31.488C31.8742 31.8293 31.8742 31.9431 31.4475 31.9146H28.1764C27.892 31.9146 27.7782 31.9146 27.7782 31.5449V21.3333C27.7782 21.0204 27.7782 20.9351 28.1764 20.8213C29.2162 20.5864 30.2713 20.4248 31.3338 20.3378C31.6751 20.3378 31.7604 20.3378 31.7604 20.736L31.8742 31.488ZM37.3355 31.488C37.3355 31.744 37.3355 31.8009 36.9942 31.8009H33.6093C33.2964 31.8009 33.2395 31.8009 33.2395 31.4311C33.2395 29.6106 33.2395 27.7902 33.2395 25.9413C33.2395 24.0924 33.2395 22.4142 33.2395 20.6506C33.2395 20.224 33.2395 20.1386 33.7515 20.1671C34.8238 20.266 35.8881 20.4371 36.9373 20.6791C37.1649 20.6791 37.2218 20.8498 37.2218 21.0773L37.3355 31.488ZM42.8253 31.488C42.8253 31.8009 42.8253 31.9146 42.4271 31.8862H39.0991C38.7862 31.8862 38.7293 31.8862 38.7293 31.5449V26.6524C38.7293 25.0595 38.7293 23.4382 38.7293 21.8169C38.7293 21.4471 38.7293 21.3902 39.1275 21.5324C40.2767 22.0156 41.3728 22.6162 42.3987 23.3244C42.4956 23.3769 42.5761 23.4551 42.6313 23.5505C42.6866 23.6459 42.7143 23.7547 42.7115 23.8649L42.8253 31.488ZM44.5604 31.8862C44.3613 31.8862 44.3044 31.8862 44.3044 31.6302V24.7182C46.4923 26.6811 48.1628 29.1527 49.1684 31.9146L44.5604 31.8862ZM50.9889 38.0871C50.9889 37.8595 50.9889 37.7742 51.2733 37.7742C52.6671 37.7742 52.6671 37.7742 52.6671 39.1964C52.6671 40.6186 52.6671 40.6186 51.2164 40.5333C51.0173 40.5333 50.932 40.5333 50.932 40.2489C50.913 39.5662 50.8941 38.8551 50.8751 38.1155L50.9889 38.0871ZM54.9427 48.0711H49.2538C48.9693 48.0711 48.884 48.0711 48.9124 47.7013C49.1684 46.0231 49.3675 44.288 49.5951 42.5813C49.5951 42.24 49.7658 42.0693 50.164 42.0978H53.8618C54.1462 42.0978 54.2315 42.0978 54.26 42.4675C54.2884 44.3733 54.5444 46.1938 54.8289 48.0995L54.9427 48.0711Z" fill="#B860AC"/>
</svg>