<svg xmlns="http://www.w3.org/2000/svg" width="109" height="48" viewBox="0 0 109 48" fill="none">
  <g clip-path="url(#clip0_385_3630)">
    <path d="M46.8284 15.7891H40.9224V19.3398H38.8235V23.6862H40.9224V30.6405C40.9224 34.4565 42.7753 35.9003 46.9008 35.9003C48.1601 35.9003 48.9852 35.7972 49.6222 35.6793V31.4803C49.3037 31.5245 49.0576 31.554 48.6089 31.554C47.3929 31.554 46.8139 31.0235 46.8139 29.7123V23.6862H49.6077V19.3398H46.8139V15.7891H46.8284Z" fill="white"/>
    <path d="M57.5972 22.2571H57.4814V19.3546H51.5754V35.5615H57.4814V27.3696C57.4814 25.1154 58.625 23.9662 60.8397 23.9662C61.4477 23.9662 62.0557 24.084 62.5623 24.3051V19.2367C62.1136 19.0746 61.6359 19.001 61.1292 19.001C59.2329 19.001 58.0025 20.1355 57.5972 22.2571Z" fill="white"/>
    <path d="M74.5774 28.4453C74.5774 29.9628 73.7234 31.0531 72.3337 31.0531C70.8428 31.0531 70.1045 30.0512 70.1045 28.4305V19.3399H64.1985V29.7418C64.1985 33.6315 66.1527 35.8857 69.6703 35.8857C72.0732 35.8857 73.7089 34.707 74.4906 32.5264H74.6064V35.5321H80.5124V19.3252H74.6064V28.4453H74.5774Z" fill="white"/>
    <path d="M92.6138 25.7638L89.7332 25.2186C88.2857 24.9387 87.8803 24.6145 87.8803 24.0399V24.0252C87.8803 23.3327 88.5896 22.9202 89.6753 22.9202C90.9491 22.9202 91.644 23.6421 91.7308 24.4083L91.7453 24.5409H97.1157V24.4377C97.1157 21.491 94.6114 18.9863 89.6753 18.9863C85.0432 18.9863 82.2349 20.9901 82.2349 24.3641V24.3788C82.2349 26.8835 83.9141 28.6073 87.0697 29.1967L89.9503 29.7418C91.2676 29.9923 91.7453 30.3312 91.7453 30.9205V30.9352C91.7453 31.5835 91.036 31.9813 89.8924 31.9813C88.5607 31.9813 87.8514 31.4214 87.6198 30.4785L87.5908 30.3606H81.8875L81.902 30.4932C82.2639 33.7199 84.8839 35.9152 89.9069 35.9152C94.5246 35.9152 97.6078 33.7493 97.6078 30.2575V30.2428C97.5789 27.7675 96.0445 26.412 92.6138 25.7638Z" fill="white"/>
    <path d="M108.971 23.6862V19.3398H106.177V15.7891H100.271V19.3398H98.1434V23.6862H100.242V30.6405C100.242 34.4565 102.095 35.9003 106.221 35.9003C107.48 35.9003 108.305 35.7972 108.942 35.6793V31.4803C108.624 31.5245 108.378 31.554 107.929 31.554C106.713 31.554 106.134 31.0235 106.134 29.7123V23.6862H108.971Z" fill="white"/>
    <path d="M31.904 24.5555C30.5143 23.7304 28.8641 23.2295 26.9678 23.0527V22.9201C28.4878 22.6696 29.805 22.1539 30.9486 21.3731C32.0921 20.5922 32.9751 19.605 33.6265 18.4263C34.2635 17.2477 34.5964 15.9069 34.5964 14.4188V14.3599C34.5964 12.4151 34.1042 10.7207 33.1199 9.30629C32.1356 7.87713 30.7459 6.78685 28.9365 6.02071C27.1271 5.25456 24.9702 4.87149 22.466 4.87149H19.238V0.407227H11.7107V4.87149H0.0290527V43.1787H11.7107V47.4072H19.238V43.1787H22.7555C25.5492 43.1787 27.9666 42.7514 30.0077 41.8821C32.0487 41.0129 33.6121 39.7753 34.7122 38.1546C35.8123 36.5339 36.3624 34.6038 36.3624 32.3495V32.2906C36.3624 30.611 35.9716 29.1082 35.1754 27.7821C34.3937 26.4561 33.2936 25.3806 31.904 24.5555ZM19.8894 11.6047C21.5685 11.6047 22.9002 11.9878 23.8556 12.7392C24.811 13.5053 25.2887 14.5809 25.2887 15.9806V16.0395C25.2887 17.5129 24.7531 18.6474 23.6674 19.4577C22.5963 20.268 21.0474 20.6658 19.0208 20.6658H9.4236V11.6047H19.8894ZM26.7362 31.5687C26.7362 33.1452 26.1862 34.3533 25.086 35.1784C23.9859 36.0035 22.4226 36.4307 20.396 36.4307H9.40913V26.6919H20.0486C21.4961 26.6919 22.7121 26.8687 23.6964 27.237C24.6807 27.6053 25.4334 28.1505 25.9546 28.8724C26.4612 29.5944 26.7218 30.4784 26.7218 31.5245V31.5687H26.7362Z" fill="white"/>
  </g>
  <defs>
    <clipPath id="clip0_385_3630">
      <rect width="109" height="47" fill="white" transform="translate(0 0.407227)"/>
    </clipPath>
  </defs>
</svg>