<svg width="65" height="64" viewBox="0 0 65 64" fill="none" xmlns="http://www.w3.org/2000/svg">
<path d="M57.0534 9.43998C56.6646 8.67856 56.0835 8.03195 55.3679 7.56421C54.6523 7.09646 53.8268 6.82383 52.9734 6.77332H51.1867C50.2731 6.81265 49.3722 7.00184 48.52 7.33332C48.3829 7.38687 48.2305 7.38687 48.0934 7.33332C47.243 6.99553 46.3411 6.80612 45.4267 6.77332H43.6667C42.6179 6.90751 41.6141 7.28164 40.7334 7.86665C38.596 9.32709 36.7131 11.1289 35.16 13.2C34.8606 13.5943 34.6512 14.0494 34.5467 14.5333L32.3334 23.2C32.2419 23.5276 32.2181 23.8704 32.2634 24.2075C32.3086 24.5446 32.422 24.869 32.5967 25.1608C32.7713 25.4527 33.0035 25.706 33.2792 25.9053C33.5548 26.1046 33.8681 26.2457 34.2 26.32C34.5211 26.4182 34.8631 26.4253 35.188 26.3405C35.5129 26.2558 35.8078 26.0825 36.04 25.84L37.5867 24.32C37.7792 24.1306 37.927 23.9007 38.0192 23.647C38.1115 23.3932 38.1459 23.1221 38.12 22.8533C38.0688 22.4224 37.9132 22.0105 37.6667 21.6533C37.5891 21.5245 37.5481 21.377 37.5481 21.2266C37.5481 21.0763 37.5891 20.9288 37.6667 20.8C38.28 19.52 38.8667 18.1333 39.4534 16.9333C39.4534 16.64 39.6934 16.56 40.0134 16.72C42.974 18.2077 45.4384 20.5239 47.1067 23.3866C47.3194 23.6968 47.4814 24.0389 47.5867 24.4H47.0534C46.7463 24.5498 46.3978 24.5918 46.064 24.5192C45.7301 24.4466 45.4305 24.2637 45.2134 24C45.0317 23.7622 44.7976 23.5696 44.5294 23.437C44.2611 23.3044 43.9659 23.2354 43.6667 23.2354C43.3675 23.2354 43.0723 23.3044 42.804 23.437C42.5358 23.5696 42.3017 23.7622 42.12 24L40.92 25.2C40.5207 25.5012 40.2366 25.9302 40.1153 26.4155C39.994 26.9007 40.0427 27.4129 40.2534 27.8666C40.4394 28.3091 40.7628 28.6802 41.1756 28.925C41.5885 29.1699 42.0692 29.2756 42.5467 29.2266H48.68C49.0534 29.2266 49.16 29.2266 49.2134 29.68C49.3734 31.1601 49.3734 32.6532 49.2134 34.1333C49.2134 34.5066 49 34.5866 48.6534 34.5866H42.5467C42.1732 34.5716 41.8007 34.6351 41.4534 34.7733C41.2134 34.9066 41.08 34.7733 40.92 34.7733L38.6534 32.5333C38.5094 32.3402 38.3223 32.1834 38.107 32.0754C37.8918 31.9673 37.6542 31.9111 37.4134 31.9111C37.1725 31.9111 36.935 31.9673 36.7197 32.0754C36.5044 32.1834 36.3173 32.3402 36.1734 32.5333L32.84 35.8666C32.6473 36.0049 32.4903 36.1871 32.382 36.3981C32.2737 36.6091 32.2173 36.8428 32.2173 37.08C32.2173 37.3171 32.2737 37.5509 32.382 37.7619C32.4903 37.9729 32.6473 38.1551 32.84 38.2933L35.1334 40.56C35.2934 40.72 35.4 40.8266 35.1334 41.0666C34.9711 41.3882 34.8975 41.7472 34.92 42.1066V51.84C34.9083 52.1933 34.9766 52.5447 35.1197 52.8679C35.2629 53.1911 35.4772 53.4779 35.7467 53.7066C36.9353 54.7194 38.2763 55.5383 39.72 56.1333C41.1095 56.8179 42.6377 57.1739 44.1867 57.1739C45.7357 57.1739 47.2639 56.8179 48.6534 56.1333C48.9467 55.9733 49.08 56.1333 49.2667 56.1333C50.0108 56.5794 50.8524 56.8372 51.7187 56.8844C52.5849 56.9316 53.4496 56.7668 54.2377 56.4042C55.0259 56.0417 55.7137 55.4924 56.2415 54.8039C56.7693 54.1154 57.1212 53.3086 57.2667 52.4533V51.28C57.2187 50.3982 56.923 49.5479 56.4134 48.8266C56.3548 48.745 56.3232 48.6471 56.3232 48.5466C56.3232 48.4462 56.3548 48.3482 56.4134 48.2666C56.9248 47.2422 57.2328 46.1283 57.32 44.9866V44.5866C57.2407 44.3623 57.2407 44.1176 57.32 43.8933V43.4133C57.32 42.88 57.32 42.2933 57.1067 41.76C56.6066 39.65 55.7009 37.6574 54.44 35.8933C54.1203 35.3898 53.6663 34.9857 53.1291 34.7266C52.592 34.4674 51.9931 34.3635 51.4 34.4266H51.2667C50.8934 34.4266 50.7867 34.2933 50.84 33.9466C50.9299 33.3013 50.9833 32.6514 51 32C51.0528 31.3166 51.0528 30.6301 51 29.9466C51 29.6 51 29.4666 51.4267 29.4933H52.4667C52.7882 29.484 53.1047 29.4108 53.3977 29.278C53.6907 29.1453 53.9543 28.9556 54.1734 28.72C54.6348 28.2129 55.054 27.6688 55.4267 27.0933C55.5177 26.9207 55.5979 26.7426 55.6667 26.56C55.7235 26.3949 55.7228 26.2155 55.6647 26.0509C55.6066 25.8863 55.4945 25.7461 55.3467 25.6533C55.2051 25.557 55.0379 25.5055 54.8667 25.5055C54.6955 25.5055 54.5282 25.557 54.3867 25.6533C54.2167 25.7862 54.0721 25.9489 53.96 26.1333C53.6904 26.5417 53.3966 26.9335 53.08 27.3066C52.9466 27.4561 52.7818 27.5743 52.5974 27.6526C52.413 27.731 52.2136 27.7677 52.0134 27.76H50.76C49.3467 27.76 49.5334 27.9466 49.5334 26.5333C49.5334 25.7866 49.5334 25.7333 50.2534 25.6533C50.5958 25.6345 50.9218 25.5004 51.1784 25.2729C51.435 25.0453 51.6071 24.7377 51.6667 24.4C51.7673 23.228 52.2995 22.1352 53.16 21.3333C53.2366 21.2655 53.2998 21.1842 53.3467 21.0933C54.2444 20.1515 55.0482 19.1244 55.7467 18.0266C55.9034 18.6088 55.9752 19.2106 55.96 19.8133C55.8805 20.8329 55.6653 21.8373 55.32 22.8C55.2925 22.9767 55.2925 23.1566 55.32 23.3333C55.3011 23.5359 55.3552 23.7386 55.4725 23.9049C55.5899 24.0711 55.7628 24.19 55.96 24.24C56.1064 24.2829 56.2619 24.2832 56.4084 24.2406C56.5549 24.1981 56.6861 24.1146 56.7867 24C56.9161 23.7338 57.0232 23.4573 57.1067 23.1733C57.3586 22.3762 57.5196 21.5532 57.5867 20.72V19.92V18.8533C57.5856 18.0494 57.4317 17.2531 57.1334 16.5066C57.0409 16.2663 57.0409 16.0003 57.1334 15.76C57.4553 14.9037 57.6529 14.0057 57.72 13.0933V12.3466C57.6398 12.086 57.6398 11.8073 57.72 11.5466V11.36C57.6229 10.6832 57.3966 10.0313 57.0534 9.43998ZM36.0134 21.7866C36.8934 23.3066 36.7067 22.96 35.72 24.0266C35.5049 24.2016 35.3083 24.3982 35.1334 24.6133C34.8667 24.9066 34.6 25.0133 34.28 24.8C33.96 24.5866 33.5067 24.2933 33.64 23.8133C34.0134 22.32 34.4134 20.8266 34.7867 19.3333C34.7867 19.12 34.9467 19.12 35.16 19.1733C35.3734 19.2266 36.0667 19.44 36.5734 19.5733L35.9867 20.8266C35.9065 20.9749 35.8667 21.1417 35.8714 21.3102C35.876 21.4787 35.925 21.6431 36.0134 21.7866ZM38.5467 15.4666C38.1878 15.9526 37.9087 16.4927 37.72 17.0666C37.1867 18.2133 37.2134 18.2133 36.0134 17.8666C35.2667 17.68 35.2667 17.68 35.4534 16.9066C35.4655 16.8003 35.4655 16.693 35.4534 16.5866C35.7108 14.8574 36.5931 13.2825 37.9334 12.16C38.9926 11.0817 40.1536 10.1083 41.4 9.25332C42.1302 8.74763 42.966 8.41513 43.844 8.28113C44.722 8.14712 45.619 8.21513 46.4667 8.47998C45.5303 9.08077 44.639 9.74922 43.8 10.48C42.0134 12.08 40.3334 13.7866 38.5467 15.4666ZM47.32 21.0933C46.2151 19.584 44.8943 18.2453 43.4 17.12C43.24 17.12 43.1867 16.9333 43.4 16.7733C44.0934 16.1333 44.76 15.4666 45.4267 14.8C45.6934 14.5333 45.8 14.6133 45.9334 14.8C46.1827 15.3034 46.2667 15.8727 46.1734 16.4266C45.96 17.6533 46.6267 18.24 47.8534 18.0533C48.6267 17.92 48.6267 17.92 49.8 18.4533C49 19.52 48.12 20.2666 47.32 21.0933ZM47.1334 14.2666L49.5067 14.6133C49.6667 14.6133 49.6667 14.6133 49.6934 14.8533C49.6934 15.5733 49.88 16.2933 49.9867 17.0666C49.8458 17.0345 49.7109 16.9805 49.5867 16.9066C49.3574 16.7131 49.0782 16.588 48.7811 16.5456C48.4841 16.5031 48.1811 16.5451 47.9067 16.6666C47.9067 16.6666 47.5067 16.6666 47.6134 16.6666C47.7619 16.2612 47.7957 15.8226 47.711 15.3991C47.6263 14.9757 47.4265 14.5838 47.1334 14.2666ZM47.7467 27.3333C47.7467 27.68 47.7467 27.7866 47.32 27.76H42.4667C42.2982 27.7861 42.1258 27.7558 41.9763 27.6739C41.8268 27.5919 41.7086 27.4628 41.64 27.3066C41.5704 27.1508 41.5562 26.9759 41.5999 26.8109C41.6436 26.646 41.7424 26.5009 41.88 26.4C42.3334 25.9466 42.7867 25.52 43.2134 25.0666C43.2681 24.9948 43.3387 24.9366 43.4196 24.8965C43.5006 24.8564 43.5897 24.8355 43.68 24.8355C43.7704 24.8355 43.8595 24.8564 43.9404 24.8965C44.0214 24.9366 44.092 24.9948 44.1467 25.0666C44.4195 25.3043 44.6535 25.5833 44.84 25.8933C44.9261 26.0635 45.0702 26.1973 45.2462 26.2706C45.4222 26.3439 45.6186 26.352 45.8 26.2933L47.2667 26C47.5867 26 47.8 26 47.7467 26.3466C47.7227 26.6751 47.7227 27.0049 47.7467 27.3333ZM45.8 39.44C45.9334 39.1466 46.12 39.12 46.4134 39.1733L47.5867 39.44C46.5042 41.7144 44.939 43.7255 43 45.3333C42.1546 45.9675 41.2633 46.5379 40.3334 47.04C40.04 47.1733 39.96 47.04 39.9334 46.8266C39.9067 46.6133 39.9334 46.6133 39.9334 46.5066C39.7467 45.9733 39.7467 45.5733 40.36 45.28C40.5237 45.1879 40.6655 45.0616 40.776 44.9098C40.8864 44.7579 40.9628 44.584 41 44.4C41.125 43.9932 41.366 43.6318 41.6934 43.36L43.5067 41.5733C43.931 41.05 44.4691 40.6305 45.08 40.3466C45.2544 40.2511 45.4078 40.1216 45.5315 39.9659C45.6551 39.8102 45.7464 39.6314 45.8 39.44ZM46.2267 48C46.2267 48.24 45.9867 48.5333 45.88 48.8C45.7753 49.0883 45.6863 49.382 45.6134 49.68C45.255 49.1092 45.0326 48.4636 44.9632 47.7932C44.8938 47.1228 44.9794 46.4454 45.2134 45.8133C46.2534 46.2666 46.0667 47.2533 46.2267 48ZM41.64 36.4533C41.6914 36.3132 41.7866 36.1934 41.9116 36.1117C42.0365 36.03 42.1844 35.9909 42.3334 36H43.4C43.8534 36 44.44 35.8133 44.68 36C44.92 36.1866 44.68 36.8533 44.68 37.3066C44.7518 37.7431 44.6566 38.1906 44.4134 38.56C44.3595 38.6672 44.2797 38.7592 44.1813 38.8277C44.0828 38.8962 43.9688 38.939 43.8495 38.9523C43.7303 38.9655 43.6097 38.9488 43.4986 38.9035C43.3875 38.8583 43.2894 38.7861 43.2134 38.6933C42.6804 38.2137 42.173 37.7063 41.6934 37.1733C41.6209 37.0793 41.5773 36.9662 41.5678 36.8479C41.5584 36.7296 41.5834 36.611 41.64 36.5066V36.4533ZM33.96 37.12C33.7467 36.9333 33.7467 36.8266 33.96 36.6133L37.16 33.44C37.3467 33.2266 37.4534 33.2 37.64 33.44L39.9867 35.76C40.0648 35.8278 40.1215 35.9168 40.1499 36.0162C40.1783 36.1156 40.1772 36.2212 40.1467 36.32C40.0616 36.6693 40.0684 37.0346 40.1665 37.3805C40.2647 37.7263 40.4508 38.0408 40.7067 38.2933C41.24 38.8622 41.7734 39.3955 42.3067 39.8933C42.4934 40.08 42.5734 40.16 42.3067 40.3733C42.04 40.5866 41.16 41.4933 40.6534 42.0266L38.84 40.2933C38.5868 40.012 38.2625 39.8042 37.9012 39.6915C37.5399 39.5789 37.1549 39.5657 36.7867 39.6533C36.6893 39.6787 36.5866 39.6745 36.4916 39.6412C36.3966 39.608 36.3137 39.5472 36.2534 39.4666C35.5334 38.6933 34.7334 37.92 33.96 37.1733V37.12ZM38.76 44.24C38.0934 44.24 37.4 44.24 36.7334 44.24C36.4934 44.24 36.5467 44.08 36.5467 43.9466V41.7333C36.5473 41.5946 36.588 41.459 36.6639 41.3429C36.7397 41.2268 36.8475 41.135 36.9743 41.0787C37.101 41.0224 37.2414 41.0038 37.3784 41.0253C37.5154 41.0469 37.6433 41.1075 37.7467 41.2C38.28 41.7066 38.84 42.24 39.3467 42.8C39.4782 42.9159 39.5709 43.0694 39.6121 43.2398C39.6532 43.4102 39.6409 43.5891 39.5769 43.7523C39.5128 43.9155 39.4 44.0549 39.2538 44.1517C39.1077 44.2485 38.9353 44.298 38.76 44.2933V44.24ZM47.4534 54.9066C45.9858 55.4853 44.3775 55.6061 42.84 55.2533C40.7596 54.8103 38.8078 53.8983 37.1334 52.5866C36.933 52.4409 36.772 52.2476 36.6649 52.0242C36.5578 51.8007 36.508 51.5541 36.52 51.3066C36.52 49.5733 36.52 47.8666 36.52 46.1333C36.52 45.84 36.52 45.68 36.9467 45.68C38.12 45.68 38.12 45.68 38.36 46.8266C38.6 47.9733 38.7867 48.9066 38.9734 49.9733C39.0045 50.1402 39.0805 50.2954 39.1933 50.4223C39.3061 50.5491 39.4513 50.6428 39.6134 50.6933L41.9067 51.4133C42.0007 51.4563 42.1026 51.4793 42.2059 51.4809C42.3093 51.4825 42.4118 51.4626 42.507 51.4225C42.6023 51.3824 42.6882 51.3229 42.7593 51.2479C42.8304 51.1729 42.8851 51.0839 42.92 50.9867C42.9485 50.8886 42.9572 50.7859 42.9458 50.6844C42.9344 50.583 42.9029 50.4848 42.8534 50.3955C42.8038 50.3063 42.737 50.2277 42.6569 50.1644C42.5768 50.1011 42.485 50.0543 42.3867 50.0266L40.68 49.4666C40.2 49.4666 40.3334 48.9866 40.2267 48.6933C40.12 48.4 40.4134 48.4266 40.5467 48.3466C41.5953 47.8238 42.5948 47.208 43.5334 46.5066C43.4067 47.4563 43.4813 48.4219 43.7524 49.3408C44.0235 50.2596 44.4849 51.1112 45.1067 51.84C45.48 52.32 45.88 52.7467 46.28 53.1733C46.6793 53.6348 47.1068 54.0712 47.56 54.48C47.8534 54.72 47.9067 54.8533 47.4534 55.04V54.9066ZM46.28 44.5866C46.9543 44.3357 47.6767 44.2414 48.3928 44.3107C49.1088 44.38 49.7998 44.6111 50.4134 44.9866C49.8132 45.0756 49.2347 45.2745 48.7067 45.5733C48.4134 45.7333 48.1467 45.5733 47.8534 45.5733C47.1067 45.7066 46.7067 45.3333 46.28 44.72V44.5866ZM55.7467 53.3333C55.5018 53.892 55.1237 54.3822 54.6456 54.7609C54.1674 55.1397 53.6037 55.3955 53.0038 55.5061C52.4039 55.6166 51.786 55.5784 51.2043 55.3949C50.6225 55.2113 50.0946 54.8881 49.6667 54.4533L47.9867 52.7733C47.482 52.3085 47.1493 51.6867 47.0428 51.0089C46.9362 50.3311 47.0622 49.6372 47.4 49.04C47.5677 48.8029 47.6768 48.5295 47.7185 48.2421C47.7602 47.9548 47.7333 47.6616 47.64 47.3866C47.64 47.12 47.64 47.0133 47.8534 47.12C48.52 47.44 49.0534 47.12 49.6667 46.8533C50.2501 46.5429 50.9199 46.4347 51.5714 46.5457C52.2228 46.6567 52.819 46.9805 53.2667 47.4666C53.88 48.08 54.52 48.6666 55.08 49.3066C55.589 49.8295 55.9257 50.4956 56.0448 51.2154C56.164 51.9353 56.06 52.6743 55.7467 53.3333ZM52.0134 36.0266C52.1968 36.0062 52.3825 36.0349 52.5512 36.1099C52.7199 36.1848 52.8656 36.3034 52.9734 36.4533C54.7625 38.5455 55.8451 41.1494 56.0667 43.8933C56.1013 45.1123 55.8357 46.3211 55.2934 47.4133C54.3128 46.3825 53.2709 45.4119 52.1734 44.5066C51.4909 43.9074 50.6879 43.4617 49.8184 43.1995C48.9489 42.9372 48.0333 42.8647 47.1334 42.9866C47.48 42.4533 47.8267 41.9733 48.12 41.4933C48.4134 41.0133 48.6534 40.5333 48.8934 40.0533C49.1334 39.5733 49.0534 39.6533 49.3467 39.7333C49.64 39.8133 49.9334 39.7333 50.04 40.16C50.1467 40.5866 50.3867 41.28 50.5734 41.84C50.76 42.4 51.1067 42.56 51.5334 42.4C51.96 42.24 52.12 41.8666 51.96 41.36L51.24 39.12C51.1869 38.9474 51.0861 38.7932 50.9493 38.6753C50.8125 38.5574 50.6453 38.4804 50.4667 38.4533L46.5734 37.7066C46.3067 37.7066 46.28 37.5466 46.2534 37.3333C46.2534 36.0266 46.2534 36.0266 47.5334 36.0266H52.0134ZM54.0134 17.7866C53.2213 18.9139 52.3287 19.967 51.3467 20.9333C50.8565 21.386 50.5051 21.9686 50.3334 22.6133C50.3334 22.9333 50.0934 23.2266 50.04 23.5466C49.9867 23.8666 49.5867 23.9466 49.2934 24.0266C49 24.1066 48.9734 23.8133 48.8667 23.6533L48.6267 23.1733C48.1734 22.32 48.1734 22.32 48.84 21.6533C49.1755 21.2866 49.5316 20.9394 49.9067 20.6133C50.5647 20.0635 51.0522 19.3375 51.312 18.5203C51.5718 17.7031 51.5931 16.8288 51.3734 16C51.2173 15.2809 51.1281 14.5489 51.1067 13.8133C51.0643 13.6811 50.9832 13.5646 50.8738 13.4791C50.7644 13.3935 50.6319 13.3427 50.4934 13.3333L47.08 12.96C46.5117 12.9181 45.9412 13.0042 45.4105 13.2119C44.8798 13.4195 44.4024 13.7435 44.0134 14.16L42.2267 15.9733C42.1867 16.0233 42.136 16.0637 42.0783 16.0915C42.0206 16.1192 41.9574 16.1336 41.8934 16.1336C41.8293 16.1336 41.7661 16.1192 41.7084 16.0915C41.6507 16.0637 41.6 16.0233 41.56 15.9733L40.7067 15.4933C42.641 13.4506 44.7464 11.5771 47 9.89332C48.5752 8.82372 50.4295 8.23961 52.3334 8.21332C52.8434 8.21611 53.3475 8.32263 53.815 8.52639C54.2825 8.73016 54.7037 9.0269 55.0529 9.39858C55.4022 9.77026 55.6721 10.2091 55.8464 10.6884C56.0207 11.1677 56.0956 11.6775 56.0667 12.1866C55.9682 14.2269 55.2521 16.1891 54.0134 17.8133V17.7866Z" fill="#B860AC"/>
<path d="M7.29337 20C7.57562 23.1462 8.87708 26.1143 11 28.4534C11.2056 28.7052 11.4666 28.9061 11.7627 29.0402C12.0587 29.1744 12.3819 29.2382 12.7067 29.2267H14.04C14.28 29.2267 14.3334 29.2267 14.3067 29.5467C14.1558 30.6331 14.1111 31.7316 14.1734 32.8267C14.1734 33.44 14.4667 33.7867 14.9467 33.76C15.4267 33.7334 15.6667 33.4134 15.64 32.7734C15.5613 31.7171 15.5613 30.6563 15.64 29.6C15.64 29.3334 15.64 29.2 16.0667 29.2267C16.5904 29.2667 17.1164 29.2667 17.64 29.2267C17.9591 29.1678 18.2878 29.1908 18.5956 29.2934C18.9034 29.3959 19.1801 29.5749 19.4 29.8134C19.5296 29.941 19.6838 30.0409 19.8534 30.1067C20.3257 30.4408 20.8774 30.6451 21.4534 30.6992C22.0294 30.7534 22.6095 30.6555 23.1358 30.4152C23.6621 30.175 24.1162 29.8009 24.4527 29.3303C24.7892 28.8597 24.9963 28.3091 25.0534 27.7334C25.0586 27.6516 25.0802 27.5717 25.1169 27.4984C25.1535 27.4252 25.2045 27.36 25.2667 27.3067L27.9334 24.64C28.0577 24.5376 28.2035 24.4647 28.36 24.4267C28.9513 24.3713 29.5164 24.1564 29.995 23.8049C30.4737 23.4535 30.848 22.9787 31.0779 22.4312C31.3079 21.8836 31.3849 21.284 31.3007 20.6962C31.2166 20.1083 30.9744 19.5544 30.6 19.0934C30.0203 18.333 29.7618 17.3756 29.88 16.4267C29.9067 16.0984 29.9067 15.7684 29.88 15.44C29.88 15.12 29.88 15.0134 30.28 14.9867C31.0267 14.9867 31.8 14.9867 32.5467 14.8267C32.6493 14.8304 32.7515 14.813 32.847 14.7754C32.9425 14.7379 33.0293 14.6811 33.1018 14.6085C33.1744 14.5359 33.2312 14.4492 33.2688 14.3537C33.3063 14.2582 33.3238 14.1559 33.32 14.0534C33.3135 13.9563 33.2873 13.8615 33.243 13.7748C33.1988 13.6881 33.1374 13.6113 33.0626 13.5489C32.9878 13.4866 32.9012 13.4401 32.808 13.4122C32.7147 13.3844 32.6168 13.3757 32.52 13.3867C32.0667 13.3867 31.6134 13.3867 31.1867 13.3867C30.76 13.3867 30.2 13.68 29.9867 13.3867C29.7734 13.0934 29.9867 12.56 29.9867 12.1067C30.0101 11.704 29.9349 11.3016 29.7676 10.9345C29.6003 10.5674 29.346 10.2466 29.0267 10C27.227 8.58761 25.1297 7.60279 22.8934 7.12004C22.3067 6.96004 21.6934 6.85337 21.1067 6.7467H19C18.44 6.7467 18.1467 7.09337 18.1734 7.57337C18.1922 7.78372 18.2861 7.98028 18.4379 8.12715C18.5897 8.27402 18.7892 8.36142 19 8.37337H19.4C20.9596 8.205 22.5356 8.46307 23.96 9.12004C24.2371 9.26007 24.4603 9.48741 24.5952 9.76695C24.7302 10.0465 24.7694 10.3627 24.7067 10.6667C24.6637 11.0541 24.5362 11.4273 24.3334 11.76C24.214 11.9806 24.017 12.1491 23.7805 12.2328C23.5441 12.3166 23.285 12.3096 23.0534 12.2134C22.9399 12.1665 22.818 12.1432 22.6953 12.1448C22.5725 12.1464 22.4513 12.173 22.3391 12.2229C22.2269 12.2727 22.126 12.3449 22.0425 12.4349C21.959 12.525 21.8946 12.631 21.8534 12.7467C21.72 13.2 21.8534 13.6 22.52 13.8134L23.88 14.2934C24.1734 14.2934 24.4134 14.5067 24.44 14.88C24.4667 15.2534 24.2 15.28 23.96 15.4134C22.3871 16.2473 20.9265 17.2778 19.6134 18.48C18.1243 19.9379 16.8734 21.6206 15.9067 23.4667C15.9067 23.68 15.6934 23.8934 15.4 23.84C15.269 23.8351 15.1439 23.7844 15.0464 23.6967C14.9489 23.609 14.8853 23.4898 14.8667 23.36C14.7259 22.8532 14.5567 22.3546 14.36 21.8667C14.2815 21.6541 14.124 21.4801 13.9204 21.3807C13.7167 21.2814 13.4826 21.2644 13.2667 21.3334C13.1543 21.3749 13.0512 21.4383 12.9634 21.5199C12.8756 21.6015 12.8048 21.6997 12.7552 21.8088C12.7057 21.9179 12.6782 22.0357 12.6744 22.1555C12.6707 22.2753 12.6907 22.3947 12.7334 22.5067C12.8271 22.7651 12.8271 23.0483 12.7334 23.3067C12.5477 23.5914 12.2887 23.8209 11.9837 23.9711C11.6787 24.1212 11.339 24.1865 11 24.16C10.715 24.1833 10.4303 24.1124 10.1894 23.9583C9.9486 23.8041 9.76497 23.5752 9.66671 23.3067C9.53226 23.0058 9.42516 22.6935 9.34671 22.3734C8.74648 20.692 8.74648 18.8547 9.34671 17.1734C9.58671 16.5867 9.56004 16.56 10.0134 17.0134L10.68 17.68C11.2588 18.2486 11.986 18.6426 12.7783 18.8171C13.5706 18.9916 14.396 18.9395 15.16 18.6667C15.7298 18.4675 16.3503 18.4675 16.92 18.6667C17.052 18.6933 17.188 18.6933 17.32 18.6667C17.618 18.6266 17.9034 18.5216 18.1563 18.3591C18.4092 18.1966 18.6234 17.9805 18.7836 17.7262C18.9438 17.4719 19.0463 17.1854 19.0837 16.8872C19.1211 16.5889 19.0925 16.2861 19 16C18.9499 15.6477 18.996 15.2883 19.1334 14.96C19.4316 14.2595 19.5369 13.492 19.4384 12.7371C19.3399 11.9821 19.0413 11.2673 18.5734 10.6667C17.7706 9.6957 16.8777 8.80283 15.9067 8.00004C15.1899 7.30172 14.24 6.89329 13.24 6.85337H11.64C11.64 6.9867 11.4534 6.85337 11.3467 6.85337C10.5286 7.07665 9.77554 7.49181 9.15 8.06438C8.52445 8.63695 8.04446 9.35043 7.74984 10.1456C7.45522 10.9408 7.35448 11.7948 7.45596 12.6368C7.55745 13.4787 7.85824 14.2843 8.33337 14.9867C8.49337 15.2 8.33337 15.3334 8.33337 15.5467C7.61849 16.9204 7.26084 18.4518 7.29337 20ZM27.16 23.3334L23.88 26.6667C23.684 26.8907 23.4117 27.0339 23.116 27.0684C22.8203 27.1029 22.5224 27.0263 22.28 26.8534C22.0134 26.6934 21.96 26.5067 22.28 26.2667L26.7067 21.68C26.9734 21.3867 27.16 21.4934 27.32 21.68C27.4623 21.8729 27.5372 22.1071 27.5334 22.3467C27.5431 22.5281 27.515 22.7095 27.4507 22.8794C27.3864 23.0493 27.2874 23.2039 27.16 23.3334ZM25.6667 12.6667C26.1221 11.9604 26.3544 11.1335 26.3334 10.2934C26.9876 10.6639 27.5887 11.1214 28.12 11.6534C28.3067 11.84 28.28 12.08 28.28 12.3467C28.28 14.32 28.28 16.2934 28.28 18.2667C28.2681 18.4546 28.2977 18.6429 28.3669 18.818C28.436 18.9932 28.5429 19.151 28.68 19.28C29.2107 19.7585 29.575 20.3937 29.72 21.0934C29.788 21.4096 29.7551 21.7392 29.6259 22.0358C29.4968 22.3324 29.2779 22.581 29 22.7467C29.027 22.3961 28.9843 22.0435 28.8745 21.7094C28.7647 21.3753 28.5898 21.0663 28.36 20.8C28.236 20.6136 28.0701 20.4587 27.8757 20.3476C27.6813 20.2365 27.4636 20.1723 27.24 20.16C26.8934 20.16 26.84 19.9467 26.8134 19.6534L25.8534 13.8134C25.8534 13.6267 25.8534 13.44 25.6667 13.36C25.48 13.28 25.48 12.8534 25.6667 12.56V12.6667ZM24.84 16.7467C25.0534 18.08 25.2934 19.4134 25.5067 20.64C25.5067 20.8 25.5067 20.88 25.32 20.96L21.5067 24.8C21.2934 25.0134 21.08 24.8 20.84 24.8L17.2934 24.2934C18.9297 21.0301 21.5768 18.383 24.84 16.7467ZM13.6667 24.7467C13.7475 24.9143 13.8718 25.0571 14.0266 25.1603C14.1813 25.2634 14.361 25.3232 14.5467 25.3334L20.3067 26.2934C20.3067 26.2934 20.5734 26.2934 20.6534 26.5334C20.7327 27.0964 21.0208 27.609 21.4604 27.9696C21.9 28.3302 22.4591 28.5124 23.0267 28.48H23.24C23.032 28.8011 22.7175 29.0387 22.3517 29.1508C21.9859 29.263 21.5923 29.2427 21.24 29.0934C20.6974 28.8916 20.2058 28.573 19.8 28.16C19.6762 28.0235 19.5232 27.9167 19.3524 27.8474C19.1815 27.7782 18.9973 27.7483 18.8134 27.76H12.84C12.646 27.7818 12.4498 27.7513 12.2716 27.6715C12.0934 27.5918 11.9398 27.4659 11.8267 27.3067C11.4329 26.8468 11.0762 26.3564 10.76 25.84C12.84 25.36 12.8667 25.36 13.6667 24.7467ZM17.56 12.08C17.8272 12.4734 17.97 12.9379 17.97 13.4134C17.97 13.8888 17.8272 14.3534 17.56 14.7467C17.443 14.9494 17.3814 15.1793 17.3814 15.4134C17.3814 15.6474 17.443 15.8773 17.56 16.08C17.6392 16.1984 17.6814 16.3376 17.6814 16.48C17.6814 16.6224 17.6392 16.7616 17.56 16.88C17.443 16.9627 17.3033 17.0071 17.16 17.0071C17.0168 17.0071 16.877 16.9627 16.76 16.88C16.5592 16.7575 16.3286 16.6927 16.0934 16.6927C15.8582 16.6927 15.6275 16.7575 15.4267 16.88C15.0213 17.1141 14.5615 17.2373 14.0934 17.2373C13.6253 17.2373 13.1654 17.1141 12.76 16.88C13.1362 16.674 13.4496 16.3699 13.6667 16C13.6667 15.8134 13.88 15.8134 14.04 15.8134C14.3541 15.8031 14.663 15.7306 14.9488 15.6C15.2346 15.4694 15.4917 15.2834 15.705 15.0526C15.9183 14.8219 16.0837 14.5512 16.1916 14.256C16.2995 13.9609 16.3477 13.6473 16.3334 13.3334C16.3334 13.3334 16.3334 13.04 16.4934 12.96C16.9301 12.7819 17.3022 12.475 17.56 12.08ZM9.10671 10.4267C9.37462 9.77571 9.82884 9.21836 10.4124 8.82459C10.9959 8.43082 11.6828 8.21819 12.3867 8.21337C13.3591 8.16147 14.3141 8.48618 15.0534 9.12004L16.1734 10.2134C16.2908 10.3457 16.3683 10.5088 16.3966 10.6835C16.4249 10.8582 16.403 11.0373 16.3334 11.2C16.2656 11.3812 16.146 11.5385 15.9896 11.6523C15.8331 11.7661 15.6466 11.8314 15.4534 11.84C14.7067 11.84 14.4667 12.2934 14.7334 12.9867C14.8268 13.153 14.8618 13.3458 14.8328 13.5343C14.8037 13.7228 14.7124 13.8962 14.5734 14.0267C14.4418 14.1723 14.2654 14.2697 14.0722 14.3035C13.8789 14.3374 13.6799 14.3056 13.5067 14.2134C12.84 13.92 12.4134 14.2134 12.36 14.9067C12.3632 15.0887 12.3114 15.2675 12.2115 15.4197C12.1116 15.5719 11.9683 15.6905 11.8 15.76C11.6276 15.8331 11.4363 15.8492 11.2541 15.806C11.0718 15.7629 10.9081 15.6627 10.7867 15.52C10.4113 15.1849 10.0552 14.8288 9.72004 14.4534C9.21648 13.9265 8.88745 13.2573 8.77771 12.5369C8.66796 11.8164 8.78284 11.0796 9.10671 10.4267Z" fill="#B860AC"/>
<path d="M33.0534 48.8799H32.5734C31.4451 48.8951 30.3185 48.7878 29.2134 48.5599C29.0534 48.5599 28.92 48.5599 28.84 48.3466C28.12 46.8266 27.4 45.3066 26.6534 43.7866C26.5697 43.66 26.525 43.5116 26.525 43.3599C26.525 43.2082 26.5697 43.0598 26.6534 42.9332C27.1248 42.0982 27.475 41.2003 27.6934 40.2666C27.7902 39.8175 27.784 39.3523 27.6752 38.906C27.5665 38.4597 27.358 38.0438 27.0654 37.6897C26.7728 37.3355 26.4038 37.0523 25.986 36.8612C25.5683 36.6701 25.1126 36.5762 24.6534 36.5866C23.4821 36.7119 22.353 37.0943 21.3467 37.7066C21.2474 37.7709 21.1317 37.8051 21.0134 37.8051C20.8951 37.8051 20.7793 37.7709 20.68 37.7066L16.44 35.6532C16.0191 35.4102 15.53 35.3125 15.048 35.3752C14.5661 35.4378 14.1181 35.6574 13.7734 35.9999C12.92 36.7466 12.04 37.4666 11.1067 38.2399C9.79722 39.4686 8.68225 40.8892 7.80004 42.4532C7.37658 43.1967 7.20801 44.0583 7.32004 44.9066C7.47851 46.0474 7.82072 47.1551 8.33337 48.1866C8.41151 48.2954 8.45354 48.4259 8.45354 48.5599C8.45354 48.6939 8.41151 48.8244 8.33337 48.9332C7.79011 49.8615 7.54019 50.9323 7.61643 52.0052C7.69267 53.078 8.0915 54.1028 8.76058 54.9449C9.42965 55.787 10.3377 56.4071 11.3655 56.7239C12.3934 57.0407 13.493 57.0393 14.52 56.7199C15.0534 56.5332 15.4534 55.9466 16.0134 56.0266C16.5897 56.1554 17.1458 56.3617 17.6667 56.6399C18.6224 57.0341 19.6699 57.1506 20.6888 56.976C21.7077 56.8015 22.6567 56.343 23.4267 55.6532C25.3746 54.0541 27.1609 52.2678 28.76 50.3199C28.8153 50.2261 28.9009 50.1539 29.0027 50.1151C29.1044 50.0763 29.2163 50.0733 29.32 50.1066C30.1991 50.2788 31.0912 50.3769 31.9867 50.3999C32.3774 50.4268 32.7694 50.4268 33.16 50.3999C33.2488 50.4002 33.3366 50.3821 33.4179 50.3466C33.4993 50.3112 33.5724 50.2592 33.6325 50.194C33.6927 50.1288 33.7387 50.0518 33.7675 49.9679C33.7964 49.884 33.8074 49.795 33.8 49.7066C33.8214 49.6004 33.8175 49.4907 33.7888 49.3863C33.7601 49.2819 33.7074 49.1856 33.6348 49.1053C33.5622 49.0249 33.4718 48.9627 33.3709 48.9235C33.2699 48.8844 33.1612 48.8694 33.0534 48.8799ZM26.12 40.6132C26.12 40.8266 25.9334 41.0399 25.8534 41.2266C25.1867 42.7466 25.1067 42.7999 23.48 42.9066C23.32 42.9066 23.24 42.9066 23.24 42.7199C23.2251 42.421 23.32 42.127 23.5067 41.8932L26.1734 39.2266C26.2894 39.6843 26.2709 40.1658 26.12 40.6132ZM21.6667 40.4799C21.8534 39.1466 21.8534 39.1466 23.1334 38.5866C23.7989 38.2159 24.562 38.0577 25.32 38.1332L22.6534 40.7999C22.557 40.9112 22.439 41.0019 22.3067 41.0666C22.0934 41.0666 21.8267 41.2532 21.64 41.0666C21.4534 40.8799 21.5067 40.6932 21.6667 40.4799ZM21.6667 42.6666C21.7558 43.5781 21.962 44.4744 22.28 45.3332C20.8849 44.3869 19.6739 43.194 18.7067 41.8132C19.6514 42.2271 20.6467 42.5141 21.6667 42.6666ZM13.4 55.4932C12.6163 55.6777 11.7943 55.6093 11.0518 55.2979C10.3093 54.9866 9.68446 54.4482 9.26671 53.7599C8.85773 53.0628 8.68603 52.2518 8.77739 51.4487C8.86875 50.6457 9.21825 49.894 9.77337 49.3066C10.5467 48.4799 11.3734 47.6799 12.2267 46.8532C13.5787 48.1823 14.6648 49.7571 15.4267 51.4932C15.5555 51.773 15.6452 52.0691 15.6934 52.3732C15.7578 52.7298 15.7488 53.0958 15.6671 53.4489C15.5853 53.8019 15.4324 54.1345 15.2178 54.4265C15.0032 54.7185 14.7313 54.9637 14.4188 55.1471C14.1063 55.3305 13.7596 55.4483 13.4 55.4932ZM13.9867 46.5599C14.4795 46.5712 14.9595 46.7189 15.3734 46.9866C15.5794 47.1448 15.8238 47.2454 16.0815 47.2782C16.3392 47.311 16.6009 47.2748 16.84 47.1732C17.1334 47.1732 17.3467 47.1732 17.1867 47.4932C17.0906 47.7424 17.0574 48.0115 17.09 48.2766C17.1225 48.5417 17.2199 48.7947 17.3734 49.0132C17.6873 49.5246 17.8399 50.1186 17.8114 50.7179C17.7828 51.3172 17.5745 51.894 17.2134 52.3732C16.6687 50.1851 15.5555 48.1796 13.9867 46.5599ZM27.32 49.4932C25.8492 51.2838 24.235 52.9515 22.4934 54.4799C21.9288 55.0092 21.2245 55.3658 20.4637 55.5076C19.7029 55.6493 18.9174 55.5703 18.2 55.2799L16.9467 54.8266C17.3467 54.4532 17.6667 54.1599 17.96 53.8399C18.6713 53.1705 19.1427 52.2857 19.3018 51.322C19.4608 50.3583 19.2985 49.369 18.84 48.5066C18.7355 48.2317 18.7355 47.9281 18.84 47.6532C18.84 47.6532 18.84 47.6532 18.84 47.5199C19.1067 46.1066 18.4667 45.4399 17.0534 45.6799C16.6473 45.775 16.2204 45.7181 15.8534 45.5199C15.0195 45.1389 14.0902 45.0181 13.1867 45.1732C13.1089 45.1996 13.0245 45.1996 12.9467 45.1732C12.3067 44.8799 11.9334 45.1732 11.5334 45.7066L9.82671 47.4666C9.30546 46.4419 9.03147 45.3095 9.02671 44.1599C9.07443 43.6658 9.25914 43.1947 9.56004 42.7999C10.6224 41.2841 11.8674 39.9049 13.2667 38.6932C13.8534 38.1599 14.4934 37.6532 15.1067 37.1199C15.2475 37.0096 15.4212 36.9497 15.6 36.9497C15.7789 36.9497 15.9526 37.0096 16.0934 37.1199L20.2267 39.1199C20.2267 39.1199 20.52 39.1199 20.4934 39.4399C20.4667 39.7599 20.4934 40.2666 20.28 40.6932C20.0667 41.1199 20.04 40.6932 19.9334 40.6932L17 39.7866C16.7943 39.7036 16.5689 39.6821 16.3511 39.7247C16.1334 39.7673 15.9327 39.8722 15.7734 40.0266C15.1334 40.6132 14.44 41.1466 13.7734 41.7066C13.1067 42.2666 13.24 42.4799 13.5334 42.8532C13.8267 43.2266 14.2534 43.1999 14.7334 42.8532C15.2134 42.5066 15.88 41.9199 16.4134 41.4399C16.9467 40.9599 16.7867 41.2532 16.9467 41.4399C18.4788 43.9948 20.6117 46.1368 23.16 47.6799C23.48 47.8399 23.4534 47.9732 23.16 48.2132L21.6667 49.8932C21.2934 50.3466 21.2667 50.7999 21.6667 51.0932C22.0667 51.3866 22.4134 51.3066 22.8134 50.8532L24.5734 48.7199C24.6953 48.5903 24.7776 48.4286 24.8107 48.2538C24.8438 48.079 24.8262 47.8984 24.76 47.7332C24.44 46.7466 24.1467 45.7332 23.8267 44.7466C23.8267 44.3999 23.8267 44.2932 24.12 44.2932C24.4134 44.2932 24.9734 43.9999 25.2934 44.2932C25.6134 44.5866 25.6667 44.9866 25.8534 45.3332C26.36 46.4266 26.8934 47.4932 27.4267 48.5866C27.4934 48.7384 27.5113 48.9072 27.4778 49.0696C27.4444 49.2321 27.3613 49.3801 27.24 49.4932H27.32Z" fill="#B860AC"/>
</svg>
