<svg width="701" height="432" viewBox="0 0 701 432" fill="none" xmlns="http://www.w3.org/2000/svg">
<g clip-path="url(#clip0_840_930)">
<path d="M341.9 312.721C341.9 312.721 327.599 441.907 331.981 482.395C336.362 522.883 337.909 569.155 337.909 569.155H397.571C397.571 569.155 401.909 519.499 394.679 481.238L397.571 422.14L440.951 569.155H499.269C499.269 569.155 505.298 518.545 479.993 475.165C469.119 456.512 473.241 375.622 443.352 312.721H341.9Z" fill="#001001"/>
<path d="M397.571 422.14C397.571 422.14 364.313 393.061 376.575 312.721" stroke="#303A30" stroke-linecap="round" stroke-linejoin="round"/>
<path d="M365.369 312.721C365.369 312.721 353.136 371.877 376.778 377.951" stroke="#303A30" stroke-linecap="round" stroke-linejoin="round"/>
<path d="M424.293 312.721L439.028 370.113L463.581 377.951" stroke="#303A30" stroke-linecap="round" stroke-linejoin="round"/>
<path d="M488.438 569.155C488.438 569.155 482.336 508.625 469.799 475.845C457.262 443.064 453.344 374.697 453.344 374.697" stroke="#303A30" stroke-linecap="round" stroke-linejoin="round"/>
<path d="M385.772 569.155L378.369 483.234C378.108 480.25 378.137 477.247 378.455 474.269L385.772 404.933" stroke="#303A30" stroke-linecap="round" stroke-linejoin="round"/>
<path d="M347.077 88.924C345.125 88.736 343.433 89.8928 341.669 89.6325C343.607 86.7405 346.079 83.5304 346.817 79.9443C347.402 76.897 347.402 73.7661 346.817 70.7188C346.658 69.8512 345.66 66.67 344.228 67.3207C343.043 67.8702 343.043 72.7288 343.057 73.8422C342.888 71.5991 342.466 69.3822 341.799 67.234C341.308 66.0772 340.541 64.2118 339.312 63.6479C336.912 62.5489 337.982 68.2172 338.372 69.4319C338.083 68.3908 336.275 63.7346 334.801 66.4531C333.514 68.7956 335.552 72.454 334.902 74.8978C334.352 73.2783 332.689 67.9714 330.231 68.2606C328.438 68.4775 329.638 71.6876 329.942 72.8734C330.318 74.3194 330.983 76.3148 329.812 77.515C329.233 78.1223 328.467 78.4549 327.874 79.1201C327.215 79.8757 326.611 80.6779 326.067 81.5204C324.639 83.4919 323.801 85.829 323.652 88.2588V88.3311C313.62 92.4848 304.573 98.702 297.099 106.579C289.626 114.456 283.893 123.817 280.272 134.054C268.053 169.119 270.15 179.27 285.767 190.101C292.765 194.988 306.011 205.804 318.432 216.215C322.51 201.51 328.192 180.976 331.446 169.047L314.383 159.257C314.383 159.257 324.953 111.539 333.687 98.2073C335.408 97.5421 337.186 97.412 339.095 96.7613C341.756 95.8503 343.433 93.0884 346.224 92.5823C347.193 92.3944 351.502 93.0884 351.748 91.6424C352.08 89.9506 348.176 89.0541 347.077 88.924Z" fill="#ECC091"/>
<path d="M314.426 159.344C314.426 159.344 292.736 169.466 278.378 183.825C280.624 186.224 283.137 188.358 285.868 190.187C292.867 195.075 306.112 205.891 318.533 216.302C322.611 201.596 328.294 181.063 331.547 169.134L314.484 159.344H314.426Z" fill="#BC8858"/>
<path d="M326.949 91.4834C326.949 91.4834 328.727 83.14 340.946 89.7338" stroke="#BC8858" stroke-linecap="round" stroke-linejoin="round"/>
<path d="M330.824 77.5295C334.352 77.232 337.864 78.2635 340.671 80.4215" stroke="#BC8858" stroke-linecap="round" stroke-linejoin="round"/>
<path d="M460.111 349.956C460.111 349.956 457.32 342.176 453.734 331.852L449.208 351.272C457.566 346.659 460.111 349.956 460.111 349.956Z" fill="#00918C"/>
<path d="M450.307 322.005C444.422 304.899 438.059 285.739 438.059 282.789C438.187 278.279 438.573 273.779 439.216 269.312L452.881 302.932L498.242 287.315C494.251 277.063 487.166 259.335 478.909 242.402C467.702 219.425 451.073 199.427 419.984 195.176L410.354 192.588L411.482 185.893L375.332 183.001L374.349 190.231L314.484 159.388C294.153 181.873 297.768 192.371 287.111 205.023C302.28 217.734 338.343 236.835 338.343 236.835C338.343 236.835 335.813 277.511 335.813 306.547C335.55 317.557 332.994 328.392 328.308 338.359C328.308 338.359 350.808 355.35 372.05 358.964L386.003 341.251L391.122 366.556C391.122 366.556 420.042 376.316 437.756 360.049C439.867 358.111 441.79 356.492 443.54 355.147C445.35 353.731 447.258 352.445 449.251 351.301C457.609 346.63 460.154 349.855 460.154 349.855C460.154 349.855 457.32 342.176 453.734 331.852L450.307 322.005Z" fill="#075B3D"/>
<path d="M375.274 183.001C375.274 183.001 382.678 190.13 391.744 191.547C391.744 191.547 393.942 192.703 411.482 185.893L375.274 183.001Z" fill="#3C4A77"/>
<path d="M385.946 341.28C385.946 341.28 374.811 272.277 385.946 222.607C385.946 222.607 390.79 202.854 391.296 191.518" stroke="#303A30" stroke-linecap="round" stroke-linejoin="round"/>
<path d="M338.285 236.806C338.285 236.806 340.816 212.918 350.215 197.764" stroke="#303A30" stroke-linecap="round" stroke-linejoin="round"/>
<path d="M439.216 269.312L443.482 232.83" stroke="#303A30" stroke-linecap="round" stroke-linejoin="round"/>
<path d="M301.08 215.073L325.835 165.895" stroke="#303A30" stroke-linecap="round" stroke-linejoin="round"/>
<path d="M447.343 289.354L490.983 269.312" stroke="#007F7A" stroke-linecap="round" stroke-linejoin="round"/>
<path d="M429.793 235.743L399.059 233.524L398.486 241.456L429.22 243.675L429.793 235.743Z" stroke="#303A30" stroke-linecap="round" stroke-linejoin="round"/>
<path d="M374.291 190.187L381 200.382L391.238 192.429L398.743 202.551L410.354 192.588" stroke="#303A30" stroke-linecap="round" stroke-linejoin="round"/>
<path d="M499.081 291.364L497.186 287.662L459.113 300.792L460.472 303.004L447.097 360.396C445.492 363.476 441.906 364.373 438.739 365.038C437.075 365.232 435.523 365.974 434.329 367.149C432.362 369.202 432.55 372.094 431.032 374.379C430.28 375.507 427.88 378.601 431.278 377.734C432.969 377.3 434.734 375.058 435.847 373.815C438.161 371.227 440.416 370.749 443.713 371.386C447.01 372.022 450.177 372.918 453.344 373.743C455.498 374.307 457.494 375.463 459.663 375.897C460.83 373.36 461.751 370.716 462.41 368.002C463.856 367.048 492.371 348.192 500.931 304.262C501.787 299.877 501.134 295.332 499.081 291.364Z" fill="#ECC091"/>
<path d="M499.081 291.364L497.186 287.662L459.113 300.792L460.4 302.874L500.483 294.979C500.138 293.73 499.668 292.519 499.081 291.364Z" fill="#AA3F37"/>
<path d="M384.499 167.008L381.94 187.816C384.773 189.665 387.958 190.906 391.296 191.46C394.188 191.894 395.171 191.633 400.608 189.71V168.584L384.499 167.008Z" fill="#ECC091"/>
<path d="M384.5 167.008L383.386 176.074C386.799 183.594 400.608 183.97 400.608 183.97V168.584L384.5 167.008Z" fill="#BC8858"/>
<path d="M384.326 153.025C384.326 153.025 378.47 141.457 375.072 147.964C372.252 153.329 377.891 159.185 383.82 157.985L384.326 153.025Z" fill="#BC8858"/>
<path d="M401.129 153.994C401.129 153.994 409.212 143.872 411.251 150.943C412.928 156.727 406.204 161.354 400.637 158.968L401.129 153.994Z" fill="#BC8858"/>
<path d="M379.988 155.44C377.877 153.878 377.096 150.552 376.778 148.094C376.581 146.898 376.46 145.691 376.416 144.479C376.416 143.496 377.226 142.137 377.313 141.24C374.247 140.85 375.231 136.295 376.315 134.589C377.295 132.947 378.608 131.528 380.169 130.425C381.731 129.321 383.507 128.558 385.382 128.183C387.552 127.945 389.748 128.077 391.874 128.573C391.49 128.342 391.177 128.009 390.97 127.611C390.763 127.213 390.671 126.765 390.703 126.318C391.281 128.27 396.357 128.082 397.933 128.385C399.356 128.622 400.698 129.21 401.837 130.097C402.975 130.983 403.875 132.139 404.454 133.461C406.262 132.116 410.238 133.967 410.918 135.659C412.118 138.464 411.12 141.631 410.513 144.479C409.79 147.791 410.325 152.476 408.359 155.324C406.103 158.592 399.061 157.045 395.908 156.655C392.141 155.934 388.32 155.527 384.485 155.44C383.357 155.512 381.333 155.295 379.988 155.44Z" fill="#233332"/>
<path d="M407.129 145.737C407.145 145.373 407.081 145.011 406.942 144.674C406.802 144.338 406.59 144.036 406.321 143.791C406.053 143.545 405.733 143.362 405.385 143.254C405.038 143.145 404.671 143.114 404.31 143.163C402.965 143.351 401.562 143.655 400.536 143.843C399.856 143.973 398.8 144.768 398.265 144.797C397.181 144.884 395.677 143.756 394.607 143.568C394.864 143.949 395.068 144.362 395.214 144.797C391.151 143.843 386.784 142.831 382.649 141.905C382.298 141.828 381.934 141.826 381.582 141.901C381.231 141.976 380.899 142.125 380.61 142.339C380.321 142.553 380.081 142.826 379.906 143.14C379.732 143.455 379.626 143.803 379.598 144.161C379.381 147.241 379.193 151.55 379.222 152.085C380.407 170.218 380.986 172.503 391.816 174.238C402.647 175.973 405.539 163.422 406.103 157.942C406.233 156.741 406.276 155.209 406.681 153.025C406.766 152.547 406.814 152.064 406.826 151.579C406.84 150.22 407.057 147.718 407.129 145.737Z" fill="#ECC091"/>
<path d="M379.149 154.269C379.54 154.674 379.279 156.944 379.149 157.754C378.819 159.288 378.334 160.785 377.703 162.222C376.445 165.663 376.257 169.379 378.556 172.517C381.926 177.217 389.691 178.186 394.94 177.13C397.485 176.624 400.55 175.872 402.43 174.007C404.076 172.171 405.19 169.921 405.655 167.5C406.724 163.803 406.937 159.911 406.276 156.12C405.264 158.202 404.83 163.118 401.938 163.668C399.046 164.217 398.858 161.499 397.21 160.313C395.33 158.954 391.975 158.867 389.777 158.867C388.093 158.811 386.439 159.32 385.078 160.313C384.21 160.949 383.502 161.86 382.359 161.34C380.162 160.342 380.335 156.351 379.149 154.269Z" fill="#233332"/>
<path d="M389.532 152.23C389.532 152.516 389.447 152.795 389.288 153.033C389.129 153.271 388.903 153.456 388.639 153.566C388.375 153.675 388.084 153.704 387.803 153.648C387.523 153.592 387.265 153.455 387.063 153.252C386.861 153.05 386.723 152.792 386.667 152.512C386.612 152.231 386.64 151.941 386.75 151.676C386.859 151.412 387.044 151.186 387.282 151.028C387.52 150.869 387.8 150.784 388.086 150.784C388.469 150.784 388.837 150.936 389.108 151.207C389.379 151.479 389.532 151.846 389.532 152.23Z" fill="#233332"/>
<path d="M398.873 153.054C398.873 153.34 398.788 153.62 398.629 153.857C398.47 154.095 398.244 154.281 397.98 154.39C397.716 154.499 397.425 154.528 397.145 154.472C396.864 154.416 396.607 154.279 396.404 154.077C396.202 153.874 396.064 153.617 396.009 153.336C395.953 153.056 395.981 152.765 396.091 152.501C396.2 152.237 396.386 152.011 396.623 151.852C396.861 151.693 397.141 151.608 397.427 151.608C397.81 151.608 398.178 151.76 398.449 152.032C398.72 152.303 398.873 152.671 398.873 153.054Z" fill="#233332"/>
<path d="M390.992 150.234C391.267 151.126 391.297 152.075 391.079 152.982C390.783 154.813 390.392 156.628 389.908 158.419C389.604 159.735 388.664 161.889 389.156 163.205C389.283 163.492 389.484 163.741 389.737 163.926C389.991 164.111 390.289 164.227 390.602 164.261C392.048 164.434 392.93 162.815 393.378 161.672L393.898 160.443C394.496 159.08 394.672 157.569 394.405 156.105L393.378 150.205L390.992 150.234Z" fill="#ECC091"/>
<path d="M390.992 150.234C391.267 151.126 391.297 152.075 391.079 152.982C390.783 154.813 390.392 156.628 389.908 158.419C389.604 159.735 388.664 161.889 389.156 163.205C389.283 163.492 389.484 163.741 389.737 163.926C389.991 164.111 390.289 164.227 390.602 164.261C392.048 164.434 392.93 162.815 393.378 161.672" stroke="#BC8858" stroke-linecap="round" stroke-linejoin="round"/>
<path d="M388.303 165.562C388.876 165.921 389.515 166.163 390.183 166.275C390.85 166.386 391.533 166.365 392.192 166.213C393.345 165.83 394.404 165.209 395.301 164.391C395.084 166.357 394.549 168.208 392.294 168.729C391.586 168.886 390.852 168.882 390.146 168.717C389.44 168.551 388.78 168.229 388.216 167.774C388.445 167.058 388.475 166.294 388.303 165.562Z" fill="#F9F9F9"/>
<path d="M385.772 148.123C386.2 147.646 386.797 147.354 387.436 147.308C388.075 147.262 388.707 147.466 389.199 147.877" stroke="#233332" stroke-linecap="round" stroke-linejoin="round"/>
<path d="M395.894 148.658C396.19 148.428 396.53 148.262 396.894 148.17C397.257 148.078 397.635 148.062 398.005 148.123C398.482 148.224 399.639 148.629 399.625 149.15" stroke="#233332" stroke-linecap="round" stroke-linejoin="round"/>
<path d="M89.5878 277.743C89.5878 277.743 80.1888 316.062 55.6068 377.517C31.0248 438.972 16.5648 577.065 16.5648 577.065H71.0356L140.198 410.775L164.664 573.45L210.097 569.835C210.097 569.835 236.241 438.972 217.559 369.564C204.342 320.4 192.977 284.25 192.977 284.25L89.5878 277.743Z" fill="#233332"/>
<path d="M140.198 410.775C140.198 410.775 155.569 356.955 153.891 303.149" stroke="#769494" stroke-linecap="round" stroke-linejoin="round"/>
<path d="M75.1423 324.926C75.1423 324.926 100.65 323.364 109.673 293.331" stroke="#769494" stroke-linecap="round" stroke-linejoin="round"/>
<path d="M181.568 298.854C181.568 298.854 184.46 323.436 205.702 326.964" stroke="#769494" stroke-linecap="round" stroke-linejoin="round"/>
<path d="M151.824 348.828C151.824 348.828 162.567 347.151 163.768 340.412C164.968 333.674 164.78 302.426 164.78 302.426" stroke="#769494" stroke-linecap="round" stroke-linejoin="round"/>
<path d="M88.243 282.89C88.243 282.89 115.182 299.201 143.596 302.57C172.01 305.94 195.768 293.331 195.768 293.331L179.601 187.773C179.601 187.773 156.191 178.706 140.068 175.482C123.945 172.257 99.7098 172.416 99.7098 172.416C99.7098 172.416 92.8847 262.343 88.243 282.89Z" fill="#C2E3D2"/>
<path d="M262.096 135.76C262.587 132.68 263.151 128.53 264.698 125.768C265.39 124.761 266.275 123.901 267.301 123.238C268.732 121.867 269.801 120.163 270.41 118.278C271.162 116.398 271.755 114.475 272.594 112.653C273.177 111.71 273.606 110.68 273.866 109.602C273.866 108.04 272.507 108.156 271.581 109.096C270.251 110.426 270.208 113 268.805 114.157C268.415 114.475 267.605 114.865 267.214 114.402C266.824 113.94 267.793 112.537 268.053 112.002C268.458 111.207 272.391 103.717 268.632 104.454C267.186 104.743 266.361 108.286 265.884 109.515C265.407 110.744 264.756 113.969 263.209 114.07C260.534 114.243 266.101 104.309 262.876 103.095C260.635 102.242 260.144 106.435 259.797 107.765C259.594 108.575 259.088 112.479 258.018 112.537C256.427 112.537 258.799 104.28 256.673 102.965C254.056 101.345 254.388 107.303 254.273 108.402C253.974 110.477 253.559 112.533 253.029 114.562C252.899 115.154 252.899 116.47 252.176 116.731C250.73 117.251 250.108 113.52 249.79 112.653C249.472 111.785 248.995 109.66 247.867 109.211C246.421 108.647 246.146 110.151 246.262 111.25C246.726 113.387 247.012 115.559 247.115 117.743C246.999 119.998 246.985 121.951 248.879 123.527C249.675 124.206 250.716 124.38 251.265 125.305C252.263 126.954 252.248 129.643 252.263 131.523C252.277 133.403 252.118 135.239 252.263 137.076C255.457 137.351 258.674 137.027 261.749 136.121C261.72 136.28 261.647 136.411 262.096 135.76Z" fill="#F1B7AC"/>
<path d="M258.77 123.339C258.217 121.824 257.341 120.448 256.202 119.307C255.063 118.166 253.689 117.287 252.176 116.731" stroke="#BC7A71" stroke-miterlimit="10"/>
<path d="M268.227 116.89L255.155 113.072" stroke="#BC7A71" stroke-miterlimit="10"/>
<path d="M168.395 292.564V307.024C173.913 311.094 180.722 313.021 187.554 312.447C192.897 312.03 198.209 311.286 203.46 310.22L200.901 292.564H168.395Z" fill="#3C4A77"/>
<path d="M247.925 138.825L249.559 125.421C255.484 125.28 261.343 126.696 266.549 129.528L262.211 142.73L247.925 138.825Z" fill="#3C4A77"/>
<path d="M149.12 178.027C149.12 178.027 157.796 182.914 157.796 199.905C157.796 216.895 155.265 291.162 170.087 297.582C184.908 304.002 206.96 304.378 206.237 291.003C205.514 277.627 195.753 265.698 195.392 254.13C195.024 245.939 194.193 237.775 192.905 229.678C192.905 229.678 235.518 229.591 255.401 228.376C257.507 228.259 259.559 227.662 261.401 226.632C263.243 225.602 264.825 224.166 266.029 222.433C268.82 218.37 271.74 212.311 270.945 205.327C269.687 194.308 263.715 163.552 266.607 146.721C266.903 144.838 266.519 142.911 265.522 141.287C264.526 139.662 262.983 138.446 261.17 137.857L250.932 134.502C249.918 134.168 248.847 134.04 247.782 134.124C246.717 134.209 245.68 134.505 244.731 134.995C243.782 135.485 242.94 136.159 242.255 136.978C241.569 137.797 241.054 138.745 240.738 139.765L227.97 181.107C227.97 181.107 212.426 181.396 199.412 178.027C182.421 173.689 164.708 177.549 164.708 177.549C164.708 177.549 171.938 174.657 171.938 170.637C171.938 166.618 149.12 165.562 149.12 165.562V178.027Z" fill="#17B883"/>
<path d="M160.63 184.881C160.63 184.881 159.618 180.543 164.664 177.549" stroke="#113312" stroke-linecap="round" stroke-linejoin="round"/>
<path d="M227.927 181.106C227.927 181.106 240.695 182.552 244.556 194.843" stroke="#113312" stroke-linecap="round" stroke-linejoin="round"/>
<path d="M185.949 254.129C185.949 254.129 198.963 265.235 202.304 275.819" stroke="#3C4A77" stroke-width="3" stroke-miterlimit="10"/>
<path d="M157.188 147.487C157.188 147.487 160.442 143.149 162.972 144.595C165.503 146.041 163.334 153.806 159.184 153.994L157.188 147.487Z" fill="#BF7A71"/>
<path d="M129.541 153.994L126.461 175.496C126.461 175.496 129.714 188.336 145.447 190.867C145.447 190.867 150.681 191.402 151.043 180.022C151.043 180.022 148.874 161.585 149.597 156.524L129.541 153.994Z" fill="#F1B7AC"/>
<path d="M150.869 178.388C150.493 174.903 149.597 166.299 149.423 160.602L129.642 158.838C129.685 173.992 145.085 178.388 150.869 178.388Z" fill="#BF7A71"/>
<path d="M160.196 151.463C158.981 141.819 164.534 126.404 146.213 123.744C146.213 123.744 131.03 121.097 128.615 132.911C127.864 136.76 127.486 140.673 127.487 144.595C126.74 143.918 125.788 143.51 124.783 143.434C123.778 143.358 122.776 143.619 121.935 144.176C117.77 146.836 122.817 155.917 128.572 155.078C130.249 162.308 134.096 168.772 141.875 170.739C158.041 174.845 161.411 161.108 160.196 151.463Z" fill="#F1B7AC"/>
<path d="M146.849 145.867C146.852 146.191 146.759 146.509 146.581 146.779C146.403 147.05 146.149 147.261 145.851 147.387C145.553 147.513 145.224 147.548 144.906 147.486C144.588 147.425 144.295 147.27 144.065 147.042C143.835 146.815 143.678 146.523 143.614 146.206C143.55 145.889 143.581 145.559 143.705 145.26C143.828 144.961 144.037 144.705 144.306 144.524C144.575 144.344 144.892 144.248 145.215 144.248C145.646 144.248 146.06 144.418 146.366 144.721C146.672 145.025 146.846 145.437 146.849 145.867Z" fill="#233332"/>
<path d="M142.367 141.645C143.071 141.13 143.914 140.84 144.786 140.811C145.658 140.783 146.518 141.018 147.254 141.486" stroke="#233332" stroke-linecap="round" stroke-linejoin="round"/>
<path d="M157.955 146.475C157.955 146.795 157.86 147.108 157.682 147.375C157.504 147.641 157.251 147.848 156.955 147.971C156.659 148.094 156.333 148.126 156.019 148.063C155.705 148.001 155.417 147.846 155.19 147.62C154.964 147.393 154.809 147.105 154.747 146.791C154.684 146.477 154.716 146.151 154.839 145.855C154.962 145.559 155.169 145.306 155.435 145.128C155.702 144.95 156.015 144.855 156.335 144.855C156.765 144.855 157.177 145.026 157.48 145.33C157.784 145.633 157.955 146.045 157.955 146.475Z" fill="#233332"/>
<path d="M158.75 142.426C158.076 141.877 157.252 141.544 156.385 141.469C155.519 141.394 154.65 141.582 153.891 142.007" stroke="#233332" stroke-linecap="round" stroke-linejoin="round"/>
<path d="M151.867 144.899C150.855 146.446 152.85 150.509 153.4 152.129C153.761 153.257 154.47 155.194 153.834 156.365C152.966 157.999 151.607 156.365 151.043 155.368" stroke="#BC7A71" stroke-miterlimit="10"/>
<path d="M153.212 159.171C150.568 159.452 147.896 159.039 145.461 157.971C144.065 157.602 142.805 156.839 141.832 155.773C141.538 157.267 141.663 158.813 142.193 160.241C142.595 161.374 143.35 162.348 144.347 163.02C145.344 163.691 146.53 164.025 147.731 163.971C148.976 163.883 150.162 163.411 151.128 162.622C152.093 161.832 152.791 160.763 153.125 159.561C153.111 159.691 153.183 159.778 153.212 159.171Z" fill="#233332"/>
<path d="M150.392 160.805C150.597 160.34 150.752 159.856 150.855 159.359C148.995 159.219 147.17 158.785 145.447 158.072C144.051 157.703 142.791 156.94 141.817 155.874C141.622 156.619 141.578 157.396 141.687 158.158C143.708 159.599 146.017 160.586 148.454 161.05C149.062 161.065 150.074 161.34 150.392 160.805Z" fill="#F9F9F9"/>
<path d="M155.395 121.213C153.501 119.767 151.057 119.463 148.773 118.813C147.127 118.212 145.369 117.985 143.625 118.148C142.179 118.393 140.646 118.943 139.157 119.044C139.955 119.211 140.739 119.443 141.499 119.738C138.145 120.027 135.267 120.1 132.52 122.442C131.218 123.57 130.047 125.71 128.413 126.303C129.207 126.893 129.966 127.53 130.683 128.212H130.77C129.695 129.609 128.962 131.238 128.63 132.969C127.878 136.818 127.501 140.731 127.502 144.653C128.646 145.344 129.569 146.347 130.163 147.545C130.793 148.835 131.585 150.04 132.52 151.131C132.52 147.776 131.869 144.667 133.243 141.399C134.191 139.726 134.805 137.884 135.05 135.977C135.05 133.923 134.66 131.899 134.862 129.846C134.916 129.043 135.091 128.253 135.383 127.503C135.947 127.503 136.482 127.662 136.93 127.749C139.024 128.325 141.032 129.176 142.902 130.28C146.136 131.928 149.712 132.795 153.342 132.81C155.28 132.81 157.94 132.564 158.548 130.439C158.883 128.759 158.768 127.022 158.214 125.401C157.661 123.781 156.688 122.336 155.395 121.213Z" fill="#233332"/>
<path d="M48.5937 73.6976C49.1143 70.6321 49.953 66.4676 49.3457 63.4021C49.0146 62.2289 48.4544 61.1329 47.6972 60.1775C46.7715 58.3926 46.3091 56.4037 46.3524 54.3935C46.2512 52.3836 46.3524 50.3736 46.1066 48.3637C45.8822 47.304 45.8333 46.2146 45.962 45.1391C46.4392 43.6931 47.7117 44.2137 48.2901 45.3994C49.0998 47.0912 48.2901 49.5494 49.2734 51.0822C49.5481 51.516 50.1844 52.1522 50.7194 51.8341C51.2544 51.516 50.7194 49.882 50.7194 49.2891C50.6037 48.4071 49.2734 40.0347 52.6136 41.9579C53.9006 42.6954 53.5391 46.2959 53.5824 47.6407C53.6258 48.9855 53.2065 52.2245 54.638 52.8174C57.1251 53.844 55.0863 42.6954 58.4988 42.5218C60.8992 42.5218 59.9448 46.5706 59.9448 47.9443C59.9448 48.7686 59.0917 52.6294 60.1039 53.0343C61.5499 53.6127 62.0271 44.9656 64.4419 44.3583C67.4496 43.6642 65.1794 49.2602 64.9625 50.2869C64.5682 52.3462 64.2978 54.4274 64.1527 56.5191C64.1527 57.112 63.6611 58.3555 64.2684 58.8327C65.4686 59.8015 67.2472 56.4757 67.84 55.7527C68.4329 55.0297 69.5463 53.1789 70.732 53.121C72.2648 53.121 72.0623 54.567 71.5996 55.5503C70.4723 57.4275 69.5049 59.3962 68.7076 61.4355C68.0858 63.6045 67.464 65.4554 65.1649 66.3664C64.1961 66.7423 63.155 66.5688 62.2729 67.2629C60.8269 68.5065 59.9304 71.1093 59.3809 72.83C58.8314 74.5508 58.3253 76.4016 57.6023 78.0934C54.4866 77.3236 51.5434 75.9747 48.9263 74.1169C48.7673 74.3194 48.854 74.464 48.5937 73.6976Z" fill="#F1B7AC"/>
<path d="M55.7369 63.0117C56.7514 61.7554 58.027 60.7349 59.4752 60.0208C60.9234 59.3066 62.5095 58.9161 64.1237 58.8761" stroke="#BC7A71" stroke-miterlimit="10"/>
<path d="M48.8685 53.8585L62.4753 54.4658" stroke="#BC7A71" stroke-miterlimit="10"/>
<path d="M44.0388 80.7251V66.0916C44.0388 66.0916 49.4613 62.4766 64.2828 69.3451L60.9136 86.5091L44.0388 80.7251Z" fill="#3C4A77"/>
<path d="M76.328 284.25L71.0212 295.818C75.964 301.195 82.7786 304.476 90.065 304.985C99.7574 305.465 109.414 306.507 118.985 308.109L124.046 291.48L76.328 284.25Z" fill="#3C4A77"/>
<path d="M131.507 176.797C136.409 168.946 130.828 160.14 123.337 158.838C118.266 158.07 113.37 156.411 108.877 153.936L110.179 162.453C107.327 161.666 104.429 161.053 101.503 160.617C81.9819 157.725 62.0994 138.825 62.0994 138.825C62.0994 138.825 65.3529 116.152 64.2684 101.692C63.8635 96.8822 63.82 92.0487 64.1382 87.2322C64.2678 85.5266 63.844 83.8246 62.9297 82.3789C62.0154 80.9332 60.6593 79.8209 59.0628 79.2069L48.4202 75.0569C47.3196 74.6283 46.1376 74.4493 44.9594 74.5328C43.7812 74.6163 42.6362 74.9603 41.6071 75.5399C40.5779 76.1195 39.6902 76.9203 39.008 77.8844C38.3258 78.8486 37.8661 79.9522 37.662 81.1156C36.9111 86.2178 35.5267 91.2065 33.5409 95.966C30.0126 103.355 10.7953 137.9 11.099 166.487C11.1332 169.51 11.9691 172.469 13.5214 175.063C15.0736 177.657 17.2865 179.792 19.934 181.251C29.6932 186.684 39.7763 191.513 50.1265 195.711C65.1664 201.711 78.9121 210.548 90.6145 221.739C90.6145 221.739 88.4455 254.636 74.3759 272.711C63.8346 286.26 82.7916 293.576 90.2819 295.124C101.127 297.379 124.986 304.161 129.656 287.894C134.168 272.291 144.29 211.313 131.507 176.797Z" fill="#17B883"/>
<path d="M110.179 162.453C110.179 162.453 121.4 167.369 125.261 176.523" stroke="#113312" stroke-linecap="round" stroke-linejoin="round"/>
<path d="M62.1139 138.825L59.7135 161.108" stroke="#113312" stroke-linecap="round" stroke-linejoin="round"/>
<path d="M86.0307 271.727C86.0307 271.727 93.5065 253.406 103.383 246.422" stroke="#113312" stroke-width="3" stroke-miterlimit="10"/>
<path d="M192.847 227.292C192.847 227.292 195.739 216.736 195.594 215.406C195.29 213.078 191.415 210.258 189.81 208.407C188.205 206.556 186.918 203.968 185.053 202.073C184.286 201.264 178.777 196.709 181.033 195.624C183.043 194.67 186.629 200.179 188.783 200.671C186.976 198.733 183.26 194.034 183.578 190.722C183.604 190.531 183.684 190.35 183.809 190.202C183.934 190.054 184.098 189.944 184.282 189.885C184.467 189.826 184.664 189.82 184.852 189.869C185.039 189.917 185.209 190.017 185.342 190.158C186.8 191.722 188.111 193.416 189.261 195.219C188.465 193.947 184.359 186.977 187.048 186.283C188.928 185.806 192.745 196.13 195.797 196.68C196.158 193.788 193.526 187.064 195.319 185.893C198.038 184.129 198.327 190.375 198.645 191.749C199.368 194.887 200.93 198.979 203.562 200.931C203.012 196.593 206.454 191.012 207.9 194.019C208.261 194.771 207.205 197.316 207.278 198.357C207.422 200.7 208.377 202.854 208.492 205.197C208.68 209.39 206.54 211.632 205.167 215.218C203.562 219.411 203.229 228.42 203.229 228.42L192.847 227.292Z" fill="#F9D1CF"/>
<path d="M200.973 210.171C199.166 207.872 202.202 202.941 202.896 201.018" stroke="#AA6665" stroke-linecap="round" stroke-linejoin="round"/>
<path d="M190.562 204.141C191.594 202.523 192.918 201.111 194.466 199.977C195.811 198.791 198.443 196.275 199.845 196.073" stroke="#AA6665" stroke-linecap="round" stroke-linejoin="round"/>
<path d="M351.531 176.523C351.361 175.997 351.096 175.507 350.75 175.077C350.141 173.878 349.778 172.571 349.68 171.23C349.485 169.68 349.485 168.11 349.68 166.56C349.68 166.271 349.839 164.825 350.215 164.622C351.242 164.073 351.516 168.801 351.545 169.394C351.263 168.225 351.263 167.006 351.545 165.837C351.777 164.723 352.239 164.955 352.456 165.837C352.933 167.818 353.179 169.914 353.555 171.924C353.362 171.11 353.313 170.268 353.411 169.437C353.411 168.815 353.324 167.543 353.96 167.109C354.596 166.675 354.914 168.208 355.016 168.743C355.397 170.941 356.224 173.037 357.445 174.903C358.246 175.759 358.91 176.735 359.411 177.795C359.68 178.932 359.864 180.087 359.961 181.251C359.195 181.092 358.312 180.6 357.517 180.355C356.111 179.975 354.764 179.406 353.512 178.663C352.934 178.303 352.416 177.854 351.979 177.332C351.936 177.13 351.719 176.74 351.531 176.523Z" fill="#AA6665"/>
<path d="M363.157 194.352C362.491 191.286 358.616 186.254 355.84 183.998C350.866 179.979 346.961 178.793 346.253 171.751C346.123 170.435 346.253 168.946 346.065 167.601C345.68 166.445 345.447 165.245 345.371 164.029C348.118 163.321 348.87 169.813 349.969 171.462C351.713 174.025 353.986 176.185 356.635 177.795C356.722 177.882 356.722 177.882 356.635 177.795C355.189 176.19 352.818 171.751 355.189 170.001C356.548 172.127 356.404 173.023 359.05 174.224C360.669 174.947 362.969 175.12 365.499 177.593C367.35 179.415 367.35 183.377 368.637 185.676C370.083 188.235 371.89 191.764 373.206 194.352H363.157Z" fill="#F9D1CF"/>
<path d="M221.347 357.88L329.552 357.996C329.552 357.996 326.761 331.592 325.373 315.989C323.984 300.387 323.363 288.515 323.363 288.515L237.499 289.716C237.499 289.716 243.775 323.321 221.347 357.88Z" fill="#769494"/>
<path d="M310.117 320.284L290.698 318.636L246.725 314.861C246.725 314.861 234.781 326.776 221.29 367.64C207.798 408.504 183.694 504.837 169.407 562.127H214.132L272.449 407.044L252.74 558.541H298.651C298.651 558.541 310.305 438.523 320.066 393.697C328.279 356.145 310.117 320.284 310.117 320.284Z" fill="#075B3D"/>
<path d="M272.449 407.044C272.449 407.044 297.653 366.715 295.281 324.289" stroke="#233332" stroke-linecap="round" stroke-linejoin="round"/>
<path d="M294.674 342.798C294.674 342.798 303.35 339.978 302.179 323.321" stroke="#233332" stroke-linecap="round" stroke-linejoin="round"/>
<path d="M246.725 314.89C246.725 314.89 291.464 331.751 310.117 320.313C310.117 320.313 325.083 272.002 321.194 261.75C316.422 249.17 311.65 233.799 296.612 231.745C296.612 231.745 264.482 225.961 256.529 233.914C248.576 241.867 243.153 254.881 249.66 278.379C256.167 301.876 246.725 314.89 246.725 314.89Z" fill="#C2E3D2"/>
<path d="M293.72 231.283C293.72 231.283 316.856 261.75 315.41 296.815C313.964 331.881 307.818 377.791 307.818 377.791C307.818 377.791 323.001 374.899 329.87 361.524C329.87 361.524 321.194 283.194 323.363 271.626C323.363 271.626 393.855 284.033 402.893 274.764C411.93 265.495 411.93 247.29 401.808 232.107C391.686 216.924 375.78 186.572 375.78 186.572L359.151 188.857L372.006 238.975C372.006 238.975 341.438 237.529 327.701 234.637C313.964 231.745 310.117 227.581 293.72 231.283Z" fill="#D060AF"/>
<path d="M374.204 249.43L371.963 239.033C371.963 239.033 382.519 243.733 386.134 250.963" stroke="#824A77" stroke-linecap="round" stroke-linejoin="round"/>
<path d="M323.363 271.626L325.083 253.797" stroke="#769494" stroke-linecap="round" stroke-linejoin="round"/>
<path d="M277.568 208.508L273.736 234.175C273.736 234.175 281.487 247.275 287.849 247.651C290.741 247.825 293.083 241.144 294.37 236.517L295.281 211.733L277.568 208.508Z" fill="#F9D1CF"/>
<path d="M278.146 214.957C278.146 214.957 275.037 233.987 294.37 236.517L294.92 217.358L278.146 214.957Z" fill="#AA6665"/>
<path d="M296.583 185.054C289.223 183.825 281.747 191.315 278.97 202.16C278.881 201.673 278.683 201.212 278.393 200.81C278.102 200.409 277.725 200.078 277.29 199.841C276.855 199.604 276.372 199.467 275.877 199.44C275.383 199.414 274.888 199.498 274.43 199.688C271.827 200.468 271.046 209.694 277.944 210.677C277.944 220.683 282.383 228.853 289.15 229.981C297.161 231.312 305.331 222.346 307.413 209.94C309.496 197.533 304.594 186.384 296.583 185.054Z" fill="#F9D1CF"/>
<path d="M290.148 207.496C290.148 207.259 290.218 207.027 290.35 206.829C290.482 206.632 290.67 206.478 290.889 206.387C291.108 206.296 291.35 206.273 291.582 206.319C291.815 206.365 292.029 206.479 292.197 206.647C292.365 206.815 292.479 207.029 292.525 207.262C292.572 207.495 292.548 207.736 292.457 207.955C292.366 208.175 292.212 208.362 292.015 208.494C291.818 208.626 291.586 208.696 291.348 208.696C291.03 208.696 290.725 208.57 290.5 208.345C290.274 208.12 290.148 207.814 290.148 207.496Z" fill="#233332"/>
<path d="M300.458 210.533C300.458 210.295 300.528 210.063 300.66 209.866C300.792 209.668 300.98 209.515 301.199 209.424C301.418 209.333 301.66 209.309 301.892 209.355C302.125 209.402 302.339 209.516 302.507 209.684C302.675 209.852 302.789 210.066 302.835 210.298C302.882 210.531 302.858 210.773 302.767 210.992C302.676 211.211 302.522 211.399 302.325 211.53C302.128 211.662 301.896 211.733 301.658 211.733C301.501 211.733 301.345 211.702 301.199 211.641C301.053 211.581 300.921 211.493 300.81 211.381C300.698 211.27 300.61 211.137 300.549 210.992C300.489 210.846 300.458 210.69 300.458 210.533Z" fill="#233332"/>
<path d="M288.89 202.637C288.89 202.637 292.259 200.049 294.934 202.999" stroke="#233332" stroke-linecap="round" stroke-linejoin="round"/>
<path d="M301.051 204.922C301.498 204.788 301.968 204.751 302.43 204.811C302.893 204.872 303.337 205.03 303.734 205.274C304.132 205.519 304.473 205.844 304.735 206.229C304.998 206.615 305.176 207.051 305.259 207.51" stroke="#233332" stroke-linecap="round" stroke-linejoin="round"/>
<path d="M298.564 205.284C296.872 207.872 297.87 210.735 297.393 213.613C297.248 214.48 296.727 216.157 295.643 216.201C295.409 216.184 295.181 216.12 294.972 216.013C294.764 215.906 294.579 215.759 294.428 215.579C294.24 215.377 294.009 214.827 293.937 214.813" stroke="#AA6665" stroke-linecap="round" stroke-linejoin="round"/>
<path d="M288.89 217.922C289.551 218.629 290.323 219.225 291.175 219.686C292.44 220.441 293.868 220.882 295.339 220.973" stroke="#AA6665" stroke-linecap="round" stroke-linejoin="round"/>
<path d="M276.064 200.15C276.176 201.285 276.458 202.397 276.903 203.447C277.523 204.57 278.27 205.618 279.13 206.571L283.294 195.003C283.771 194.026 284.443 193.158 285.269 192.452C286.095 191.746 287.056 191.216 288.095 190.896C290.7 190.055 293.426 189.649 296.163 189.696C298.021 189.761 299.814 190.397 301.297 191.518C303.865 193.405 305.939 195.885 307.341 198.748C307.943 203.075 307.826 207.472 306.994 211.762C307.807 211.377 308.503 210.784 309.011 210.042C309.519 209.3 309.821 208.436 309.886 207.539C310.305 204.257 310.276 197.143 309.293 193.889C308.498 191.301 307.124 184.794 295.484 183.348C292.476 182.974 289.422 183.3 286.562 184.302C284.932 184.895 283.452 185.836 282.223 187.06C280.994 188.284 280.047 189.76 279.448 191.388L276.064 200.15Z" fill="#233332"/>
<path d="M274.343 230.111C274.343 230.111 256.991 229.012 246.869 236.517C236.747 244.022 202.463 265.567 202.463 265.567L206.974 220.177H190.562C190.562 220.177 159.675 269.341 162.567 316.336C162.567 316.336 169.797 323.205 179.919 316.336C190.041 309.468 237.355 284.886 237.355 284.886C237.355 284.886 238.396 303.322 237.355 311.998C236.313 320.674 221.449 357.909 221.449 357.909C232.018 371.946 247.572 381.392 264.901 384.298C264.901 384.298 267.59 320.356 276.165 299.462C286.446 274.157 274.343 230.111 274.343 230.111Z" fill="#D060AF"/>
<path d="M273.736 271.568L273.129 277.974C273.129 277.974 266.101 277.844 263.108 280.476C262.067 281.377 260.949 282.185 259.768 282.89C259.097 283.283 258.322 283.462 257.547 283.403C256.771 283.343 256.033 283.048 255.43 282.558C252.87 280.45 250.028 278.712 246.985 277.396L244.599 276.369L245.221 269.703L273.736 271.568Z" stroke="#824A77" stroke-linecap="round" stroke-linejoin="round"/>
<path d="M256.196 276.586C256.223 276.301 256.334 276.031 256.515 275.809C256.695 275.587 256.938 275.424 257.211 275.34C257.485 275.256 257.777 275.255 258.051 275.338C258.325 275.42 258.568 275.581 258.751 275.802C258.933 276.023 259.045 276.292 259.074 276.577C259.103 276.861 259.047 277.148 258.913 277.401C258.778 277.653 258.572 277.861 258.32 277.996C258.069 278.132 257.782 278.189 257.497 278.162C257.116 278.125 256.764 277.939 256.52 277.643C256.276 277.348 256.16 276.967 256.196 276.586Z" fill="#769494" stroke="#824A77" stroke-miterlimit="10"/>
<path d="M245.062 276.571L244.194 291.928C244.102 293.508 244.509 295.078 245.357 296.414C246.206 297.75 247.453 298.786 248.923 299.375L254.519 301.616C256.461 302.39 258.618 302.436 260.592 301.746L265.653 299.953C266.987 299.481 268.162 298.644 269.044 297.537C269.925 296.43 270.479 295.098 270.642 293.692L272.449 277.974" stroke="#824A77" stroke-linecap="round" stroke-linejoin="round"/>
<path d="M202.448 265.567C202.448 265.567 202.535 273.318 196.389 284.524" stroke="#824A77" stroke-linecap="round" stroke-linejoin="round"/>
<path d="M273.056 207.004C272.391 207.134 272.116 210.995 271.495 212.08C268.921 216.635 264.655 220.235 261.026 223.937C254.938 230.126 247.563 236.329 244.917 244.89C240.579 258.713 248.286 270.209 258.669 278.683C262.631 281.907 268.791 285.913 268.993 291.697C271.09 287.763 274.199 284.047 275.963 279.724C277.929 274.923 277.843 269.847 278.204 264.786C279.043 265.64 279.881 266.898 280.662 267.838C281.096 263.659 282.108 259.566 281.631 255.286C281.085 251.156 279.859 247.144 278.002 243.415C276.559 240.423 275.453 237.28 274.705 234.045C274.278 231.113 274.395 228.127 275.052 225.238C275.934 220.293 276.816 215.275 277.611 210.388C276.633 210.239 275.707 209.852 274.913 209.262C274.119 208.673 273.482 207.897 273.056 207.004Z" fill="#233332"/>
<path d="M535.1 325.316L549.676 323.754C549.676 323.754 580.042 407.261 536.662 568.244H499.789C499.789 568.244 507.019 540.871 502.363 514.265C497.707 487.658 511.256 451.61 511.256 451.61C511.256 451.61 464.434 371.588 490.39 325.316H535.1Z" fill="#075B3D"/>
<path d="M485.546 325.316C485.546 325.316 457.421 365.327 473.009 393.524C488.597 421.721 525.065 450.641 525.065 450.641C525.065 450.641 497.591 460.04 492.95 494.744C488.308 529.448 480.384 534.798 480.384 534.798L515.406 544.631C515.406 544.631 583.657 473.777 582.775 452.81C581.893 431.843 535.144 325.316 535.144 325.316H485.546Z" fill="#17B883"/>
<path d="M502.305 529.592L546.524 450.785C546.524 450.785 473.356 391.297 496.42 344.157" stroke="#007F7A" stroke-linecap="round" stroke-linejoin="round"/>
<path d="M493.036 374.697C493.036 374.697 509.043 371.95 508.48 345.329" stroke="#007F7A" stroke-linecap="round" stroke-linejoin="round"/>
<path d="M482.047 178.157C468.136 179.429 473.024 189.811 468.281 193.947C466.097 195.856 463.711 197.779 463.307 200.671C462.902 203.563 464.478 206.455 462.15 209.101C460.27 211.299 457.812 211.762 456.959 214.697C456.105 217.632 457.841 220.38 456.612 223.257C455.382 226.135 453.503 227.523 453.011 230.617C452.563 233.394 451.348 239.149 453.329 241.448C455.814 244.095 458.894 246.111 462.315 247.328C465.735 248.545 469.396 248.929 472.995 248.447C481.165 247.449 494.294 242.518 502.305 242.894C515.319 243.53 530.661 248.505 540.335 235.664C541.86 233.843 542.726 231.56 542.793 229.186C542.793 226.005 540.61 224.458 540.133 221.681C539.54 218.196 543.025 214.697 542.808 211.024C542.605 207.004 539.554 204.141 535.693 202.464C533.192 201.379 528.622 200.714 527.307 198.126C525.745 195.017 528.507 191.633 525.701 188.611C522.896 185.589 519.238 186.76 515.739 185.632C512.239 184.505 512.63 182.74 511.574 180.109C510.027 176.103 505.862 177.087 502.088 175.236C498.314 173.385 490.809 171.36 488.409 175.424C486.659 178.316 483.637 177.867 482.047 178.157Z" fill="black"/>
<path d="M557.991 172.286C553.927 167.948 549.315 163.61 547.695 163.379C544.471 163.046 539.872 163.595 536.951 162.294C536.778 159.908 537.197 157.537 537.125 155.064C537.125 152.996 536.199 151.145 536.127 149.28C536.011 146.677 537.414 148.138 539.019 147.169C540.624 146.2 541.795 144.19 543.458 142.947C546.712 140.503 551.296 143.12 554 145.535C555.822 147.14 554.245 148.716 555.142 150.697C555.807 152.143 557.933 151.912 558.786 153.589C559.306 154.616 558.974 155.556 559.249 156.655C559.437 157.435 563.587 161.6 567.505 166.126L557.991 172.286Z" fill="#664230"/>
<path d="M538.47 153.242C541.362 152.635 543.661 150.205 546.191 148.687C548.722 147.169 548.548 150.133 547.941 151.796C547.473 153.002 546.619 154.019 545.512 154.688C548.548 153.907 553.826 154.543 553.537 158.78" stroke="#442415" stroke-linecap="round" stroke-linejoin="round"/>
<path d="M549.083 154.095C551.527 152.23 553.074 153.936 554.491 151.001" stroke="#442415" stroke-linecap="round" stroke-linejoin="round"/>
<path d="M597.033 177.593C590.07 175.026 583.442 171.627 577.295 167.471C576.432 166.86 575.453 166.433 574.418 166.216C573.383 166 572.315 165.999 571.279 166.213L567.39 160.342L552.062 170.724L557.253 175.062C556.408 176.879 556.299 178.951 556.95 180.846L557.615 182.755C559.885 204.329 573.709 215.261 573.709 215.261L511.169 235.592L495.422 235.895C495.422 235.895 469.018 237.341 457.638 253.392C446.258 269.443 428.906 285.305 428.906 285.305C428.906 285.305 416.254 274.402 404.324 275.762C402.778 275.955 401.296 276.494 399.986 277.338C397.514 277.222 395.057 277.779 392.877 278.951C390.697 280.122 388.876 281.864 387.608 283.989C383.878 289.918 384.818 297.321 389.589 301.096C389.64 306.546 391.519 311.821 394.925 316.076C406.493 329.885 440.474 343.55 456.019 336.32C471.563 329.09 480.919 306.677 480.919 306.677C480.919 306.677 486.283 320.414 480.919 329.452C475.554 338.489 502.609 346.804 525.745 344.996C548.881 343.189 556.588 333.153 551.05 323.668C539.569 303.973 563.326 282.457 559.509 265.958C579.753 257.961 610.119 244.528 619.937 232.468C635.193 213.916 617.277 185.546 597.033 177.593Z" fill="#C2E3D2"/>
<path d="M559.914 268.083C559.692 265.613 558.846 263.24 557.456 261.186C552.134 253.262 544.08 248.49 533.148 241.795" stroke="#88D3B8" stroke-linecap="round" stroke-linejoin="round"/>
<path d="M480.948 306.764C480.948 306.764 483.232 284.221 478.446 276.687" stroke="#88D3B8" stroke-linecap="round" stroke-linejoin="round"/>
<path d="M428.935 285.32C428.935 285.32 443.525 291.581 447.372 304.841" stroke="#88D3B8" stroke-linecap="round" stroke-linejoin="round"/>
<path d="M573.752 215.275C573.752 215.275 587.648 216.866 591.755 221.811" stroke="#E6817D" stroke-linecap="round" stroke-linejoin="round"/>
<path d="M393.32 297.047C389.387 294.444 377.747 287.792 377.747 287.792C375.072 287.243 371.5 286.983 369.071 285.594C365.615 283.584 367.726 277.916 369.186 275.198C370.878 272.016 369.649 271.048 369.186 267.794C368.608 263.803 371.124 263.34 374.219 264.006C376.619 264.526 376.084 263.499 378.166 262.56C379.467 261.996 380.118 262.487 381.347 263.297C382.576 264.107 383.733 265.379 385.035 266.305C386.625 267.418 388.317 267.982 389.156 269.833C390.197 272.175 389.749 274.952 390.486 277.323C391.816 281.661 400.608 287.532 400.608 287.532C402.893 294.068 397.586 298.594 393.32 297.047Z" fill="#AA3F37"/>
<path d="M376.156 263.89C376.001 264.539 375.803 265.176 375.563 265.799C375.332 266.666 375.144 267.519 374.913 268.373C374.329 269.716 374.187 271.209 374.508 272.638C374.956 273.708 376.735 274.995 377.486 273.477C378.079 272.262 378.253 270.845 378.932 269.645C378.373 271.536 378.399 273.552 379.005 275.429C379.537 276.55 380.348 277.516 381.361 278.232C382.374 278.949 383.555 279.393 384.789 279.521" stroke="#852B22" stroke-linecap="round" stroke-linejoin="round"/>
<path d="M379.352 276.094C379.598 276.398 379.525 277.121 379.54 277.54C379.544 278.506 379.491 279.472 379.381 280.432C379.149 282.384 378.123 285.19 375.737 285.19" stroke="#852B22" stroke-linecap="round" stroke-linejoin="round"/>
<path d="M508.682 211.169C510.896 210.089 513.433 209.875 515.796 210.569C518.159 211.263 520.178 212.815 521.455 214.921C522.733 217.026 523.178 219.533 522.703 221.95C522.228 224.367 520.867 226.519 518.887 227.984C516.907 229.449 514.452 230.121 512.002 229.869C509.552 229.617 507.284 228.459 505.644 226.621C504.004 224.784 503.11 222.4 503.137 219.937C503.164 217.474 504.11 215.11 505.79 213.309" stroke="#D060AF" stroke-linecap="round" stroke-linejoin="round"/>
<path d="M510.981 238.99L507.077 216.172L490.332 215.348L492.776 238.296C491.846 238.378 490.956 238.716 490.205 239.272C489.455 239.828 488.873 240.581 488.525 241.448C487.44 246.871 494.656 250.254 501.727 251.845C508.798 253.435 515.261 251.339 516.187 247.145C516.794 244.282 514.668 241.173 510.981 238.99Z" fill="#664230"/>
<path d="M511.198 240.219L507.077 216.172L490.332 215.348C490.332 215.348 497.288 233.076 511.198 240.219Z" fill="#442415"/>
<path d="M513.107 206.151C513.492 202.278 512.647 198.383 510.692 195.017C510.486 194.927 510.266 194.873 510.041 194.858C508.699 194.939 507.353 194.813 506.05 194.482C504.373 194.005 503.737 193.614 502.377 194.757C500.787 196.101 498.155 195.48 496.232 194.959C494.959 194.627 492.617 193.296 491.431 194.352C491.201 194.652 491.039 195 490.956 195.369C490.874 195.739 490.873 196.122 490.954 196.492C491.094 197.213 491.059 197.956 490.853 198.661C490.593 199.297 489.841 199.644 489.725 200.266C489.508 201.365 490.65 202.536 490.535 203.722C490.535 204.503 489.942 204.98 489.826 205.674C489.45 208.002 491.908 209.564 492.154 211.632C492.4 213.699 489.334 212.181 488.597 211.4C488.091 210.851 487.773 210.07 487.151 209.737C486.529 209.405 485.532 209.651 484.78 209.463C484.028 209.275 483.059 208.017 482.177 207.698L481.917 208.045C478.88 212.832 483.84 217.387 490.477 217.155C493.036 223.2 498.979 233.423 508.87 230.487C521.06 226.843 512.181 215.782 513.107 206.151Z" fill="#664230"/>
<path d="M497.909 208.118C497.844 207.975 497.808 207.822 497.802 207.665C497.797 207.509 497.822 207.353 497.877 207.206C497.932 207.06 498.016 206.925 498.123 206.811C498.231 206.697 498.359 206.606 498.502 206.542C498.647 206.464 498.807 206.417 498.971 206.403C499.135 206.39 499.3 206.41 499.456 206.463C499.611 206.516 499.755 206.6 499.876 206.711C499.998 206.822 500.096 206.956 500.164 207.107C500.231 207.257 500.267 207.419 500.269 207.584C500.271 207.748 500.24 207.911 500.176 208.063C500.113 208.215 500.018 208.352 499.9 208.466C499.781 208.58 499.64 208.668 499.485 208.725C499.342 208.79 499.188 208.826 499.031 208.83C498.873 208.835 498.717 208.808 498.57 208.751C498.424 208.695 498.29 208.61 498.176 208.501C498.063 208.392 497.972 208.262 497.909 208.118Z" fill="black"/>
<path d="M507.67 206.657C507.542 206.365 507.534 206.035 507.648 205.738C507.762 205.44 507.988 205.199 508.277 205.067C508.567 204.94 508.895 204.932 509.19 205.046C509.485 205.16 509.724 205.386 509.853 205.674C509.92 205.816 509.959 205.97 509.965 206.127C509.971 206.284 509.946 206.441 509.891 206.588C509.836 206.735 509.751 206.869 509.643 206.983C509.535 207.097 509.405 207.188 509.26 207.25C508.97 207.379 508.642 207.388 508.344 207.278C508.047 207.167 507.805 206.944 507.67 206.657Z" fill="black"/>
<path d="M494.67 202.637C495.618 201.995 496.714 201.603 497.855 201.5C498.995 201.396 500.143 201.583 501.192 202.045" stroke="#2F2420" stroke-linecap="round" stroke-linejoin="round"/>
<path d="M507.019 201.466C507.843 200.749 508.898 200.354 509.991 200.354C511.083 200.354 512.138 200.749 512.962 201.466" stroke="#2F2420" stroke-linecap="round" stroke-linejoin="round"/>
<path d="M505.457 202.637C504.966 205.689 507.048 207.886 507.8 210.721C508.017 211.574 508.234 213.309 507.25 213.801C507.031 213.882 506.797 213.917 506.563 213.905C506.33 213.892 506.101 213.832 505.891 213.728C505.645 213.613 505.212 213.208 505.125 213.222" stroke="#2F2420" stroke-linecap="round" stroke-linejoin="round"/>
<path d="M508.219 219.064C506.785 219.37 505.298 219.331 503.881 218.948C502.94 218.724 502.038 218.359 501.206 217.864C501.834 217.701 502.417 217.4 502.912 216.982C503.679 216.519 503.867 216.577 504.677 216.895C504.963 217.061 505.269 217.192 505.588 217.285C506.021 217.285 505.891 217.068 506.253 216.881C506.889 216.562 507.381 216.403 508.002 216.881C508.277 217.168 508.448 217.539 508.488 217.935C508.527 218.331 508.432 218.728 508.219 219.064Z" stroke="#2F2420" stroke-linecap="round" stroke-linejoin="round"/>
<path d="M488.554 215.868C490.968 216.315 493.129 217.649 494.611 219.607C496.094 221.565 496.791 224.006 496.567 226.451C496.342 228.897 495.212 231.17 493.398 232.825C491.584 234.481 489.216 235.398 486.761 235.398C484.305 235.398 481.938 234.481 480.124 232.825C478.309 231.17 477.179 228.897 476.955 226.451C476.73 224.006 477.427 221.565 478.91 219.607C480.392 217.649 482.553 216.315 484.968 215.868" stroke="#D060AF" stroke-linecap="round" stroke-linejoin="round"/>
<path d="M584.554 159.098C585.58 153.242 587.128 138.507 588.414 137.408C590.931 135.369 595.081 133.316 596.801 130.612C595.644 128.53 593.996 126.78 592.738 124.727C591.654 122.977 591.364 120.938 590.439 119.377C589.094 117.15 588.718 119.131 586.882 119.174C584.799 119.174 582.92 118.22 580.852 118.09C576.789 117.83 574.388 122.515 573.448 126.014C572.812 128.371 574.996 128.819 575.328 130.974C575.574 132.564 573.665 133.519 573.882 135.398C574.012 136.541 574.808 137.148 575.184 138.218C575.444 138.97 574.171 153.242 573.347 159.2L584.554 159.098Z" fill="#FFAE99"/>
<path d="M594.921 130.598C592.029 129.99 589.73 127.547 587.2 126.043C584.669 124.539 584.843 127.489 585.45 129.152C585.92 130.356 586.774 131.373 587.879 132.044C584.843 131.263 579.565 131.899 579.854 136.136" stroke="#CC7F72" stroke-linecap="round" stroke-linejoin="round"/>
<path d="M584.308 131.436C581.864 129.571 578.871 127.98 577.439 125.045" stroke="#CC7F72" stroke-linecap="round" stroke-linejoin="round"/>
<path d="M672.413 145.101C672.933 140.937 675.174 123.411 675.174 123.411C676.36 121.285 678.254 118.726 678.703 116.311C679.339 112.812 674.278 110.961 671.588 110.354C668.465 109.66 668.523 108.271 666.6 106.016C664.228 103.326 662.45 104.743 661.105 107.23C660.064 109.139 659.659 108.199 657.866 109.081C656.738 109.631 656.695 110.354 656.521 111.655C656.348 112.956 656.521 114.547 656.42 115.892C656.261 117.613 655.653 119.088 656.42 120.722C657.403 122.789 659.543 124.091 660.758 125.97C662.869 129.34 661.756 144.552 661.756 144.552C664.85 149.858 671.024 148.919 672.413 145.101Z" fill="#FFAE99"/>
<path d="M660.512 108.922C660.859 109.182 661.018 108.922 661.495 109.168C662.204 109.515 662.941 109.891 663.621 110.224C664.861 110.613 665.949 111.382 666.73 112.421C667.192 113.347 667.033 115.313 665.573 114.923C664.402 114.619 663.346 113.925 662.146 113.665C663.755 114.388 665.109 115.577 666.036 117.078C666.483 118.084 666.665 119.187 666.563 120.284C666.462 121.38 666.081 122.432 665.457 123.339" stroke="#CC7F72" stroke-width="0.89" stroke-linecap="round" stroke-linejoin="round"/>
<path d="M666.296 117.743C666.296 118.075 666.889 118.451 667.149 118.668C667.803 119.247 668.494 119.783 669.217 120.273C670.663 121.242 673.15 122.182 674.553 120.562" stroke="#CC7F72" stroke-width="0.89" stroke-linecap="round" stroke-linejoin="round"/>
<path d="M600.98 237.486C600.619 232.165 597.336 225.383 598.479 218.688C599.693 211.603 602.556 205.674 608.731 201.857C622.395 193.311 632.633 198.863 643.088 209.737C653.542 220.611 655.639 235.317 661.062 248.664C666.325 261.576 677.994 271.221 685.137 282.905C692.83 295.485 696.792 319.518 679.657 326.068C675.189 327.774 670.157 327.326 665.472 328.092C658.719 329.191 652.559 332.271 646.153 334.426C638.446 337.029 631.404 340.788 623.437 342.784C613.503 345.271 596.96 345.806 588.921 337.954C577.627 326.936 589.918 302.339 594.95 291.176C602.73 273.954 605.781 256.891 602.296 238.874C602.18 239.308 602.021 239.669 600.98 237.486Z" fill="#233332"/>
<path d="M603.453 334.223C603.453 334.223 575.097 361.697 574.056 389.099C571.467 457.061 640.138 544.023 637.998 579.74L677.358 576.226C677.358 576.226 667.742 503.188 640.528 452.738C640.528 452.738 675.825 391.34 662.291 338.504L603.453 334.223Z" fill="#D060AF"/>
<path d="M623.986 335.727L579.16 579.74H620.935C620.935 579.74 635.511 466.46 651.301 441.574C667.091 416.689 679.021 397.79 662.262 338.532L623.986 335.727Z" fill="#D060AF"/>
<path d="M596.989 482.814C596.989 482.814 606.186 352.457 615.397 335.105" stroke="#824A77" stroke-linecap="round" stroke-linejoin="round"/>
<path d="M641.714 346.399C641.714 346.399 653.513 375.839 670.388 388.492" stroke="#824A77" stroke-width="0.89" stroke-linecap="round" stroke-linejoin="round"/>
<path d="M607.227 334.513C607.227 334.513 596.989 365.283 608.673 365.283" stroke="#824A77" stroke-linecap="round" stroke-linejoin="round"/>
<path d="M662.927 309.338C666.846 282.254 682.245 265.379 675.811 226.815C671.256 199.557 677.257 140.315 677.257 140.315H657.924C645.199 159.243 642.553 218.833 640.861 239.38C640.621 242.244 639.314 244.914 637.198 246.858C635.082 248.803 632.312 249.881 629.438 249.878C625.664 250.767 622.012 252.112 618.564 253.884C590.15 237.211 588.198 151.492 588.198 151.492H568.055L565.9 188.091C558.323 236.879 585.407 270.802 598.392 283.932C597.743 285.091 597.211 286.312 596.801 287.575C593.794 297.148 600.662 299.895 603.67 308.904C605.246 313.618 602.137 327.181 598.811 339.096C595.76 350.028 662.435 347.772 662.291 338.533C662.088 323.436 662.927 309.338 662.927 309.338Z" fill="#EFBFDF"/>
<path d="M596.801 287.575C599.809 278.003 609.685 274.171 610.119 264.063" stroke="#EA9DD6" stroke-width="0.89" stroke-linecap="round" stroke-linejoin="round"/>
<path d="M610.119 307.154C610.119 307.154 624.102 304.624 634.701 308.6" stroke="#EA9DD6" stroke-width="0.89" stroke-linecap="round" stroke-linejoin="round"/>
<path d="M641.049 236.937L638.836 264.063" stroke="#EA9DD6" stroke-width="0.89" stroke-linecap="round" stroke-linejoin="round"/>
<path d="M618.809 256.66L620.096 240.754L634.73 235.939L636.957 246.654C637.28 248.207 637.206 249.817 636.741 251.333C636.276 252.85 635.435 254.225 634.296 255.33L622.728 269.37L618.809 256.66Z" fill="#FFAE99"/>
<path d="M634.73 235.823L620.096 240.638L618.809 256.544C623.258 255.124 627.167 252.378 630.012 248.675C632.857 244.972 634.503 240.488 634.73 235.823Z" fill="#CC7F72"/>
<path d="M639.733 224.226L634.73 229.591C632.358 225.788 627.052 224.776 621.86 223.098C620.075 222.603 618.419 221.727 617.004 220.532C615.588 219.336 614.448 217.849 613.662 216.172C611.738 227.003 607.531 230.632 607.444 230.762C607.444 231.196 607.444 231.615 607.559 232.049C609.005 242.822 616.149 250.847 623.581 249.806C628.758 249.126 633.096 243.66 634.73 235.823C643.478 232.729 639.733 224.226 639.733 224.226Z" fill="#FFAE99"/>
<path d="M624.593 224.964C624.593 224.964 620.978 222.737 618.607 225.932" stroke="#233332" stroke-linecap="round" stroke-linejoin="round"/>
<path d="M612.794 227.509C612.369 227.315 611.908 227.213 611.441 227.21C610.973 227.207 610.511 227.303 610.083 227.491C609.656 227.68 609.273 227.956 608.96 228.303C608.647 228.65 608.411 229.059 608.268 229.504" stroke="#233332" stroke-linecap="round" stroke-linejoin="round"/>
<path d="M615.165 227.74C616.727 230.401 615.585 233.206 615.917 236.112C616.019 236.994 616.452 238.686 617.551 238.787C617.784 238.781 618.012 238.728 618.224 238.631C618.435 238.534 618.624 238.396 618.78 238.223C618.968 238.036 619.229 237.486 619.315 237.486" stroke="#CC7F72" stroke-linecap="round" stroke-linejoin="round"/>
<path d="M618.043 241.275C619.665 241.089 621.229 240.556 622.627 239.713C623.495 239.284 624.294 238.729 624.998 238.064C625.216 238.708 625.3 239.39 625.245 240.068C625.19 240.745 624.998 241.405 624.68 242.005C624.362 242.606 623.925 243.136 623.395 243.562C622.866 243.988 622.255 244.302 621.6 244.485L618.043 241.275Z" fill="#F9F9F9"/>
<path d="M613.589 230.748C612.921 230.642 612.236 230.721 611.61 230.976C610.983 231.23 610.437 231.652 610.032 232.194" stroke="#CC7F72" stroke-linecap="round" stroke-linejoin="round"/>
<path d="M623.451 228.232C622.821 227.991 622.137 227.925 621.472 228.043C620.807 228.16 620.187 228.455 619.677 228.897" stroke="#CC7F72" stroke-linecap="round" stroke-linejoin="round"/>
<path d="M413.81 334.99C380.162 412.322 264.294 364.228 295.238 285.826C328.959 208.465 444.783 256.559 413.81 334.99Z" fill="#FFB02A"/>
<path opacity="0.1" d="M413.81 334.99C380.162 412.322 264.294 364.228 295.238 285.826C328.959 208.465 444.783 256.559 413.81 334.99Z" fill="black"/>
<path opacity="0.1" d="M331.923 365.529C259.984 334.556 304.232 226.713 377.168 255.301C449.121 286.274 404.859 394.03 331.923 365.529ZM403.543 331.852C430.237 268.228 334.28 226.164 305.591 288.964C278.522 354.034 374.247 395.765 403.543 331.823V331.852Z" fill="black"/>
<path d="M368.579 275.574L374.247 277.902C370.343 288.024 368.362 285.725 377.862 291.928C387.247 298.782 381.174 315.845 369.577 315.064C380.176 322.438 374.334 341.092 361.667 341.453C358.139 342.552 349.955 337.94 348.74 340.007C345.472 346.355 347.974 348.944 340.064 345.068C341.091 342.596 342.132 339.978 343.173 337.506C343.78 335.727 340.556 335.814 339.399 334.932L335.957 343.319L330.289 341.063L333.73 332.691L319.646 326.907L323.551 317.363L327.715 319.069L341.134 286.346L337.013 284.655L340.917 275.154L354.929 280.938L358.732 271.641L364.371 273.954L360.612 283.107L364.791 284.828L368.579 275.574ZM352.037 313.748C350.837 313.603 348.812 311.536 348.075 313.068C346.542 316.857 344.99 320.636 343.419 324.405C343.173 326.574 347.439 326.56 348.928 327.687C358.819 331.216 362.52 315.657 352.037 313.748ZM354.119 298.363C353.873 300.127 351.227 302.932 352.528 304.262C357.185 306.851 362.882 307.704 364.183 301.139C365.875 296.338 360.872 294.343 357.228 293.07C355.204 292.868 355.204 296.96 354.119 298.363Z" fill="#F2E4CE"/>
<path d="M403.876 289.788C431.046 356.072 333.224 396.907 305.259 330.984C334.714 393.929 427.894 354.901 403.833 289.788H403.876Z" fill="white"/>
<path opacity="0.1" d="M304.897 330.71C277.944 264.324 375.91 223.908 403.731 289.86C374.508 226.786 281.067 265.466 304.941 330.71H304.897Z" fill="black"/>
<path d="M337.042 284.582C338.04 281.69 339.601 277.569 340.744 274.634C345.564 276.504 350.345 278.461 355.088 280.504L354.625 280.707C355.782 278.032 357.517 274.142 358.775 271.554C357.835 274.446 356.23 278.451 355.175 281.3C350.359 279.42 345.573 277.482 340.83 275.415L341.293 275.227C340.064 278.003 338.372 281.907 337.042 284.582Z" fill="white"/>
<path d="M319.675 326.834C320.876 323.537 322.148 320.212 323.421 316.929L323.695 317.03L327.889 318.679L327.411 318.867C331.749 308.051 336.362 296.859 341.163 286.289C337.114 297.307 332.574 308.644 327.975 319.474L327.657 319.33L323.594 317.551L323.97 317.406C322.538 320.617 321.136 323.668 319.675 326.834Z" fill="white"/>
<path d="M344.012 325.692C345.631 326.198 347.945 327.022 349.55 327.615C355.536 329.625 360.294 321.831 357.185 316.9C362.737 326.617 351.589 331.939 344.012 325.692Z" fill="white"/>
<path d="M352.745 304.378C359.325 308.195 365.962 303.973 363.504 296.367C367.48 304.045 359.195 309.902 352.745 304.378Z" fill="white"/>
<path d="M333.716 332.618C333.117 335.607 331.943 338.45 330.26 340.991C330.877 338.013 332.039 335.174 333.687 332.618H333.716Z" fill="white"/>
<path d="M343.303 336.71C342.697 339.671 341.539 342.492 339.89 345.025C340.499 342.065 341.656 339.245 343.303 336.71Z" fill="white"/>
<path d="M212.599 24.389C222.405 36.1794 227.127 51.3814 225.728 66.6526C224.328 81.9239 216.921 96.0142 205.136 105.826C193.35 115.637 178.15 120.367 162.878 118.975C147.606 117.583 133.512 110.183 123.695 98.4021C113.878 86.6213 109.141 71.4239 110.525 56.1513C111.91 40.8787 119.303 26.7811 131.079 16.958C142.855 7.13489 158.05 2.39037 173.323 3.76757C188.597 5.14477 202.698 12.531 212.527 24.3022L212.599 24.389Z" fill="#FFB02A"/>
<path opacity="0.1" d="M212.599 24.389C222.405 36.1794 227.127 51.3814 225.728 66.6526C224.328 81.9239 216.921 96.0142 205.136 105.826C193.35 115.637 178.15 120.367 162.878 118.975C147.606 117.583 133.512 110.183 123.695 98.4021C113.878 86.6213 109.141 71.4239 110.525 56.1513C111.91 40.8787 119.303 26.7811 131.079 16.958C142.855 7.13489 158.05 2.39037 173.323 3.76757C188.597 5.14477 202.698 12.531 212.527 24.3022L212.599 24.389Z" fill="black"/>
<path opacity="0.1" d="M200.684 99.7545C192.599 106.139 182.802 109.981 172.533 110.794C162.264 111.608 151.984 109.356 142.995 104.324C134.006 99.2923 126.712 91.7065 122.037 82.5271C117.361 73.3477 115.515 62.9875 116.73 52.758C117.946 42.5285 122.169 32.8897 128.866 25.0617C135.562 17.2337 144.431 11.5686 154.349 8.7835C164.266 5.9984 174.788 6.21855 184.58 9.41607C194.373 12.6136 202.997 18.6447 209.36 26.746L209.49 26.905C217.939 37.7499 221.756 51.4968 220.106 65.1452C218.456 78.7937 211.474 91.2353 200.684 99.7545ZM205.803 30.8237C198.41 20.6594 187.285 13.8442 174.871 11.8743C162.458 9.90443 149.77 12.9409 139.593 20.317C129.416 27.6932 122.582 38.8062 120.592 51.2164C118.601 63.6265 121.616 76.3195 128.975 86.5088C136.333 96.6981 147.435 103.551 159.842 105.563C172.248 107.575 184.947 104.581 195.148 97.2394C205.35 89.8978 212.222 78.8079 214.254 66.4046C216.287 54.0013 213.315 41.2981 205.991 31.084L205.788 30.8092L205.803 30.8237Z" fill="black"/>
<path d="M148.021 33.2675L152.214 29.9561L153.169 31.1708C154.455 32.8047 155.771 34.4243 157.029 36.0872C157.507 36.7089 157.825 36.68 158.475 36.3041C160.367 35.1173 162.355 34.0919 164.418 33.2385C169.812 31.272 174.41 32.8626 177.635 37.5765C178.228 38.4322 178.764 39.3258 179.24 40.2516C179.811 41.3866 180.108 42.6395 180.108 43.91C180.108 45.1805 179.811 46.4334 179.24 47.5684C178.994 48.1468 178.719 48.7107 178.401 49.3904C179.327 49.1445 180.122 48.8698 180.932 48.6818C183.062 48.145 185.302 48.2468 187.375 48.9744C189.447 49.7021 191.26 51.0235 192.586 52.774C194.03 54.406 195.136 56.308 195.84 58.37C196.284 59.7499 196.445 61.2052 196.313 62.6488C196.182 64.0924 195.76 65.4945 195.074 66.7713C193.445 69.7433 191.237 72.359 188.581 74.464C187.974 74.9846 187.858 75.3171 188.393 75.91C189.709 77.4861 190.909 79.149 192.196 80.7686C192.5 81.1734 192.572 81.4771 192.196 81.8097L188.581 84.7017L187.395 83.2557C186.311 81.8097 185.226 80.5372 184.171 79.149C183.809 78.6863 183.52 78.5706 183.028 78.99C182.276 79.6262 181.452 80.248 180.585 80.9132L185.487 87.131L181.293 90.37L176.406 84.1667L165.98 92.4522L160.413 85.3813L163.493 82.952L144.377 58.7026L141.311 61.103L135.759 54.0609L146.155 45.8766L140.733 38.9936L144.912 35.6967L150.262 42.4785L153.356 40.0492L148.021 33.2675ZM169.928 62.1875C169.234 62.7369 168.554 63.3009 167.831 63.8214C167.368 64.1685 167.354 64.4577 167.701 64.9059C169.928 67.6967 172.14 70.4875 174.323 73.3217C174.743 73.8567 175.104 73.8422 175.553 73.4229C176.753 72.4396 177.982 71.5142 179.182 70.5309C180.318 69.6976 181.098 68.4665 181.366 67.0833C181.634 65.7002 181.371 64.2669 180.628 63.0695C180.269 62.2024 179.704 61.4357 178.983 60.8355C178.261 60.2354 177.404 59.8199 176.486 59.6249C175.568 59.4299 174.616 59.4613 173.713 59.7162C172.81 59.9712 171.982 60.4422 171.301 61.0885L169.928 62.1875ZM159.126 54.0031C160.066 55.2033 161.006 56.3745 161.946 57.5892C162.249 57.9941 162.524 58.0953 162.929 57.7338C164.173 56.7071 165.46 55.7383 166.645 54.6538C167.255 54.1318 167.667 53.4157 167.812 52.6259C167.957 51.836 167.826 51.0204 167.441 50.3158C166.946 49.3294 166.313 48.4189 165.561 47.6118C164.786 46.7263 163.691 46.1848 162.517 46.1062C161.343 46.0276 160.186 46.4183 159.3 47.1924C158.36 47.9154 157.434 48.6384 156.408 49.4048C155.93 49.7519 155.916 50.0411 156.277 50.4893C157.232 51.6606 158.157 52.8608 159.169 54.0465L159.126 54.0031Z" fill="#F2E4CE"/>
<path d="M202.434 27.1075C206.702 31.5503 210.04 36.8007 212.252 42.5508C214.437 48.3485 215.459 54.5198 215.26 60.7125C215.07 66.9138 213.629 73.0128 211.023 78.6429C208.436 84.3172 204.739 89.4158 200.149 93.6378C195.56 97.8598 190.171 101.12 184.301 103.225C178.437 105.342 172.203 106.243 165.98 105.871C159.799 105.533 153.746 103.98 148.165 101.302C142.653 98.5947 137.737 94.8142 133.705 90.182C142.096 99.1796 153.703 104.497 165.997 104.975C178.291 105.453 190.276 101.053 199.34 92.7345C208.405 84.4158 213.815 72.8519 214.392 60.5623C214.968 48.2726 210.665 36.253 202.419 27.1219L202.434 27.1075Z" fill="white"/>
<path opacity="0.1" d="M162.582 105.351C156.451 104.745 150.502 102.921 145.085 99.9859C139.668 96.9929 134.893 92.9641 131.03 88.1286C127.138 83.2798 124.27 77.6916 122.6 71.7021C120.904 65.7231 120.417 59.4659 121.168 53.2965C121.919 47.1271 123.892 41.1693 126.973 35.7715C130.053 30.3738 134.179 25.6445 139.109 21.8602C144.039 18.0759 149.674 15.3126 155.685 13.732C161.647 12.1713 167.862 11.8222 173.962 12.7053C161.79 11.4255 149.601 14.978 140.023 22.5976C130.444 30.2172 124.242 41.2942 122.752 53.4427C121.261 65.5911 124.602 77.8389 132.055 87.5479C139.508 97.2568 150.476 103.65 162.596 105.351H162.582Z" fill="black"/>
<path d="M141.398 61.1029C140.892 60.5535 140.415 59.975 139.952 59.4111C139.489 58.8472 138.969 58.2832 138.506 57.7048L135.614 54.2489L135.426 54.0175L135.672 53.8151C139.084 51.0388 142.545 48.3155 146.054 45.6452V46.0645L143.422 42.5652L142.15 40.7722L140.878 38.9936C141.369 39.5286 141.861 40.0781 142.324 40.642L143.77 42.3049L146.575 45.6741L146.777 45.9055L146.517 46.1079C143.104 48.8939 139.644 51.622 136.135 54.2923V53.8585L138.81 57.4446C139.272 58.0519 139.692 58.6592 140.126 59.2665C140.559 59.8738 140.892 60.4956 141.398 61.1029Z" fill="white"/>
<path d="M165.98 92.4522C164.997 91.3099 164.057 90.1675 163.088 89.0107C162.119 87.8539 161.194 86.6971 160.196 85.5259L160.051 85.3524L160.239 85.1788L163.29 82.7062V83.14L158.475 77.1102C156.856 75.1147 155.309 73.0614 153.718 71.0225C152.127 68.9836 150.58 66.9448 149.033 64.8915C147.486 62.8381 145.938 60.7704 144.42 58.7026C146.098 60.6306 147.751 62.602 149.38 64.6167C150.999 66.6267 152.633 68.6077 154.253 70.5887C155.872 72.5697 157.492 74.5652 159.054 76.633L163.797 82.7206L163.985 82.9809L163.739 83.1689L160.615 85.5403V85.1933C161.512 86.3935 162.466 87.5937 163.334 88.7938L165.98 92.4522Z" fill="white"/>
<path d="M175.553 73.4662C176.174 72.8734 176.825 72.3094 177.447 71.7455L179.399 70.126C179.992 69.5773 180.456 68.9033 180.756 68.1529C181.056 67.4024 181.185 66.5945 181.134 65.788C181.008 64.1199 180.241 62.5654 178.994 61.45C178.411 60.8598 177.712 60.397 176.941 60.0907C176.169 59.7596 175.336 59.5969 174.497 59.6135C175.368 59.4791 176.258 59.5389 177.103 59.7889C177.948 60.039 178.727 60.4729 179.384 61.0595C180.081 61.6254 180.658 62.3251 181.08 63.1173C181.502 63.9095 181.762 64.7782 181.843 65.6723C181.894 66.5822 181.729 67.4914 181.362 68.3257C180.996 69.1599 180.437 69.8957 179.731 70.473C178.372 71.572 176.984 72.5263 175.553 73.4662Z" fill="white"/>
<path d="M163.088 57.6614C164.086 56.6781 165.17 55.7238 166.197 54.7694C166.636 54.2871 166.959 53.7102 167.139 53.0834C167.32 52.4565 167.353 51.7965 167.238 51.1544C166.964 49.8443 166.274 48.6576 165.271 47.7708C164.254 46.8546 162.994 46.252 161.642 46.0356C163.102 45.9893 164.53 46.472 165.662 47.3948C166.861 48.3031 167.685 49.6206 167.976 51.0966C168.12 51.8468 168.071 52.6216 167.833 53.3477C167.596 54.0738 167.177 54.7273 166.616 55.2466C165.459 56.1287 164.303 56.895 163.088 57.6614Z" fill="white"/>
<path d="M176.42 84.2245C177.426 85.0943 178.341 86.0632 179.153 87.1165C179.983 88.1559 180.701 89.2804 181.293 90.4712C179.297 88.7156 177.64 86.608 176.406 84.2534L176.42 84.2245Z" fill="white"/>
<path d="M183.621 78.802C185.615 80.5359 187.263 82.6307 188.48 84.9764C186.498 83.2312 184.851 81.1387 183.621 78.802Z" fill="white"/>
<path d="M658.43 86.032C658.42 96.6672 654.187 106.863 646.662 114.378C639.137 121.894 628.935 126.113 618.3 126.108C607.664 126.103 597.466 121.875 589.948 114.353C582.429 106.831 578.206 96.6311 578.206 85.9958C578.206 75.3606 582.429 65.1607 589.948 57.6387C597.466 50.1168 607.664 45.8886 618.3 45.8838C628.935 45.879 639.137 50.098 646.662 57.6132C654.187 65.1283 658.42 75.3244 658.43 85.9597V86.032Z" fill="#FFB02A"/>
<path opacity="0.1" d="M658.43 86.032C658.42 96.6672 654.187 106.863 646.662 114.378C639.137 121.894 628.935 126.113 618.3 126.108C607.664 126.103 597.466 121.875 589.948 114.353C582.429 106.831 578.206 96.6311 578.206 85.9958C578.206 75.3606 582.429 65.1607 589.948 57.6387C597.466 50.1168 607.664 45.8886 618.3 45.8838C628.935 45.879 639.137 50.098 646.662 57.6132C654.187 65.1283 658.42 75.3244 658.43 85.9597V86.032Z" fill="black"/>
<path opacity="0.1" d="M618.578 120.736C611.468 120.515 604.584 118.191 598.796 114.057C593.007 109.924 588.574 104.166 586.058 97.5132C583.542 90.8601 583.055 83.6103 584.659 76.6806C586.263 69.7509 589.887 63.4526 595.07 58.5821C600.254 53.7117 606.766 50.4879 613.782 49.3186C620.799 48.1492 628.004 49.0867 634.487 52.0126C640.971 54.9385 646.441 59.7213 650.206 65.7561C653.971 71.791 655.862 78.8068 655.639 85.9163V86.0319C655.314 95.5445 651.231 104.54 644.283 111.046C637.335 117.551 628.091 121.036 618.578 120.736ZM651.952 86.4658C651.923 77.831 648.469 69.5606 642.348 63.4701C636.227 57.3797 627.94 53.967 619.305 53.9814C610.67 53.9958 602.394 57.436 596.293 63.5468C590.193 69.6575 586.766 77.9394 586.766 86.5742C586.766 95.209 590.193 103.491 596.293 109.602C602.394 115.712 610.67 119.153 619.305 119.167C627.94 119.181 636.227 115.769 642.348 109.678C648.469 103.588 651.923 95.3174 651.952 86.6826C651.944 86.6057 651.944 86.5282 651.952 86.4513V86.4658Z" fill="black"/>
<path d="M620.284 62.1007L623.986 62.2164V63.272C623.986 64.718 623.914 66.164 623.841 67.61C623.841 68.145 624 68.2751 624.521 68.3763C626.045 68.5916 627.549 68.9301 629.018 69.3885C630.719 69.8971 632.174 71.0138 633.105 72.5258C634.035 74.0379 634.377 75.8395 634.065 77.5874C634.004 78.3029 633.893 79.0132 633.732 79.713C633.53 80.5682 633.131 81.3641 632.566 82.0371C632.001 82.7101 631.286 83.2413 630.479 83.5883L629.235 84.1811C629.828 84.4559 630.377 84.6728 630.883 84.933C632.228 85.5894 633.354 86.6218 634.124 87.9051C634.894 89.1884 635.275 90.6675 635.221 92.163C635.265 93.6744 635.004 95.1791 634.455 96.5878C634.075 97.5139 633.513 98.3545 632.803 99.0598C632.093 99.7652 631.248 100.321 630.32 100.694C628.134 101.534 625.806 101.937 623.465 101.88C622.902 101.88 622.699 102.01 622.685 102.603C622.685 104.049 622.583 105.495 622.54 106.854C622.54 107.201 622.424 107.404 622.048 107.389L618.882 107.288V105.958C618.882 104.758 618.882 103.558 618.997 102.357C618.997 101.952 618.911 101.764 618.462 101.764C617.768 101.764 617.016 101.764 616.308 101.764L616.149 107.23L612.461 107.144L612.635 101.692L603.453 101.403L603.641 95.1852L606.359 95.2719L607.01 73.9434L604.335 73.8567L604.523 67.6533L613.662 67.9425L613.835 61.8983L617.522 61.9995L617.334 67.9715L620.053 68.0582L620.284 62.1007ZM619.012 87.1743C618.404 87.1743 617.797 87.1743 617.19 87.102C616.583 87.0297 616.64 87.2322 616.64 87.6226C616.568 90.0808 616.496 92.5535 616.409 95.0117C616.409 95.4888 616.583 95.6334 617.002 95.619C618.072 95.619 619.142 95.6913 620.212 95.7057C621.194 95.7896 622.171 95.4949 622.942 94.8819C623.714 94.269 624.222 93.3842 624.362 92.4089C624.547 91.7907 624.581 91.1372 624.463 90.503C624.344 89.8688 624.075 89.2721 623.679 88.7628C623.283 88.2534 622.771 87.8462 622.185 87.5749C621.6 87.3036 620.958 87.1762 620.313 87.2033L619.012 87.1743ZM616.944 78.0356C616.944 79.0912 616.944 80.1179 616.843 81.1879C616.843 81.5349 616.915 81.7085 617.291 81.694C618.404 81.694 619.518 81.694 620.631 81.694C621.198 81.6936 621.746 81.4954 622.181 81.1337C622.617 80.772 622.913 80.2695 623.017 79.713C623.186 78.9687 623.254 78.2051 623.22 77.4428C623.193 76.636 622.851 75.8719 622.267 75.3148C621.683 74.7577 620.903 74.4522 620.096 74.464C619.287 74.464 618.448 74.464 617.624 74.3772C617.219 74.3772 617.074 74.5074 617.074 74.8978C617.074 75.9389 617.074 76.9945 616.987 78.0356H616.944Z" fill="#F2E4CE"/>
<path d="M647.787 68.9114C649.93 72.6045 651.306 76.6911 651.836 80.9276C652.324 85.1774 651.97 89.4816 650.795 93.5946C649.625 97.7271 647.627 101.579 644.924 104.917C642.232 108.274 638.895 111.059 635.111 113.108C631.326 115.156 627.17 116.427 622.887 116.846C618.614 117.285 614.296 116.857 610.191 115.588C606.103 114.317 602.305 112.253 599.014 109.515C595.756 106.772 593.082 103.404 591.147 99.61C595.216 107.129 602.105 112.723 610.299 115.162C618.493 117.601 627.32 116.686 634.838 112.617C642.357 108.548 647.951 101.659 650.39 93.4651C652.83 85.2714 651.914 76.4444 647.845 68.9258L647.787 68.9114Z" fill="white"/>
<path opacity="0.1" d="M595.963 106.739C592.992 103.702 590.657 100.104 589.094 96.154C587.549 92.1593 586.807 87.8991 586.911 83.6172C587.024 79.3191 588.008 75.0888 589.803 71.1816C591.569 67.257 594.101 63.724 597.249 60.7893C600.397 57.8546 604.099 55.5771 608.138 54.0899C612.165 52.5894 616.454 51.9204 620.747 52.1233C625.003 52.3119 629.18 53.3389 633.038 55.1454C636.885 56.9684 640.327 59.545 643.16 62.7225C637.298 56.5747 629.249 52.9867 620.758 52.7374C612.268 52.4881 604.021 55.5976 597.809 61.3909C591.597 67.1842 587.92 75.1937 587.577 83.6811C587.234 92.1684 590.253 100.449 595.977 106.724L595.963 106.739Z" fill="black"/>
<path d="M604.378 73.8566C604.378 73.3505 604.378 72.83 604.378 72.3094C604.378 71.7889 604.378 71.2828 604.378 70.7622V67.4509H604.61C607.646 67.4509 610.697 67.5955 613.734 67.7401L613.517 67.9425L613.691 64.9204L613.806 63.4021C613.806 62.896 613.879 62.4043 613.922 61.9561C613.922 62.4622 613.922 62.9683 613.922 63.4021V68.1594H613.705C610.654 68.1594 607.617 68.0293 604.566 67.8847L604.798 67.6678L604.624 70.7622C604.624 71.2828 604.537 71.7889 604.508 72.3094C604.48 72.83 604.422 73.3505 604.378 73.8566Z" fill="white"/>
<path d="M603.496 101.417C603.496 100.376 603.496 99.3496 603.496 98.3085C603.496 97.2674 603.496 96.2263 603.496 95.1851V95.0261H603.67H606.388L606.157 95.243L606.287 89.9072C606.287 88.1431 606.417 86.3501 606.475 84.5715C606.533 82.7929 606.62 81.0143 606.721 79.2502C606.822 77.4861 606.909 75.6931 607.039 73.9145C607.039 75.6931 607.039 77.4716 607.039 79.2502C607.039 81.0288 607.039 82.8074 607.039 84.586C607.039 86.3645 607.039 88.1287 606.894 89.9072L606.706 95.243V95.4599H606.489L603.785 95.3297L603.959 95.1562C603.959 96.1973 603.872 97.2529 603.8 98.2651C603.728 99.2773 603.569 100.376 603.496 101.417Z" fill="white"/>
<path d="M617.002 95.619C617.595 95.619 618.188 95.619 618.78 95.619H620.559C621.106 95.5997 621.643 95.4601 622.13 95.2102C622.617 94.9603 623.044 94.6062 623.379 94.173C624.035 93.2509 624.314 92.1129 624.16 90.9918C624.119 90.4239 623.956 89.8715 623.682 89.3722C623.416 88.8506 623.047 88.3882 622.598 88.013C623.116 88.3236 623.56 88.7432 623.899 89.2426C624.239 89.7419 624.466 90.3092 624.564 90.905C624.681 91.5158 624.675 92.1438 624.546 92.7522C624.417 93.3605 624.167 93.937 623.813 94.4477C623.437 94.9541 622.946 95.3629 622.38 95.6397C621.814 95.9165 621.189 96.0532 620.559 96.0383C619.359 95.8503 618.188 95.7636 617.002 95.619Z" fill="white"/>
<path d="M617.436 81.694C618.404 81.6217 619.402 81.6072 620.328 81.5783C620.775 81.5217 621.202 81.3615 621.576 81.1105C621.95 80.8594 622.261 80.5245 622.482 80.1323C622.922 79.3193 623.084 78.3852 622.945 77.4716C622.833 76.5178 622.435 75.6203 621.803 74.8978C622.593 75.5084 623.141 76.3794 623.35 77.356C623.573 78.3717 623.425 79.434 622.93 80.3492C622.667 80.8072 622.294 81.1924 621.845 81.4701C621.395 81.7478 620.884 81.9092 620.357 81.9398C619.359 81.9542 618.419 81.8386 617.436 81.694Z" fill="white"/>
<path d="M612.678 101.692C612.973 103.509 612.909 105.366 612.49 107.158C612.215 105.346 612.274 103.498 612.664 101.707L612.678 101.692Z" fill="white"/>
<path d="M618.94 101.938C619.229 103.74 619.17 105.581 618.766 107.36C618.491 105.558 618.55 103.72 618.94 101.938Z" fill="white"/>
</g>
<defs>
<clipPath id="clip0_840_930">
<rect width="701" height="432" fill="white"/>
</clipPath>
</defs>
</svg>
