<svg xmlns="http://www.w3.org/2000/svg" width="35" height="35" viewBox="0 0 35 35" fill="none">
  <path d="M29.5312 0H5.46875C2.44844 0 0 2.44844 0 5.46875V29.5312C0 32.5516 2.44844 35 5.46875 35H29.5312C32.5516 35 35 32.5516 35 29.5312V5.46875C35 2.44844 32.5516 0 29.5312 0Z" fill="#1DA1F2"/>
  <path d="M26.25 12.0312C25.5938 12.3594 24.9375 12.4688 24.1719 12.5781C24.9375 12.1406 25.4844 11.4844 25.7031 10.6094C25.0469 11.0469 24.2812 11.2656 23.4062 11.4844C22.75 10.8281 21.7656 10.3906 20.7812 10.3906C18.4844 10.3906 16.7344 12.5781 17.2812 14.7656C14.3281 14.6562 11.7031 13.2344 9.84375 11.0469C8.85938 12.6875 9.40625 14.7656 10.9375 15.8594C10.3906 15.8594 9.84375 15.6406 9.29688 15.4219C9.29688 17.0625 10.5 18.5938 12.1406 19.0312C11.5938 19.1406 11.0469 19.25 10.5 19.1406C10.9375 20.5625 12.25 21.6562 13.8906 21.6562C12.5781 22.6406 10.6094 23.1875 8.75 22.9688C10.3906 23.9531 12.25 24.6094 14.2188 24.6094C20.8906 24.6094 24.6094 19.0312 24.3906 13.8906C25.1562 13.4531 25.8125 12.7969 26.25 12.0312Z" fill="white"/>
</svg>