<svg xmlns="http://www.w3.org/2000/svg" width="35" height="35" viewBox="0 0 35 35" fill="none">
  <path d="M29.5312 0H5.46875C2.44844 0 0 2.44844 0 5.46875V29.5312C0 32.5516 2.44844 35 5.46875 35H29.5312C32.5516 35 35 32.5516 35 29.5312V5.46875C35 2.44844 32.5516 0 29.5312 0Z" fill="#0F1419"/>
  <path d="M19.3335 16.9287L24.5459 11H23.3109L18.7829 16.1467L15.1691 11H11L16.466 18.7834L11 25H12.235L17.0137 19.5636L20.8309 25H25L19.3335 16.9287ZM17.6414 18.8517L17.0868 18.0762L12.6804 11.911H14.5776L18.1347 16.8884L18.6871 17.6639L23.3103 24.1334H21.4131L17.6414 18.8517Z" fill="white"/>
</svg>