<svg xmlns="http://www.w3.org/2000/svg" width="61" height="64" viewBox="0 0 61 64" fill="none">
  <path d="M24.04 29C24.3298 28.6099 24.5076 28.148 24.5542 27.6643C24.6009 27.1805 24.5146 26.6932 24.3047 26.2549C24.0948 25.8165 23.7692 25.4438 23.3631 25.1768C22.957 24.9099 22.4857 24.7589 22 24.74C21.76 24.74 21.67 24.74 21.7 24.38V23.18C21.7 22.9401 21.7 22.88 21.4 22.88C19.9 22.88 19.9 22.88 19.9 24.2C19.9 24.2 19.9 24.59 19.48 24.59H17.8C17.41 24.59 17.26 24.59 17.29 25.1C17.29 26.42 17.29 27.7701 17.29 29.1201C17.29 30.4701 17.29 31.8201 17.29 33.1701C17.29 33.6201 17.29 33.74 17.83 33.71H19C19.93 33.71 19.93 33.7101 19.93 34.6101C19.93 35.51 19.93 35.51 20.8 35.51C21.67 35.51 21.73 35.51 21.73 34.58V34.1C21.73 33.8601 21.73 33.77 22.06 33.74C22.5278 33.693 22.9748 33.5233 23.356 33.2481C23.7371 32.9729 24.0388 32.6019 24.2306 32.1726C24.4224 31.7434 24.4974 31.2712 24.4482 30.8036C24.3989 30.3361 24.2271 29.8899 23.95 29.51C23.9059 29.4272 23.8908 29.332 23.9071 29.2395C23.9234 29.1471 23.9702 29.0628 24.04 29ZM22 32H20.47C20.08 32 19.45 32.18 19.33 32C19.2229 31.5058 19.2229 30.9943 19.33 30.5C19.33 30.29 19.48 30.26 19.63 30.26H22C22.192 30.3109 22.3617 30.4238 22.4828 30.5811C22.6039 30.7385 22.6696 30.9315 22.6696 31.1301C22.6696 31.3286 22.6039 31.5216 22.4828 31.679C22.3617 31.8363 22.192 31.9492 22 32ZM21.82 28.4001H20.59C19.18 28.4001 19.18 28.4 19.24 26.96C19.24 26.69 19.24 26.57 19.6 26.57H21.85C22.48 26.57 22.87 26.93 22.87 27.47C22.87 28.01 22.33 28.31 21.67 28.34L21.82 28.4001ZM24.19 29.03C24.4958 28.6298 24.6821 28.1513 24.7275 27.6496C24.7728 27.148 24.6754 26.6438 24.4464 26.1952C24.2174 25.7466 23.8662 25.3719 23.4333 25.1144C23.0004 24.857 22.5035 24.7272 22 24.74C21.76 24.74 21.67 24.74 21.7 24.38V23.18C21.7 22.9401 21.7 22.88 21.4 22.88C19.9 22.88 19.9 22.88 19.9 24.2C19.9 24.2 19.9 24.59 19.48 24.59H17.8C17.41 24.59 17.26 24.59 17.29 25.1C17.29 26.42 17.29 27.7701 17.29 29.1201C17.29 30.4701 17.29 31.8201 17.29 33.1701C17.29 33.6201 17.29 33.74 17.83 33.71H19C19.93 33.71 19.93 33.7101 19.93 34.6101C19.93 35.51 19.93 35.51 20.8 35.51C21.67 35.51 21.73 35.51 21.73 34.58V34.1C21.73 33.8601 21.73 33.77 22.06 33.74C22.5278 33.693 22.9748 33.5233 23.356 33.2481C23.7371 32.9729 24.0388 32.6019 24.2306 32.1726C24.4224 31.7434 24.4974 31.2712 24.4482 30.8036C24.3989 30.3361 24.2271 29.8899 23.95 29.51C23.9059 29.4272 23.8908 29.332 23.9071 29.2395C23.9234 29.1471 23.9702 29.0628 24.04 29L24.19 29.03ZM22 32H20.47C20.08 32 19.45 32.18 19.33 32C19.2229 31.5058 19.2229 30.9943 19.33 30.5C19.33 30.29 19.48 30.26 19.63 30.26H22C22.192 30.3109 22.3617 30.4238 22.4828 30.5811C22.6039 30.7385 22.6696 30.9315 22.6696 31.1301C22.6696 31.3286 22.6039 31.5216 22.4828 31.679C22.3617 31.8363 22.192 31.9492 22 32ZM21.82 28.4001H20.59C19.18 28.4001 19.18 28.4 19.24 26.96C19.24 26.69 19.24 26.57 19.6 26.57H21.85C22.48 26.57 22.87 26.93 22.87 27.47C22.87 28.01 22.33 28.31 21.67 28.34L21.82 28.4001ZM24.19 29.03C24.4958 28.6298 24.6821 28.1513 24.7275 27.6496C24.7728 27.148 24.6754 26.6438 24.4464 26.1952C24.2174 25.7466 23.8662 25.3719 23.4333 25.1144C23.0004 24.857 22.5035 24.7272 22 24.74C21.76 24.74 21.67 24.74 21.7 24.38V23.18C21.7 22.9401 21.7 22.88 21.4 22.88C19.9 22.88 19.9 22.88 19.9 24.2C19.9 24.2 19.9 24.59 19.48 24.59H17.8C17.41 24.59 17.26 24.59 17.29 25.1C17.29 26.42 17.29 27.7701 17.29 29.1201C17.29 30.4701 17.29 31.8201 17.29 33.1701C17.29 33.6201 17.29 33.74 17.83 33.71H19C19.93 33.71 19.93 33.7101 19.93 34.6101C19.93 35.51 19.93 35.51 20.8 35.51C21.67 35.51 21.73 35.51 21.73 34.58V34.1C21.73 33.8601 21.73 33.77 22.06 33.74C22.5278 33.693 22.9748 33.5233 23.356 33.2481C23.7371 32.9729 24.0388 32.6019 24.2306 32.1726C24.4224 31.7434 24.4974 31.2712 24.4482 30.8036C24.3989 30.3361 24.2271 29.8899 23.95 29.51C23.9059 29.4272 23.8908 29.332 23.9071 29.2395C23.9234 29.1471 23.9702 29.0628 24.04 29L24.19 29.03ZM22 32H20.47C20.08 32 19.45 32.18 19.33 32C19.2229 31.5058 19.2229 30.9943 19.33 30.5C19.33 30.29 19.48 30.26 19.63 30.26H22C22.192 30.3109 22.3617 30.4238 22.4828 30.5811C22.6039 30.7385 22.6696 30.9315 22.6696 31.1301C22.6696 31.3286 22.6039 31.5216 22.4828 31.679C22.3617 31.8363 22.192 31.9492 22 32ZM21.82 28.4001H20.59C19.18 28.4001 19.18 28.4 19.24 26.96C19.24 26.69 19.24 26.57 19.6 26.57H21.85C22.48 26.57 22.87 26.93 22.87 27.47C22.87 28.01 22.33 28.31 21.67 28.34L21.82 28.4001ZM24.19 29.03C24.4958 28.6298 24.6821 28.1513 24.7275 27.6496C24.7728 27.148 24.6754 26.6438 24.4464 26.1952C24.2174 25.7466 23.8662 25.3719 23.4333 25.1144C23.0004 24.857 22.5035 24.7272 22 24.74C21.76 24.74 21.67 24.74 21.7 24.38V23.18C21.7 22.9401 21.7 22.88 21.4 22.88C19.9 22.88 19.9 22.88 19.9 24.2C19.9 24.2 19.9 24.59 19.48 24.59H17.8C17.41 24.59 17.26 24.59 17.29 25.1C17.29 26.42 17.29 27.7701 17.29 29.1201C17.29 30.4701 17.29 31.8201 17.29 33.1701C17.29 33.6201 17.29 33.74 17.83 33.71H19C19.93 33.71 19.93 33.7101 19.93 34.6101C19.93 35.51 19.93 35.51 20.8 35.51C21.67 35.51 21.73 35.51 21.73 34.58V34.1C21.73 33.8601 21.73 33.77 22.06 33.74C22.5278 33.693 22.9748 33.5233 23.356 33.2481C23.7371 32.9729 24.0388 32.6019 24.2306 32.1726C24.4224 31.7434 24.4974 31.2712 24.4482 30.8036C24.3989 30.3361 24.2271 29.8899 23.95 29.51C23.9059 29.4272 23.8908 29.332 23.9071 29.2395C23.9234 29.1471 23.9702 29.0628 24.04 29L24.19 29.03ZM22 32H20.47C20.08 32 19.45 32.18 19.33 32C19.2229 31.5058 19.2229 30.9943 19.33 30.5C19.33 30.29 19.48 30.26 19.63 30.26H22C22.192 30.3109 22.3617 30.4238 22.4828 30.5811C22.6039 30.7385 22.6696 30.9315 22.6696 31.1301C22.6696 31.3286 22.6039 31.5216 22.4828 31.679C22.3617 31.8363 22.192 31.9492 22 32ZM21.82 28.4001H20.59C19.18 28.4001 19.18 28.4 19.24 26.96C19.24 26.69 19.24 26.57 19.6 26.57H21.85C22.48 26.57 22.87 26.93 22.87 27.47C22.87 28.01 22.33 28.31 21.67 28.34L21.82 28.4001ZM24.19 29.03C24.4958 28.6298 24.6821 28.1513 24.7275 27.6496C24.7728 27.148 24.6754 26.6438 24.4464 26.1952C24.2174 25.7466 23.8662 25.3719 23.4333 25.1144C23.0004 24.857 22.5035 24.7272 22 24.74C21.76 24.74 21.67 24.74 21.7 24.38V23.18C21.7 22.9401 21.7 22.88 21.4 22.88C19.9 22.88 19.9 22.88 19.9 24.2C19.9 24.2 19.9 24.59 19.48 24.59H17.8C17.41 24.59 17.26 24.59 17.29 25.1C17.29 26.42 17.29 27.7701 17.29 29.1201C17.29 30.4701 17.29 31.8201 17.29 33.1701C17.29 33.6201 17.29 33.74 17.83 33.71H19C19.93 33.71 19.93 33.7101 19.93 34.6101C19.93 35.51 19.93 35.51 20.8 35.51C21.67 35.51 21.73 35.51 21.73 34.58V34.1C21.73 33.8601 21.73 33.77 22.06 33.74C22.5278 33.693 22.9748 33.5233 23.356 33.2481C23.7371 32.9729 24.0388 32.6019 24.2306 32.1726C24.4224 31.7434 24.4974 31.2712 24.4482 30.8036C24.3989 30.3361 24.2271 29.8899 23.95 29.51C23.9059 29.4272 23.8908 29.332 23.9071 29.2395C23.9234 29.1471 23.9702 29.0628 24.04 29L24.19 29.03ZM22 32H20.47C20.08 32 19.45 32.18 19.33 32C19.2229 31.5058 19.2229 30.9943 19.33 30.5C19.33 30.29 19.48 30.26 19.63 30.26H22C22.192 30.3109 22.3617 30.4238 22.4828 30.5811C22.6039 30.7385 22.6696 30.9315 22.6696 31.1301C22.6696 31.3286 22.6039 31.5216 22.4828 31.679C22.3617 31.8363 22.192 31.9492 22 32ZM21.82 28.4001H20.59C19.18 28.4001 19.18 28.4 19.24 26.96C19.24 26.69 19.24 26.57 19.6 26.57H21.85C22.48 26.57 22.87 26.93 22.87 27.47C22.87 28.01 22.33 28.31 21.67 28.34L21.82 28.4001ZM24.19 29.03C24.4958 28.6298 24.6821 28.1513 24.7275 27.6496C24.7728 27.148 24.6754 26.6438 24.4464 26.1952C24.2174 25.7466 23.8662 25.3719 23.4333 25.1144C23.0004 24.857 22.5035 24.7272 22 24.74C21.76 24.74 21.67 24.74 21.7 24.38V23.18C21.7 22.9401 21.7 22.88 21.4 22.88C19.9 22.88 19.9 22.88 19.9 24.2C19.9 24.2 19.9 24.59 19.48 24.59H17.8C17.41 24.59 17.26 24.59 17.29 25.1C17.29 26.42 17.29 27.7701 17.29 29.1201C17.29 30.4701 17.29 31.8201 17.29 33.1701C17.29 33.6201 17.29 33.74 17.83 33.71H19C19.93 33.71 19.93 33.7101 19.93 34.6101C19.93 35.51 19.93 35.51 20.8 35.51C21.67 35.51 21.73 35.51 21.73 34.58V34.1C21.73 33.8601 21.73 33.77 22.06 33.74C22.5278 33.693 22.9748 33.5233 23.356 33.2481C23.7371 32.9729 24.0388 32.6019 24.2306 32.1726C24.4224 31.7434 24.4974 31.2712 24.4482 30.8036C24.3989 30.3361 24.2271 29.8899 23.95 29.51C23.9059 29.4272 23.8908 29.332 23.9071 29.2395C23.9234 29.1471 23.9702 29.0628 24.04 29L24.19 29.03ZM22 32H20.47C20.08 32 19.45 32.18 19.33 32C19.2229 31.5058 19.2229 30.9943 19.33 30.5C19.33 30.29 19.48 30.26 19.63 30.26H22C22.192 30.3109 22.3617 30.4238 22.4828 30.5811C22.6039 30.7385 22.6696 30.9315 22.6696 31.1301C22.6696 31.3286 22.6039 31.5216 22.4828 31.679C22.3617 31.8363 22.192 31.9492 22 32ZM21.82 28.4001H20.59C19.18 28.4001 19.18 28.4 19.24 26.96C19.24 26.69 19.24 26.57 19.6 26.57H21.85C22.48 26.57 22.87 26.93 22.87 27.47C22.87 28.01 22.33 28.31 21.67 28.34L21.82 28.4001ZM24.19 29.03C24.4958 28.6298 24.6821 28.1513 24.7275 27.6496C24.7728 27.148 24.6754 26.6438 24.4464 26.1952C24.2174 25.7466 23.8662 25.3719 23.4333 25.1144C23.0004 24.857 22.5035 24.7272 22 24.74C21.76 24.74 21.67 24.74 21.7 24.38V23.18C21.7 22.9401 21.7 22.88 21.4 22.88C19.9 22.88 19.9 22.88 19.9 24.2C19.9 24.2 19.9 24.59 19.48 24.59H17.8C17.41 24.59 17.26 24.59 17.29 25.1C17.29 26.42 17.29 27.7701 17.29 29.1201C17.29 30.4701 17.29 31.8201 17.29 33.1701C17.29 33.6201 17.29 33.74 17.83 33.71H19C19.93 33.71 19.93 33.7101 19.93 34.6101C19.93 35.51 19.93 35.51 20.8 35.51C21.67 35.51 21.73 35.51 21.73 34.58V34.1C21.73 33.8601 21.73 33.77 22.06 33.74C22.5278 33.693 22.9748 33.5233 23.356 33.2481C23.7371 32.9729 24.0388 32.6019 24.2306 32.1726C24.4224 31.7434 24.4974 31.2712 24.4482 30.8036C24.3989 30.3361 24.2271 29.8899 23.95 29.51C23.9059 29.4272 23.8908 29.332 23.9071 29.2395C23.9234 29.1471 23.9702 29.0628 24.04 29L24.19 29.03ZM22 32H20.47C20.08 32 19.45 32.18 19.33 32C19.2229 31.5058 19.2229 30.9943 19.33 30.5C19.33 30.29 19.48 30.26 19.63 30.26H22C22.192 30.3109 22.3617 30.4238 22.4828 30.5811C22.6039 30.7385 22.6696 30.9315 22.6696 31.1301C22.6696 31.3286 22.6039 31.5216 22.4828 31.679C22.3617 31.8363 22.192 31.9492 22 32ZM21.82 28.4001H20.59C19.18 28.4001 19.18 28.4 19.24 26.96C19.24 26.69 19.24 26.57 19.6 26.57H21.85C22.48 26.57 22.87 26.93 22.87 27.47C22.87 28.01 22.33 28.31 21.67 28.34L21.82 28.4001ZM24.19 29.03C24.4958 28.6298 24.6821 28.1513 24.7275 27.6496C24.7728 27.148 24.6754 26.6438 24.4464 26.1952C24.2174 25.7466 23.8662 25.3719 23.4333 25.1144C23.0004 24.857 22.5035 24.7272 22 24.74C21.76 24.74 21.67 24.74 21.7 24.38V23.18C21.7 22.9401 21.7 22.88 21.4 22.88C19.9 22.88 19.9 22.88 19.9 24.2C19.9 24.2 19.9 24.59 19.48 24.59H17.8C17.41 24.59 17.26 24.59 17.29 25.1C17.29 26.42 17.29 27.7701 17.29 29.1201C17.29 30.4701 17.29 31.8201 17.29 33.1701C17.29 33.6201 17.29 33.74 17.83 33.71H19C19.93 33.71 19.93 33.7101 19.93 34.6101C19.93 35.51 19.93 35.51 20.8 35.51C21.67 35.51 21.73 35.51 21.73 34.58V34.1C21.73 33.8601 21.73 33.77 22.06 33.74C22.5278 33.693 22.9748 33.5233 23.356 33.2481C23.7371 32.9729 24.0388 32.6019 24.2306 32.1726C24.4224 31.7434 24.4974 31.2712 24.4482 30.8036C24.3989 30.3361 24.2271 29.8899 23.95 29.51C23.9059 29.4272 23.8908 29.332 23.9071 29.2395C23.9234 29.1471 23.9702 29.0628 24.04 29L24.19 29.03ZM22 32H20.47C20.08 32 19.45 32.18 19.33 32C19.2229 31.5058 19.2229 30.9943 19.33 30.5C19.33 30.29 19.48 30.26 19.63 30.26H22C22.192 30.3109 22.3617 30.4238 22.4828 30.5811C22.6039 30.7385 22.6696 30.9315 22.6696 31.1301C22.6696 31.3286 22.6039 31.5216 22.4828 31.679C22.3617 31.8363 22.192 31.9492 22 32ZM21.82 28.4001H20.59C19.18 28.4001 19.18 28.4 19.24 26.96C19.24 26.69 19.24 26.57 19.6 26.57H21.85C22.48 26.57 22.87 26.93 22.87 27.47C22.87 28.01 22.33 28.31 21.67 28.34L21.82 28.4001ZM43.6 3.80005C43.57 4.25956 43.57 4.72054 43.6 5.18005C43.6 5.54005 43.6 5.63005 43.12 5.63005H41.14C36.97 5.63005 32.8 5.63005 28.6 5.63005C25.3796 5.61395 22.1651 5.90527 19 6.50005C17.4305 6.65929 15.9304 7.2283 14.65 8.15005C12.6342 9.84548 10.7396 11.68 8.98003 13.64C8.43617 14.2954 8.15891 15.1315 8.20338 15.9819C8.24785 16.8324 8.61079 17.635 9.22003 18.23C9.81972 18.8175 10.6115 19.1683 11.4495 19.218C12.2875 19.2676 13.1152 19.0126 13.78 18.5C14.2 18.17 14.56 17.81 14.98 17.42C15.0786 18.2198 15.4493 18.9613 16.03 19.5201C14.9584 20.0379 13.9921 20.7499 13.18 21.62C13.0716 21.7418 12.937 21.8375 12.7863 21.8998C12.6357 21.9622 12.4728 21.9896 12.31 21.98H4.00003C3.59802 21.9485 3.19395 22.0044 2.81564 22.144C2.43732 22.2836 2.09376 22.5035 1.80863 22.7886C1.52349 23.0738 1.30355 23.4173 1.16396 23.7957C1.02437 24.174 0.968439 24.578 1.00003 24.98V50.78C1.00083 51.2064 1.06142 51.6305 1.18003 52.04C1.39303 52.8423 1.87668 53.5462 2.54911 54.0328C3.22154 54.5193 4.04145 54.7586 4.87003 54.71H9.67003C10.03 54.71 10.12 54.71 10.12 55.19C10.12 56.11 10.12 57.04 10.12 57.98C10.12 58.28 10.12 58.37 9.76003 58.37H7.66003C6.49003 58.37 6.49003 58.37 6.46003 59.57C6.46003 60.05 6.46003 60.2 7.06003 60.2H34.06C34.51 60.2 35.08 60.2 35.32 60.2C35.56 60.2 35.32 59.33 35.32 58.88C35.32 58.43 35.32 58.43 34.9 58.46H32.08C31.75 58.46 31.66 58.46 31.66 58.04C31.66 57.1101 31.66 56.18 31.66 55.22C31.66 54.89 31.66 54.8 32.11 54.8H37C37.3977 54.8605 37.8023 54.8605 38.2 54.8C39.0486 54.6015 39.7974 54.1043 40.3096 53.3992C40.8219 52.6942 41.0634 51.8284 40.99 50.96V25.0401C41.0216 24.638 40.9657 24.234 40.8261 23.8557C40.6865 23.4773 40.4666 23.1338 40.1814 22.8486C39.8963 22.5635 39.5527 22.3436 39.1744 22.204C38.7961 22.0644 38.392 22.0085 37.99 22.0401H32.2L36.67 17.57C37.1992 17.057 37.8068 16.6317 38.47 16.31C40.0302 15.7279 41.7033 15.5124 43.36 15.68C43.66 15.68 43.6 15.89 43.6 16.07C43.6 16.25 43.6 17.27 43.6 17.87C43.6 18.47 43.6 18.44 44.14 18.44H48.52C49 18.44 49.09 18.44 49.09 17.87V3.80005H43.6ZM19 20.36C20.7258 19.9827 22.5256 20.1397 24.16 20.8101C24.4 20.8101 24.49 20.99 24.46 21.23C24.4644 21.7225 24.5732 22.2083 24.7792 22.6556C24.9853 23.1028 25.2839 23.5012 25.6554 23.8244C26.0269 24.1477 26.4627 24.3884 26.9341 24.5308C27.4055 24.6731 27.9017 24.7137 28.39 24.65C28.66 24.65 28.72 24.65 28.81 24.95C29.4767 26.1341 29.8472 27.4619 29.89 28.82C29.9655 30.9841 29.2762 33.1055 27.943 34.8117C26.6098 36.518 24.7181 37.7 22.6 38.1501C20.2409 38.6274 17.7888 38.1481 15.7831 36.8176C13.7774 35.487 12.3824 33.4142 11.905 31.0551C11.4276 28.696 11.907 26.2438 13.2375 24.2381C14.5681 22.2324 16.6409 20.8374 19 20.36ZM16.6 15.7701C17.3503 14.8167 18.4125 14.1581 19.6 13.91C19.24 15.2 18.91 16.43 18.55 17.66C18.5125 17.8594 18.4066 18.0393 18.2504 18.1688C18.0943 18.2983 17.8979 18.3692 17.695 18.3692C17.4922 18.3692 17.2957 18.2983 17.1396 18.1688C16.9835 18.0393 16.8775 17.8594 16.84 17.66L16.48 16.22C16.51 16.04 16.45 15.92 16.6 15.7701ZM20.29 18.35C20.71 16.88 21.13 15.35 21.52 14.06C21.5139 14.0018 21.525 13.9431 21.5519 13.8911C21.5788 13.8391 21.6203 13.796 21.6713 13.7673C21.7224 13.7386 21.7807 13.7255 21.8391 13.7295C21.8975 13.7336 21.9534 13.7546 22 13.79C23.23 13.79 24.46 13.79 25.69 13.79C26.9362 14.058 28.1248 14.5456 29.2 15.23C28.06 16.37 26.95 17.39 25.9 18.5301C25.7406 18.7671 25.498 18.9356 25.2202 19.0023C24.9424 19.069 24.6497 19.0289 24.4 18.89C23.0839 18.4202 21.6828 18.2362 20.29 18.35ZM31.75 28.1601C31.75 27.4401 31.75 27.44 32.38 27.44C33.01 27.44 34.09 27.44 34.93 27.44C35.77 27.44 35.47 27.44 35.47 27.98C35.47 32.87 35.47 37.7601 35.47 42.6801C35.47 44.1201 35.47 45.68 35.47 47.03C35.47 47.3601 35.47 47.45 35.05 47.45C25.63 47.45 16.24 47.45 6.82003 47.45C6.43003 47.45 6.37003 47.3 6.37003 46.97C6.37003 40.61 6.37003 34.25 6.37003 27.8901C6.37003 27.5601 6.37003 27.44 6.79003 27.44H9.79003C10.09 27.44 10.21 27.44 10.18 27.8C9.89504 29.736 10.1504 31.713 10.9181 33.5129C11.6857 35.3128 12.9356 36.8656 14.53 38L14.86 38.3H8.86003C8.44003 38.3 8.32003 38.3 8.32003 38.78C8.32003 40.22 8.32003 41.78 8.32003 43.04C8.32003 43.58 8.32003 43.76 9.01003 43.76H33.4C33.7 43.76 33.79 43.76 33.79 43.34C33.79 41.8101 33.79 40.34 33.79 38.78C33.79 38.39 33.79 38.3 33.31 38.3H26.92C27.9423 37.6004 28.8441 36.7391 29.59 35.75C31.2526 33.5886 32.0254 30.873 31.75 28.1601ZM31.18 40.16C31.66 40.16 31.87 40.16 31.84 40.79C31.84 41.99 31.84 41.99 30.61 41.99H10.6C10.18 41.99 10 41.99 10 41.45C10 40.16 10 40.16 11.32 40.16H31.18ZM2.74003 25.16C2.74003 24.0201 2.98003 23.8101 4.12003 23.8101H11.44C11.2 24.35 10.93 24.8601 10.75 25.4C10.57 25.9401 10.42 25.58 10.24 25.58H5.08003C4.63003 25.58 4.54003 25.58 4.54003 26.12C4.54003 33.02 4.54003 39.89 4.54003 46.76C4.54003 47.27 4.54003 47.45 3.91003 47.42C2.74003 47.42 2.71003 47.42 2.71003 46.22L2.74003 25.16ZM30.01 57.92C30.01 58.25 30.01 58.3101 29.59 58.3101H12.22C11.89 58.3101 11.8 58.3101 11.8 57.8601C11.845 56.9706 11.845 56.0795 11.8 55.19C11.8 54.77 11.8 54.65 12.34 54.68H29.47C29.86 54.68 30.01 54.68 30.01 55.16C29.98 56 29.98 56.99 30.01 57.92ZM39.01 51.05C39.01 51.2864 38.9635 51.5205 38.873 51.7389C38.7826 51.9573 38.65 52.1557 38.4828 52.3228C38.3157 52.49 38.1172 52.6226 37.8989 52.713C37.6805 52.8035 37.4464 52.8501 37.21 52.8501H4.87003C4.48539 52.8859 4.09866 52.8084 3.75751 52.6271C3.41635 52.4459 3.13567 52.1688 2.95003 51.83C2.77869 51.3913 2.70696 50.9199 2.74003 50.45C2.74003 49.19 2.74003 49.19 4.00003 49.19H20.92C26.92 49.19 32.65 49.19 38.53 49.19C38.95 49.19 39.16 49.19 39.1 49.73C39.04 50.27 39.1 50.6 39.07 51.05H39.01ZM37.9 23.8101C38.71 23.8101 39.01 24.1101 39.01 24.92C39.01 32.26 39.01 39.61 39.01 46.97C39.01 47.3 39.01 47.42 38.59 47.42C37.18 47.42 37.18 47.42 37.18 46.01V26.21C37.18 25.7 37.18 25.58 36.55 25.58H31.6C31.4773 25.6029 31.3504 25.5825 31.241 25.5223C31.1316 25.4621 31.0465 25.3659 31 25.25C30.82 24.7701 30.58 24.3201 30.37 23.8101H37.93H37.9ZM43.57 13.31C43.57 13.7 43.57 13.82 43.09 13.82C41.8838 13.6853 40.6663 13.6853 39.46 13.82C37.82 14.1673 36.3241 15.0042 35.17 16.22C33.25 18.17 31.27 20.09 29.35 22.0401C29.0652 22.3644 28.6886 22.5946 28.27 22.7C27.9455 22.7281 27.62 22.6596 27.3344 22.5029C27.0488 22.3463 26.8159 22.1087 26.6651 21.82C26.5144 21.5313 26.4524 21.2044 26.4871 20.8805C26.5218 20.5567 26.6515 20.2503 26.86 20L30.28 16.58C30.9386 15.9595 31.4157 15.1713 31.66 14.3C31.7603 13.3026 31.7603 12.2975 31.66 11.3C31.66 11.3 31.66 11.09 31.48 11.09C29.95 11.09 29.95 11.09 29.95 12.5C29.95 13.91 29.95 13.76 28.87 13.16C27.3581 12.2966 25.6283 11.8901 23.89 11.99C22.81 11.99 21.7 11.99 20.62 11.99C19.7255 11.9823 18.8387 12.1565 18.0136 12.502C17.1884 12.8475 16.4421 13.3572 15.82 14L13 17C12.8202 17.1932 12.5966 17.3404 12.3481 17.4293C12.0996 17.5182 11.8334 17.5462 11.5719 17.511C11.3103 17.4757 11.061 17.3782 10.8449 17.2267C10.6289 17.0751 10.4523 16.874 10.33 16.64C10.1606 16.3414 10.0924 15.9958 10.1356 15.6551C10.1789 15.3144 10.3313 14.9969 10.57 14.75C12.19 13.1 13.78 11.42 15.52 9.86005C16.4953 9.05692 17.684 8.55639 18.94 8.42005L24.43 7.61005C24.8895 7.58021 25.3505 7.58021 25.81 7.61005H43C43.42 7.61005 43.51 7.61005 43.51 8.12005C43.6 9.74005 43.6 11.54 43.63 13.31H43.57ZM47.26 11C47.26 12.65 47.26 14.3 47.26 15.95C47.26 16.28 47.26 16.43 46.81 16.43C45.46 16.43 45.46 16.43 45.46 15.05C45.46 12.05 45.46 9.05005 45.46 6.05005C45.46 5.66005 45.46 5.54005 45.94 5.54005C47.29 5.54005 47.29 5.54005 47.29 6.89005L47.26 11ZM17.83 33.8H19C19.93 33.8 19.93 33.8 19.93 34.7C19.93 35.6 19.93 35.6 20.8 35.6C21.67 35.6 21.73 35.6001 21.73 34.6701V34.1C21.73 33.8601 21.73 33.77 22.06 33.74C22.5278 33.693 22.9748 33.5233 23.356 33.2481C23.7371 32.9729 24.0388 32.6019 24.2306 32.1726C24.4224 31.7434 24.4974 31.2712 24.4482 30.8036C24.3989 30.3361 24.2271 29.8899 23.95 29.51C23.8865 29.4344 23.8517 29.3388 23.8517 29.24C23.8517 29.1413 23.8865 29.0457 23.95 28.97C24.2287 28.5861 24.4 28.1349 24.4464 27.6628C24.4928 27.1907 24.4125 26.7147 24.2139 26.2839C24.0153 25.8531 23.7056 25.483 23.3164 25.2116C22.9273 24.9403 22.4729 24.7775 22 24.74C21.76 24.74 21.67 24.74 21.7 24.38V23.18C21.7 22.9401 21.7 22.88 21.4 22.88C19.9 22.88 19.9 22.88 19.9 24.2C19.9 24.2 19.9 24.59 19.48 24.59H17.8C17.41 24.59 17.26 24.59 17.29 25.1C17.29 26.42 17.29 27.7701 17.29 29.1201C17.29 30.4701 17.29 31.8201 17.29 33.1701C17.26 33.7101 17.41 33.83 17.83 33.8ZM19 26.9C19 26.63 19 26.51 19.36 26.51H21.61C22.24 26.51 22.63 26.8701 22.63 27.41C22.63 27.9501 22.24 28.31 21.58 28.34H20.35C19 28.34 19 28.34 19 26.9ZM19 30.3801C19 30.1701 19.15 30.1401 19.3 30.1401H22C22.2467 30.1401 22.4832 30.238 22.6576 30.4124C22.832 30.5868 22.93 30.8234 22.93 31.07C22.93 31.3167 22.832 31.5533 22.6576 31.7277C22.4832 31.9021 22.2467 32 22 32H20.47C20.08 32 19.45 32.18 19.33 32C19.0937 31.4937 18.9806 30.9385 19 30.3801ZM24.04 29C24.3298 28.6099 24.5076 28.148 24.5542 27.6643C24.6009 27.1805 24.5146 26.6932 24.3047 26.2549C24.0948 25.8165 23.7692 25.4438 23.3631 25.1768C22.957 24.9099 22.4857 24.7589 22 24.74C21.76 24.74 21.67 24.74 21.7 24.38V23.18C21.7 22.9401 21.7 22.88 21.4 22.88C19.9 22.88 19.9 22.88 19.9 24.2C19.9 24.2 19.9 24.59 19.48 24.59H17.8C17.41 24.59 17.26 24.59 17.29 25.1C17.29 26.42 17.29 27.7701 17.29 29.1201C17.29 30.4701 17.29 31.8201 17.29 33.1701C17.29 33.6201 17.29 33.74 17.83 33.71H19C19.93 33.71 19.93 33.7101 19.93 34.6101C19.93 35.51 19.93 35.51 20.8 35.51C21.67 35.51 21.73 35.51 21.73 34.58V34.1C21.73 33.8601 21.73 33.77 22.06 33.74C22.5278 33.693 22.9748 33.5233 23.356 33.2481C23.7371 32.9729 24.0388 32.6019 24.2306 32.1726C24.4224 31.7434 24.4974 31.2712 24.4482 30.8036C24.3989 30.3361 24.2271 29.8899 23.95 29.51C23.9059 29.4272 23.8908 29.332 23.9071 29.2395C23.9234 29.1471 23.9702 29.0628 24.04 29ZM22 32H20.47C20.08 32 19.45 32.18 19.33 32C19.2229 31.5058 19.2229 30.9943 19.33 30.5C19.33 30.29 19.48 30.26 19.63 30.26H22C22.192 30.3109 22.3617 30.4238 22.4828 30.5811C22.6039 30.7385 22.6696 30.9315 22.6696 31.1301C22.6696 31.3286 22.6039 31.5216 22.4828 31.679C22.3617 31.8363 22.192 31.9492 22 32ZM21.82 28.4001H20.59C19.18 28.4001 19.18 28.4 19.24 26.96C19.24 26.69 19.24 26.57 19.6 26.57H21.85C22.48 26.57 22.87 26.93 22.87 27.47C22.87 28.01 22.33 28.31 21.67 28.34L21.82 28.4001ZM24.19 29.03C24.4958 28.6298 24.6821 28.1513 24.7275 27.6496C24.7728 27.148 24.6754 26.6438 24.4464 26.1952C24.2174 25.7466 23.8662 25.3719 23.4333 25.1144C23.0004 24.857 22.5035 24.7272 22 24.74C21.76 24.74 21.67 24.74 21.7 24.38V23.18C21.7 22.9401 21.7 22.88 21.4 22.88C19.9 22.88 19.9 22.88 19.9 24.2C19.9 24.2 19.9 24.59 19.48 24.59H17.8C17.41 24.59 17.26 24.59 17.29 25.1C17.29 26.42 17.29 27.7701 17.29 29.1201C17.29 30.4701 17.29 31.8201 17.29 33.1701C17.29 33.6201 17.29 33.74 17.83 33.71H19C19.93 33.71 19.93 33.7101 19.93 34.6101C19.93 35.51 19.93 35.51 20.8 35.51C21.67 35.51 21.73 35.51 21.73 34.58V34.1C21.73 33.8601 21.73 33.77 22.06 33.74C22.5278 33.693 22.9748 33.5233 23.356 33.2481C23.7371 32.9729 24.0388 32.6019 24.2306 32.1726C24.4224 31.7434 24.4974 31.2712 24.4482 30.8036C24.3989 30.3361 24.2271 29.8899 23.95 29.51C23.9059 29.4272 23.8908 29.332 23.9071 29.2395C23.9234 29.1471 23.9702 29.0628 24.04 29L24.19 29.03ZM22 32H20.47C20.08 32 19.45 32.18 19.33 32C19.2229 31.5058 19.2229 30.9943 19.33 30.5C19.33 30.29 19.48 30.26 19.63 30.26H22C22.192 30.3109 22.3617 30.4238 22.4828 30.5811C22.6039 30.7385 22.6696 30.9315 22.6696 31.1301C22.6696 31.3286 22.6039 31.5216 22.4828 31.679C22.3617 31.8363 22.192 31.9492 22 32ZM21.82 28.4001H20.59C19.18 28.4001 19.18 28.4 19.24 26.96C19.24 26.69 19.24 26.57 19.6 26.57H21.85C22.48 26.57 22.87 26.93 22.87 27.47C22.87 28.01 22.33 28.31 21.67 28.34L21.82 28.4001ZM24.19 29.03C24.4958 28.6298 24.6821 28.1513 24.7275 27.6496C24.7728 27.148 24.6754 26.6438 24.4464 26.1952C24.2174 25.7466 23.8662 25.3719 23.4333 25.1144C23.0004 24.857 22.5035 24.7272 22 24.74C21.76 24.74 21.67 24.74 21.7 24.38V23.18C21.7 22.9401 21.7 22.88 21.4 22.88C19.9 22.88 19.9 22.88 19.9 24.2C19.9 24.2 19.9 24.59 19.48 24.59H17.8C17.41 24.59 17.26 24.59 17.29 25.1C17.29 26.42 17.29 27.7701 17.29 29.1201C17.29 30.4701 17.29 31.8201 17.29 33.1701C17.29 33.6201 17.29 33.74 17.83 33.71H19C19.93 33.71 19.93 33.7101 19.93 34.6101C19.93 35.51 19.93 35.51 20.8 35.51C21.67 35.51 21.73 35.51 21.73 34.58V34.1C21.73 33.8601 21.73 33.77 22.06 33.74C22.5278 33.693 22.9748 33.5233 23.356 33.2481C23.7371 32.9729 24.0388 32.6019 24.2306 32.1726C24.4224 31.7434 24.4974 31.2712 24.4482 30.8036C24.3989 30.3361 24.2271 29.8899 23.95 29.51C23.9059 29.4272 23.8908 29.332 23.9071 29.2395C23.9234 29.1471 23.9702 29.0628 24.04 29L24.19 29.03ZM22 32H20.47C20.08 32 19.45 32.18 19.33 32C19.2229 31.5058 19.2229 30.9943 19.33 30.5C19.33 30.29 19.48 30.26 19.63 30.26H22C22.192 30.3109 22.3617 30.4238 22.4828 30.5811C22.6039 30.7385 22.6696 30.9315 22.6696 31.1301C22.6696 31.3286 22.6039 31.5216 22.4828 31.679C22.3617 31.8363 22.192 31.9492 22 32ZM21.82 28.4001H20.59C19.18 28.4001 19.18 28.4 19.24 26.96C19.24 26.69 19.24 26.57 19.6 26.57H21.85C22.48 26.57 22.87 26.93 22.87 27.47C22.87 28.01 22.33 28.31 21.67 28.34L21.82 28.4001ZM24.19 29.03C24.4958 28.6298 24.6821 28.1513 24.7275 27.6496C24.7728 27.148 24.6754 26.6438 24.4464 26.1952C24.2174 25.7466 23.8662 25.3719 23.4333 25.1144C23.0004 24.857 22.5035 24.7272 22 24.74C21.76 24.74 21.67 24.74 21.7 24.38V23.18C21.7 22.9401 21.7 22.88 21.4 22.88C19.9 22.88 19.9 22.88 19.9 24.2C19.9 24.2 19.9 24.59 19.48 24.59H17.8C17.41 24.59 17.26 24.59 17.29 25.1C17.29 26.42 17.29 27.7701 17.29 29.1201C17.29 30.4701 17.29 31.8201 17.29 33.1701C17.29 33.6201 17.29 33.74 17.83 33.71H19C19.93 33.71 19.93 33.7101 19.93 34.6101C19.93 35.51 19.93 35.51 20.8 35.51C21.67 35.51 21.73 35.51 21.73 34.58V34.1C21.73 33.8601 21.73 33.77 22.06 33.74C22.5278 33.693 22.9748 33.5233 23.356 33.2481C23.7371 32.9729 24.0388 32.6019 24.2306 32.1726C24.4224 31.7434 24.4974 31.2712 24.4482 30.8036C24.3989 30.3361 24.2271 29.8899 23.95 29.51C23.9059 29.4272 23.8908 29.332 23.9071 29.2395C23.9234 29.1471 23.9702 29.0628 24.04 29L24.19 29.03ZM22 32H20.47C20.08 32 19.45 32.18 19.33 32C19.2229 31.5058 19.2229 30.9943 19.33 30.5C19.33 30.29 19.48 30.26 19.63 30.26H22C22.192 30.3109 22.3617 30.4238 22.4828 30.5811C22.6039 30.7385 22.6696 30.9315 22.6696 31.1301C22.6696 31.3286 22.6039 31.5216 22.4828 31.679C22.3617 31.8363 22.192 31.9492 22 32ZM21.82 28.4001H20.59C19.18 28.4001 19.18 28.4 19.24 26.96C19.24 26.69 19.24 26.57 19.6 26.57H21.85C22.48 26.57 22.87 26.93 22.87 27.47C22.87 28.01 22.33 28.31 21.67 28.34L21.82 28.4001ZM24.19 29.03C24.4958 28.6298 24.6821 28.1513 24.7275 27.6496C24.7728 27.148 24.6754 26.6438 24.4464 26.1952C24.2174 25.7466 23.8662 25.3719 23.4333 25.1144C23.0004 24.857 22.5035 24.7272 22 24.74C21.76 24.74 21.67 24.74 21.7 24.38V23.18C21.7 22.9401 21.7 22.88 21.4 22.88C19.9 22.88 19.9 22.88 19.9 24.2C19.9 24.2 19.9 24.59 19.48 24.59H17.8C17.41 24.59 17.26 24.59 17.29 25.1C17.29 26.42 17.29 27.7701 17.29 29.1201C17.29 30.4701 17.29 31.8201 17.29 33.1701C17.29 33.6201 17.29 33.74 17.83 33.71H19C19.93 33.71 19.93 33.7101 19.93 34.6101C19.93 35.51 19.93 35.51 20.8 35.51C21.67 35.51 21.73 35.51 21.73 34.58V34.1C21.73 33.8601 21.73 33.77 22.06 33.74C22.5278 33.693 22.9748 33.5233 23.356 33.2481C23.7371 32.9729 24.0388 32.6019 24.2306 32.1726C24.4224 31.7434 24.4974 31.2712 24.4482 30.8036C24.3989 30.3361 24.2271 29.8899 23.95 29.51C23.9059 29.4272 23.8908 29.332 23.9071 29.2395C23.9234 29.1471 23.9702 29.0628 24.04 29L24.19 29.03ZM22 32H20.47C20.08 32 19.45 32.18 19.33 32C19.2229 31.5058 19.2229 30.9943 19.33 30.5C19.33 30.29 19.48 30.26 19.63 30.26H22C22.192 30.3109 22.3617 30.4238 22.4828 30.5811C22.6039 30.7385 22.6696 30.9315 22.6696 31.1301C22.6696 31.3286 22.6039 31.5216 22.4828 31.679C22.3617 31.8363 22.192 31.9492 22 32ZM21.82 28.4001H20.59C19.18 28.4001 19.18 28.4 19.24 26.96C19.24 26.69 19.24 26.57 19.6 26.57H21.85C22.48 26.57 22.87 26.93 22.87 27.47C22.87 28.01 22.33 28.31 21.67 28.34L21.82 28.4001ZM24.19 29.03C24.4958 28.6298 24.6821 28.1513 24.7275 27.6496C24.7728 27.148 24.6754 26.6438 24.4464 26.1952C24.2174 25.7466 23.8662 25.3719 23.4333 25.1144C23.0004 24.857 22.5035 24.7272 22 24.74C21.76 24.74 21.67 24.74 21.7 24.38V23.18C21.7 22.9401 21.7 22.88 21.4 22.88C19.9 22.88 19.9 22.88 19.9 24.2C19.9 24.2 19.9 24.59 19.48 24.59H17.8C17.41 24.59 17.26 24.59 17.29 25.1C17.29 26.42 17.29 27.7701 17.29 29.1201C17.29 30.4701 17.29 31.8201 17.29 33.1701C17.29 33.6201 17.29 33.74 17.83 33.71H19C19.93 33.71 19.93 33.7101 19.93 34.6101C19.93 35.51 19.93 35.51 20.8 35.51C21.67 35.51 21.73 35.51 21.73 34.58V34.1C21.73 33.8601 21.73 33.77 22.06 33.74C22.5278 33.693 22.9748 33.5233 23.356 33.2481C23.7371 32.9729 24.0388 32.6019 24.2306 32.1726C24.4224 31.7434 24.4974 31.2712 24.4482 30.8036C24.3989 30.3361 24.2271 29.8899 23.95 29.51C23.9059 29.4272 23.8908 29.332 23.9071 29.2395C23.9234 29.1471 23.9702 29.0628 24.04 29L24.19 29.03ZM22 32H20.47C20.08 32 19.45 32.18 19.33 32C19.2229 31.5058 19.2229 30.9943 19.33 30.5C19.33 30.29 19.48 30.26 19.63 30.26H22C22.192 30.3109 22.3617 30.4238 22.4828 30.5811C22.6039 30.7385 22.6696 30.9315 22.6696 31.1301C22.6696 31.3286 22.6039 31.5216 22.4828 31.679C22.3617 31.8363 22.192 31.9492 22 32ZM21.82 28.4001H20.59C19.18 28.4001 19.18 28.4 19.24 26.96C19.24 26.69 19.24 26.57 19.6 26.57H21.85C22.48 26.57 22.87 26.93 22.87 27.47C22.87 28.01 22.33 28.31 21.67 28.34L21.82 28.4001Z" fill="#B860AC"/>
  <path d="M24.04 28.9999C24.3298 28.6097 24.5075 28.1479 24.5542 27.6641C24.6008 27.1803 24.5145 26.693 24.3046 26.2547C24.0947 25.8164 23.7692 25.4436 23.363 25.1767C22.9569 24.9097 22.4856 24.7587 22 24.7399C21.76 24.7399 21.67 24.7399 21.7 24.3799V23.1799C21.7 22.9399 21.7 22.8799 21.4 22.8799C19.9 22.8799 19.9 22.8799 19.9 24.1999C19.9 24.1999 19.9 24.5899 19.48 24.5899H17.8C17.41 24.5899 17.26 24.5899 17.29 25.0999C17.29 26.4199 17.29 27.7699 17.29 29.1199C17.29 30.4699 17.29 31.8199 17.29 33.1699C17.29 33.6199 17.29 33.7399 17.83 33.7099H19C19.93 33.7099 19.93 33.7099 19.93 34.6099C19.93 35.5099 19.93 35.5099 20.8 35.5099C21.67 35.5099 21.73 35.5099 21.73 34.5799V34.0999C21.73 33.8599 21.73 33.7699 22.06 33.7399C22.5277 33.6928 22.9748 33.5231 23.3559 33.2479C23.7371 32.9727 24.0388 32.6017 24.2305 32.1725C24.4223 31.7433 24.4974 31.271 24.4481 30.8035C24.3988 30.3359 24.227 29.8897 23.95 29.5099C23.9058 29.427 23.8907 29.3318 23.907 29.2394C23.9233 29.1469 23.9701 29.0626 24.04 28.9999ZM22 31.9999H20.47C20.08 31.9999 19.45 32.1799 19.33 31.9999C19.2228 31.5056 19.2228 30.9941 19.33 30.4999C19.33 30.2899 19.48 30.2599 19.63 30.2599H22C22.1919 30.3107 22.3617 30.4236 22.4828 30.581C22.6039 30.7383 22.6695 30.9313 22.6695 31.1299C22.6695 31.3284 22.6039 31.5214 22.4828 31.6788C22.3617 31.8362 22.1919 31.949 22 31.9999ZM21.82 28.3999H20.59C19.18 28.3999 19.18 28.3999 19.24 26.9599C19.24 26.6899 19.24 26.5699 19.6 26.5699H21.85C22.48 26.5699 22.87 26.9299 22.87 27.4699C22.87 28.0099 22.33 28.3099 21.67 28.3399L21.82 28.3999Z" fill="#FEFEFE"/>
  <path d="M24.04 28.9999C24.3298 28.6097 24.5075 28.1479 24.5542 27.6641C24.6008 27.1803 24.5145 26.693 24.3046 26.2547C24.0947 25.8164 23.7692 25.4436 23.363 25.1767C22.9569 24.9097 22.4856 24.7587 22 24.7399C21.76 24.7399 21.67 24.7399 21.7 24.3799V23.1799C21.7 22.9399 21.7 22.8799 21.4 22.8799C19.9 22.8799 19.9 22.8799 19.9 24.1999C19.9 24.1999 19.9 24.5899 19.48 24.5899H17.8C17.41 24.5899 17.26 24.5899 17.29 25.0999C17.29 26.4199 17.29 27.7699 17.29 29.1199C17.29 30.4699 17.29 31.8199 17.29 33.1699C17.29 33.6199 17.29 33.7399 17.83 33.7099H19C19.93 33.7099 19.93 33.7099 19.93 34.6099C19.93 35.5099 19.93 35.5099 20.8 35.5099C21.67 35.5099 21.73 35.5099 21.73 34.5799V34.0999C21.73 33.8599 21.73 33.7699 22.06 33.7399C22.5277 33.6928 22.9748 33.5231 23.3559 33.2479C23.7371 32.9727 24.0388 32.6017 24.2305 32.1725C24.4223 31.7433 24.4974 31.271 24.4481 30.8035C24.3988 30.3359 24.227 29.8897 23.95 29.5099C23.9058 29.427 23.8907 29.3318 23.907 29.2394C23.9233 29.1469 23.9701 29.0626 24.04 28.9999ZM22 31.9999H20.47C20.08 31.9999 19.45 32.1799 19.33 31.9999C19.2228 31.5056 19.2228 30.9941 19.33 30.4999C19.33 30.2899 19.48 30.2599 19.63 30.2599H22C22.1919 30.3107 22.3617 30.4236 22.4828 30.581C22.6039 30.7383 22.6695 30.9313 22.6695 31.1299C22.6695 31.3284 22.6039 31.5214 22.4828 31.6788C22.3617 31.8362 22.1919 31.949 22 31.9999ZM21.82 28.3999H20.59C19.18 28.3999 19.18 28.3999 19.24 26.9599C19.24 26.6899 19.24 26.5699 19.6 26.5699H21.85C22.48 26.5699 22.87 26.9299 22.87 27.4699C22.87 28.0099 22.33 28.3099 21.67 28.3399L21.82 28.3999Z" fill="#B860AC"/>
</svg>