<svg xmlns="http://www.w3.org/2000/svg" width="65" height="64" viewBox="0 0 65 64" fill="none">
  <path d="M39.7248 6.45691C40.2879 6.73528 40.7905 7.12191 41.204 7.59469L55.9097 22.3005C56.1682 22.4877 56.3787 22.7336 56.5238 23.0179C56.6689 23.3022 56.7446 23.6168 56.7446 23.936C56.7446 24.2552 56.6689 24.5699 56.5238 24.8542C56.3787 25.1385 56.1682 25.3843 55.9097 25.5716L52.4111 29.2409C52.2412 29.4403 52.0119 29.5799 51.7568 29.6391C51.6029 29.6664 51.4442 29.6422 51.3053 29.5702C51.1665 29.4983 51.0553 29.3825 50.9888 29.2409C50.9019 29.0895 50.8713 28.9122 50.9026 28.7404C50.9338 28.5686 51.0248 28.4134 51.1595 28.3022L53.8333 25.6285L54.9995 24.4622C55.4831 23.9787 55.4831 23.9218 54.9995 23.4382L48.4288 16.9814L39.8955 8.44802C39.7937 8.36048 39.6986 8.2654 39.6111 8.16358C39.4688 8.16358 39.3266 7.93602 39.156 8.02135C38.9853 8.10669 38.9 8.24891 38.9 8.47646V17.4934C38.9 18.3467 38.6724 18.5742 37.7906 18.5742H15.4333C14.6653 18.5742 14.6368 18.5742 14.6368 19.3991V28.5582C14.6368 29.2978 14.6368 29.2978 15.4048 29.2978H19.188C19.3228 29.3056 19.4576 29.2814 19.5812 29.227C19.7048 29.1726 19.8138 29.0896 19.8991 28.9849L24.3364 24.6045C24.6011 24.3201 24.9463 24.1235 25.3258 24.0408C25.7054 23.9582 26.1011 23.9935 26.46 24.142C26.819 24.2905 27.1239 24.5452 27.3341 24.8718C27.5443 25.1985 27.6496 25.5816 27.636 25.9698V26.3396C27.636 27.1645 27.636 27.9894 27.636 28.8427C27.636 29.2125 27.636 29.3262 28.1195 29.3262H37.9613C38.6155 29.3262 38.9 29.6107 38.9 30.2649V39.3102C38.9 39.5094 38.9 39.7654 39.0991 39.8791C39.2982 39.9929 39.5542 39.8791 39.7248 39.6231L48.0591 31.2889L48.4288 30.9476C48.4969 30.8647 48.5815 30.797 48.6772 30.7488C48.773 30.7006 48.8778 30.673 48.9848 30.6677C49.0919 30.6625 49.1989 30.6797 49.2989 30.7183C49.3989 30.7569 49.4898 30.8159 49.5656 30.8917C49.6414 30.9675 49.7005 31.0584 49.739 31.1584C49.7776 31.2584 49.7948 31.3654 49.7896 31.4725C49.7843 31.5796 49.7567 31.6843 49.7085 31.7801C49.6603 31.8758 49.5926 31.9605 49.5097 32.0285C48.8271 32.7396 48.116 33.4222 47.4048 34.1049L46.9782 34.4747H49.6804C49.9817 34.432 50.2888 34.4599 50.5775 34.5563C50.8662 34.6527 51.1284 34.8149 51.3436 35.0301C51.5588 35.2453 51.721 35.5076 51.8174 35.7963C51.9138 36.0849 51.9418 36.392 51.8991 36.6934V46.08C51.9418 46.3813 51.9138 46.6885 51.8174 46.9771C51.721 47.2658 51.5588 47.5281 51.3436 47.7433C51.1284 47.9584 50.8662 48.1207 50.5775 48.217C50.2888 48.3134 49.9817 48.3414 49.6804 48.2987H28.2048C27.7213 48.2987 27.636 48.4409 27.636 48.896C27.636 51.5129 27.636 54.1298 27.636 56.7467C27.6878 57.1644 27.6019 57.5875 27.3914 57.952C27.181 58.3165 26.8574 58.6023 26.4697 58.7662C26.0775 58.9307 25.6421 58.9613 25.2307 58.8533C24.8193 58.7453 24.455 58.5048 24.1942 58.1689C21.5204 55.4667 18.8182 52.7929 16.1444 50.1191C16.019 50.0176 15.9046 49.9032 15.8031 49.7778C15.6891 49.648 15.6262 49.4812 15.6262 49.3085C15.6262 49.1357 15.6891 48.9689 15.8031 48.8391C15.9328 48.7251 16.0997 48.6623 16.2724 48.6623C16.4451 48.6623 16.612 48.7251 16.7417 48.8391C16.9032 48.9383 17.0473 49.0632 17.1684 49.2089L25.0191 57.088L25.2751 57.3156C25.4173 57.4578 25.5595 57.5716 25.7302 57.4862C25.8172 57.4494 25.8896 57.3848 25.9359 57.3024C25.9823 57.2201 25.9999 57.1246 25.9862 57.0311V47.9289C25.9862 47.0756 26.2137 46.848 27.0955 46.848H49.5666C50.3346 46.848 50.3631 46.848 50.3631 46.0231V36.8071C50.3631 36.1529 50.3631 36.096 49.652 36.096H45.812C45.6774 36.0904 45.5434 36.1157 45.4201 36.1699C45.2968 36.2242 45.1876 36.3059 45.1008 36.4089L40.7773 40.704C40.5243 41.0409 40.1669 41.2845 39.7608 41.3966C39.3547 41.5088 38.9229 41.4833 38.5329 41.324C38.1429 41.1648 37.8166 40.8808 37.6051 40.5164C37.3936 40.1521 37.3088 39.7279 37.364 39.3102C37.364 38.3431 37.364 37.4045 37.364 36.4658C37.364 36.1814 37.364 36.096 36.9942 36.096H35.06C34.4911 36.096 34.1497 35.8116 34.1497 35.328C34.1497 34.8445 34.4911 34.5885 35.06 34.56H36.9657C37.2502 34.56 37.364 34.56 37.364 34.1902C37.364 33.2042 37.364 32.256 37.364 31.3458C37.364 31.0614 37.364 30.976 36.9942 30.976H28.0342C27.7497 30.976 27.636 30.976 27.636 31.3458C27.636 32.3414 27.636 33.3654 27.636 34.3609C27.636 34.6738 27.636 34.7307 28.0342 34.7022H31.3053C31.4961 34.6849 31.6864 34.7395 31.839 34.8552C31.9917 34.971 32.0955 35.1396 32.1302 35.328C32.1759 35.5014 32.1544 35.6857 32.07 35.844C31.9856 36.0022 31.8446 36.1227 31.6751 36.1814C31.5152 36.2107 31.3514 36.2107 31.1915 36.1814H27.0955C26.356 36.1814 26.1 35.9254 26.1 35.1858V26.2542C26.1 25.9982 26.1 25.6854 25.9008 25.5716C25.7017 25.4578 25.3888 25.5716 25.2182 25.8845L10.1426 40.9316C9.65907 41.4436 9.65907 41.5005 10.1426 42.0125L14.2102 46.0516C14.3321 46.1771 14.4461 46.3101 14.5515 46.4498C14.6152 46.5132 14.6657 46.5886 14.7001 46.6716C14.7346 46.7545 14.7523 46.8435 14.7523 46.9334C14.7523 47.0232 14.7346 47.1122 14.7001 47.1951C14.6657 47.2781 14.6152 47.3535 14.5515 47.4169C14.42 47.5389 14.2473 47.6066 14.068 47.6066C13.8886 47.6066 13.7159 47.5389 13.5844 47.4169C13.4447 47.3115 13.3117 47.1975 13.1862 47.0756L8.9764 42.9796C8.74574 42.7986 8.55924 42.5676 8.43098 42.3039C8.30273 42.0403 8.23608 41.751 8.23608 41.4578C8.23608 41.1646 8.30273 40.8753 8.43098 40.6117C8.55924 40.348 8.74574 40.117 8.9764 39.936L17.5097 31.4027L18.0502 30.9191H15.2057C14.9115 30.9514 14.6138 30.9166 14.3349 30.8175C14.056 30.7184 13.8031 30.5575 13.5951 30.3469C13.3872 30.1362 13.2296 29.8812 13.1342 29.601C13.0387 29.3208 13.0079 29.0227 13.044 28.7289V19.2285C13.0061 18.9293 13.0377 18.6255 13.1362 18.3405C13.2348 18.0556 13.3977 17.7971 13.6123 17.5853C13.8268 17.3735 14.0873 17.2139 14.3736 17.1191C14.6598 17.0242 14.964 16.9965 15.2626 17.0382H36.6528C37.364 17.0382 37.364 17.0382 37.364 16.2987C37.364 13.8525 37.364 11.3778 37.364 8.90313C37.2938 8.38774 37.4023 7.86388 37.6714 7.41877C37.9406 6.97367 38.3541 6.63421 38.8431 6.45691H39.7248Z" fill="#B860AC"/>
</svg>