<svg xmlns="http://www.w3.org/2000/svg" width="65" height="64" viewBox="0 0 65 64" fill="none">
  <path d="M36.9942 19.0577H33.6662C33.0689 19.0577 32.7276 19.3422 32.756 19.8257C32.7844 20.3093 33.0689 20.5937 33.6378 20.5937H36.7382C37.0227 20.5937 37.108 20.5937 37.108 20.9351V26.6239C37.108 26.9084 37.108 26.9653 36.7382 26.9368H28.2049C27.9773 26.9368 27.8636 26.9368 27.8636 26.6239V20.9351C27.8636 20.6791 27.8636 20.5937 28.1764 20.6222H29.7124C30.2529 20.6222 30.5658 20.3377 30.5658 19.8826C30.5658 19.4275 30.2813 19.0862 29.7124 19.0862H28.0342C27.8006 19.0735 27.5669 19.1106 27.3487 19.1952C27.1306 19.2797 26.9329 19.4097 26.7688 19.5765C26.6047 19.7433 26.4779 19.943 26.397 20.1626C26.316 20.3821 26.2826 20.6163 26.2991 20.8497V26.6808C26.2773 26.9216 26.3086 27.1643 26.391 27.3916C26.4733 27.6189 26.6046 27.8254 26.7756 27.9964C26.9465 28.1673 27.153 28.2986 27.3803 28.381C27.6077 28.4633 27.8503 28.4947 28.0911 28.4728H36.852C37.0756 28.4852 37.2993 28.4502 37.5085 28.3702C37.7177 28.2903 37.9077 28.1671 38.0661 28.0087C38.2245 27.8503 38.3477 27.6603 38.4276 27.4511C38.5076 27.2419 38.5426 27.0182 38.5302 26.7946C38.5302 24.7751 38.5302 22.7271 38.5302 20.7075C38.5459 20.4964 38.5178 20.2844 38.4476 20.0847C38.3775 19.885 38.2669 19.702 38.1226 19.5471C37.9784 19.3921 37.8037 19.2687 37.6095 19.1845C37.4154 19.1003 37.2059 19.0571 36.9942 19.0577ZM36.9942 19.0577H33.6662C33.0689 19.0577 32.7276 19.3422 32.756 19.8257C32.7844 20.3093 33.0689 20.5937 33.6378 20.5937H36.7382C37.0227 20.5937 37.108 20.5937 37.108 20.9351V26.6239C37.108 26.9084 37.108 26.9653 36.7382 26.9368H28.2049C27.9773 26.9368 27.8636 26.9368 27.8636 26.6239V20.9351C27.8636 20.6791 27.8636 20.5937 28.1764 20.6222H29.7124C30.2529 20.6222 30.5658 20.3377 30.5658 19.8826C30.5658 19.4275 30.2813 19.0862 29.7124 19.0862H28.0342C27.8006 19.0735 27.5669 19.1106 27.3487 19.1952C27.1306 19.2797 26.9329 19.4097 26.7688 19.5765C26.6047 19.7433 26.4779 19.943 26.397 20.1626C26.316 20.3821 26.2826 20.6163 26.2991 20.8497V26.6808C26.2773 26.9216 26.3086 27.1643 26.391 27.3916C26.4733 27.6189 26.6046 27.8254 26.7756 27.9964C26.9465 28.1673 27.153 28.2986 27.3803 28.381C27.6077 28.4633 27.8503 28.4947 28.0911 28.4728H36.852C37.0756 28.4852 37.2993 28.4502 37.5085 28.3702C37.7177 28.2903 37.9077 28.1671 38.0661 28.0087C38.2245 27.8503 38.3477 27.6603 38.4276 27.4511C38.5076 27.2419 38.5426 27.0182 38.5302 26.7946C38.5302 24.7751 38.5302 22.7271 38.5302 20.7075C38.5459 20.4964 38.5178 20.2844 38.4476 20.0847C38.3775 19.885 38.2669 19.702 38.1226 19.5471C37.9784 19.3921 37.8037 19.2687 37.6095 19.1845C37.4154 19.1003 37.2059 19.0571 36.9942 19.0577ZM36.9942 19.0577H33.6662C33.0689 19.0577 32.7276 19.3422 32.756 19.8257C32.7844 20.3093 33.0689 20.5937 33.6378 20.5937H36.7382C37.0227 20.5937 37.108 20.5937 37.108 20.9351V26.6239C37.108 26.9084 37.108 26.9653 36.7382 26.9368H28.2049C27.9773 26.9368 27.8636 26.9368 27.8636 26.6239V20.9351C27.8636 20.6791 27.8636 20.5937 28.1764 20.6222H29.7124C30.2529 20.6222 30.5658 20.3377 30.5658 19.8826C30.5658 19.4275 30.2813 19.0862 29.7124 19.0862H28.0342C27.8006 19.0735 27.5669 19.1106 27.3487 19.1952C27.1306 19.2797 26.9329 19.4097 26.7688 19.5765C26.6047 19.7433 26.4779 19.943 26.397 20.1626C26.316 20.3821 26.2826 20.6163 26.2991 20.8497V26.6808C26.2773 26.9216 26.3086 27.1643 26.391 27.3916C26.4733 27.6189 26.6046 27.8254 26.7756 27.9964C26.9465 28.1673 27.153 28.2986 27.3803 28.381C27.6077 28.4633 27.8503 28.4947 28.0911 28.4728H36.852C37.0756 28.4852 37.2993 28.4502 37.5085 28.3702C37.7177 28.2903 37.9077 28.1671 38.0661 28.0087C38.2245 27.8503 38.3477 27.6603 38.4276 27.4511C38.5076 27.2419 38.5426 27.0182 38.5302 26.7946C38.5302 24.7751 38.5302 22.7271 38.5302 20.7075C38.5459 20.4964 38.5178 20.2844 38.4476 20.0847C38.3775 19.885 38.2669 19.702 38.1226 19.5471C37.9784 19.3921 37.8037 19.2687 37.6095 19.1845C37.4154 19.1003 37.2059 19.0571 36.9942 19.0577ZM36.9942 19.0577H33.6662C33.0689 19.0577 32.7276 19.3422 32.756 19.8257C32.7844 20.3093 33.0689 20.5937 33.6378 20.5937H36.7382C37.0227 20.5937 37.108 20.5937 37.108 20.9351V26.6239C37.108 26.9084 37.108 26.9653 36.7382 26.9368H28.2049C27.9773 26.9368 27.8636 26.9368 27.8636 26.6239V20.9351C27.8636 20.6791 27.8636 20.5937 28.1764 20.6222H29.7124C30.2529 20.6222 30.5658 20.3377 30.5658 19.8826C30.5658 19.4275 30.2813 19.0862 29.7124 19.0862H28.0342C27.8006 19.0735 27.5669 19.1106 27.3487 19.1952C27.1306 19.2797 26.9329 19.4097 26.7688 19.5765C26.6047 19.7433 26.4779 19.943 26.397 20.1626C26.316 20.3821 26.2826 20.6163 26.2991 20.8497V26.6808C26.2773 26.9216 26.3086 27.1643 26.391 27.3916C26.4733 27.6189 26.6046 27.8254 26.7756 27.9964C26.9465 28.1673 27.153 28.2986 27.3803 28.381C27.6077 28.4633 27.8503 28.4947 28.0911 28.4728H36.852C37.0756 28.4852 37.2993 28.4502 37.5085 28.3702C37.7177 28.2903 37.9077 28.1671 38.0661 28.0087C38.2245 27.8503 38.3477 27.6603 38.4276 27.4511C38.5076 27.2419 38.5426 27.0182 38.5302 26.7946C38.5302 24.7751 38.5302 22.7271 38.5302 20.7075C38.5459 20.4964 38.5178 20.2844 38.4476 20.0847C38.3775 19.885 38.2669 19.702 38.1226 19.5471C37.9784 19.3921 37.8037 19.2687 37.6095 19.1845C37.4154 19.1003 37.2059 19.0571 36.9942 19.0577ZM36.9942 19.0577H33.6662C33.0689 19.0577 32.7276 19.3422 32.756 19.8257C32.7844 20.3093 33.0689 20.5937 33.6378 20.5937H36.7382C37.0227 20.5937 37.108 20.5937 37.108 20.9351V26.6239C37.108 26.9084 37.108 26.9653 36.7382 26.9368H28.2049C27.9773 26.9368 27.8636 26.9368 27.8636 26.6239V20.9351C27.8636 20.6791 27.8636 20.5937 28.1764 20.6222H29.7124C30.2529 20.6222 30.5658 20.3377 30.5658 19.8826C30.5658 19.4275 30.2813 19.0862 29.7124 19.0862H28.0342C27.8006 19.0735 27.5669 19.1106 27.3487 19.1952C27.1306 19.2797 26.9329 19.4097 26.7688 19.5765C26.6047 19.7433 26.4779 19.943 26.397 20.1626C26.316 20.3821 26.2826 20.6163 26.2991 20.8497V26.6808C26.2773 26.9216 26.3086 27.1643 26.391 27.3916C26.4733 27.6189 26.6046 27.8254 26.7756 27.9964C26.9465 28.1673 27.153 28.2986 27.3803 28.381C27.6077 28.4633 27.8503 28.4947 28.0911 28.4728H36.852C37.0756 28.4852 37.2993 28.4502 37.5085 28.3702C37.7177 28.2903 37.9077 28.1671 38.0661 28.0087C38.2245 27.8503 38.3477 27.6603 38.4276 27.4511C38.5076 27.2419 38.5426 27.0182 38.5302 26.7946C38.5302 24.7751 38.5302 22.7271 38.5302 20.7075C38.5459 20.4964 38.5178 20.2844 38.4476 20.0847C38.3775 19.885 38.2669 19.702 38.1226 19.5471C37.9784 19.3921 37.8037 19.2687 37.6095 19.1845C37.4154 19.1003 37.2059 19.0571 36.9942 19.0577ZM36.9942 19.0577H33.6662C33.0689 19.0577 32.7276 19.3422 32.756 19.8257C32.7844 20.3093 33.0689 20.5937 33.6378 20.5937H36.7382C37.0227 20.5937 37.108 20.5937 37.108 20.9351V26.6239C37.108 26.9084 37.108 26.9653 36.7382 26.9368H28.2049C27.9773 26.9368 27.8636 26.9368 27.8636 26.6239V20.9351C27.8636 20.6791 27.8636 20.5937 28.1764 20.6222H29.7124C30.2529 20.6222 30.5658 20.3377 30.5658 19.8826C30.5658 19.4275 30.2813 19.0862 29.7124 19.0862H28.0342C27.8006 19.0735 27.5669 19.1106 27.3487 19.1952C27.1306 19.2797 26.9329 19.4097 26.7688 19.5765C26.6047 19.7433 26.4779 19.943 26.397 20.1626C26.316 20.3821 26.2826 20.6163 26.2991 20.8497V26.6808C26.2773 26.9216 26.3086 27.1643 26.391 27.3916C26.4733 27.6189 26.6046 27.8254 26.7756 27.9964C26.9465 28.1673 27.153 28.2986 27.3803 28.381C27.6077 28.4633 27.8503 28.4947 28.0911 28.4728H36.852C37.0756 28.4852 37.2993 28.4502 37.5085 28.3702C37.7177 28.2903 37.9077 28.1671 38.0661 28.0087C38.2245 27.8503 38.3477 27.6603 38.4276 27.4511C38.5076 27.2419 38.5426 27.0182 38.5302 26.7946C38.5302 24.7751 38.5302 22.7271 38.5302 20.7075C38.5459 20.4964 38.5178 20.2844 38.4476 20.0847C38.3775 19.885 38.2669 19.702 38.1226 19.5471C37.9784 19.3921 37.8037 19.2687 37.6095 19.1845C37.4154 19.1003 37.2059 19.0571 36.9942 19.0577ZM36.9942 19.0577H33.6662C33.0689 19.0577 32.7276 19.3422 32.756 19.8257C32.7844 20.3093 33.0689 20.5937 33.6378 20.5937H36.7382C37.0227 20.5937 37.108 20.5937 37.108 20.9351V26.6239C37.108 26.9084 37.108 26.9653 36.7382 26.9368H28.2049C27.9773 26.9368 27.8636 26.9368 27.8636 26.6239V20.9351C27.8636 20.6791 27.8636 20.5937 28.1764 20.6222H29.7124C30.2529 20.6222 30.5658 20.3377 30.5658 19.8826C30.5658 19.4275 30.2813 19.0862 29.7124 19.0862H28.0342C27.8006 19.0735 27.5669 19.1106 27.3487 19.1952C27.1306 19.2797 26.9329 19.4097 26.7688 19.5765C26.6047 19.7433 26.4779 19.943 26.397 20.1626C26.316 20.3821 26.2826 20.6163 26.2991 20.8497V26.6808C26.2773 26.9216 26.3086 27.1643 26.391 27.3916C26.4733 27.6189 26.6046 27.8254 26.7756 27.9964C26.9465 28.1673 27.153 28.2986 27.3803 28.381C27.6077 28.4633 27.8503 28.4947 28.0911 28.4728H36.852C37.0756 28.4852 37.2993 28.4502 37.5085 28.3702C37.7177 28.2903 37.9077 28.1671 38.0661 28.0087C38.2245 27.8503 38.3477 27.6603 38.4276 27.4511C38.5076 27.2419 38.5426 27.0182 38.5302 26.7946C38.5302 24.7751 38.5302 22.7271 38.5302 20.7075C38.5459 20.4964 38.5178 20.2844 38.4476 20.0847C38.3775 19.885 38.2669 19.702 38.1226 19.5471C37.9784 19.3921 37.8037 19.2687 37.6095 19.1845C37.4154 19.1003 37.2059 19.0571 36.9942 19.0577ZM36.9942 19.0577H33.6662C33.0689 19.0577 32.7276 19.3422 32.756 19.8257C32.7844 20.3093 33.0689 20.5937 33.6378 20.5937H36.7382C37.0227 20.5937 37.108 20.5937 37.108 20.9351V26.6239C37.108 26.9084 37.108 26.9653 36.7382 26.9368H28.2049C27.9773 26.9368 27.8636 26.9368 27.8636 26.6239V20.9351C27.8636 20.6791 27.8636 20.5937 28.1764 20.6222H29.7124C30.2529 20.6222 30.5658 20.3377 30.5658 19.8826C30.5658 19.4275 30.2813 19.0862 29.7124 19.0862H28.0342C27.8006 19.0735 27.5669 19.1106 27.3487 19.1952C27.1306 19.2797 26.9329 19.4097 26.7688 19.5765C26.6047 19.7433 26.4779 19.943 26.397 20.1626C26.316 20.3821 26.2826 20.6163 26.2991 20.8497V26.6808C26.2773 26.9216 26.3086 27.1643 26.391 27.3916C26.4733 27.6189 26.6046 27.8254 26.7756 27.9964C26.9465 28.1673 27.153 28.2986 27.3803 28.381C27.6077 28.4633 27.8503 28.4947 28.0911 28.4728H36.852C37.0756 28.4852 37.2993 28.4502 37.5085 28.3702C37.7177 28.2903 37.9077 28.1671 38.0661 28.0087C38.2245 27.8503 38.3477 27.6603 38.4276 27.4511C38.5076 27.2419 38.5426 27.0182 38.5302 26.7946C38.5302 24.7751 38.5302 22.7271 38.5302 20.7075C38.5459 20.4964 38.5178 20.2844 38.4476 20.0847C38.3775 19.885 38.2669 19.702 38.1226 19.5471C37.9784 19.3921 37.8037 19.2687 37.6095 19.1845C37.4154 19.1003 37.2059 19.0571 36.9942 19.0577ZM36.9942 19.0577H33.6662C33.0689 19.0577 32.7276 19.3422 32.756 19.8257C32.7844 20.3093 33.0689 20.5937 33.6378 20.5937H36.7382C37.0227 20.5937 37.108 20.5937 37.108 20.9351V26.6239C37.108 26.9084 37.108 26.9653 36.7382 26.9368H28.2049C27.9773 26.9368 27.8636 26.9368 27.8636 26.6239V20.9351C27.8636 20.6791 27.8636 20.5937 28.1764 20.6222H29.7124C30.2529 20.6222 30.5658 20.3377 30.5658 19.8826C30.5658 19.4275 30.2813 19.0862 29.7124 19.0862H28.0342C27.8006 19.0735 27.5669 19.1106 27.3487 19.1952C27.1306 19.2797 26.9329 19.4097 26.7688 19.5765C26.6047 19.7433 26.4779 19.943 26.397 20.1626C26.316 20.3821 26.2826 20.6163 26.2991 20.8497V26.6808C26.2773 26.9216 26.3086 27.1643 26.391 27.3916C26.4733 27.6189 26.6046 27.8254 26.7756 27.9964C26.9465 28.1673 27.153 28.2986 27.3803 28.381C27.6077 28.4633 27.8503 28.4947 28.0911 28.4728H36.852C37.0756 28.4852 37.2993 28.4502 37.5085 28.3702C37.7177 28.2903 37.9077 28.1671 38.0661 28.0087C38.2245 27.8503 38.3477 27.6603 38.4276 27.4511C38.5076 27.2419 38.5426 27.0182 38.5302 26.7946C38.5302 24.7751 38.5302 22.7271 38.5302 20.7075C38.5459 20.4964 38.5178 20.2844 38.4476 20.0847C38.3775 19.885 38.2669 19.702 38.1226 19.5471C37.9784 19.3921 37.8037 19.2687 37.6095 19.1845C37.4154 19.1003 37.2059 19.0571 36.9942 19.0577ZM36.9942 19.0577H33.6662C33.0689 19.0577 32.7276 19.3422 32.756 19.8257C32.7844 20.3093 33.0689 20.5937 33.6378 20.5937H36.7382C37.0227 20.5937 37.108 20.5937 37.108 20.9351V26.6239C37.108 26.9084 37.108 26.9653 36.7382 26.9368H28.2049C27.9773 26.9368 27.8636 26.9368 27.8636 26.6239V20.9351C27.8636 20.6791 27.8636 20.5937 28.1764 20.6222H29.7124C30.2529 20.6222 30.5658 20.3377 30.5658 19.8826C30.5658 19.4275 30.2813 19.0862 29.7124 19.0862H28.0342C27.8006 19.0735 27.5669 19.1106 27.3487 19.1952C27.1306 19.2797 26.9329 19.4097 26.7688 19.5765C26.6047 19.7433 26.4779 19.943 26.397 20.1626C26.316 20.3821 26.2826 20.6163 26.2991 20.8497V26.6808C26.2773 26.9216 26.3086 27.1643 26.391 27.3916C26.4733 27.6189 26.6046 27.8254 26.7756 27.9964C26.9465 28.1673 27.153 28.2986 27.3803 28.381C27.6077 28.4633 27.8503 28.4947 28.0911 28.4728H36.852C37.0756 28.4852 37.2993 28.4502 37.5085 28.3702C37.7177 28.2903 37.9077 28.1671 38.0661 28.0087C38.2245 27.8503 38.3477 27.6603 38.4276 27.4511C38.5076 27.2419 38.5426 27.0182 38.5302 26.7946C38.5302 24.7751 38.5302 22.7271 38.5302 20.7075C38.5459 20.4964 38.5178 20.2844 38.4476 20.0847C38.3775 19.885 38.2669 19.702 38.1226 19.5471C37.9784 19.3921 37.8037 19.2687 37.6095 19.1845C37.4154 19.1003 37.2059 19.0571 36.9942 19.0577ZM36.9942 19.0577H33.6662C33.0689 19.0577 32.7276 19.3422 32.756 19.8257C32.7844 20.3093 33.0689 20.5937 33.6378 20.5937H36.7382C37.0227 20.5937 37.108 20.5937 37.108 20.9351V26.6239C37.108 26.9084 37.108 26.9653 36.7382 26.9368H28.2049C27.9773 26.9368 27.8636 26.9368 27.8636 26.6239V20.9351C27.8636 20.6791 27.8636 20.5937 28.1764 20.6222H29.7124C30.2529 20.6222 30.5658 20.3377 30.5658 19.8826C30.5658 19.4275 30.2813 19.0862 29.7124 19.0862H28.0342C27.8006 19.0735 27.5669 19.1106 27.3487 19.1952C27.1306 19.2797 26.9329 19.4097 26.7688 19.5765C26.6047 19.7433 26.4779 19.943 26.397 20.1626C26.316 20.3821 26.2826 20.6163 26.2991 20.8497V26.6808C26.2773 26.9216 26.3086 27.1643 26.391 27.3916C26.4733 27.6189 26.6046 27.8254 26.7756 27.9964C26.9465 28.1673 27.153 28.2986 27.3803 28.381C27.6077 28.4633 27.8503 28.4947 28.0911 28.4728H36.852C37.0756 28.4852 37.2993 28.4502 37.5085 28.3702C37.7177 28.2903 37.9077 28.1671 38.0661 28.0087C38.2245 27.8503 38.3477 27.6603 38.4276 27.4511C38.5076 27.2419 38.5426 27.0182 38.5302 26.7946C38.5302 24.7751 38.5302 22.7271 38.5302 20.7075C38.5459 20.4964 38.5178 20.2844 38.4476 20.0847C38.3775 19.885 38.2669 19.702 38.1226 19.5471C37.9784 19.3921 37.8037 19.2687 37.6095 19.1845C37.4154 19.1003 37.2059 19.0571 36.9942 19.0577ZM36.9942 19.0577H33.6662C33.0689 19.0577 32.7276 19.3422 32.756 19.8257C32.7844 20.3093 33.0689 20.5937 33.6378 20.5937H36.7382C37.0227 20.5937 37.108 20.5937 37.108 20.9351V26.6239C37.108 26.9084 37.108 26.9653 36.7382 26.9368H28.2049C27.9773 26.9368 27.8636 26.9368 27.8636 26.6239V20.9351C27.8636 20.6791 27.8636 20.5937 28.1764 20.6222H29.7124C30.2529 20.6222 30.5658 20.3377 30.5658 19.8826C30.5658 19.4275 30.2813 19.0862 29.7124 19.0862H28.0342C27.8006 19.0735 27.5669 19.1106 27.3487 19.1952C27.1306 19.2797 26.9329 19.4097 26.7688 19.5765C26.6047 19.7433 26.4779 19.943 26.397 20.1626C26.316 20.3821 26.2826 20.6163 26.2991 20.8497V26.6808C26.2773 26.9216 26.3086 27.1643 26.391 27.3916C26.4733 27.6189 26.6046 27.8254 26.7756 27.9964C26.9465 28.1673 27.153 28.2986 27.3803 28.381C27.6077 28.4633 27.8503 28.4947 28.0911 28.4728H36.852C37.0756 28.4852 37.2993 28.4502 37.5085 28.3702C37.7177 28.2903 37.9077 28.1671 38.0661 28.0087C38.2245 27.8503 38.3477 27.6603 38.4276 27.4511C38.5076 27.2419 38.5426 27.0182 38.5302 26.7946C38.5302 24.7751 38.5302 22.7271 38.5302 20.7075C38.5459 20.4964 38.5178 20.2844 38.4476 20.0847C38.3775 19.885 38.2669 19.702 38.1226 19.5471C37.9784 19.3921 37.8037 19.2687 37.6095 19.1845C37.4154 19.1003 37.2059 19.0571 36.9942 19.0577ZM36.9942 19.0577H33.6662C33.0689 19.0577 32.7276 19.3422 32.756 19.8257C32.7844 20.3093 33.0689 20.5937 33.6378 20.5937H36.7382C37.0227 20.5937 37.108 20.5937 37.108 20.9351V26.6239C37.108 26.9084 37.108 26.9653 36.7382 26.9368H28.2049C27.9773 26.9368 27.8636 26.9368 27.8636 26.6239V20.9351C27.8636 20.6791 27.8636 20.5937 28.1764 20.6222H29.7124C30.2529 20.6222 30.5658 20.3377 30.5658 19.8826C30.5658 19.4275 30.2813 19.0862 29.7124 19.0862H28.0342C27.8006 19.0735 27.5669 19.1106 27.3487 19.1952C27.1306 19.2797 26.9329 19.4097 26.7688 19.5765C26.6047 19.7433 26.4779 19.943 26.397 20.1626C26.316 20.3821 26.2826 20.6163 26.2991 20.8497V26.6808C26.2773 26.9216 26.3086 27.1643 26.391 27.3916C26.4733 27.6189 26.6046 27.8254 26.7756 27.9964C26.9465 28.1673 27.153 28.2986 27.3803 28.381C27.6077 28.4633 27.8503 28.4947 28.0911 28.4728H36.852C37.0756 28.4852 37.2993 28.4502 37.5085 28.3702C37.7177 28.2903 37.9077 28.1671 38.0661 28.0087C38.2245 27.8503 38.3477 27.6603 38.4276 27.4511C38.5076 27.2419 38.5426 27.0182 38.5302 26.7946C38.5302 24.7751 38.5302 22.7271 38.5302 20.7075C38.5459 20.4964 38.5178 20.2844 38.4476 20.0847C38.3775 19.885 38.2669 19.702 38.1226 19.5471C37.9784 19.3921 37.8037 19.2687 37.6095 19.1845C37.4154 19.1003 37.2059 19.0571 36.9942 19.0577ZM36.9942 19.0577H33.6662C33.0689 19.0577 32.7276 19.3422 32.756 19.8257C32.7844 20.3093 33.0689 20.5937 33.6378 20.5937H36.7382C37.0227 20.5937 37.108 20.5937 37.108 20.9351V26.6239C37.108 26.9084 37.108 26.9653 36.7382 26.9368H28.2049C27.9773 26.9368 27.8636 26.9368 27.8636 26.6239V20.9351C27.8636 20.6791 27.8636 20.5937 28.1764 20.6222H29.7124C30.2529 20.6222 30.5658 20.3377 30.5658 19.8826C30.5658 19.4275 30.2813 19.0862 29.7124 19.0862H28.0342C27.8006 19.0735 27.5669 19.1106 27.3487 19.1952C27.1306 19.2797 26.9329 19.4097 26.7688 19.5765C26.6047 19.7433 26.4779 19.943 26.397 20.1626C26.316 20.3821 26.2826 20.6163 26.2991 20.8497V26.6808C26.2773 26.9216 26.3086 27.1643 26.391 27.3916C26.4733 27.6189 26.6046 27.8254 26.7756 27.9964C26.9465 28.1673 27.153 28.2986 27.3803 28.381C27.6077 28.4633 27.8503 28.4947 28.0911 28.4728H36.852C37.0756 28.4852 37.2993 28.4502 37.5085 28.3702C37.7177 28.2903 37.9077 28.1671 38.0661 28.0087C38.2245 27.8503 38.3477 27.6603 38.4276 27.4511C38.5076 27.2419 38.5426 27.0182 38.5302 26.7946C38.5302 24.7751 38.5302 22.7271 38.5302 20.7075C38.5459 20.4964 38.5178 20.2844 38.4476 20.0847C38.3775 19.885 38.2669 19.702 38.1226 19.5471C37.9784 19.3921 37.8037 19.2687 37.6095 19.1845C37.4154 19.1003 37.2059 19.0571 36.9942 19.0577ZM36.9942 19.0577H33.6662C33.0689 19.0577 32.7276 19.3422 32.756 19.8257C32.7844 20.3093 33.0689 20.5937 33.6378 20.5937H36.7382C37.0227 20.5937 37.108 20.5937 37.108 20.9351V26.6239C37.108 26.9084 37.108 26.9653 36.7382 26.9368H28.2049C27.9773 26.9368 27.8636 26.9368 27.8636 26.6239V20.9351C27.8636 20.6791 27.8636 20.5937 28.1764 20.6222H29.7124C30.2529 20.6222 30.5658 20.3377 30.5658 19.8826C30.5658 19.4275 30.2813 19.0862 29.7124 19.0862H28.0342C27.8006 19.0735 27.5669 19.1106 27.3487 19.1952C27.1306 19.2797 26.9329 19.4097 26.7688 19.5765C26.6047 19.7433 26.4779 19.943 26.397 20.1626C26.316 20.3821 26.2826 20.6163 26.2991 20.8497V26.6808C26.2773 26.9216 26.3086 27.1643 26.391 27.3916C26.4733 27.6189 26.6046 27.8254 26.7756 27.9964C26.9465 28.1673 27.153 28.2986 27.3803 28.381C27.6077 28.4633 27.8503 28.4947 28.0911 28.4728H36.852C37.0756 28.4852 37.2993 28.4502 37.5085 28.3702C37.7177 28.2903 37.9077 28.1671 38.0661 28.0087C38.2245 27.8503 38.3477 27.6603 38.4276 27.4511C38.5076 27.2419 38.5426 27.0182 38.5302 26.7946C38.5302 24.7751 38.5302 22.7271 38.5302 20.7075C38.5459 20.4964 38.5178 20.2844 38.4476 20.0847C38.3775 19.885 38.2669 19.702 38.1226 19.5471C37.9784 19.3921 37.8037 19.2687 37.6095 19.1845C37.4154 19.1003 37.2059 19.0571 36.9942 19.0577ZM36.9942 19.0577H33.6662C33.0689 19.0577 32.7276 19.3422 32.756 19.8257C32.7844 20.3093 33.0689 20.5937 33.6378 20.5937H36.7382C37.0227 20.5937 37.108 20.5937 37.108 20.9351V26.6239C37.108 26.9084 37.108 26.9653 36.7382 26.9368H28.2049C27.9773 26.9368 27.8636 26.9368 27.8636 26.6239V20.9351C27.8636 20.6791 27.8636 20.5937 28.1764 20.6222H29.7124C30.2529 20.6222 30.5658 20.3377 30.5658 19.8826C30.5658 19.4275 30.2813 19.0862 29.7124 19.0862H28.0342C27.8006 19.0735 27.5669 19.1106 27.3487 19.1952C27.1306 19.2797 26.9329 19.4097 26.7688 19.5765C26.6047 19.7433 26.4779 19.943 26.397 20.1626C26.316 20.3821 26.2826 20.6163 26.2991 20.8497V26.6808C26.2773 26.9216 26.3086 27.1643 26.391 27.3916C26.4733 27.6189 26.6046 27.8254 26.7756 27.9964C26.9465 28.1673 27.153 28.2986 27.3803 28.381C27.6077 28.4633 27.8503 28.4947 28.0911 28.4728H36.852C37.0756 28.4852 37.2993 28.4502 37.5085 28.3702C37.7177 28.2903 37.9077 28.1671 38.0661 28.0087C38.2245 27.8503 38.3477 27.6603 38.4276 27.4511C38.5076 27.2419 38.5426 27.0182 38.5302 26.7946C38.5302 24.7751 38.5302 22.7271 38.5302 20.7075C38.5459 20.4964 38.5178 20.2844 38.4476 20.0847C38.3775 19.885 38.2669 19.702 38.1226 19.5471C37.9784 19.3921 37.8037 19.2687 37.6095 19.1845C37.4154 19.1003 37.2059 19.0571 36.9942 19.0577ZM57.5311 27.3351C57.5311 26.8799 57.5311 26.5102 58.0431 26.2826C58.2831 26.1413 58.4792 25.9362 58.6098 25.6902C58.7403 25.4442 58.8002 25.1668 58.7827 24.8888C58.7827 24.4337 58.7827 23.9786 58.7827 23.4951C58.8153 23.2445 58.7899 22.9899 58.7085 22.7507C58.6271 22.5115 58.4919 22.2942 58.3133 22.1156C58.1346 21.9369 57.9173 21.8017 57.6782 21.7203C57.439 21.6389 57.1843 21.6136 56.9338 21.6462H43.8778C43.2804 21.6462 43.252 21.6462 43.252 21.0204V17.9768C43.2345 17.8269 43.26 17.6752 43.3255 17.5392C43.391 17.4032 43.4937 17.2887 43.6218 17.2088C43.8954 17.0509 44.1216 16.8225 44.2767 16.5473C44.4318 16.272 44.5102 15.9602 44.5036 15.6444C44.532 15.2372 44.532 14.8285 44.5036 14.4213C44.515 14.1887 44.4796 13.9562 44.3993 13.7377C44.3191 13.5191 44.1956 13.3189 44.0364 13.149C43.8771 12.9792 43.6853 12.8431 43.4724 12.7489C43.2594 12.6547 43.0297 12.6044 42.7969 12.6008H40.1231H33.8084C33.3823 12.7217 32.9428 12.7886 32.5 12.7999C32.0582 12.801 31.6183 12.7436 31.1916 12.6293H22.4022C22.1342 12.6027 21.8636 12.636 21.6099 12.7266C21.3563 12.8173 21.1259 12.9631 20.9354 13.1536C20.745 13.3441 20.5991 13.5744 20.5085 13.8281C20.4178 14.0817 20.3845 14.3523 20.4111 14.6204V15.6444C20.3938 15.9815 20.4663 16.3171 20.6212 16.6169C20.7762 16.9168 21.0079 17.1701 21.2929 17.3511C21.4027 17.4003 21.496 17.4801 21.5616 17.581C21.6272 17.6819 21.6623 17.7996 21.6627 17.9199V21.3333C21.6627 21.6462 21.492 21.7884 21.1791 21.7884H7.98089C7.57932 21.7378 7.17354 21.8419 6.84599 22.0796C6.51843 22.3174 6.29366 22.6709 6.21733 23.0684V25.3439C6.24886 25.5396 6.32746 25.7247 6.44638 25.8833C6.5653 26.0418 6.72097 26.1691 6.9 26.2542C7.49733 26.4817 7.52578 26.8799 7.52578 27.3919C7.52578 34.01 7.52578 40.6471 7.52578 47.3031V47.7013C7.53787 47.8167 7.51438 47.9331 7.45846 48.0347C7.40253 48.1364 7.31684 48.2186 7.21289 48.2702C6.95507 48.3702 6.73046 48.5405 6.56454 48.7617C6.39862 48.9829 6.29804 49.2462 6.27422 49.5217V51.6835C6.28402 51.9148 6.35501 52.1393 6.47994 52.3342C6.60487 52.5291 6.77926 52.6874 6.98533 52.7928C7.31706 52.9344 7.6783 52.993 8.03778 52.9635H57.2467C57.4576 52.9802 57.6698 52.9514 57.8687 52.879C58.0676 52.8067 58.2486 52.6925 58.3996 52.5443C58.5506 52.396 58.668 52.217 58.7439 52.0194C58.8198 51.8218 58.8524 51.6103 58.8396 51.3991C58.8396 50.8586 58.8396 50.3466 58.8396 49.8062C58.8539 49.5287 58.7927 49.2525 58.6624 49.0071C58.5322 48.7616 58.3378 48.5561 58.1 48.4124C57.9265 48.3299 57.7836 48.1948 57.6916 48.0262C57.5997 47.8576 57.5634 47.6642 57.588 47.4737C57.588 46.5066 57.588 45.5395 57.588 44.6293L57.5311 27.3351ZM23.1987 14.2222H42.3133C42.7116 14.2222 42.8538 14.2222 42.8538 14.7342C42.8538 15.7582 42.8538 15.7582 41.8013 15.7582H22.6013C22.2031 15.7582 22.0893 15.7582 22.0893 15.3031C22.1178 14.2506 22.0893 14.2222 23.1987 14.2222ZM37.4209 30.2079H27.1809C26.8807 30.1711 26.5761 30.2032 26.2901 30.3017C26.0042 30.4001 25.7444 30.5625 25.5306 30.7763C25.3167 30.9902 25.1544 31.2499 25.0559 31.5359C24.9575 31.8218 24.9254 32.1264 24.9622 32.4266V47.7582C24.9622 48.1848 24.9622 48.327 24.4502 48.2702C23.9382 48.2133 23.54 48.2702 23.3124 48.2702C23.0849 48.2702 23.3124 47.5022 23.3124 47.1039V32.7111C23.3124 27.7333 23.3124 22.7555 23.3124 17.7493C23.3124 17.3795 23.3124 17.2373 23.8244 17.2373H41.0333C41.4031 17.2373 41.5169 17.2373 41.5169 17.7208V47.8151C41.5169 48.1848 41.5169 48.2986 41.0618 48.2702C40.6067 48.2417 40.0662 48.4408 39.8387 48.2702C39.6111 48.0995 39.8387 47.4737 39.8387 47.0471V32.4835C39.8761 32.1732 39.8421 31.8584 39.7391 31.5633C39.6361 31.2681 39.467 31.0005 39.2446 30.7808C39.0222 30.5612 38.7525 30.3954 38.4561 30.2961C38.1597 30.1968 37.8445 30.1666 37.5347 30.2079H37.4209ZM33.1542 32.1991C33.1542 31.8577 33.1542 31.7155 33.6378 31.7439H37.62C38.2173 31.7439 38.3311 31.7439 38.3311 32.4551V47.8719C38.3311 48.2133 38.3311 48.2702 37.9044 48.2702H33.6947C33.3533 48.2702 33.268 48.2702 33.268 47.8435C33.268 45.1982 33.268 42.5813 33.268 39.9359C33.268 37.2906 33.2964 34.7875 33.268 32.1991H33.1542ZM31.6467 47.7866C31.6467 48.1564 31.6467 48.2986 31.1916 48.2986C29.7693 48.2986 28.3471 48.2986 26.9249 48.2986C26.612 48.2986 26.4982 48.2986 26.4982 47.9004V32.4551C26.4982 31.8577 26.4982 31.7439 27.1809 31.7439H31.3622C31.7036 31.7439 31.7604 31.7439 31.7604 32.1706V47.7866H31.6467ZM8.77733 23.3244H21.3782C21.6911 23.3244 21.8049 23.3244 21.8049 23.7511C21.8049 24.8888 21.8049 24.8888 20.6671 24.8888H8.26533C7.86711 24.8888 7.72489 24.8888 7.75333 24.3484C7.75333 23.3244 7.75333 23.3244 8.77733 23.3244ZM21.8049 41.2444C21.8049 41.5857 21.8049 41.6711 21.3782 41.6711H16.6564C16.2867 41.6711 16.2298 41.6711 16.2298 41.2159V31.5448C16.2298 31.1751 16.2298 31.0613 16.7133 31.0613H21.3213C21.6911 31.0613 21.8049 31.0613 21.8049 31.5448V41.2444ZM9.74444 43.2924H21.4067C21.7196 43.2924 21.8049 43.2924 21.8049 43.7475V47.9004C21.8049 48.2417 21.8049 48.2986 21.3782 48.2986H9.57378C9.26089 48.2986 9.14711 48.2986 9.14711 47.8719C9.14711 46.5066 9.14711 45.0275 9.14711 43.7475C9.14711 43.3493 9.26089 43.2639 9.74444 43.2924ZM9.14711 41.2444C9.14711 37.9733 9.14711 34.7022 9.14711 31.4026C9.14711 31.0897 9.14711 30.9759 9.57378 30.9759H14.2956C14.6369 30.9759 14.6938 30.9759 14.6938 31.3742V41.2444C14.6938 41.5573 14.6938 41.6711 14.2671 41.6711H9.54533C9.23244 41.7564 9.14711 41.6426 9.14711 41.2444ZM21.3213 29.4684H9.51689C9.26089 29.4684 9.14711 29.4684 9.14711 29.0986C9.18976 28.3217 9.18976 27.5431 9.14711 26.7662C9.14711 26.3964 9.14711 26.3111 9.60222 26.3111H21.4067C21.6911 26.3111 21.8049 26.3111 21.8049 26.7093C21.8049 27.4773 21.8049 28.2168 21.8049 28.9848C21.8049 29.7528 21.7196 29.5537 21.3213 29.5537V29.4684ZM56.0804 51.2568H8.32222C7.83866 51.2568 7.72489 51.2568 7.75333 50.6595C7.75333 49.6924 7.75333 49.6924 8.74889 49.6924H47.9738C48.7702 49.6924 49.1684 49.4364 49.14 48.8959C49.1116 48.3555 48.7702 48.1564 47.9738 48.1564H43.5364C43.1951 48.1564 43.1098 48.1564 43.1382 47.7297V43.7191C43.1382 43.3493 43.1382 43.2924 43.5649 43.2924H55.4547C55.7391 43.2924 55.8813 43.2924 55.8813 43.6622C55.8813 45.0844 55.8813 46.5066 55.8813 47.9004C55.8813 48.2133 55.8813 48.2702 55.5116 48.2702H52.1551C51.5293 48.2702 51.188 48.5546 51.188 49.0666C51.188 49.5786 51.5578 49.7777 52.1551 49.8062H56.7347C57.0476 49.8062 57.2182 49.8062 57.1898 50.2613C57.1898 51.3422 57.1898 51.3422 56.0804 51.3422V51.2568ZM55.8813 41.2444C55.8813 41.5573 55.8813 41.6995 55.4547 41.6995H50.7329C50.3916 41.6995 50.3062 41.6995 50.3062 41.2728V31.4879C50.3062 31.1466 50.3062 31.0613 50.7329 31.0613H55.4547C55.7676 31.0613 55.8813 31.0613 55.8813 31.4879C55.8813 33.1662 55.8813 34.8159 55.8813 36.4657C55.8813 38.1155 55.8529 39.6799 55.8813 41.2444ZM55.4547 29.4968H43.5649C43.1951 29.4968 43.1098 29.4968 43.1382 29.0702C43.1382 28.2737 43.1382 27.5057 43.1382 26.7093C43.1382 26.4248 43.1382 26.3395 43.508 26.3395H55.54C55.796 26.3395 55.8813 26.3395 55.8813 26.6808C55.8813 27.4773 55.8813 28.2453 55.8813 29.0133C55.8813 29.7813 55.796 29.5537 55.4547 29.5537V29.4968ZM43.508 31.0044H48.4004C48.7702 31.0044 48.7702 31.1751 48.7702 31.4311V41.2444C48.7702 41.5573 48.7702 41.6995 48.3436 41.6995H43.508C43.1951 41.6995 43.1382 41.6995 43.1382 41.3013V31.4595C43.1382 31.1751 43.1951 31.0613 43.508 31.0613V31.0044ZM56.1089 24.8604H43.6787C43.252 24.8604 43.1098 24.8604 43.1098 24.3199C43.1098 23.2959 43.1098 23.2959 44.1622 23.2959H56.7062C57.0476 23.2959 57.2182 23.2959 57.1898 23.7795C57.1613 24.8604 57.1898 24.8604 56.1089 24.8604ZM36.9942 19.1715H33.6662C33.0689 19.1715 32.7276 19.4559 32.756 19.9395C32.7844 20.4231 33.0689 20.7075 33.6378 20.7075H36.7382C37.0227 20.7075 37.108 20.7075 37.108 21.0488V26.7377C37.108 27.0222 37.108 27.0791 36.7382 27.0506H28.2049C27.9773 27.0506 27.8636 27.0506 27.8636 26.7377V21.0488C27.8636 20.7928 27.8636 20.7075 28.1764 20.7359H29.7124C30.2529 20.7359 30.5658 20.4515 30.5658 19.9964C30.5658 19.5413 30.2813 19.1999 29.7124 19.1999H28.0342C27.8006 19.1873 27.5669 19.2244 27.3487 19.309C27.1306 19.3935 26.9329 19.5235 26.7688 19.6902C26.6047 19.857 26.4779 20.0568 26.397 20.2763C26.316 20.4959 26.2826 20.7301 26.2991 20.9635V26.6808C26.2773 26.9216 26.3086 27.1643 26.391 27.3916C26.4733 27.6189 26.6046 27.8254 26.7756 27.9964C26.9465 28.1673 27.153 28.2986 27.3803 28.381C27.6077 28.4633 27.8503 28.4947 28.0911 28.4728H36.852C37.0756 28.4852 37.2993 28.4502 37.5085 28.3702C37.7177 28.2903 37.9077 28.1671 38.0661 28.0087C38.2245 27.8503 38.3477 27.6603 38.4276 27.4511C38.5076 27.2419 38.5426 27.0182 38.5302 26.7946C38.5302 24.7751 38.5302 22.7271 38.5302 20.7075C38.5459 20.4964 38.5178 20.2844 38.4476 20.0847C38.3775 19.885 38.2669 19.702 38.1226 19.5471C37.9784 19.3921 37.8037 19.2687 37.6095 19.1845C37.4154 19.1003 37.2059 19.0571 36.9942 19.0577V19.1715ZM36.9942 19.1715H33.6662C33.0689 19.1715 32.7276 19.4559 32.756 19.9395C32.7844 20.4231 33.0689 20.7075 33.6378 20.7075H36.7382C37.0227 20.7075 37.108 20.7075 37.108 21.0488V26.7377C37.108 27.0222 37.108 27.0791 36.7382 27.0506H28.2049C27.9773 27.0506 27.8636 27.0506 27.8636 26.7377V21.0488C27.8636 20.7928 27.8636 20.7075 28.1764 20.7359H29.7124C30.2529 20.7359 30.5658 20.4515 30.5658 19.9964C30.5658 19.5413 30.2813 19.1999 29.7124 19.1999H28.0342C27.8006 19.1873 27.5669 19.2244 27.3487 19.309C27.1306 19.3935 26.9329 19.5235 26.7688 19.6902C26.6047 19.857 26.4779 20.0568 26.397 20.2763C26.316 20.4959 26.2826 20.7301 26.2991 20.9635V26.6808C26.2773 26.9216 26.3086 27.1643 26.391 27.3916C26.4733 27.6189 26.6046 27.8254 26.7756 27.9964C26.9465 28.1673 27.153 28.2986 27.3803 28.381C27.6077 28.4633 27.8503 28.4947 28.0911 28.4728H36.852C37.0756 28.4852 37.2993 28.4502 37.5085 28.3702C37.7177 28.2903 37.9077 28.1671 38.0661 28.0087C38.2245 27.8503 38.3477 27.6603 38.4276 27.4511C38.5076 27.2419 38.5426 27.0182 38.5302 26.7946C38.5302 24.7751 38.5302 22.7271 38.5302 20.7075C38.5459 20.4964 38.5178 20.2844 38.4476 20.0847C38.3775 19.885 38.2669 19.702 38.1226 19.5471C37.9784 19.3921 37.8037 19.2687 37.6095 19.1845C37.4154 19.1003 37.2059 19.0571 36.9942 19.0577V19.1715ZM36.9942 19.1715H33.6662C33.0689 19.1715 32.7276 19.4559 32.756 19.9395C32.7844 20.4231 33.0689 20.7075 33.6378 20.7075H36.7382C37.0227 20.7075 37.108 20.7075 37.108 21.0488V26.7377C37.108 27.0222 37.108 27.0791 36.7382 27.0506H28.2049C27.9773 27.0506 27.8636 27.0506 27.8636 26.7377V21.0488C27.8636 20.7928 27.8636 20.7075 28.1764 20.7359H29.7124C30.2529 20.7359 30.5658 20.4515 30.5658 19.9964C30.5658 19.5413 30.2813 19.1999 29.7124 19.1999H28.0342C27.8006 19.1873 27.5669 19.2244 27.3487 19.309C27.1306 19.3935 26.9329 19.5235 26.7688 19.6902C26.6047 19.857 26.4779 20.0568 26.397 20.2763C26.316 20.4959 26.2826 20.7301 26.2991 20.9635V26.6808C26.2773 26.9216 26.3086 27.1643 26.391 27.3916C26.4733 27.6189 26.6046 27.8254 26.7756 27.9964C26.9465 28.1673 27.153 28.2986 27.3803 28.381C27.6077 28.4633 27.8503 28.4947 28.0911 28.4728H36.852C37.0756 28.4852 37.2993 28.4502 37.5085 28.3702C37.7177 28.2903 37.9077 28.1671 38.0661 28.0087C38.2245 27.8503 38.3477 27.6603 38.4276 27.4511C38.5076 27.2419 38.5426 27.0182 38.5302 26.7946C38.5302 24.7751 38.5302 22.7271 38.5302 20.7075C38.5459 20.4964 38.5178 20.2844 38.4476 20.0847C38.3775 19.885 38.2669 19.702 38.1226 19.5471C37.9784 19.3921 37.8037 19.2687 37.6095 19.1845C37.4154 19.1003 37.2059 19.0571 36.9942 19.0577V19.1715ZM36.9942 19.1715H33.6662C33.0689 19.1715 32.7276 19.4559 32.756 19.9395C32.7844 20.4231 33.0689 20.7075 33.6378 20.7075H36.7382C37.0227 20.7075 37.108 20.7075 37.108 21.0488V26.7377C37.108 27.0222 37.108 27.0791 36.7382 27.0506H28.2049C27.9773 27.0506 27.8636 27.0506 27.8636 26.7377V21.0488C27.8636 20.7928 27.8636 20.7075 28.1764 20.7359H29.7124C30.2529 20.7359 30.5658 20.4515 30.5658 19.9964C30.5658 19.5413 30.2813 19.1999 29.7124 19.1999H28.0342C27.8006 19.1873 27.5669 19.2244 27.3487 19.309C27.1306 19.3935 26.9329 19.5235 26.7688 19.6902C26.6047 19.857 26.4779 20.0568 26.397 20.2763C26.316 20.4959 26.2826 20.7301 26.2991 20.9635V26.6808C26.2773 26.9216 26.3086 27.1643 26.391 27.3916C26.4733 27.6189 26.6046 27.8254 26.7756 27.9964C26.9465 28.1673 27.153 28.2986 27.3803 28.381C27.6077 28.4633 27.8503 28.4947 28.0911 28.4728H36.852C37.0756 28.4852 37.2993 28.4502 37.5085 28.3702C37.7177 28.2903 37.9077 28.1671 38.0661 28.0087C38.2245 27.8503 38.3477 27.6603 38.4276 27.4511C38.5076 27.2419 38.5426 27.0182 38.5302 26.7946C38.5302 24.7751 38.5302 22.7271 38.5302 20.7075C38.5459 20.4964 38.5178 20.2844 38.4476 20.0847C38.3775 19.885 38.2669 19.702 38.1226 19.5471C37.9784 19.3921 37.8037 19.2687 37.6095 19.1845C37.4154 19.1003 37.2059 19.0571 36.9942 19.0577V19.1715ZM36.9942 19.1715H33.6662C33.0689 19.1715 32.7276 19.4559 32.756 19.9395C32.7844 20.4231 33.0689 20.7075 33.6378 20.7075H36.7382C37.0227 20.7075 37.108 20.7075 37.108 21.0488V26.7377C37.108 27.0222 37.108 27.0791 36.7382 27.0506H28.2049C27.9773 27.0506 27.8636 27.0506 27.8636 26.7377V21.0488C27.8636 20.7928 27.8636 20.7075 28.1764 20.7359H29.7124C30.2529 20.7359 30.5658 20.4515 30.5658 19.9964C30.5658 19.5413 30.2813 19.1999 29.7124 19.1999H28.0342C27.8006 19.1873 27.5669 19.2244 27.3487 19.309C27.1306 19.3935 26.9329 19.5235 26.7688 19.6902C26.6047 19.857 26.4779 20.0568 26.397 20.2763C26.316 20.4959 26.2826 20.7301 26.2991 20.9635V26.6808C26.2773 26.9216 26.3086 27.1643 26.391 27.3916C26.4733 27.6189 26.6046 27.8254 26.7756 27.9964C26.9465 28.1673 27.153 28.2986 27.3803 28.381C27.6077 28.4633 27.8503 28.4947 28.0911 28.4728H36.852C37.0756 28.4852 37.2993 28.4502 37.5085 28.3702C37.7177 28.2903 37.9077 28.1671 38.0661 28.0087C38.2245 27.8503 38.3477 27.6603 38.4276 27.4511C38.5076 27.2419 38.5426 27.0182 38.5302 26.7946C38.5302 24.7751 38.5302 22.7271 38.5302 20.7075C38.5459 20.4964 38.5178 20.2844 38.4476 20.0847C38.3775 19.885 38.2669 19.702 38.1226 19.5471C37.9784 19.3921 37.8037 19.2687 37.6095 19.1845C37.4154 19.1003 37.2059 19.0571 36.9942 19.0577V19.1715ZM36.9942 19.1715H33.6662C33.0689 19.1715 32.7276 19.4559 32.756 19.9395C32.7844 20.4231 33.0689 20.7075 33.6378 20.7075H36.7382C37.0227 20.7075 37.108 20.7075 37.108 21.0488V26.7377C37.108 27.0222 37.108 27.0791 36.7382 27.0506H28.2049C27.9773 27.0506 27.8636 27.0506 27.8636 26.7377V21.0488C27.8636 20.7928 27.8636 20.7075 28.1764 20.7359H29.7124C30.2529 20.7359 30.5658 20.4515 30.5658 19.9964C30.5658 19.5413 30.2813 19.1999 29.7124 19.1999H28.0342C27.8006 19.1873 27.5669 19.2244 27.3487 19.309C27.1306 19.3935 26.9329 19.5235 26.7688 19.6902C26.6047 19.857 26.4779 20.0568 26.397 20.2763C26.316 20.4959 26.2826 20.7301 26.2991 20.9635V26.6808C26.2773 26.9216 26.3086 27.1643 26.391 27.3916C26.4733 27.6189 26.6046 27.8254 26.7756 27.9964C26.9465 28.1673 27.153 28.2986 27.3803 28.381C27.6077 28.4633 27.8503 28.4947 28.0911 28.4728H36.852C37.0756 28.4852 37.2993 28.4502 37.5085 28.3702C37.7177 28.2903 37.9077 28.1671 38.0661 28.0087C38.2245 27.8503 38.3477 27.6603 38.4276 27.4511C38.5076 27.2419 38.5426 27.0182 38.5302 26.7946C38.5302 24.7751 38.5302 22.7271 38.5302 20.7075C38.5459 20.4964 38.5178 20.2844 38.4476 20.0847C38.3775 19.885 38.2669 19.702 38.1226 19.5471C37.9784 19.3921 37.8037 19.2687 37.6095 19.1845C37.4154 19.1003 37.2059 19.0571 36.9942 19.0577V19.1715ZM36.9942 19.1715H33.6662C33.0689 19.1715 32.7276 19.4559 32.756 19.9395C32.7844 20.4231 33.0689 20.7075 33.6378 20.7075H36.7382C37.0227 20.7075 37.108 20.7075 37.108 21.0488V26.7377C37.108 27.0222 37.108 27.0791 36.7382 27.0506H28.2049C27.9773 27.0506 27.8636 27.0506 27.8636 26.7377V21.0488C27.8636 20.7928 27.8636 20.7075 28.1764 20.7359H29.7124C30.2529 20.7359 30.5658 20.4515 30.5658 19.9964C30.5658 19.5413 30.2813 19.1999 29.7124 19.1999H28.0342C27.8006 19.1873 27.5669 19.2244 27.3487 19.309C27.1306 19.3935 26.9329 19.5235 26.7688 19.6902C26.6047 19.857 26.4779 20.0568 26.397 20.2763C26.316 20.4959 26.2826 20.7301 26.2991 20.9635V26.6808C26.2773 26.9216 26.3086 27.1643 26.391 27.3916C26.4733 27.6189 26.6046 27.8254 26.7756 27.9964C26.9465 28.1673 27.153 28.2986 27.3803 28.381C27.6077 28.4633 27.8503 28.4947 28.0911 28.4728H36.852C37.0756 28.4852 37.2993 28.4502 37.5085 28.3702C37.7177 28.2903 37.9077 28.1671 38.0661 28.0087C38.2245 27.8503 38.3477 27.6603 38.4276 27.4511C38.5076 27.2419 38.5426 27.0182 38.5302 26.7946C38.5302 24.7751 38.5302 22.7271 38.5302 20.7075C38.5459 20.4964 38.5178 20.2844 38.4476 20.0847C38.3775 19.885 38.2669 19.702 38.1226 19.5471C37.9784 19.3921 37.8037 19.2687 37.6095 19.1845C37.4154 19.1003 37.2059 19.0571 36.9942 19.0577V19.1715ZM36.9942 19.1715H33.6662C33.0689 19.1715 32.7276 19.4559 32.756 19.9395C32.7844 20.4231 33.0689 20.7075 33.6378 20.7075H36.7382C37.0227 20.7075 37.108 20.7075 37.108 21.0488V26.7377C37.108 27.0222 37.108 27.0791 36.7382 27.0506H28.2049C27.9773 27.0506 27.8636 27.0506 27.8636 26.7377V21.0488C27.8636 20.7928 27.8636 20.7075 28.1764 20.7359H29.7124C30.2529 20.7359 30.5658 20.4515 30.5658 19.9964C30.5658 19.5413 30.2813 19.1999 29.7124 19.1999H28.0342C27.8006 19.1873 27.5669 19.2244 27.3487 19.309C27.1306 19.3935 26.9329 19.5235 26.7688 19.6902C26.6047 19.857 26.4779 20.0568 26.397 20.2763C26.316 20.4959 26.2826 20.7301 26.2991 20.9635V26.6808C26.2773 26.9216 26.3086 27.1643 26.391 27.3916C26.4733 27.6189 26.6046 27.8254 26.7756 27.9964C26.9465 28.1673 27.153 28.2986 27.3803 28.381C27.6077 28.4633 27.8503 28.4947 28.0911 28.4728H36.852C37.0756 28.4852 37.2993 28.4502 37.5085 28.3702C37.7177 28.2903 37.9077 28.1671 38.0661 28.0087C38.2245 27.8503 38.3477 27.6603 38.4276 27.4511C38.5076 27.2419 38.5426 27.0182 38.5302 26.7946C38.5302 24.7751 38.5302 22.7271 38.5302 20.7075C38.5459 20.4964 38.5178 20.2844 38.4476 20.0847C38.3775 19.885 38.2669 19.702 38.1226 19.5471C37.9784 19.3921 37.8037 19.2687 37.6095 19.1845C37.4154 19.1003 37.2059 19.0571 36.9942 19.0577V19.1715ZM36.9942 19.1715H33.6662C33.0689 19.1715 32.7276 19.4559 32.756 19.9395C32.7844 20.4231 33.0689 20.7075 33.6378 20.7075H36.7382C37.0227 20.7075 37.108 20.7075 37.108 21.0488V26.7377C37.108 27.0222 37.108 27.0791 36.7382 27.0506H28.2049C27.9773 27.0506 27.8636 27.0506 27.8636 26.7377V21.0488C27.8636 20.7928 27.8636 20.7075 28.1764 20.7359H29.7124C30.2529 20.7359 30.5658 20.4515 30.5658 19.9964C30.5658 19.5413 30.2813 19.1999 29.7124 19.1999H28.0342C27.8006 19.1873 27.5669 19.2244 27.3487 19.309C27.1306 19.3935 26.9329 19.5235 26.7688 19.6902C26.6047 19.857 26.4779 20.0568 26.397 20.2763C26.316 20.4959 26.2826 20.7301 26.2991 20.9635V26.6808C26.2773 26.9216 26.3086 27.1643 26.391 27.3916C26.4733 27.6189 26.6046 27.8254 26.7756 27.9964C26.9465 28.1673 27.153 28.2986 27.3803 28.381C27.6077 28.4633 27.8503 28.4947 28.0911 28.4728H36.852C37.0756 28.4852 37.2993 28.4502 37.5085 28.3702C37.7177 28.2903 37.9077 28.1671 38.0661 28.0087C38.2245 27.8503 38.3477 27.6603 38.4276 27.4511C38.5076 27.2419 38.5426 27.0182 38.5302 26.7946C38.5302 24.7751 38.5302 22.7271 38.5302 20.7075C38.5459 20.4964 38.5178 20.2844 38.4476 20.0847C38.3775 19.885 38.2669 19.702 38.1226 19.5471C37.9784 19.3921 37.8037 19.2687 37.6095 19.1845C37.4154 19.1003 37.2059 19.0571 36.9942 19.0577V19.1715ZM36.9942 19.1715H33.6662C33.0689 19.1715 32.7276 19.4559 32.756 19.9395C32.7844 20.4231 33.0689 20.7075 33.6378 20.7075H36.7382C37.0227 20.7075 37.108 20.7075 37.108 21.0488V26.7377C37.108 27.0222 37.108 27.0791 36.7382 27.0506H28.2049C27.9773 27.0506 27.8636 27.0506 27.8636 26.7377V21.0488C27.8636 20.7928 27.8636 20.7075 28.1764 20.7359H29.7124C30.2529 20.7359 30.5658 20.4515 30.5658 19.9964C30.5658 19.5413 30.2813 19.1999 29.7124 19.1999H28.0342C27.8006 19.1873 27.5669 19.2244 27.3487 19.309C27.1306 19.3935 26.9329 19.5235 26.7688 19.6902C26.6047 19.857 26.4779 20.0568 26.397 20.2763C26.316 20.4959 26.2826 20.7301 26.2991 20.9635V26.6808C26.2773 26.9216 26.3086 27.1643 26.391 27.3916C26.4733 27.6189 26.6046 27.8254 26.7756 27.9964C26.9465 28.1673 27.153 28.2986 27.3803 28.381C27.6077 28.4633 27.8503 28.4947 28.0911 28.4728H36.852C37.0756 28.4852 37.2993 28.4502 37.5085 28.3702C37.7177 28.2903 37.9077 28.1671 38.0661 28.0087C38.2245 27.8503 38.3477 27.6603 38.4276 27.4511C38.5076 27.2419 38.5426 27.0182 38.5302 26.7946C38.5302 24.7751 38.5302 22.7271 38.5302 20.7075C38.5459 20.4964 38.5178 20.2844 38.4476 20.0847C38.3775 19.885 38.2669 19.702 38.1226 19.5471C37.9784 19.3921 37.8037 19.2687 37.6095 19.1845C37.4154 19.1003 37.2059 19.0571 36.9942 19.0577V19.1715ZM36.9942 19.1715H33.6662C33.0689 19.1715 32.7276 19.4559 32.756 19.9395C32.7844 20.4231 33.0689 20.7075 33.6378 20.7075H36.7382C37.0227 20.7075 37.108 20.7075 37.108 21.0488V26.7377C37.108 27.0222 37.108 27.0791 36.7382 27.0506H28.2049C27.9773 27.0506 27.8636 27.0506 27.8636 26.7377V21.0488C27.8636 20.7928 27.8636 20.7075 28.1764 20.7359H29.7124C30.2529 20.7359 30.5658 20.4515 30.5658 19.9964C30.5658 19.5413 30.2813 19.1999 29.7124 19.1999H28.0342C27.8006 19.1873 27.5669 19.2244 27.3487 19.309C27.1306 19.3935 26.9329 19.5235 26.7688 19.6902C26.6047 19.857 26.4779 20.0568 26.397 20.2763C26.316 20.4959 26.2826 20.7301 26.2991 20.9635V26.6808C26.2773 26.9216 26.3086 27.1643 26.391 27.3916C26.4733 27.6189 26.6046 27.8254 26.7756 27.9964C26.9465 28.1673 27.153 28.2986 27.3803 28.381C27.6077 28.4633 27.8503 28.4947 28.0911 28.4728H36.852C37.0756 28.4852 37.2993 28.4502 37.5085 28.3702C37.7177 28.2903 37.9077 28.1671 38.0661 28.0087C38.2245 27.8503 38.3477 27.6603 38.4276 27.4511C38.5076 27.2419 38.5426 27.0182 38.5302 26.7946C38.5302 24.7751 38.5302 22.7271 38.5302 20.7075C38.5459 20.4964 38.5178 20.2844 38.4476 20.0847C38.3775 19.885 38.2669 19.702 38.1226 19.5471C37.9784 19.3921 37.8037 19.2687 37.6095 19.1845C37.4154 19.1003 37.2059 19.0571 36.9942 19.0577V19.1715ZM36.9942 19.1715H33.6662C33.0689 19.1715 32.7276 19.4559 32.756 19.9395C32.7844 20.4231 33.0689 20.7075 33.6378 20.7075H36.7382C37.0227 20.7075 37.108 20.7075 37.108 21.0488V26.7377C37.108 27.0222 37.108 27.0791 36.7382 27.0506H28.2049C27.9773 27.0506 27.8636 27.0506 27.8636 26.7377V21.0488C27.8636 20.7928 27.8636 20.7075 28.1764 20.7359H29.7124C30.2529 20.7359 30.5658 20.4515 30.5658 19.9964C30.5658 19.5413 30.2813 19.1999 29.7124 19.1999H28.0342C27.8006 19.1873 27.5669 19.2244 27.3487 19.309C27.1306 19.3935 26.9329 19.5235 26.7688 19.6902C26.6047 19.857 26.4779 20.0568 26.397 20.2763C26.316 20.4959 26.2826 20.7301 26.2991 20.9635V26.6808C26.2773 26.9216 26.3086 27.1643 26.391 27.3916C26.4733 27.6189 26.6046 27.8254 26.7756 27.9964C26.9465 28.1673 27.153 28.2986 27.3803 28.381C27.6077 28.4633 27.8503 28.4947 28.0911 28.4728H36.852C37.0756 28.4852 37.2993 28.4502 37.5085 28.3702C37.7177 28.2903 37.9077 28.1671 38.0661 28.0087C38.2245 27.8503 38.3477 27.6603 38.4276 27.4511C38.5076 27.2419 38.5426 27.0182 38.5302 26.7946C38.5302 24.7751 38.5302 22.7271 38.5302 20.7075C38.5459 20.4964 38.5178 20.2844 38.4476 20.0847C38.3775 19.885 38.2669 19.702 38.1226 19.5471C37.9784 19.3921 37.8037 19.2687 37.6095 19.1845C37.4154 19.1003 37.2059 19.0571 36.9942 19.0577V19.1715ZM36.9942 19.1715H33.6662C33.0689 19.1715 32.7276 19.4559 32.756 19.9395C32.7844 20.4231 33.0689 20.7075 33.6378 20.7075H36.7382C37.0227 20.7075 37.108 20.7075 37.108 21.0488V26.7377C37.108 27.0222 37.108 27.0791 36.7382 27.0506H28.2049C27.9773 27.0506 27.8636 27.0506 27.8636 26.7377V21.0488C27.8636 20.7928 27.8636 20.7075 28.1764 20.7359H29.7124C30.2529 20.7359 30.5658 20.4515 30.5658 19.9964C30.5658 19.5413 30.2813 19.1999 29.7124 19.1999H28.0342C27.8006 19.1873 27.5669 19.2244 27.3487 19.309C27.1306 19.3935 26.9329 19.5235 26.7688 19.6902C26.6047 19.857 26.4779 20.0568 26.397 20.2763C26.316 20.4959 26.2826 20.7301 26.2991 20.9635V26.6808C26.2773 26.9216 26.3086 27.1643 26.391 27.3916C26.4733 27.6189 26.6046 27.8254 26.7756 27.9964C26.9465 28.1673 27.153 28.2986 27.3803 28.381C27.6077 28.4633 27.8503 28.4947 28.0911 28.4728H36.852C37.0756 28.4852 37.2993 28.4502 37.5085 28.3702C37.7177 28.2903 37.9077 28.1671 38.0661 28.0087C38.2245 27.8503 38.3477 27.6603 38.4276 27.4511C38.5076 27.2419 38.5426 27.0182 38.5302 26.7946C38.5302 24.7751 38.5302 22.7271 38.5302 20.7075C38.5459 20.4964 38.5178 20.2844 38.4476 20.0847C38.3775 19.885 38.2669 19.702 38.1226 19.5471C37.9784 19.3921 37.8037 19.2687 37.6095 19.1845C37.4154 19.1003 37.2059 19.0571 36.9942 19.0577V19.1715ZM36.9942 19.1715H33.6662C33.0689 19.1715 32.7276 19.4559 32.756 19.9395C32.7844 20.4231 33.0689 20.7075 33.6378 20.7075H36.7382C37.0227 20.7075 37.108 20.7075 37.108 21.0488V26.7377C37.108 27.0222 37.108 27.0791 36.7382 27.0506H28.2049C27.9773 27.0506 27.8636 27.0506 27.8636 26.7377V21.0488C27.8636 20.7928 27.8636 20.7075 28.1764 20.7359H29.7124C30.2529 20.7359 30.5658 20.4515 30.5658 19.9964C30.5658 19.5413 30.2813 19.1999 29.7124 19.1999H28.0342C27.8006 19.1873 27.5669 19.2244 27.3487 19.309C27.1306 19.3935 26.9329 19.5235 26.7688 19.6902C26.6047 19.857 26.4779 20.0568 26.397 20.2763C26.316 20.4959 26.2826 20.7301 26.2991 20.9635V26.6808C26.2773 26.9216 26.3086 27.1643 26.391 27.3916C26.4733 27.6189 26.6046 27.8254 26.7756 27.9964C26.9465 28.1673 27.153 28.2986 27.3803 28.381C27.6077 28.4633 27.8503 28.4947 28.0911 28.4728H36.852C37.0756 28.4852 37.2993 28.4502 37.5085 28.3702C37.7177 28.2903 37.9077 28.1671 38.0661 28.0087C38.2245 27.8503 38.3477 27.6603 38.4276 27.4511C38.5076 27.2419 38.5426 27.0182 38.5302 26.7946C38.5302 24.7751 38.5302 22.7271 38.5302 20.7075C38.5459 20.4964 38.5178 20.2844 38.4476 20.0847C38.3775 19.885 38.2669 19.702 38.1226 19.5471C37.9784 19.3921 37.8037 19.2687 37.6095 19.1845C37.4154 19.1003 37.2059 19.0571 36.9942 19.0577V19.1715ZM36.9942 19.1715H33.6662C33.0689 19.1715 32.7276 19.4559 32.756 19.9395C32.7844 20.4231 33.0689 20.7075 33.6378 20.7075H36.7382C37.0227 20.7075 37.108 20.7075 37.108 21.0488V26.7377C37.108 27.0222 37.108 27.0791 36.7382 27.0506H28.2049C27.9773 27.0506 27.8636 27.0506 27.8636 26.7377V21.0488C27.8636 20.7928 27.8636 20.7075 28.1764 20.7359H29.7124C30.2529 20.7359 30.5658 20.4515 30.5658 19.9964C30.5658 19.5413 30.2813 19.1999 29.7124 19.1999H28.0342C27.8006 19.1873 27.5669 19.2244 27.3487 19.309C27.1306 19.3935 26.9329 19.5235 26.7688 19.6902C26.6047 19.857 26.4779 20.0568 26.397 20.2763C26.316 20.4959 26.2826 20.7301 26.2991 20.9635V26.6808C26.2773 26.9216 26.3086 27.1643 26.391 27.3916C26.4733 27.6189 26.6046 27.8254 26.7756 27.9964C26.9465 28.1673 27.153 28.2986 27.3803 28.381C27.6077 28.4633 27.8503 28.4947 28.0911 28.4728H36.852C37.0756 28.4852 37.2993 28.4502 37.5085 28.3702C37.7177 28.2903 37.9077 28.1671 38.0661 28.0087C38.2245 27.8503 38.3477 27.6603 38.4276 27.4511C38.5076 27.2419 38.5426 27.0182 38.5302 26.7946C38.5302 24.7751 38.5302 22.7271 38.5302 20.7075C38.5459 20.4964 38.5178 20.2844 38.4476 20.0847C38.3775 19.885 38.2669 19.702 38.1226 19.5471C37.9784 19.3921 37.8037 19.2687 37.6095 19.1845C37.4154 19.1003 37.2059 19.0571 36.9942 19.0577V19.1715Z" fill="#B860AC"/>
  <path d="M38.6156 20.7075C38.6156 22.7271 38.6156 24.7751 38.6156 26.7947C38.6279 27.0183 38.5929 27.242 38.513 27.4512C38.433 27.6604 38.3098 27.8504 38.1514 28.0087C37.9931 28.1671 37.8031 28.2903 37.5939 28.3703C37.3847 28.4503 37.161 28.4852 36.9373 28.4729H28.1765C27.9357 28.4947 27.693 28.4633 27.4657 28.381C27.2383 28.2987 27.0319 28.1674 26.8609 27.9964C26.69 27.8254 26.5587 27.619 26.4763 27.3917C26.394 27.1643 26.3626 26.9217 26.3845 26.6809V20.7929C26.368 20.5595 26.4013 20.3252 26.4823 20.1057C26.5633 19.8862 26.69 19.6864 26.8541 19.5196C27.0182 19.3528 27.2159 19.2229 27.4341 19.1383C27.6523 19.0538 27.8859 19.0166 28.1196 19.0293H29.7978C30.3667 19.0293 30.6796 19.3707 30.6511 19.8258C30.6227 20.2809 30.3382 20.5369 29.7978 20.5653H28.2618C28.0058 20.5653 27.9489 20.5653 27.9489 20.8782V26.5671C27.9489 26.8515 27.9489 26.88 28.2902 26.88H36.8236C37.108 26.88 37.1933 26.88 37.1933 26.5671V20.8782C37.1933 20.5938 37.1933 20.5369 36.8236 20.5369H33.6378C33.0689 20.5369 32.756 20.2524 32.756 19.7689C32.756 19.2853 33.0689 19.0009 33.6662 19.0009H36.9942C37.2182 18.987 37.4425 19.0223 37.6513 19.1044C37.8601 19.1865 38.0485 19.3133 38.203 19.476C38.3576 19.6387 38.4746 19.8333 38.5459 20.046C38.6171 20.2588 38.6409 20.4846 38.6156 20.7075Z" fill="#B860AC"/>
</svg>