<svg width="64" height="64" viewBox="0 0 64 64" fill="none" xmlns="http://www.w3.org/2000/svg">
<path d="M45.9467 6.74658C45.8235 6.81196 45.6861 6.84614 45.5467 6.84614C45.4072 6.84614 45.2699 6.81196 45.1467 6.74658H45.9467Z" fill="#B860AC"/>
<path d="M17.92 6.74658C17.836 6.81145 17.7328 6.84664 17.6266 6.84664C17.5205 6.84664 17.4173 6.81145 17.3333 6.74658H17.92Z" fill="#B860AC"/>
<path d="M44.8533 6.74658C44.8533 6.74658 44.6667 6.87992 44.56 6.74658H44.8533Z" fill="#B860AC"/>
<path d="M16.9333 6.74658C16.9333 6.74658 16.9333 6.87992 16.7466 6.74658H16.9333Z" fill="#B860AC"/>
<path d="M18.9067 6.82666C18.8743 6.84538 18.8375 6.85524 18.8 6.85524C18.7626 6.85524 18.7258 6.84538 18.6934 6.82666H18.9067Z" fill="#B860AC"/>
<path d="M47.2266 6.82666C47.1953 6.84845 47.1581 6.86014 47.12 6.86014C47.0818 6.86014 47.0446 6.84845 47.0133 6.82666H47.2266Z" fill="#B860AC"/>
<path d="M49.7067 7.0133C49.0133 6.8533 48.2933 6.8533 47.6267 6.71997H47.4133C47.4133 6.71997 47.4133 6.71997 47.2533 6.71997H47.0667H46C45.8733 6.77278 45.7373 6.79997 45.6 6.79997C45.4627 6.79997 45.3267 6.77278 45.2 6.71997H44.9067C44.867 6.75748 44.8146 6.77839 44.76 6.77839C44.7054 6.77839 44.653 6.75748 44.6133 6.71997H44.1333C43.6274 6.7597 43.1192 6.7597 42.6133 6.71997C41.4119 6.71949 40.2336 7.05029 39.208 7.676C38.1824 8.30172 37.3492 9.19811 36.8 10.2666C35.4969 12.7796 35.1647 15.6843 35.8667 18.4266C35.8908 18.7562 36.0442 19.0629 36.2933 19.28C36.5168 19.4065 36.6926 19.6028 36.7938 19.8388C36.8949 20.0749 36.9158 20.3376 36.8533 20.5866C36.8533 20.88 36.8533 21.2 36.8533 21.52C36.8534 22.882 37.2013 24.2215 37.864 25.4115C38.5266 26.6015 39.4821 27.6026 40.64 28.32C40.8865 28.4696 41.0724 28.7013 41.1651 28.9744C41.2577 29.2475 41.2512 29.5445 41.1467 29.8133C41.1467 30.2933 40.56 30.0266 40.2667 30.1066C40.126 30.0894 39.9832 30.1044 39.8491 30.1506C39.7151 30.1967 39.5933 30.2728 39.4931 30.3731C39.3928 30.4733 39.3168 30.5951 39.2706 30.7291C39.2244 30.8631 39.2094 31.0059 39.2267 31.1466C39.2 31.5818 39.2 32.0182 39.2267 32.4533C39.2267 32.88 39.0933 33.04 38.6667 33.0666C38.0348 33.1078 37.4433 33.3916 37.0159 33.8588C36.5885 34.3259 36.3582 34.9403 36.3733 35.5733V44.4266C36.3733 44.9866 36.3733 45.04 35.76 45.04H34.1333C33.9625 45.0475 33.7919 45.0206 33.6316 44.9611C33.4713 44.9016 33.3245 44.8105 33.2 44.6933C32.9197 44.4171 32.5859 44.2012 32.2189 44.059C31.852 43.9169 31.4599 43.8514 31.0667 43.8666H28.4C27.7067 43.8666 27.7067 43.8666 27.7067 43.1466V35.7066C27.736 35.3714 27.696 35.0338 27.5893 34.7147C27.4825 34.3956 27.3113 34.1018 27.0862 33.8517C26.8611 33.6016 26.587 33.4005 26.2808 33.2608C25.9747 33.1212 25.6431 33.046 25.3067 33.04C24.9333 33.04 24.8267 32.8266 24.8533 32.5066C24.88 32.1866 24.8533 31.5466 24.8533 31.0666C24.8657 30.934 24.8486 30.8003 24.8034 30.6749C24.7582 30.5496 24.6859 30.4358 24.5917 30.3416C24.4975 30.2474 24.3837 30.1752 24.2584 30.1299C24.133 30.0847 23.9993 30.0676 23.8667 30.08H23.1733C22.9867 30.08 22.8533 30.08 22.8 29.84C22.7043 29.5541 22.7105 29.2439 22.8174 28.962C22.9243 28.6801 23.1255 28.4439 23.3867 28.2933C24.553 27.5521 25.5075 26.5215 26.1571 25.3017C26.8067 24.082 27.1292 22.7148 27.0933 21.3333V20C27.0923 19.8859 27.1183 19.7733 27.1693 19.6713C27.2203 19.5693 27.2948 19.4809 27.3867 19.4133C27.5801 19.2893 27.7445 19.125 27.8687 18.9318C27.9929 18.7385 28.0741 18.5207 28.1067 18.2933C28.3374 17.225 28.4359 16.1323 28.4 15.04C28.4197 13.6223 28.1189 12.2185 27.52 10.9333C27.0183 9.7082 26.1604 8.66186 25.0574 7.92971C23.9545 7.19756 22.6571 6.81329 21.3333 6.82664C20.7568 6.87964 20.1766 6.87964 19.6 6.82664H19.3067H18.9067C18.8735 6.84309 18.837 6.85164 18.8 6.85164C18.763 6.85164 18.7265 6.84309 18.6933 6.82664H17.92C17.8273 6.86625 17.7275 6.88667 17.6267 6.88667C17.5258 6.88667 17.4261 6.86625 17.3333 6.82664H16.9333H16.7467H16.3467C16.3467 6.82664 16.16 6.82664 16.0533 6.82664C14.9597 6.8654 13.8832 7.10965 12.88 7.54664C12.2667 7.8133 12.0267 8.26664 12.1867 8.74664C12.3467 9.22664 12.8533 9.38664 13.4933 9.19997H13.6267C15.0414 8.67234 16.5438 8.41893 18.0533 8.4533C19.1733 8.4533 20.32 8.4533 21.44 8.66664C22.4302 8.70903 23.3866 9.03941 24.1918 9.61728C24.997 10.1952 25.6162 10.9954 25.9733 11.92C26.6201 13.6187 26.8221 15.4546 26.56 17.2533C26.56 17.2533 26.56 17.2533 26.56 17.44C26.56 17.6266 26.4 17.7333 26.1867 17.44C25.827 17.183 25.4962 16.888 25.2 16.56C24.0777 15.1891 23.1778 13.6503 22.5333 12C22.4176 11.7285 22.2746 11.4694 22.1067 11.2266C22.0466 11.112 21.9595 11.0136 21.8531 10.94C21.7466 10.8663 21.6238 10.8196 21.4953 10.8039C21.3668 10.7882 21.2364 10.8039 21.1153 10.8496C20.9942 10.8954 20.886 10.9699 20.8 11.0666L19.8133 11.9466C18.2271 13.4654 16.4942 14.8231 14.64 16C13.3142 16.8588 11.854 17.4897 10.32 17.8666C9.86666 17.8666 9.76 17.8666 9.70666 17.44C9.54669 16.3704 9.54669 15.2829 9.70666 14.2133C9.85101 13.0833 10.2825 12.0091 10.96 11.0933C11.0837 10.9647 11.1911 10.8214 11.28 10.6666C11.348 10.4544 11.3303 10.224 11.2306 10.0247C11.1309 9.82535 10.9572 9.67292 10.7467 9.59997C10.552 9.54545 10.3454 9.55202 10.1546 9.61879C9.96381 9.68557 9.79815 9.80931 9.68 9.9733C9.12693 10.6841 8.68624 11.4755 8.37333 12.32C7.89391 13.9181 7.76654 15.6012 8 17.2533C8.01605 17.9614 8.19877 18.6557 8.53333 19.28C8.61258 19.5134 8.61258 19.7665 8.53333 20C8.42858 20.8365 8.55781 21.6858 8.90666 22.4533C9.04341 22.84 9.27698 23.1852 9.5851 23.456C9.89321 23.7268 10.2656 23.9141 10.6667 24C10.8352 24.0128 10.9962 24.0754 11.1291 24.1799C11.2621 24.2843 11.361 24.4259 11.4133 24.5866C12.0569 26.146 13.1769 27.462 14.6133 28.3466C14.8442 28.4902 15.0165 28.7112 15.0995 28.9701C15.1826 29.2289 15.1709 29.5089 15.0667 29.76C15.0667 30.24 14.48 30 14.1867 30.0266C13.36 30.0266 13.04 30.3733 13.04 31.2266C13.04 32.08 13.04 32.1866 13.04 32.64C13.0551 32.7559 13.0352 32.8736 12.983 32.9781C12.9307 33.0827 12.8484 33.1692 12.7467 33.2266C12.2792 33.484 11.8997 33.8757 11.6572 34.3511C11.4147 34.8265 11.3205 35.3638 11.3867 35.8933V56.2666C11.3867 56.9066 11.7067 57.1733 12.3467 57.1733H22.5333C22.6342 57.1885 22.7372 57.182 22.8354 57.1543C22.9336 57.1267 23.0248 57.0785 23.1029 57.0129C23.1811 56.9474 23.2444 56.866 23.2887 56.7741C23.3331 56.6822 23.3574 56.582 23.36 56.48C23.3748 56.3693 23.3671 56.2567 23.3372 56.149C23.3073 56.0414 23.256 55.9409 23.1862 55.8537C23.1164 55.7665 23.0297 55.6943 22.9312 55.6415C22.8327 55.5887 22.7246 55.5565 22.6133 55.5466C22.4008 55.5209 22.1859 55.5209 21.9733 55.5466H13.76C13.2 55.5466 13.1467 55.5466 13.1467 54.9333C13.1467 54.32 13.1467 54.3466 13.8133 54.3466H25.5467C25.6483 54.3464 25.7462 54.3849 25.8205 54.4542C25.8948 54.5236 25.9399 54.6186 25.9467 54.72C25.9467 55.2533 25.9467 55.3866 25.4133 55.6533C25.2223 55.7203 25.0625 55.855 24.9642 56.0319C24.8659 56.2089 24.8359 56.4157 24.88 56.6133C24.9245 56.7993 25.0364 56.9622 25.194 57.0706C25.3516 57.1789 25.5437 57.225 25.7333 57.2H26.9067C27.0891 57.2078 27.2677 57.1461 27.4063 57.0273C27.5449 56.9085 27.6332 56.7414 27.6533 56.56C27.679 56.3474 27.679 56.1325 27.6533 55.92V50.1333C27.6533 49.9466 27.6533 49.7066 27.8133 49.6C27.9074 49.5635 28.0109 49.5595 28.1075 49.5884C28.2041 49.6174 28.2882 49.6778 28.3467 49.76C28.7466 50.1163 29.2163 50.3856 29.7258 50.5509C30.2354 50.7161 30.7737 50.7737 31.3067 50.72H35.52C36.16 50.72 36.2133 50.72 36.2133 51.36C36.2133 52.9333 36.2133 54.48 36.2133 56.0266C36.2133 56.8533 36.48 57.0933 37.28 57.0933H53.4933C54.16 57.0933 54.4533 56.8533 54.48 56.2666C54.5067 55.68 54.48 54.7466 54.48 54C54.48 53.7666 54.3873 53.5428 54.2223 53.3777C54.0572 53.2127 53.8334 53.12 53.6 53.12C53.3713 53.1269 53.1542 53.2227 52.9949 53.387C52.8356 53.5512 52.7466 53.7711 52.7467 54C52.7467 54.32 52.7467 54.64 52.7467 54.9333C52.7467 55.2266 52.7467 55.44 52.2933 55.44C51.84 55.44 51.44 55.44 51.0133 55.44C50.5867 55.44 50.5867 55.28 50.5867 54.9866V41.0933C50.5867 40.56 50.5867 40.5066 51.2 40.5066H52.08C52.7467 40.5066 52.7467 40.5066 52.7467 41.2V50.24C52.7193 50.4703 52.7193 50.703 52.7467 50.9333C52.7725 51.0851 52.8416 51.2263 52.9456 51.3398C53.0497 51.4533 53.1843 51.5344 53.3333 51.5733C53.4881 51.6146 53.6511 51.6142 53.8057 51.572C53.9603 51.5299 54.1009 51.4475 54.2133 51.3333C54.3952 51.0981 54.481 50.8027 54.4533 50.5066C54.4533 45.8933 54.4533 41.28 54.4533 36.64C54.457 36.0605 54.2824 35.4939 53.9533 35.0169C53.6242 34.5399 53.1564 34.1756 52.6133 33.9733C52.126 33.7962 51.6607 33.5636 51.2267 33.28C51.0989 33.2098 50.9936 33.105 50.9228 32.9777C50.8521 32.8503 50.8187 32.7055 50.8267 32.56C50.8267 32.0533 50.8267 31.52 50.8267 30.9866C50.8267 30.8641 50.8025 30.7427 50.7556 30.6295C50.7087 30.5162 50.64 30.4133 50.5533 30.3267C50.4666 30.24 50.3637 30.1713 50.2505 30.1244C50.1373 30.0774 50.0159 30.0533 49.8933 30.0533H49.2C48.9067 30.0533 48.7733 30.0533 48.7733 29.6533C48.7733 29.2533 48.7733 28.48 49.4667 28.2133L49.8667 27.92C51.0421 27.0496 51.9629 25.8801 52.5333 24.5333C52.5678 24.3871 52.6489 24.256 52.7643 24.1598C52.8797 24.0636 53.0233 24.0075 53.1733 24C53.4972 23.9569 53.807 23.8409 54.0795 23.6608C54.352 23.4806 54.5801 23.241 54.7467 22.96C55.3228 22.0668 55.5768 21.0038 55.4667 19.9466C55.3732 19.6699 55.3732 19.3701 55.4667 19.0933C55.6908 18.8307 55.8709 18.5335 56 18.2133C56.1192 17.2392 56.1192 16.2541 56 15.28C56.0545 13.3901 55.4595 11.5387 54.3143 10.0344C53.1691 8.53013 51.5428 7.46383 49.7067 7.0133ZM11.8133 22.1333C11.7357 22.2504 11.6277 22.3442 11.5008 22.4045C11.374 22.4649 11.233 22.4895 11.0932 22.4758C10.9534 22.4621 10.82 22.4106 10.7072 22.3267C10.5945 22.2429 10.5067 22.1299 10.4533 22C10.0915 21.3026 9.98759 20.4998 10.16 19.7333C10.16 19.5733 10.16 19.5466 10.4 19.4933L11.36 19.28C11.9733 19.0933 12 19.12 12.2133 19.7333C12.2651 20.0333 12.2651 20.34 12.2133 20.64C12.2714 21.1703 12.1287 21.703 11.8133 22.1333ZM23.2267 32.9866C23.2267 33.1466 23.2267 33.2 22.9867 33.1733H21.4667C20.9067 33.1733 20.8 33.1733 20.9867 32.5066C21.0437 32.3021 21.1604 32.1193 21.3219 31.9816C21.4835 31.8438 21.6824 31.7573 21.8933 31.7333H22.1067C23.28 31.6533 23.3867 31.8133 23.2267 32.9866ZM20.8267 30.56C20.7518 30.6544 20.6565 30.7306 20.548 30.783C20.4395 30.8355 20.3205 30.8627 20.2 30.8627C20.0795 30.8627 19.9605 30.8355 19.852 30.783C19.7435 30.7306 19.6482 30.6544 19.5733 30.56C19.0074 30.2127 18.3323 30.0891 17.68 30.2133C16.64 30.2133 16.64 30.2133 16.7733 29.12C18.2127 29.5201 19.734 29.5201 21.1733 29.12C21.1733 29.4933 21.1733 29.84 21.1733 30.1866C21.1733 30.5333 20.9333 30.4533 20.8267 30.56ZM12.8267 23.84C12.7621 23.7095 12.7402 23.562 12.7642 23.4184C12.7881 23.2749 12.8566 23.1424 12.96 23.04C13.4248 22.4498 13.7076 21.7371 13.7739 20.9889C13.8402 20.2406 13.6871 19.4893 13.3333 18.8266C13.3333 18.6666 13.3333 18.6666 13.52 18.4266C16.1658 17.0927 18.6008 15.3766 20.7467 13.3333L21.0133 13.12C21.5679 14.2696 22.2098 15.3751 22.9333 16.4266C23.5681 17.3899 24.3722 18.2302 25.3067 18.9066C25.3067 18.9066 25.5467 19.0933 25.52 19.2533C25.6087 20.5461 25.537 21.8448 25.3067 23.12C24.9466 24.4557 24.1752 25.6441 23.1018 26.5167C22.0283 27.3893 20.7074 27.9017 19.3264 27.9814C17.9453 28.0611 16.5742 27.7039 15.4076 26.9606C14.2409 26.2172 13.3379 25.1254 12.8267 23.84ZM15.7867 31.84H18.2933C18.6 31.8399 18.8944 31.9598 19.1137 32.1742C19.333 32.3885 19.4597 32.6801 19.4667 32.9866C19.4667 33.2533 19.4667 33.3333 19.1467 33.3333H14.9867C14.7467 33.3333 14.6667 33.3333 14.6667 33.04C14.6133 31.7066 14.6133 31.7066 15.7867 31.7066V31.84ZM26.08 52.4266C26.08 52.72 26.08 52.8 25.7333 52.8C21.6 52.8 17.4933 52.8 13.36 52.8C13.0133 52.8 12.9867 52.6666 12.9867 52.4C12.9867 49.6 12.9867 46.8 12.9867 44V35.7066C12.9867 34.88 13.2 34.6666 14.0267 34.6666H24.9067C25.8133 34.6666 26.08 34.9333 26.08 35.84V43.5466C26.08 43.8933 26.08 44.0266 25.6533 44.0266C23.68 44.0266 21.7067 44.0266 19.76 44.0266C19.36 44.0266 19.3067 43.8933 19.3067 43.5466C19.3067 41.7689 19.3067 40.0355 19.3067 38.3466C19.3122 37.6956 19.0793 37.0649 18.6519 36.5737C18.2246 36.0825 17.6323 35.7646 16.9867 35.68C16.3441 35.5845 15.6888 35.727 15.1438 36.0805C14.5987 36.434 14.2015 36.9743 14.0267 37.6C13.9859 37.9187 13.9859 38.2413 14.0267 38.56C14.0267 41.2266 14.0267 43.8933 14.0267 46.56C14.0072 46.9351 14.0672 47.3101 14.2027 47.6604C14.3382 48.0108 14.5462 48.3285 14.8131 48.5929C15.0799 48.8572 15.3996 49.0622 15.7512 49.1944C16.1028 49.3266 16.4784 49.383 16.8533 49.36H25.6267C26 49.36 26.1067 49.36 26.08 49.8133C26.0533 50.6666 26.08 51.4933 26.08 52.2933V52.4266ZM17.84 38.56V40.5866C17.84 40.8 17.84 40.8533 17.5733 40.8533H15.6533C15.4133 40.8533 15.3867 40.8533 15.3867 40.56C15.3867 39.8666 15.3867 39.1733 15.3867 38.5066C15.4072 38.1836 15.552 37.8811 15.7906 37.6624C16.0291 37.4437 16.3431 37.3258 16.6667 37.3333C17.36 37.3333 17.8133 37.76 17.84 38.56ZM32.2667 47.12C32.1788 47.3771 32.0081 47.5978 31.7812 47.7475C31.5544 47.8971 31.2843 47.9671 31.0133 47.9466H16.7733C15.8133 47.9466 15.3867 47.5466 15.3867 46.5866V42.6666C15.3867 42.3466 15.3867 42.2133 15.76 42.24C16.1333 42.2666 16.9067 42.24 17.4933 42.24C18.08 42.24 17.8667 42.24 17.84 42.5866C17.8133 42.9333 17.84 43.6533 17.84 44.2133C17.84 44.7733 18.24 45.3866 19.0667 45.3866H30.96C31.1805 45.3508 31.4066 45.3758 31.6139 45.4591C31.8213 45.5423 32.0019 45.6806 32.1364 45.859C32.2709 46.0374 32.3541 46.2491 32.377 46.4714C32.4 46.6936 32.3618 46.9179 32.2667 47.12ZM36.4 48.8266C36.4 49.0133 36.4 49.0666 36.16 49.0666H32.64C32.9779 48.7988 33.2566 48.4639 33.4586 48.0829C33.6605 47.702 33.7813 47.2833 33.8133 46.8533C33.8133 46.64 33.8133 46.6133 34.1067 46.6133H36.16C36.3467 46.6133 36.4 46.6133 36.4 46.8533V48.8266ZM50.4533 37.5733C50.4533 37.2533 50.4533 36.9333 50.4533 36.6133C50.4601 36.3043 50.5859 36.0097 50.8045 35.7912C51.0231 35.5726 51.3176 35.4468 51.6267 35.44C51.9291 35.4366 52.2226 35.5427 52.4529 35.7388C52.6833 35.9348 52.835 36.2075 52.88 36.5066C52.88 37.2266 52.88 37.9466 52.88 38.6666C52.88 38.9066 52.7467 38.88 52.5867 38.88H50.6667C50.4533 38.88 50.4 38.88 50.4 38.6133C50.4 38.3466 50.4533 37.92 50.4533 37.5733ZM40.72 32C40.72 31.7866 40.72 31.76 40.9867 31.76H41.9733C42.152 31.7721 42.3251 31.8268 42.4782 31.9196C42.6313 32.0124 42.76 32.1405 42.8533 32.2933C42.9388 32.4161 42.9952 32.5568 43.0183 32.7046C43.0414 32.8524 43.0306 33.0036 42.9867 33.1466C42.9867 33.36 42.5867 33.1466 42.3733 33.1466H41.84C40.6133 33.1733 40.6133 33.1733 40.72 32ZM43.3867 29.3333C44.6249 29.6085 45.9084 29.6085 47.1467 29.3333C47.1467 30.4 47.1467 30.4 46.1867 30.4C45.7749 30.3452 45.3562 30.3761 44.957 30.4908C44.5578 30.6056 44.1865 30.8016 43.8667 31.0666C43.8492 31.0888 43.8269 31.1068 43.8015 31.1191C43.7761 31.1314 43.7482 31.1378 43.72 31.1378C43.6918 31.1378 43.6639 31.1314 43.6385 31.1191C43.6131 31.1068 43.5908 31.0888 43.5733 31.0666C43.3789 30.885 43.153 30.7405 42.9067 30.64C42.5867 30.48 42.7733 30.2133 42.7467 30C42.6667 29.1466 42.8 29.1466 43.44 29.3333H43.3867ZM48 55.6H38.3467C38 55.6 37.8667 55.6 37.8667 55.1733C37.8667 54.1333 37.8667 54.1333 38.9067 54.1333H48.48C48.9333 54.1333 49.0133 54.2666 49.0133 54.6933C48.96 55.6 48.9867 55.6 48 55.6ZM48.9333 52.16C48.9333 52.56 48.9333 52.6666 48.4267 52.6666C45.04 52.6666 41.6267 52.6666 38.24 52.6666C37.8933 52.6666 37.7867 52.6666 37.7867 52.2133C37.7867 46.72 37.7867 41.2266 37.7867 35.76C37.7867 34.9866 38.08 34.6666 38.7733 34.6666H49.8667C49.5692 34.9616 49.3372 35.3159 49.1856 35.7064C49.034 36.0969 48.9662 36.5149 48.9867 36.9333C48.9867 42 48.9867 47.0933 49.0133 52.16H48.9333ZM48.9333 31.7066C49.2 31.7066 49.2267 31.7066 49.2267 32.0266C49.2267 33.1733 49.2267 33.1733 48.1333 33.1733H44.8533C44.56 33.1733 44.48 33.1733 44.5067 32.8C44.5101 32.6494 44.5432 32.5009 44.6041 32.3631C44.6649 32.2253 44.7523 32.1009 44.8613 31.9969C44.9702 31.8929 45.0986 31.8113 45.2391 31.757C45.3796 31.7026 45.5294 31.6764 45.68 31.68L48.9333 31.7066ZM51.12 23.7066C50.7455 24.7879 50.0833 25.7465 49.2047 26.4795C48.326 27.2125 47.2642 27.6921 46.1333 27.8666C45.2779 28.0316 44.398 28.0237 43.5456 27.8436C42.6932 27.6635 41.8855 27.3147 41.1699 26.8177C40.4543 26.3208 39.8453 25.6857 39.3788 24.95C38.9123 24.2142 38.5976 23.3925 38.4533 22.5333C38.3734 21.477 38.3734 20.4162 38.4533 19.36C38.4491 19.2905 38.4643 19.2213 38.4972 19.16C38.5302 19.0988 38.5797 19.048 38.64 19.0133C40.3943 17.5941 41.7688 15.7615 42.64 13.68C42.64 13.4666 42.8533 13.2533 42.96 12.9866C43.84 13.7866 44.6933 14.56 45.6267 15.28C47.0849 16.4844 48.6671 17.5303 50.3467 18.4C50.56 18.4 50.6667 18.4 50.5333 18.8266C50.1757 19.5244 50.0401 20.3149 50.145 21.092C50.2499 21.869 50.5901 22.5953 51.12 23.1733C51.3067 23.36 51.2533 23.52 51.1733 23.7066H51.12ZM53.7867 20.56C53.7766 21.0509 53.6582 21.5335 53.44 21.9733C53.3926 22.1114 53.3071 22.2333 53.1933 22.3249C53.0796 22.4165 52.9422 22.4739 52.7971 22.4907C52.6521 22.5074 52.5052 22.4827 52.3736 22.4195C52.242 22.3562 52.1309 22.257 52.0533 22.1333C51.6881 21.6716 51.4991 21.095 51.52 20.5066C51.52 20.5066 51.52 20.24 51.52 20.0533C51.68 19.2266 51.84 19.12 52.64 19.3333H52.88C53.8667 19.6 53.92 19.68 53.8667 20.56H53.7867ZM54.2933 17.7333C54.2933 18.0266 54.2933 18.1333 53.84 18.08C51.9214 17.6253 50.1099 16.801 48.5067 15.6533C46.9977 14.6186 45.5712 13.4685 44.24 12.2133C43.9467 11.92 43.6533 11.6266 43.3333 11.36C43.0133 11.0933 42.2133 10.88 41.8667 11.68C41.43 12.7268 40.9221 13.7425 40.3467 14.72C39.9164 15.4578 39.4067 16.1464 38.8267 16.7733C38.411 17.2481 37.9144 17.6454 37.36 17.9466C36.9003 15.8935 37.058 13.7503 37.8133 11.7866C38.1503 10.8655 38.7435 10.0599 39.5231 9.46463C40.3026 8.86935 41.236 8.50922 42.2133 8.42664C44.0731 8.2 45.9535 8.2 47.8133 8.42664C48.8392 8.47445 49.8436 8.73641 50.7622 9.19567C51.6807 9.65493 52.4929 10.3013 53.1467 11.0933C54.1446 12.5278 54.6328 14.2554 54.5333 16C54.5222 16.5809 54.4687 17.1602 54.3733 17.7333H54.2933Z" fill="#B860AC"/>
<path d="M40.8533 36.0268C40.5617 36.0232 40.2723 36.078 40.0021 36.188C39.732 36.2979 39.4865 36.4608 39.2803 36.6671C39.074 36.8733 38.9112 37.1187 38.8012 37.3889C38.6912 37.659 38.6364 37.9485 38.64 38.2401C38.647 38.8296 38.8861 39.3925 39.3054 39.8068C39.7248 40.2211 40.2905 40.4535 40.88 40.4534C41.4581 40.4332 42.0065 40.1927 42.4131 39.7812C42.8196 39.3697 43.0534 38.8184 43.0667 38.2401C43.0667 37.6531 42.8335 37.0901 42.4184 36.675C42.0033 36.26 41.4403 36.0268 40.8533 36.0268ZM40.8533 38.9601C40.6828 38.9274 40.5289 38.8363 40.4183 38.7025C40.3077 38.5687 40.2471 38.4004 40.2471 38.2268C40.2471 38.0531 40.3077 37.8849 40.4183 37.7511C40.5289 37.6172 40.6828 37.5261 40.8533 37.4934C40.9613 37.4728 41.0726 37.4762 41.1791 37.5035C41.2856 37.5307 41.3848 37.5812 41.4695 37.6513C41.5543 37.7213 41.6225 37.8092 41.6693 37.9087C41.7162 38.0082 41.7405 38.1168 41.7405 38.2268C41.7405 38.3367 41.7162 38.4453 41.6693 38.5448C41.6225 38.6443 41.5543 38.7322 41.4695 38.8023C41.3848 38.8723 41.2856 38.9228 41.1791 38.9501C41.0726 38.9774 40.9613 38.9808 40.8533 38.9601Z" fill="#B860AC"/>
<path d="M44.5866 23.4933C44.3372 23.6439 44.0513 23.7234 43.76 23.7234C43.4686 23.7234 43.1828 23.6439 42.9333 23.4933H42.64C42.4704 23.4507 42.291 23.4738 42.1377 23.5578C41.9844 23.6419 41.8686 23.7808 41.8133 23.9466C41.7384 24.1027 41.7271 24.2818 41.7818 24.446C41.8366 24.6103 41.9531 24.7468 42.1066 24.8266C42.6561 25.1289 43.267 25.3021 43.8933 25.3333C44.3247 25.3008 44.7436 25.1734 45.12 24.96C45.7066 24.7466 45.92 24.3466 45.7333 23.92C45.6982 23.8072 45.6377 23.704 45.5564 23.6182C45.4752 23.5325 45.3754 23.4665 45.2647 23.4253C45.154 23.3841 45.0353 23.3688 44.9178 23.3806C44.8002 23.3924 44.687 23.4309 44.5866 23.4933Z" fill="#B860AC"/>
<path d="M46.4 18.4267C45.92 18.4267 45.7067 18.7734 45.7067 19.4134C45.7067 20.0534 45.9733 20.3201 46.4533 20.2934C46.9333 20.2667 47.1733 19.9734 47.1733 19.3601C47.1733 18.7467 46.9067 18.4001 46.4 18.4267Z" fill="#B860AC"/>
<path d="M40.6666 18.4268C40.1866 18.4268 39.92 18.7468 39.92 19.3868C39.92 20.0268 40.1866 20.2934 40.64 20.2934C41.0933 20.2934 41.4133 19.9734 41.4133 19.3868C41.4133 18.8001 41.1466 18.4268 40.6666 18.4268Z" fill="#B860AC"/>
<path d="M21.8666 24.72C21.9498 24.6734 22.0224 24.6102 22.08 24.5343C22.1377 24.4585 22.179 24.3715 22.2015 24.2789C22.2241 24.1863 22.2273 24.0901 22.2109 23.9962C22.1946 23.9024 22.1591 23.8129 22.1066 23.7333C22.0215 23.571 21.8754 23.4489 21.7005 23.394C21.5256 23.339 21.336 23.3555 21.1733 23.44C20.8774 23.6108 20.5417 23.7008 20.2 23.7008C19.8583 23.7008 19.5226 23.6108 19.2266 23.44H19.0666C18.9005 23.396 18.7239 23.4153 18.5711 23.4941C18.4184 23.5729 18.3004 23.7057 18.24 23.8667C18.2109 23.9506 18.1988 24.0396 18.2046 24.1283C18.2104 24.217 18.2338 24.3037 18.2736 24.3832C18.3133 24.4627 18.3686 24.5335 18.4361 24.5913C18.5036 24.6491 18.582 24.6929 18.6666 24.72C19.1967 25.0224 19.7905 25.1959 20.4 25.2267C20.9165 25.1519 21.4141 24.98 21.8666 24.72Z" fill="#B860AC"/>
<path d="M17.52 18.4268C17.0667 18.4268 16.8 18.7468 16.7733 19.3068C16.7467 19.8668 17.04 20.3201 17.5467 20.2934C18.0533 20.2668 18.2667 19.9734 18.2667 19.3868C18.2667 18.8001 18.0267 18.4268 17.52 18.4268Z" fill="#B860AC"/>
<path d="M23.3067 20.2934C23.7689 20.2934 24 19.9734 24 19.3334C24 18.7468 23.76 18.4268 23.28 18.4268C22.8 18.4268 22.5333 18.7734 22.5333 19.3601C22.5333 19.9468 22.8267 20.3201 23.3067 20.2934Z" fill="#B860AC"/>
<path d="M23.12 40.4534C23.4107 40.4499 23.6978 40.3892 23.965 40.2748C24.2322 40.1603 24.4743 39.9944 24.6773 39.7863C24.8804 39.5783 25.0405 39.3324 25.1484 39.0625C25.2564 38.7926 25.3102 38.5041 25.3067 38.2134C25.2469 37.6717 24.9894 37.1711 24.5835 36.8074C24.1775 36.4438 23.6517 36.2427 23.1067 36.2427C22.5617 36.2427 22.0358 36.4438 21.6299 36.8074C21.2239 37.1711 20.9664 37.6717 20.9067 38.2134C20.9066 38.8029 21.139 39.3687 21.5533 39.788C21.9676 40.2073 22.5306 40.4464 23.12 40.4534ZM23.12 37.4934C23.3063 37.5003 23.4827 37.5792 23.612 37.7135C23.7413 37.8478 23.8135 38.027 23.8133 38.2134C23.8171 38.3125 23.8003 38.4113 23.7641 38.5035C23.7279 38.5958 23.6731 38.6796 23.603 38.7497C23.5329 38.8198 23.4491 38.8747 23.3568 38.9109C23.2645 38.9471 23.1657 38.9638 23.0667 38.9601C22.8733 38.9532 22.6902 38.8715 22.5559 38.7322C22.4215 38.5929 22.3466 38.4069 22.3467 38.2134C22.35 38.113 22.3736 38.0142 22.416 37.9231C22.4584 37.832 22.5187 37.7504 22.5934 37.6832C22.6681 37.6159 22.7556 37.5645 22.8507 37.5319C22.9458 37.4993 23.0464 37.4862 23.1467 37.4934H23.12Z" fill="#B860AC"/>
</svg>
