<svg xmlns="http://www.w3.org/2000/svg" width="64" height="64" viewBox="0 0 64 64" fill="none">
  <path d="M31 27.1399H23.8C23.08 27.1399 22.69 27.4399 22.69 28.0099C22.69 28.5799 23.08 28.9099 23.77 28.9099H31C31.1333 28.9268 31.2686 28.9154 31.3972 28.8767C31.5258 28.8379 31.6449 28.7726 31.7467 28.685C31.8485 28.5973 31.9307 28.4893 31.9881 28.3678C32.0456 28.2464 32.0768 28.1142 32.08 27.9799C32.14 27.4699 31.75 27.1399 31 27.1399ZM31 16.0099H23.77C22.99 16.0099 22.69 16.3099 22.69 17.1199V24.3799C22.69 25.1899 22.99 25.4899 23.83 25.4899H31C31.81 25.4899 32.14 25.1899 32.14 24.3499V17.1499C32.17 16.3099 31.87 16.0399 31 16.0099ZM30.4 23.3599C30.4 23.6599 30.4 23.7499 30.04 23.7499H24.82C24.52 23.7499 24.43 23.7499 24.46 23.3599V18.1399C24.46 17.8699 24.46 17.7799 24.82 17.7799H30.04C30.31 17.7799 30.4 17.7799 30.4 18.1399V23.3599ZM31 16.0099H23.77C22.99 16.0099 22.69 16.3099 22.69 17.1199V24.3799C22.69 25.1899 22.99 25.4899 23.83 25.4899H31C31.81 25.4899 32.14 25.1899 32.14 24.3499V17.1499C32.17 16.3099 31.87 16.0399 31 16.0099ZM30.4 23.3599C30.4 23.6599 30.4 23.7499 30.04 23.7499H24.82C24.52 23.7499 24.43 23.7499 24.46 23.3599V18.1399C24.46 17.8699 24.46 17.7799 24.82 17.7799H30.04C30.31 17.7799 30.4 17.7799 30.4 18.1399V23.3599ZM31 27.1399H23.8C23.08 27.1399 22.69 27.4399 22.69 28.0099C22.69 28.5799 23.08 28.9099 23.77 28.9099H31C31.1333 28.9268 31.2686 28.9154 31.3972 28.8767C31.5258 28.8379 31.6449 28.7726 31.7467 28.685C31.8485 28.5973 31.9307 28.4893 31.9881 28.3678C32.0456 28.2464 32.0768 28.1142 32.08 27.9799C32.14 27.4699 31.75 27.1399 31 27.1399ZM31 27.1399H23.8C23.08 27.1399 22.69 27.4399 22.69 28.0099C22.69 28.5799 23.08 28.9099 23.77 28.9099H31C31.1333 28.9268 31.2686 28.9154 31.3972 28.8767C31.5258 28.8379 31.6449 28.7726 31.7467 28.685C31.8485 28.5973 31.9307 28.4893 31.9881 28.3678C32.0456 28.2464 32.0768 28.1142 32.08 27.9799C32.14 27.4699 31.75 27.1399 31 27.1399ZM31 16.0099H23.77C22.99 16.0099 22.69 16.3099 22.69 17.1199V24.3799C22.69 25.1899 22.99 25.4899 23.83 25.4899H31C31.81 25.4899 32.14 25.1899 32.14 24.3499V17.1499C32.17 16.3099 31.87 16.0399 31 16.0099ZM30.4 23.3599C30.4 23.6599 30.4 23.7499 30.04 23.7499H24.82C24.52 23.7499 24.43 23.7499 24.46 23.3599V18.1399C24.46 17.8699 24.46 17.7799 24.82 17.7799H30.04C30.31 17.7799 30.4 17.7799 30.4 18.1399V23.3599ZM31 16.0099H23.77C22.99 16.0099 22.69 16.3099 22.69 17.1199V24.3799C22.69 25.1899 22.99 25.4899 23.83 25.4899H31C31.81 25.4899 32.14 25.1899 32.14 24.3499V17.1499C32.17 16.3099 31.87 16.0399 31 16.0099ZM30.4 23.3599C30.4 23.6599 30.4 23.7499 30.04 23.7499H24.82C24.52 23.7499 24.43 23.7499 24.46 23.3599V18.1399C24.46 17.8699 24.46 17.7799 24.82 17.7799H30.04C30.31 17.7799 30.4 17.7799 30.4 18.1399V23.3599ZM31 27.1399H23.8C23.08 27.1399 22.69 27.4399 22.69 28.0099C22.69 28.5799 23.08 28.9099 23.77 28.9099H31C31.1333 28.9268 31.2686 28.9154 31.3972 28.8767C31.5258 28.8379 31.6449 28.7726 31.7467 28.685C31.8485 28.5973 31.9307 28.4893 31.9881 28.3678C32.0456 28.2464 32.0768 28.1142 32.08 27.9799C32.14 27.4699 31.75 27.1399 31 27.1399ZM31 27.1399H23.8C23.08 27.1399 22.69 27.4399 22.69 28.0099C22.69 28.5799 23.08 28.9099 23.77 28.9099H31C31.1333 28.9268 31.2686 28.9154 31.3972 28.8767C31.5258 28.8379 31.6449 28.7726 31.7467 28.685C31.8485 28.5973 31.9307 28.4893 31.9881 28.3678C32.0456 28.2464 32.0768 28.1142 32.08 27.9799C32.14 27.4699 31.75 27.1399 31 27.1399ZM31 16.0099H23.77C22.99 16.0099 22.69 16.3099 22.69 17.1199V24.3799C22.69 25.1899 22.99 25.4899 23.83 25.4899H31C31.81 25.4899 32.14 25.1899 32.14 24.3499V17.1499C32.17 16.3099 31.87 16.0399 31 16.0099ZM30.4 23.3599C30.4 23.6599 30.4 23.7499 30.04 23.7499H24.82C24.52 23.7499 24.43 23.7499 24.46 23.3599V18.1399C24.46 17.8699 24.46 17.7799 24.82 17.7799H30.04C30.31 17.7799 30.4 17.7799 30.4 18.1399V23.3599ZM31 16.0099H23.77C22.99 16.0099 22.69 16.3099 22.69 17.1199V24.3799C22.69 25.1899 22.99 25.4899 23.83 25.4899H31C31.81 25.4899 32.14 25.1899 32.14 24.3499V17.1499C32.17 16.3099 31.87 16.0399 31 16.0099ZM30.4 23.3599C30.4 23.6599 30.4 23.7499 30.04 23.7499H24.82C24.52 23.7499 24.43 23.7499 24.46 23.3599V18.1399C24.46 17.8699 24.46 17.7799 24.82 17.7799H30.04C30.31 17.7799 30.4 17.7799 30.4 18.1399V23.3599ZM31 27.1399H23.8C23.08 27.1399 22.69 27.4399 22.69 28.0099C22.69 28.5799 23.08 28.9099 23.77 28.9099H31C31.1333 28.9268 31.2686 28.9154 31.3972 28.8767C31.5258 28.8379 31.6449 28.7726 31.7467 28.685C31.8485 28.5973 31.9307 28.4893 31.9881 28.3678C32.0456 28.2464 32.0768 28.1142 32.08 27.9799C32.14 27.4699 31.75 27.1399 31 27.1399ZM31 27.1399H23.8C23.08 27.1399 22.69 27.4399 22.69 28.0099C22.69 28.5799 23.08 28.9099 23.77 28.9099H31C31.1333 28.9268 31.2686 28.9154 31.3972 28.8767C31.5258 28.8379 31.6449 28.7726 31.7467 28.685C31.8485 28.5973 31.9307 28.4893 31.9881 28.3678C32.0456 28.2464 32.0768 28.1142 32.08 27.9799C32.14 27.4699 31.75 27.1399 31 27.1399ZM31 16.0099H23.77C22.99 16.0099 22.69 16.3099 22.69 17.1199V24.3799C22.69 25.1899 22.99 25.4899 23.83 25.4899H31C31.81 25.4899 32.14 25.1899 32.14 24.3499V17.1499C32.17 16.3099 31.87 16.0399 31 16.0099ZM30.4 23.3599C30.4 23.6599 30.4 23.7499 30.04 23.7499H24.82C24.52 23.7499 24.43 23.7499 24.46 23.3599V18.1399C24.46 17.8699 24.46 17.7799 24.82 17.7799H30.04C30.31 17.7799 30.4 17.7799 30.4 18.1399V23.3599ZM45.4 26.1199H37.6C36.85 26.1199 36.55 26.4199 36.55 27.1699V30.9199C36.55 31.7599 36.82 32.0299 37.66 32.0299H45.4C46.18 32.0299 46.48 31.7299 46.48 30.9499V27.1999C46.48 26.4499 46.18 25.9999 45.43 25.9999L45.4 26.1199ZM44.71 29.8999C44.71 30.1699 44.71 30.2899 44.35 30.2899H38.65C38.38 30.2899 38.29 30.2899 38.29 29.9299C38.32 29.3904 38.32 28.8495 38.29 28.3099C38.29 27.9799 38.29 27.8599 38.71 27.8599H44.32C44.62 27.8599 44.71 27.8599 44.71 28.2499C44.6897 28.8001 44.6997 29.3509 44.74 29.8999H44.71ZM31 16.0099H23.77C22.99 16.0099 22.69 16.3099 22.69 17.1199V24.3799C22.69 25.1899 22.99 25.4899 23.83 25.4899H31C31.81 25.4899 32.14 25.1899 32.14 24.3499V17.1499C32.17 16.3099 31.87 16.0399 31 16.0099ZM30.4 23.3599C30.4 23.6599 30.4 23.7499 30.04 23.7499H24.82C24.52 23.7499 24.43 23.7499 24.46 23.3599V18.1399C24.46 17.8699 24.46 17.7799 24.82 17.7799H30.04C30.31 17.7799 30.4 17.7799 30.4 18.1399V23.3599ZM31 27.1399H23.8C23.08 27.1399 22.69 27.4399 22.69 28.0099C22.69 28.5799 23.08 28.9099 23.77 28.9099H31C31.1333 28.9268 31.2686 28.9154 31.3972 28.8767C31.5258 28.8379 31.6449 28.7726 31.7467 28.685C31.8485 28.5973 31.9307 28.4893 31.9881 28.3678C32.0456 28.2464 32.0768 28.1142 32.08 27.9799C32.14 27.4699 31.75 27.1399 31 27.1399ZM45.43 25.9999H37.63C36.88 25.9999 36.58 26.2999 36.58 27.0499V30.7999C36.58 31.6399 36.85 31.9099 37.69 31.9099H45.4C46.18 31.9099 46.48 31.6099 46.48 30.8299V27.1999C46.48 26.4499 46.18 25.9999 45.43 25.9999ZM44.74 29.7799C44.74 30.0499 44.74 30.1699 44.38 30.1699H38.68C38.41 30.1699 38.32 30.1699 38.32 29.8099C38.35 29.2704 38.35 28.7295 38.32 28.1899C38.32 27.8599 38.32 27.7399 38.74 27.7399H44.35C44.65 27.7399 44.74 27.7399 44.74 28.1299C44.7051 28.7194 44.7051 29.3105 44.74 29.8999V29.7799ZM31 27.1399H23.8C23.08 27.1399 22.69 27.4399 22.69 28.0099C22.69 28.5799 23.08 28.9099 23.77 28.9099H31C31.1333 28.9268 31.2686 28.9154 31.3972 28.8767C31.5258 28.8379 31.6449 28.7726 31.7467 28.685C31.8485 28.5973 31.9307 28.4893 31.9881 28.3678C32.0456 28.2464 32.0768 28.1142 32.08 27.9799C32.14 27.4699 31.75 27.1399 31 27.1399ZM31 16.0099H23.77C22.99 16.0099 22.69 16.3099 22.69 17.1199V24.3799C22.69 25.1899 22.99 25.4899 23.83 25.4899H31C31.81 25.4899 32.14 25.1899 32.14 24.3499V17.1499C32.17 16.3099 31.87 16.0399 31 16.0099ZM30.4 23.3599C30.4 23.6599 30.4 23.7499 30.04 23.7499H24.82C24.52 23.7499 24.43 23.7499 24.46 23.3599V18.1399C24.46 17.8699 24.46 17.7799 24.82 17.7799H30.04C30.31 17.7799 30.4 17.7799 30.4 18.1399V23.3599ZM45.4 26.1199H37.6C36.85 26.1199 36.55 26.4199 36.55 27.1699V30.9199C36.55 31.7599 36.82 32.0299 37.66 32.0299H45.4C46.18 32.0299 46.48 31.7299 46.48 30.9499V27.1999C46.48 26.4499 46.18 25.9999 45.43 25.9999L45.4 26.1199ZM44.71 29.8999C44.71 30.1699 44.71 30.2899 44.35 30.2899H38.65C38.38 30.2899 38.29 30.2899 38.29 29.9299C38.32 29.3904 38.32 28.8495 38.29 28.3099C38.29 27.9799 38.29 27.8599 38.71 27.8599H44.32C44.62 27.8599 44.71 27.8599 44.71 28.2499C44.6897 28.8001 44.6997 29.3509 44.74 29.8999H44.71ZM31 16.0099H23.77C22.99 16.0099 22.69 16.3099 22.69 17.1199V24.3799C22.69 25.1899 22.99 25.4899 23.83 25.4899H31C31.81 25.4899 32.14 25.1899 32.14 24.3499V17.1499C32.17 16.3099 31.87 16.0399 31 16.0099ZM30.4 23.3599C30.4 23.6599 30.4 23.7499 30.04 23.7499H24.82C24.52 23.7499 24.43 23.7499 24.46 23.3599V18.1399C24.46 17.8699 24.46 17.7799 24.82 17.7799H30.04C30.31 17.7799 30.4 17.7799 30.4 18.1399V23.3599ZM31 27.1399H23.8C23.08 27.1399 22.69 27.4399 22.69 28.0099C22.69 28.5799 23.08 28.9099 23.77 28.9099H31C31.1333 28.9268 31.2686 28.9154 31.3972 28.8767C31.5258 28.8379 31.6449 28.7726 31.7467 28.685C31.8485 28.5973 31.9307 28.4893 31.9881 28.3678C32.0456 28.2464 32.0768 28.1142 32.08 27.9799C32.14 27.4699 31.75 27.1399 31 27.1399ZM45.43 25.9999H37.63C36.88 25.9999 36.58 26.2999 36.58 27.0499V30.7999C36.58 31.6399 36.85 31.9099 37.69 31.9099H45.4C46.18 31.9099 46.48 31.6099 46.48 30.8299V27.1999C46.48 26.4499 46.18 25.9999 45.43 25.9999ZM44.74 29.7799C44.74 30.0499 44.74 30.1699 44.38 30.1699H38.68C38.41 30.1699 38.32 30.1699 38.32 29.8099C38.35 29.2704 38.35 28.7295 38.32 28.1899C38.32 27.8599 38.32 27.7399 38.74 27.7399H44.35C44.65 27.7399 44.74 27.7399 44.74 28.1299C44.7051 28.7194 44.7051 29.3105 44.74 29.8999V29.7799ZM50.89 33.1999C50.5106 33.1703 50.1294 33.1703 49.75 33.1999C49.3 33.1999 49.18 33.1999 49.18 32.6299C49.18 29.1799 49.18 25.7299 49.18 22.2799C49.18 21.3799 48.91 21.1099 48.01 21.1099H44.8C44.53 21.1099 44.38 21.1099 44.38 20.7199C44.38 17.7199 44.38 14.3899 44.38 11.2099C44.38 10.9999 44.38 10.8799 44.68 10.8199C44.7944 10.8206 44.9076 10.7971 45.0122 10.7509C45.1169 10.7047 45.2105 10.6368 45.2871 10.5518C45.3636 10.4668 45.4212 10.3665 45.4562 10.2576C45.4912 10.1487 45.5027 10.0336 45.49 9.91994C45.4861 9.80961 45.4605 9.70112 45.4147 9.60068C45.3689 9.50024 45.3037 9.40982 45.2229 9.33459C45.1421 9.25937 45.0472 9.2008 44.9438 9.16225C44.8403 9.12371 44.7303 9.10593 44.62 9.10994H38.41C38.2961 9.10139 38.1817 9.11702 38.0743 9.1558C37.9669 9.19457 37.8689 9.25563 37.7867 9.33495C37.7046 9.41427 37.6401 9.51007 37.5976 9.61606C37.5551 9.72205 37.5354 9.83583 37.54 9.94994C37.5272 10.0597 37.5379 10.1709 37.5714 10.2761C37.6048 10.3814 37.6603 10.4784 37.734 10.5606C37.8078 10.6429 37.8981 10.7085 37.9991 10.7532C38.1002 10.7979 38.2095 10.8207 38.32 10.8199C38.59 10.8199 38.65 10.8199 38.65 11.2099V20.8699C38.65 21.1999 38.65 21.2599 38.23 21.2599H36.16C35.71 21.2599 35.59 21.2599 35.59 20.7199C35.59 18.3199 35.59 15.9499 35.59 13.5799C35.59 12.8599 35.26 12.5599 34.57 12.5299H33.22C32.74 12.5299 32.53 12.5299 32.56 11.9299C32.5903 11.3804 32.5903 10.8295 32.56 10.2799C32.574 10.1386 32.5565 9.99588 32.5086 9.86212C32.4608 9.72836 32.3839 9.60688 32.2835 9.50644C32.183 9.40599 32.0616 9.32909 31.9278 9.28128C31.794 9.23347 31.6513 9.21593 31.51 9.22994H23.26C22.57 9.22994 22.24 9.52994 22.24 10.2199C22.24 10.9099 22.24 11.4799 22.24 12.1099C22.24 12.7399 22.24 12.5299 21.85 12.4999H20.35C19.51 12.4999 19.21 12.7999 19.21 13.6699V19.3999L12.79 16.6099C11.95 16.2199 11.38 16.6099 11.38 17.5099C11.38 18.4099 11.38 19.6399 11.38 20.7199C11.38 21.1099 11.38 21.2599 10.87 21.2599H6.99999C5.88999 21.2599 5.64999 21.4699 5.64999 22.5799C5.64999 25.9999 5.64999 29.4199 5.64999 32.8099C5.64999 33.2299 5.64999 33.3799 5.13999 33.3499C4.73053 33.32 4.31944 33.32 3.90999 33.3499C3.21999 33.3499 2.88999 33.6799 2.88999 34.3999V37.3999C2.86881 37.6357 2.93283 37.8713 3.07042 38.0639C3.20802 38.2565 3.41008 38.3935 3.63999 38.4499C4.59999 38.8099 5.55999 39.2299 6.63999 39.5599C6.76537 39.6056 6.87753 39.6815 6.9665 39.781C7.05547 39.8804 7.1185 40.0003 7.14999 40.1299C7.56879 41.7054 8.19422 43.2185 9.00999 44.6299C9.09013 44.7554 9.13272 44.9011 9.13272 45.0499C9.13272 45.1988 9.09013 45.3445 9.00999 45.4699C8.55999 46.4299 8.16999 47.3899 7.71999 48.3199C7.61413 48.5166 7.58019 48.7441 7.62399 48.9631C7.6678 49.1822 7.78662 49.3791 7.95999 49.5199L12.28 53.8399C12.4223 54.0207 12.6247 54.1443 12.8504 54.1883C13.0762 54.2324 13.3102 54.1939 13.51 54.0799L16.36 52.7899C16.4821 52.7158 16.6222 52.6766 16.765 52.6766C16.9078 52.6766 17.0479 52.7158 17.17 52.7899C18.5935 53.61 20.1158 54.2451 21.7 54.6799C21.8256 54.7022 21.9425 54.7589 22.0378 54.8436C22.1332 54.9283 22.2031 55.0378 22.24 55.1599C22.57 56.1199 22.99 57.1099 23.35 58.1599C23.4129 58.4002 23.5589 58.6105 23.7621 58.7533C23.9653 58.8961 24.2126 58.9622 24.46 58.9399C26.47 58.9399 28.45 58.9399 30.46 58.9399C30.6985 58.9566 30.9355 58.8913 31.1319 58.7549C31.3283 58.6185 31.4723 58.4192 31.54 58.1899C31.9 57.2299 32.29 56.2699 32.65 55.1899C32.6784 55.0606 32.7451 54.9427 32.8414 54.8518C32.9377 54.7608 33.0592 54.7009 33.19 54.6799C34.8041 54.2354 36.3562 53.5904 37.81 52.7599C37.9047 52.7015 38.0137 52.6706 38.125 52.6706C38.2362 52.6706 38.3453 52.7015 38.44 52.7599L41.44 54.0499C41.6644 54.1771 41.9268 54.2198 42.1799 54.1703C42.4331 54.1208 42.6601 53.9823 42.82 53.7799L47.02 49.5799C47.2286 49.424 47.3697 49.1942 47.4143 48.9376C47.4589 48.6811 47.4037 48.4171 47.26 48.1999C46.84 47.2999 46.45 46.3399 46 45.4099C45.9421 45.2988 45.9119 45.1753 45.9119 45.0499C45.9119 44.9246 45.9421 44.8011 46 44.6899C46.8354 43.2492 47.4808 41.7064 47.92 40.0999C47.9446 39.9707 48.0058 39.8511 48.0961 39.7555C48.1865 39.6598 48.3023 39.5919 48.43 39.5599L51.43 38.4199C51.6329 38.359 51.8089 38.2307 51.9289 38.0561C52.0489 37.8815 52.1058 37.6712 52.09 37.4599C52.09 36.4699 52.09 35.4799 52.09 34.4599C52.09 33.4399 51.58 33.3499 50.89 33.3199V33.1999ZM42.55 21.1999C42.28 21.4399 41.68 21.1999 41.23 21.1999C40.78 21.1999 40.42 21.1999 40.42 20.3899V18.7999C40.42 18.5299 40.42 18.3799 40.78 18.3799H42.34C42.55 18.3799 42.64 18.3799 42.64 18.6799V19.9999C42.61 20.2999 43 20.9299 42.55 21.1699V21.1999ZM42.37 16.6699H41.05C40.45 16.6699 40.24 16.3999 40.42 15.7999C40.6 15.1999 40.57 15.7999 40.69 15.7999H42.34C42.82 15.7999 42.61 16.1299 42.64 16.3399C42.67 16.5499 42.79 16.6699 42.37 16.6399V16.6699ZM40.51 10.9999C40.78 10.7299 41.35 10.9999 41.83 10.9999C42.31 10.9999 42.64 10.9999 42.64 11.8399V13.5199C42.64 13.7899 42.64 13.8799 42.31 13.8499H40.72C40.48 13.8499 40.39 13.8499 40.42 13.5499V12.3199C40.45 11.9599 40.21 11.3599 40.51 10.9999ZM35.62 23.4799C35.62 23.1199 35.62 22.9999 36.07 22.9999H46.99C47.32 22.9999 47.44 22.9999 47.44 23.4199C47.44 26.5999 47.44 29.7799 47.44 32.9299C47.44 33.3199 47.29 33.3199 46.99 33.3199H36.1C35.74 33.3199 35.59 33.3199 35.59 32.8399C35.62 29.7199 35.62 26.5999 35.62 23.4799ZM25 10.9999H30.25C30.64 10.9999 30.76 10.9999 30.73 11.4799C30.73 12.5299 30.73 12.5299 29.68 12.5299H24.4C24.07 12.5299 23.98 12.5299 23.98 12.1399C23.98 10.9999 23.95 10.9999 25 10.9999ZM20.95 14.8399C20.95 14.4499 20.95 14.2699 21.49 14.2699H33.49C33.91 14.2699 33.97 14.2699 33.97 14.8099V32.8099C33.97 33.1999 33.97 33.3199 33.52 33.3199H21.52C21.16 33.3199 21.07 33.3199 21.07 32.8399C21.07 29.8399 21.07 26.8399 21.07 23.8399C21.07 20.8399 20.98 17.8399 20.95 14.8399ZM35.53 34.9999C36.04 34.9999 36.19 34.9999 36.07 35.5999C35.7274 37.6518 34.6682 39.5158 33.0807 40.8602C31.4932 42.2046 29.4803 42.9425 27.4 42.9425C25.3197 42.9425 23.3068 42.2046 21.7193 40.8602C20.1318 39.5158 19.0726 37.6518 18.73 35.5999C18.73 35.1799 18.73 35.1199 19.15 35.1199L35.53 34.9999ZM13.15 18.6499L19 21.1999C19.0929 21.2279 19.1721 21.2895 19.222 21.3727C19.2719 21.4559 19.289 21.5548 19.27 21.6499V32.9599C19.27 33.2599 19.27 33.3499 18.91 33.3199H13.51C13.24 33.3199 13.12 33.3199 13.12 32.9899C13.15 28.2499 13.15 23.4799 13.15 18.6499ZM7.41999 23.4499C7.41999 23.0899 7.41999 22.9999 7.86999 22.9999H10.87C11.26 22.9999 11.32 22.9999 11.32 23.4799V32.8699C11.32 33.2599 11.32 33.3499 10.84 33.3499H7.83999C7.50999 33.3499 7.38999 33.3499 7.38999 32.9299L7.41999 23.4499ZM49 37.2199C48.31 37.4899 47.62 37.7899 46.9 38.0299C46.7207 38.0922 46.5605 38.1993 46.4344 38.3411C46.3084 38.4829 46.2208 38.6546 46.18 38.8399C45.72 40.7475 44.9606 42.5701 43.93 44.2399C43.8269 44.4122 43.7725 44.6092 43.7725 44.8099C43.7725 45.0107 43.8269 45.2077 43.93 45.3799C44.35 46.3099 44.74 47.2399 45.16 48.1399C45.2317 48.2175 45.2715 48.3193 45.2715 48.4249C45.2715 48.5306 45.2317 48.6323 45.16 48.7099L41.98 51.8899C41.9435 51.929 41.8994 51.9601 41.8503 51.9814C41.8013 52.0027 41.7484 52.0137 41.695 52.0137C41.6415 52.0137 41.5887 52.0027 41.5396 51.9814C41.4906 51.9601 41.4465 51.929 41.41 51.8899C40.48 51.4999 39.58 51.1099 38.65 50.6599C38.4721 50.5573 38.2704 50.5032 38.065 50.5032C37.8596 50.5032 37.6578 50.5573 37.48 50.6599C35.8196 51.6812 34.0068 52.4307 32.11 52.8799C31.9123 52.9212 31.7295 53.0157 31.5815 53.1531C31.4335 53.2906 31.3258 53.4658 31.27 53.6599C30.94 54.5899 30.58 55.4899 30.22 56.4199C30.22 56.6899 30.01 56.8399 29.68 56.8099H25.18C24.91 56.8099 24.79 56.8099 24.7 56.4799C24.34 55.5499 23.95 54.6199 23.62 53.6899C23.5701 53.4846 23.4611 53.2985 23.3064 53.1545C23.1518 53.0105 22.9583 52.915 22.75 52.8799C20.8766 52.4167 19.0856 51.6679 17.44 50.6599C17.254 50.549 17.0415 50.4904 16.825 50.4904C16.6084 50.4904 16.3959 50.549 16.21 50.6599C15.34 51.0799 14.44 51.4399 13.57 51.8299C13.4808 51.9143 13.3627 51.9614 13.24 51.9614C13.1172 51.9614 12.9991 51.9143 12.91 51.8299L9.90999 48.6499C9.83619 48.5674 9.7954 48.4606 9.7954 48.3499C9.7954 48.2393 9.83619 48.1324 9.90999 48.0499L11.14 45.3499C11.251 45.164 11.3096 44.9515 11.3096 44.7349C11.3096 44.5184 11.251 44.3059 11.14 44.1199C10.1468 42.4917 9.40828 40.7213 8.94999 38.8699C8.88222 38.6139 8.7296 38.3884 8.51707 38.2304C8.30454 38.0724 8.04469 37.9911 7.77999 37.9999L5.01999 36.9499C4.90903 36.9218 4.81177 36.855 4.74575 36.7615C4.67974 36.6679 4.64932 36.5539 4.65999 36.4399C4.65999 35.0899 4.65999 35.0899 5.97999 35.0899H16.36C16.75 35.0899 16.93 35.0899 16.99 35.5999C17.3325 38.0804 18.5477 40.3577 20.4176 42.0231C22.2875 43.6885 24.6897 44.6331 27.1932 44.6873C29.6966 44.7414 32.1374 43.9017 34.0776 42.3188C36.0179 40.7358 37.3305 38.5133 37.78 36.0499C37.96 35.0899 37.96 35.0899 38.92 35.0899H49.57C50.02 35.0899 50.2 35.0899 50.17 35.6299C50.14 36.7999 50.17 36.7999 49 37.2199ZM37.69 31.9999H45.4C46.18 31.9999 46.48 31.6999 46.48 30.9199V27.1999C46.48 26.4499 46.18 26.1199 45.43 26.1199H37.63C36.88 26.1199 36.58 26.4199 36.58 27.1699V30.9199C36.58 31.7599 37 31.9999 37.69 31.9999ZM38.32 28.2799C38.32 27.9499 38.32 27.8299 38.74 27.8299H44.35C44.65 27.8299 44.74 27.8299 44.74 28.2199C44.7097 28.7695 44.7097 29.3204 44.74 29.8699C44.74 30.1399 44.74 30.2599 44.38 30.2599H38.68C38.41 30.2599 38.32 30.2599 38.32 29.8999C38.3489 29.3703 38.3489 28.8395 38.32 28.3099V28.2799ZM23.83 25.4599H31C31.81 25.4599 32.14 25.1599 32.14 24.3199V17.1499C32.14 16.3099 31.84 16.0399 31 16.0099H23.77C22.99 16.0099 22.69 16.3099 22.69 17.1199V24.3799C22.69 25.1899 22.99 25.4899 23.83 25.4899V25.4599ZM24.46 18.1099C24.46 17.8399 24.46 17.7499 24.82 17.7499H30.04C30.31 17.7499 30.4 17.7499 30.4 18.1099V23.3599C30.4 23.6599 30.4 23.7499 30.04 23.7499H24.82C24.52 23.7499 24.43 23.7499 24.46 23.3599V18.1099ZM23.77 28.9999H31C31.1333 29.0168 31.2686 29.0054 31.3972 28.9667C31.5258 28.9279 31.6449 28.8626 31.7467 28.775C31.8485 28.6873 31.9307 28.5793 31.9881 28.4578C32.0456 28.3364 32.0768 28.2042 32.08 28.0699C32.08 27.5599 31.66 27.2299 31 27.2299H23.8C23.08 27.2299 22.69 27.5299 22.69 28.0999C22.69 28.6699 23.08 28.9999 23.77 28.9999ZM45.43 25.9999H37.63C36.88 25.9999 36.58 26.2999 36.58 27.0499V30.7999C36.58 31.6399 36.85 31.9099 37.69 31.9099H45.4C46.18 31.9099 46.48 31.6099 46.48 30.8299V27.1999C46.48 26.4499 46.18 25.9999 45.43 25.9999ZM44.74 29.7799C44.74 30.0499 44.74 30.1699 44.38 30.1699H38.68C38.41 30.1699 38.32 30.1699 38.32 29.8099C38.35 29.2704 38.35 28.7295 38.32 28.1899C38.32 27.8599 38.32 27.7399 38.74 27.7399H44.35C44.65 27.7399 44.74 27.7399 44.74 28.1299C44.7051 28.7194 44.7051 29.3105 44.74 29.8999V29.7799ZM31 27.1399H23.8C23.08 27.1399 22.69 27.4399 22.69 28.0099C22.69 28.5799 23.08 28.9099 23.77 28.9099H31C31.1333 28.9268 31.2686 28.9154 31.3972 28.8767C31.5258 28.8379 31.6449 28.7726 31.7467 28.685C31.8485 28.5973 31.9307 28.4893 31.9881 28.3678C32.0456 28.2464 32.0768 28.1142 32.08 27.9799C32.14 27.4699 31.75 27.1399 31 27.1399ZM31 16.0099H23.77C22.99 16.0099 22.69 16.3099 22.69 17.1199V24.3799C22.69 25.1899 22.99 25.4899 23.83 25.4899H31C31.81 25.4899 32.14 25.1899 32.14 24.3499V17.1499C32.17 16.3099 31.87 16.0399 31 16.0099ZM30.4 23.3599C30.4 23.6599 30.4 23.7499 30.04 23.7499H24.82C24.52 23.7499 24.43 23.7499 24.46 23.3599V18.1399C24.46 17.8699 24.46 17.7799 24.82 17.7799H30.04C30.31 17.7799 30.4 17.7799 30.4 18.1399V23.3599ZM45.4 26.1199H37.6C36.85 26.1199 36.55 26.4199 36.55 27.1699V30.9199C36.55 31.7599 36.82 32.0299 37.66 32.0299H45.4C46.18 32.0299 46.48 31.7299 46.48 30.9499V27.1999C46.48 26.4499 46.18 25.9999 45.43 25.9999L45.4 26.1199ZM44.71 29.8999C44.71 30.1699 44.71 30.2899 44.35 30.2899H38.65C38.38 30.2899 38.29 30.2899 38.29 29.9299C38.32 29.3904 38.32 28.8495 38.29 28.3099C38.29 27.9799 38.29 27.8599 38.71 27.8599H44.32C44.62 27.8599 44.71 27.8599 44.71 28.2499C44.6897 28.8001 44.6997 29.3509 44.74 29.8999H44.71ZM31 16.0099H23.77C22.99 16.0099 22.69 16.3099 22.69 17.1199V24.3799C22.69 25.1899 22.99 25.4899 23.83 25.4899H31C31.81 25.4899 32.14 25.1899 32.14 24.3499V17.1499C32.17 16.3099 31.87 16.0399 31 16.0099ZM30.4 23.3599C30.4 23.6599 30.4 23.7499 30.04 23.7499H24.82C24.52 23.7499 24.43 23.7499 24.46 23.3599V18.1399C24.46 17.8699 24.46 17.7799 24.82 17.7799H30.04C30.31 17.7799 30.4 17.7799 30.4 18.1399V23.3599ZM31 27.1399H23.8C23.08 27.1399 22.69 27.4399 22.69 28.0099C22.69 28.5799 23.08 28.9099 23.77 28.9099H31C31.1333 28.9268 31.2686 28.9154 31.3972 28.8767C31.5258 28.8379 31.6449 28.7726 31.7467 28.685C31.8485 28.5973 31.9307 28.4893 31.9881 28.3678C32.0456 28.2464 32.0768 28.1142 32.08 27.9799C32.14 27.4699 31.75 27.1399 31 27.1399ZM45.43 25.9999H37.63C36.88 25.9999 36.58 26.2999 36.58 27.0499V30.7999C36.58 31.6399 36.85 31.9099 37.69 31.9099H45.4C46.18 31.9099 46.48 31.6099 46.48 30.8299V27.1999C46.48 26.4499 46.18 25.9999 45.43 25.9999ZM44.74 29.7799C44.74 30.0499 44.74 30.1699 44.38 30.1699H38.68C38.41 30.1699 38.32 30.1699 38.32 29.8099C38.35 29.2704 38.35 28.7295 38.32 28.1899C38.32 27.8599 38.32 27.7399 38.74 27.7399H44.35C44.65 27.7399 44.74 27.7399 44.74 28.1299C44.7051 28.7194 44.7051 29.3105 44.74 29.8999V29.7799ZM31 27.1399H23.8C23.08 27.1399 22.69 27.4399 22.69 28.0099C22.69 28.5799 23.08 28.9099 23.77 28.9099H31C31.1333 28.9268 31.2686 28.9154 31.3972 28.8767C31.5258 28.8379 31.6449 28.7726 31.7467 28.685C31.8485 28.5973 31.9307 28.4893 31.9881 28.3678C32.0456 28.2464 32.0768 28.1142 32.08 27.9799C32.14 27.4699 31.75 27.1399 31 27.1399ZM31 16.0099H23.77C22.99 16.0099 22.69 16.3099 22.69 17.1199V24.3799C22.69 25.1899 22.99 25.4899 23.83 25.4899H31C31.81 25.4899 32.14 25.1899 32.14 24.3499V17.1499C32.17 16.3099 31.87 16.0399 31 16.0099ZM30.4 23.3599C30.4 23.6599 30.4 23.7499 30.04 23.7499H24.82C24.52 23.7499 24.43 23.7499 24.46 23.3599V18.1399C24.46 17.8699 24.46 17.7799 24.82 17.7799H30.04C30.31 17.7799 30.4 17.7799 30.4 18.1399V23.3599ZM45.4 26.1199H37.6C36.85 26.1199 36.55 26.4199 36.55 27.1699V30.9199C36.55 31.7599 36.82 32.0299 37.66 32.0299H45.4C46.18 32.0299 46.48 31.7299 46.48 30.9499V27.1999C46.48 26.4499 46.18 25.9999 45.43 25.9999L45.4 26.1199ZM44.71 29.8999C44.71 30.1699 44.71 30.2899 44.35 30.2899H38.65C38.38 30.2899 38.29 30.2899 38.29 29.9299C38.32 29.3904 38.32 28.8495 38.29 28.3099C38.29 27.9799 38.29 27.8599 38.71 27.8599H44.32C44.62 27.8599 44.71 27.8599 44.71 28.2499C44.6897 28.8001 44.6997 29.3509 44.74 29.8999H44.71ZM31 16.0099H23.77C22.99 16.0099 22.69 16.3099 22.69 17.1199V24.3799C22.69 25.1899 22.99 25.4899 23.83 25.4899H31C31.81 25.4899 32.14 25.1899 32.14 24.3499V17.1499C32.17 16.3099 31.87 16.0399 31 16.0099ZM30.4 23.3599C30.4 23.6599 30.4 23.7499 30.04 23.7499H24.82C24.52 23.7499 24.43 23.7499 24.46 23.3599V18.1399C24.46 17.8699 24.46 17.7799 24.82 17.7799H30.04C30.31 17.7799 30.4 17.7799 30.4 18.1399V23.3599ZM31 27.1399H23.8C23.08 27.1399 22.69 27.4399 22.69 28.0099C22.69 28.5799 23.08 28.9099 23.77 28.9099H31C31.1333 28.9268 31.2686 28.9154 31.3972 28.8767C31.5258 28.8379 31.6449 28.7726 31.7467 28.685C31.8485 28.5973 31.9307 28.4893 31.9881 28.3678C32.0456 28.2464 32.0768 28.1142 32.08 27.9799C32.14 27.4699 31.75 27.1399 31 27.1399ZM31 27.1399H23.8C23.08 27.1399 22.69 27.4399 22.69 28.0099C22.69 28.5799 23.08 28.9099 23.77 28.9099H31C31.1333 28.9268 31.2686 28.9154 31.3972 28.8767C31.5258 28.8379 31.6449 28.7726 31.7467 28.685C31.8485 28.5973 31.9307 28.4893 31.9881 28.3678C32.0456 28.2464 32.0768 28.1142 32.08 27.9799C32.14 27.4699 31.75 27.1399 31 27.1399ZM31 16.0099H23.77C22.99 16.0099 22.69 16.3099 22.69 17.1199V24.3799C22.69 25.1899 22.99 25.4899 23.83 25.4899H31C31.81 25.4899 32.14 25.1899 32.14 24.3499V17.1499C32.17 16.3099 31.87 16.0399 31 16.0099ZM30.4 23.3599C30.4 23.6599 30.4 23.7499 30.04 23.7499H24.82C24.52 23.7499 24.43 23.7499 24.46 23.3599V18.1399C24.46 17.8699 24.46 17.7799 24.82 17.7799H30.04C30.31 17.7799 30.4 17.7799 30.4 18.1399V23.3599ZM31 16.0099H23.77C22.99 16.0099 22.69 16.3099 22.69 17.1199V24.3799C22.69 25.1899 22.99 25.4899 23.83 25.4899H31C31.81 25.4899 32.14 25.1899 32.14 24.3499V17.1499C32.17 16.3099 31.87 16.0399 31 16.0099ZM30.4 23.3599C30.4 23.6599 30.4 23.7499 30.04 23.7499H24.82C24.52 23.7499 24.43 23.7499 24.46 23.3599V18.1399C24.46 17.8699 24.46 17.7799 24.82 17.7799H30.04C30.31 17.7799 30.4 17.7799 30.4 18.1399V23.3599ZM31 27.1399H23.8C23.08 27.1399 22.69 27.4399 22.69 28.0099C22.69 28.5799 23.08 28.9099 23.77 28.9099H31C31.1333 28.9268 31.2686 28.9154 31.3972 28.8767C31.5258 28.8379 31.6449 28.7726 31.7467 28.685C31.8485 28.5973 31.9307 28.4893 31.9881 28.3678C32.0456 28.2464 32.0768 28.1142 32.08 27.9799C32.14 27.4699 31.75 27.1399 31 27.1399ZM31 27.1399H23.8C23.08 27.1399 22.69 27.4399 22.69 28.0099C22.69 28.5799 23.08 28.9099 23.77 28.9099H31C31.1333 28.9268 31.2686 28.9154 31.3972 28.8767C31.5258 28.8379 31.6449 28.7726 31.7467 28.685C31.8485 28.5973 31.9307 28.4893 31.9881 28.3678C32.0456 28.2464 32.0768 28.1142 32.08 27.9799C32.14 27.4699 31.75 27.1399 31 27.1399ZM31 16.0099H23.77C22.99 16.0099 22.69 16.3099 22.69 17.1199V24.3799C22.69 25.1899 22.99 25.4899 23.83 25.4899H31C31.81 25.4899 32.14 25.1899 32.14 24.3499V17.1499C32.17 16.3099 31.87 16.0399 31 16.0099ZM30.4 23.3599C30.4 23.6599 30.4 23.7499 30.04 23.7499H24.82C24.52 23.7499 24.43 23.7499 24.46 23.3599V18.1399C24.46 17.8699 24.46 17.7799 24.82 17.7799H30.04C30.31 17.7799 30.4 17.7799 30.4 18.1399V23.3599ZM31 16.0099H23.77C22.99 16.0099 22.69 16.3099 22.69 17.1199V24.3799C22.69 25.1899 22.99 25.4899 23.83 25.4899H31C31.81 25.4899 32.14 25.1899 32.14 24.3499V17.1499C32.17 16.3099 31.87 16.0399 31 16.0099ZM30.4 23.3599C30.4 23.6599 30.4 23.7499 30.04 23.7499H24.82C24.52 23.7499 24.43 23.7499 24.46 23.3599V18.1399C24.46 17.8699 24.46 17.7799 24.82 17.7799H30.04C30.31 17.7799 30.4 17.7799 30.4 18.1399V23.3599ZM31 27.1399H23.8C23.08 27.1399 22.69 27.4399 22.69 28.0099C22.69 28.5799 23.08 28.9099 23.77 28.9099H31C31.1333 28.9268 31.2686 28.9154 31.3972 28.8767C31.5258 28.8379 31.6449 28.7726 31.7467 28.685C31.8485 28.5973 31.9307 28.4893 31.9881 28.3678C32.0456 28.2464 32.0768 28.1142 32.08 27.9799C32.14 27.4699 31.75 27.1399 31 27.1399Z" fill="#B860AC"/>
  <path d="M8.47001 9.2599C7.57001 8.0899 6.64001 6.9199 5.71001 5.7799C5.59981 5.61902 5.45207 5.48743 5.27957 5.3965C5.10707 5.30558 4.91501 5.25806 4.72001 5.25806C4.52502 5.25806 4.33296 5.30558 4.16046 5.3965C3.98796 5.48743 3.84021 5.61902 3.73001 5.7799C2.80001 6.9199 1.90001 7.9999 1.00001 9.2299C0.854256 9.39953 0.758807 9.60652 0.724433 9.82752C0.690059 10.0485 0.718129 10.2747 0.805477 10.4806C0.892825 10.6865 1.03597 10.8639 1.21877 10.9927C1.40157 11.1216 1.61674 11.1968 1.84001 11.2099C2.20001 11.2099 2.26001 11.4199 2.23001 11.7199V16.9999C2.23001 17.7199 2.56001 18.0199 3.28001 18.0199H6.28001C7.06001 18.0199 7.36001 17.6899 7.36001 16.9099V11.6899C7.36001 11.3899 7.36001 11.2699 7.75001 11.2099C7.95767 11.1743 8.15229 11.0847 8.31432 10.95C8.47635 10.8154 8.60007 10.6404 8.67305 10.4428C8.74602 10.2451 8.76568 10.0318 8.73004 9.82414C8.69439 9.61649 8.60471 9.42189 8.47001 9.2599ZM5.47001 10.7599C5.47001 12.4099 5.47001 14.0899 5.47001 15.7399C5.47001 16.0999 5.47001 16.1599 5.05001 16.1599C4.00001 16.1599 4.00001 16.1599 4.00001 15.1699V10.7599C4.00001 9.9199 4.00001 9.7399 3.10001 9.4099L4.72001 7.3699L6.37001 9.4399C5.59001 9.5899 5.44001 10.0999 5.44001 10.7599H5.47001Z" fill="#B860AC"/>
  <path d="M55 9.14005L52.3 5.81005C52.1924 5.6364 52.0422 5.49309 51.8637 5.39372C51.6852 5.29435 51.4843 5.24219 51.28 5.24219C51.0757 5.24219 50.8748 5.29435 50.6963 5.39372C50.5178 5.49309 50.3676 5.6364 50.26 5.81005C49.36 6.95005 48.46 8.06005 47.59 9.23005C47.4331 9.39341 47.327 9.59882 47.2845 9.82133C47.2421 10.0438 47.2651 10.2739 47.3509 10.4835C47.4367 10.6932 47.5815 10.8734 47.7677 11.0024C47.9539 11.1314 48.1736 11.2035 48.4 11.21C48.76 11.21 48.82 11.39 48.79 11.69V16.82C48.79 17.6 49.09 17.9 49.87 17.93H52.57C53.5 17.93 53.77 17.66 53.77 16.7V11.72C53.77 11.48 53.77 11.27 54.1 11.24C54.3459 11.2462 54.588 11.1785 54.795 11.0457C55.0021 10.9129 55.1645 10.7211 55.2614 10.495C55.3583 10.2689 55.3852 10.0189 55.3386 9.77738C55.292 9.53586 55.1741 9.31385 55 9.14005ZM52 11C52 12.56 52 14 52 15.62C52 16.01 52 16.16 51.49 16.13C50.53 16.13 50.53 16.13 50.53 15.17V10.76C50.53 9.92005 50.53 9.74005 49.63 9.41005L51.25 7.34005L52.93 9.47005C52 9.62005 52 10.34 52 11Z" fill="#B860AC"/>
  <path d="M32.17 27.9801C32.1833 28.1309 32.1607 28.2826 32.1041 28.423C32.0476 28.5634 31.9586 28.6884 31.8445 28.7878C31.7305 28.8873 31.5945 28.9583 31.4477 28.9952C31.301 29.0321 31.1475 29.0338 31 29.0001H23.77C23.08 29.0001 22.69 28.6701 22.69 28.1001C22.69 27.5301 23.08 27.2301 23.8 27.2301H31C31.75 27.1401 32.14 27.4701 32.17 27.9801Z" fill="#FEFEFE"/>
  <path d="M31 16.01H23.77C22.99 16.01 22.69 16.31 22.69 17.12V24.38C22.69 25.19 22.99 25.49 23.83 25.49H31C31.81 25.49 32.14 25.19 32.14 24.35V17.15C32.17 16.31 31.87 16.04 31 16.01ZM30.4 23.36C30.4 23.66 30.4 23.75 30.04 23.75H24.82C24.52 23.75 24.43 23.75 24.46 23.36V18.14C24.46 17.87 24.46 17.78 24.82 17.78H30.04C30.31 17.78 30.4 17.78 30.4 18.14V23.36Z" fill="#FEFEFE"/>
  <path d="M45.43 26H37.63C36.88 26 36.58 26.3 36.58 27.05V30.8C36.58 31.64 36.85 31.91 37.69 31.91H45.4C46.18 31.91 46.48 31.61 46.48 30.83V27.2C46.48 26.45 46.18 26 45.43 26ZM44.74 29.78C44.74 30.05 44.74 30.17 44.38 30.17H38.68C38.41 30.17 38.32 30.17 38.32 29.81C38.35 29.2704 38.35 28.7296 38.32 28.19C38.32 27.86 38.32 27.74 38.74 27.74H44.35C44.65 27.74 44.74 27.74 44.74 28.13C44.7052 28.7195 44.7052 29.3105 44.74 29.9V29.78Z" fill="#FEFEFE"/>
  <path d="M31 16.01H23.77C22.99 16.01 22.69 16.31 22.69 17.12V24.38C22.69 25.19 22.99 25.49 23.83 25.49H31C31.81 25.49 32.14 25.19 32.14 24.35V17.15C32.17 16.31 31.87 16.04 31 16.01ZM30.4 23.36C30.4 23.66 30.4 23.75 30.04 23.75H24.82C24.52 23.75 24.43 23.75 24.46 23.36V18.14C24.46 17.87 24.46 17.78 24.82 17.78H30.04C30.31 17.78 30.4 17.78 30.4 18.14V23.36Z" fill="#B860AC"/>
  <path d="M32.17 27.9801C32.1833 28.1309 32.1607 28.2826 32.1041 28.423C32.0476 28.5634 31.9586 28.6884 31.8445 28.7878C31.7305 28.8873 31.5945 28.9583 31.4477 28.9952C31.301 29.0321 31.1475 29.0338 31 29.0001H23.77C23.08 29.0001 22.69 28.6701 22.69 28.1001C22.69 27.5301 23.08 27.2301 23.8 27.2301H31C31.75 27.1401 32.14 27.4701 32.17 27.9801Z" fill="#B860AC"/>
  <path d="M45.43 26H37.63C36.88 26 36.58 26.3 36.58 27.05V30.8C36.58 31.64 36.85 31.91 37.69 31.91H45.4C46.18 31.91 46.48 31.61 46.48 30.83V27.2C46.48 26.45 46.18 26 45.43 26ZM44.74 29.78C44.74 30.05 44.74 30.17 44.38 30.17H38.68C38.41 30.17 38.32 30.17 38.32 29.81C38.35 29.2704 38.35 28.7296 38.32 28.19C38.32 27.86 38.32 27.74 38.74 27.74H44.35C44.65 27.74 44.74 27.74 44.74 28.13C44.7052 28.7195 44.7052 29.3105 44.74 29.9V29.78Z" fill="#B860AC"/>
</svg>