<svg xmlns="http://www.w3.org/2000/svg" width="83" height="47" viewBox="0 0 83 47" fill="none">
  <path d="M79.276 46.7273H76.1302L74.1957 42.9287H72.8579V46.7273H69.9109V32.9145H72.8579V40.5842H74.3584L76.0398 37.1492H79.1314L76.7992 41.8564L79.276 46.7273Z" fill="black"/>
  <path d="M64.9304 37.1674V39.6755C65.5813 37.8035 66.6841 36.8766 68.2208 36.8766V39.8754C66.0332 39.8754 65.075 40.7297 64.9304 43.2014V46.7273H61.9835V37.1674H64.9304Z" fill="black"/>
  <path d="M54.9463 46.9999C51.2762 46.9999 49.6852 45.4551 49.6852 41.911C49.6852 38.476 51.3123 36.8766 54.9463 36.8766C58.5622 36.8766 60.1712 38.476 60.1712 41.911C60.1712 45.4551 58.5802 46.9999 54.9463 46.9999ZM57.2243 41.911C57.2243 39.9481 56.6638 39.2393 54.9463 39.2393C53.2287 39.2393 52.6502 39.9481 52.6502 41.911C52.6502 43.9466 53.2287 44.6372 54.9463 44.6372C56.6638 44.6372 57.2243 43.9466 57.2243 41.911Z" fill="black"/>
  <path d="M44.9098 44.4009L46.0126 37.1492H48.7607L47.1335 46.7273H43.0114L41.6193 39.9481L40.2091 46.7273H36.087L34.4599 37.1492H37.208L38.3289 44.4009H38.4554L39.9741 37.1492H43.2465L44.7651 44.4009H44.9098Z" fill="black"/>
  <path d="M33.3181 37.1492V39.4938H30.5519V42.947C30.5519 43.5467 30.6423 43.9648 30.8412 44.2374C31.257 44.7463 32.3056 44.7463 33.3181 44.2192V46.5274C32.8299 46.8364 32.1791 46.9999 31.3293 46.9999C28.6717 46.9999 27.5869 45.7822 27.5869 42.947V39.4938H26.1044V37.1492H27.5869V34.732H30.5519V37.1492H33.3181Z" fill="black"/>
  <path d="M25.2416 41.911V42.638H18.0099C18.1364 44.2556 18.7511 44.8371 20.2156 44.8371C21.5715 44.8371 22.1681 44.51 22.2947 43.7285H25.0789C24.9343 45.9095 23.2891 46.9999 20.1613 46.9999C16.6359 46.9999 15.0449 45.3824 15.0449 41.8747C15.0449 38.4396 16.6178 36.8766 20.1433 36.8766C23.6687 36.8766 25.2416 38.3306 25.2416 41.911ZM20.1613 39.0394C18.7692 39.0394 18.1907 39.5301 18.028 40.8932H22.2766C22.2224 39.5665 21.6077 39.0394 20.1613 39.0394Z" fill="black"/>
  <path d="M10.2152 43.8739V34.0595H13.0898V46.7273H8.20842L3.88745 36.9311H3.50778V46.7273H0.651245V34.0595H5.49651L9.83556 43.8739H10.2152Z" fill="black"/>
  <path d="M78.3135 30.6426C75.6377 30.6426 74.2637 29.5521 74.1733 27.3893H76.849C76.9033 28.1526 77.4637 28.5343 78.5123 28.5343C79.4163 28.5343 79.8683 28.2435 79.8683 27.6619C79.8683 27.1894 79.6513 26.8986 79.2355 26.8077L76.9756 26.2806C75.1857 25.8444 74.3541 24.9902 74.3541 23.4454C74.3541 21.4643 75.692 20.5192 78.5304 20.5192C81.0254 20.5192 82.3271 21.5188 82.4536 23.5362H79.796C79.6694 22.8274 79.3259 22.6093 78.4762 22.6093C77.6265 22.6093 77.1925 22.8638 77.1925 23.3908C77.1925 23.7907 77.4457 24.0451 77.9338 24.1723L80.1937 24.6994C81.9293 25.1174 82.761 25.9716 82.761 27.5165C82.761 29.6429 81.3508 30.6426 78.3135 30.6426Z" fill="black"/>
  <path d="M72.7606 20.7919V23.1365H69.9944V26.5897C69.9944 27.1895 70.0848 27.6075 70.2837 27.8801C70.6995 28.389 71.7481 28.389 72.7606 27.8619V30.1701C72.2724 30.4791 71.6216 30.6427 70.7718 30.6427C68.1142 30.6427 67.0294 29.425 67.0294 26.5897V23.1365H65.5469V20.7919H67.0294V18.3747H69.9944V20.7919H72.7606Z" fill="black"/>
  <path d="M61.2049 20.5193C63.3925 20.5193 64.2061 21.5734 64.2061 24.4087V30.37H61.2591V24.4996C61.2591 23.3546 60.6987 22.8093 59.7585 22.8093C58.7461 22.8093 58.1856 23.5908 58.1856 24.9903V30.37H55.2387V20.7919H58.1856V22.3731C58.8184 21.0464 59.7766 20.5193 61.2049 20.5193Z" fill="black"/>
  <path d="M53.437 25.5537V26.2807H46.2053C46.3318 27.8983 46.9465 28.4799 48.411 28.4799C49.7669 28.4799 50.3635 28.1527 50.4901 27.3712H53.2743C53.1297 29.5522 51.4845 30.6427 48.3567 30.6427C44.8313 30.6427 43.2403 29.0251 43.2403 25.5174C43.2403 22.0823 44.8132 20.5193 48.3387 20.5193C51.8641 20.5193 53.437 21.9733 53.437 25.5537ZM48.3567 22.6821C46.9646 22.6821 46.3861 23.1728 46.2234 24.5359H50.472C50.4178 23.2092 49.8031 22.6821 48.3567 22.6821Z" fill="black"/>
  <path d="M38.4907 22.3186V16.5572H41.4377V30.37H38.4907V28.7525C37.876 30.0065 36.7732 30.6426 35.2003 30.6426C32.3257 30.6426 31.0059 29.0433 31.0059 25.5537C31.0059 22.1187 32.3257 20.5193 35.2003 20.5193C36.7913 20.5193 37.8941 21.1191 38.4907 22.3186ZM36.1946 28.3345C37.7314 28.3345 38.5992 27.3167 38.5992 25.7173V25.2811C38.545 23.7544 37.6952 22.8275 36.1766 22.8275C34.6037 22.8275 33.9709 23.609 33.9709 25.5537C33.9709 27.5348 34.6037 28.3345 36.1946 28.3345Z" fill="black"/>
  <path d="M26.2117 26.1717V20.7919H29.1587V30.37H26.2117V28.7888C25.5789 30.1156 24.6207 30.6426 23.1925 30.6426C21.0049 30.6426 20.1913 29.5885 20.1913 26.7532V20.7919H23.1382V26.6624C23.1382 27.8074 23.6987 28.3526 24.6388 28.3526C25.6513 28.3526 26.2117 27.5711 26.2117 26.1717Z" fill="black"/>
  <path d="M18.3989 20.7919V23.1365H15.6328V26.5897C15.6328 27.1895 15.7232 27.6075 15.922 27.8801C16.3379 28.389 17.3865 28.389 18.3989 27.8619V30.1701C17.9108 30.4791 17.2599 30.6427 16.4102 30.6427C13.7525 30.6427 12.6677 29.425 12.6677 26.5897V23.1365H11.1852V20.7919H12.6677V18.3747H15.6328V20.7919H18.3989Z" fill="black"/>
  <path d="M5.11646 30.6427C1.82602 30.6427 0.126556 29.1523 0 26.1717H2.87462C2.94694 27.5711 3.56163 28.0982 5.20686 28.0982C6.49049 28.0982 7.14135 27.6256 7.14135 26.6624C7.14135 25.8627 6.87016 25.4447 6.02043 25.2811L3.36276 24.7359C1.139 24.2815 0.307349 23.2819 0.307349 21.2463C0.307349 18.7745 1.97065 17.4296 5.13454 17.4296C8.17187 17.4296 9.76286 18.7927 9.92557 21.5189H7.05095C6.9244 20.3557 6.45433 19.9559 5.06222 19.9559C3.88706 19.9559 3.30852 20.3557 3.30852 21.1736C3.30852 21.7915 3.68819 22.1732 4.42944 22.3186L7.03287 22.8639C9.2024 23.3182 10.1606 24.4814 10.1606 26.5897C10.1606 29.2068 8.38883 30.6427 5.11646 30.6427Z" fill="black"/>
  <path d="M60.358 4.16202C62.5456 4.16202 63.3591 5.21616 63.3591 8.05142V14.0127H60.4122V8.14229C60.4122 6.99728 59.8517 6.45204 58.9116 6.45204C57.8992 6.45204 57.3387 7.23356 57.3387 8.63301V14.0127H54.3918V4.43464H57.3387V6.01585C57.9715 4.68909 58.9297 4.16202 60.358 4.16202Z" fill="black"/>
  <path d="M50.6654 2.88979C49.3637 2.88979 49.0202 2.58082 49.0202 1.47215C49.0202 0.327146 49.3637 0 50.6654 0C51.9852 0 52.3468 0.308971 52.3468 1.47215C52.3468 2.58082 51.9852 2.88979 50.6654 2.88979ZM52.1479 14.0127H49.201V4.43464H52.1479V14.0127Z" fill="black"/>
  <path d="M42.1631 14.2854C38.493 14.2854 36.902 12.7405 36.902 9.19643C36.902 5.7614 38.5291 4.16202 42.1631 4.16202C45.779 4.16202 47.388 5.7614 47.388 9.19643C47.388 12.7405 45.797 14.2854 42.1631 14.2854ZM44.4411 9.19643C44.4411 7.23356 43.8806 6.52474 42.1631 6.52474C40.4455 6.52474 39.867 7.23356 39.867 9.19643C39.867 11.232 40.4455 11.9226 42.1631 11.9226C43.8806 11.9226 44.4411 11.232 44.4411 9.19643Z" fill="black"/>
  <path d="M30.5263 14.2854C26.9646 14.2854 25.3556 12.686 25.3556 9.17826C25.3556 5.70688 26.9646 4.16202 30.5263 4.16202C33.5817 4.16202 35.3173 5.56148 35.48 8.17864H32.6415C32.5692 7.06998 31.8822 6.52474 30.5805 6.52474C28.9172 6.52474 28.3206 7.23356 28.3206 9.19643C28.3206 11.2138 28.9172 11.9226 30.5805 11.9226C31.8822 11.9226 32.5873 11.3047 32.6777 10.0688H35.5162C35.3534 12.8132 33.6178 14.2854 30.5263 14.2854Z" fill="black"/>
  <path d="M24.0316 4.43464V6.77919H21.2655V10.2324C21.2655 10.8322 21.3559 11.2502 21.5547 11.5228C21.9706 12.0317 23.0192 12.0317 24.0316 11.5046V13.8128C23.5435 14.1218 22.8926 14.2854 22.0429 14.2854C19.3852 14.2854 18.3005 13.0677 18.3005 10.2324V6.77919H16.818V4.43464H18.3005V2.0174H21.2655V4.43464H24.0316Z" fill="black"/>
  <path d="M13.9417 2.88979C12.64 2.88979 12.2965 2.58082 12.2965 1.47215C12.2965 0.327146 12.64 0 13.9417 0C15.2615 0 15.6231 0.308971 15.6231 1.47215C15.6231 2.58082 15.2615 2.88979 13.9417 2.88979ZM15.4242 14.0127H12.4773V4.43464H15.4242V14.0127Z" fill="black"/>
  <path d="M8.89544 7.08815V7.43347C9.96212 7.85148 10.6853 8.90562 10.6853 10.4505C10.6853 12.9404 9.3655 14.0127 6.18353 14.0127H0.651245V1.34492H6.27393C8.85928 1.34492 10.161 2.39906 10.161 4.48915C10.161 5.70686 9.74517 6.57925 8.89544 7.08815ZM3.5801 3.72581V6.41568H6.00274C6.87055 6.41568 7.25021 5.99766 7.25021 5.05257C7.25021 4.10748 6.79823 3.72581 5.84002 3.72581H3.5801ZM3.5801 8.65117V11.65H6.12929C7.26829 11.65 7.75644 11.2138 7.75644 10.1415C7.75644 9.14189 7.21406 8.65117 6.12929 8.65117H3.5801Z" fill="black"/>
</svg>