<svg xmlns="http://www.w3.org/2000/svg" width="172" height="67" viewBox="0 0 172 67" fill="none">
  <path d="M87.6663 14.1915C88.9359 14.7822 89.5707 15.9284 89.5707 17.5859C89.5707 20.2881 88.1601 21.5973 85.1316 21.5973H79.0747V7.39844H84.9861C87.6663 7.39844 89.0197 8.58425 89.0197 10.925C89.0197 12.3136 88.6494 13.1953 87.6663 13.8697V14.1915ZM81.4596 13.1468H84.898C86.1279 13.1468 86.6613 12.5957 86.6613 11.2027C86.6613 9.97284 86.0882 9.5232 84.7613 9.5232H81.4596V13.1468ZM81.4596 19.4682H85.0611C86.5555 19.4682 87.2123 18.8951 87.2123 17.4007C87.2123 15.9901 86.432 15.2759 84.898 15.2759H81.4596V19.4682Z" fill="white"/>
  <path d="M91.043 7.33692C91.043 6.25249 91.3692 5.92188 92.4537 5.92188C93.5381 5.92188 93.9084 6.25249 93.9084 7.33692C93.9084 8.42134 93.5778 8.68583 92.4537 8.68583C91.3296 8.68583 91.043 8.37726 91.043 7.33692ZM91.3075 21.5975V10.8767H93.6395V21.5975H91.3075Z" fill="white"/>
  <path d="M102.178 12.8208H98.9602V18.0402C98.9136 18.5612 99.0508 19.0821 99.3481 19.5125C99.5086 19.6713 99.7018 19.793 99.9143 19.8691C100.127 19.9453 100.353 19.974 100.578 19.9534C101.145 19.9477 101.701 19.7959 102.191 19.5125V21.4345C101.619 21.7601 100.968 21.9218 100.309 21.9018C97.792 21.9018 96.6283 20.6543 96.6283 18.0182V12.8208H94.9928V10.8768H96.6283V8.09082H98.9602V10.8768H102.178V12.8208Z" fill="white"/>
  <path d="M103.157 16.2153C103.157 12.3096 104.832 10.5684 108.619 10.5684C111.704 10.5684 113.569 12.001 113.754 14.6812H111.484C111.361 13.2486 110.417 12.5344 108.641 12.5344C106.348 12.5344 105.489 13.5571 105.489 16.2373C105.489 18.9175 106.287 19.9403 108.641 19.9403C110.404 19.9403 111.383 19.1203 111.524 17.5863H113.794C113.609 20.3679 111.748 21.9019 108.619 21.9019C104.854 21.9019 103.157 20.143 103.157 16.2153Z" fill="white"/>
  <path d="M114.962 16.2153C114.962 12.3493 116.659 10.5684 120.508 10.5684C124.272 10.5684 126.009 12.3713 126.009 16.2153C126.009 20.143 124.29 21.9019 120.508 21.9019C116.725 21.9019 114.962 20.143 114.962 16.2153ZM123.677 16.2153C123.677 13.5351 122.857 12.5344 120.508 12.5344C118.158 12.5344 117.294 13.5351 117.294 16.2153C117.294 18.8955 118.132 19.9403 120.508 19.9403C122.884 19.9403 123.655 18.922 123.655 16.2153H123.677Z" fill="white"/>
  <path d="M127.499 7.33692C127.499 6.25249 127.83 5.92188 128.914 5.92188C129.999 5.92188 130.364 6.25249 130.364 7.33692C130.364 8.42134 130.038 8.68583 128.914 8.68583C127.79 8.68583 127.499 8.37726 127.499 7.33692ZM127.768 21.5975V10.8767H130.1V21.5975H127.768Z" fill="white"/>
  <path d="M141.883 14.8442V21.5977H139.551V14.8839C139.551 13.2264 138.815 12.4726 137.321 12.4726C135.623 12.4726 134.764 13.6981 134.764 16.1755V21.5977H132.432V10.8768H134.764V12.552C135.082 11.9226 135.576 11.3997 136.187 11.0474C136.798 10.695 137.498 10.5285 138.202 10.5683C140.799 10.5683 141.883 11.8158 141.883 14.8442Z" fill="white"/>
  <path d="M78.3385 36.4266H80.6087C80.6925 38.5513 81.5521 39.2699 83.6945 39.2699C85.4931 39.2699 86.3967 38.5337 86.3967 37.0657C86.3967 35.902 85.8633 35.2055 84.8186 35.0203L81.7901 34.4473C79.586 34.0417 78.6603 32.8956 78.6603 30.7047C78.6603 28.0245 80.3575 26.5918 83.549 26.5918C86.7406 26.5918 88.3408 28.0024 88.5215 31.1323H86.2292C86.0882 29.3337 85.3476 28.721 83.5094 28.721C81.8519 28.721 81.0143 29.3558 81.0143 30.643C81.0143 31.604 81.5257 32.177 82.5704 32.3622L85.5371 32.9132C87.6839 33.3011 88.7463 34.6765 88.7463 37.0084C88.7463 39.8517 86.983 41.4167 83.6328 41.4167C80.0974 41.4034 78.4399 39.8606 78.3385 36.4266Z" fill="white"/>
  <path d="M96.8531 32.314H93.6218V37.5113C93.5752 38.0323 93.7125 38.5533 94.0098 38.9837C94.17 39.1426 94.3632 39.2645 94.5757 39.3407C94.7883 39.4169 95.0149 39.4455 95.2397 39.4245C95.8064 39.4189 96.3622 39.267 96.8531 38.9837V40.9101C96.2831 41.2449 95.6317 41.4157 94.9708 41.4038C92.4537 41.4038 91.2899 40.1518 91.2899 37.5157V32.314H89.65V30.3832H91.2899V27.584H93.6218V30.3832H96.8531V32.314Z" fill="white"/>
  <path d="M105.63 30.3828H107.962V41.0904H105.63V39.4109C105.314 40.0451 104.818 40.5722 104.204 40.9266C103.59 41.2809 102.886 41.4467 102.178 41.4034C99.5773 41.4034 98.4929 40.1514 98.4929 37.123V30.3828H100.856V37.0789C100.856 38.7364 101.592 39.4946 103.086 39.4946C104.783 39.4946 105.643 38.2647 105.643 35.7917L105.63 30.3828Z" fill="white"/>
  <path d="M118.458 25.5342H120.79V41.0908H118.458V39.1468C117.744 40.6412 116.452 41.3994 114.614 41.3994C111.277 41.3994 109.765 39.5964 109.765 35.6687C109.765 31.8203 111.299 30.0614 114.614 30.0614C116.478 30.0614 117.788 30.7579 118.502 32.1686L118.458 25.5342ZM118.564 35.7436V35.4174C118.502 33.2133 117.334 32.0011 115.125 32.0011C112.917 32.0011 112.075 33.0458 112.075 35.6643C112.075 38.3665 112.956 39.451 115.187 39.451C117.417 39.451 118.564 38.0624 118.564 35.748V35.7436Z" fill="white"/>
  <path d="M133.212 36.405H124.863C125.004 38.6355 125.846 39.4334 128.032 39.4334C129.734 39.4334 130.677 38.9221 130.858 37.8994H133.062C132.877 40.1916 131.096 41.3995 128.006 41.3995C124.263 41.3995 122.584 39.6362 122.584 35.6908C122.584 31.7455 124.219 30.0615 127.909 30.0615C131.599 30.0615 133.199 31.6793 133.199 35.7922L133.212 36.405ZM124.903 34.4609H130.832C130.73 32.7417 129.893 32.0276 127.927 32.0276C125.961 32.0276 125.15 32.68 124.903 34.4609Z" fill="white"/>
  <path d="M144.444 34.3509V41.0911H142.108V34.3774C142.108 32.7199 141.372 31.9661 139.882 31.9661C138.18 31.9661 137.321 33.1916 137.321 35.669V41.0911H134.989V30.3835H137.321V32.0586C137.639 31.4297 138.134 30.9071 138.744 30.5548C139.355 30.2025 140.055 30.0358 140.759 30.0749C143.36 30.0617 144.444 31.3092 144.444 34.3509Z" fill="white"/>
  <path d="M152.935 32.314H149.699V37.5113C149.652 38.0323 149.79 38.5533 150.087 38.9837C150.248 39.1419 150.441 39.2633 150.653 39.3394C150.866 39.4155 151.092 39.4446 151.317 39.4245C151.885 39.4188 152.442 39.267 152.935 38.9837V40.9101C152.364 41.2444 151.713 41.4153 151.052 41.4038C148.535 41.4038 147.367 40.1518 147.367 37.5157V32.314H145.732V30.3832H147.367V27.584H149.699V30.3832H152.935V32.314Z" fill="white"/>
  <path d="M154.059 37.7539H156.205C156.267 38.9 156.964 39.4334 158.599 39.4334C160.071 39.4334 160.803 38.9926 160.803 38.1462C160.831 37.8541 160.746 37.5625 160.567 37.3302C160.388 37.0979 160.127 36.9421 159.838 36.8943L156.977 36.2595C155.258 35.8716 154.297 34.8092 154.297 33.2531C154.297 31.049 155.619 30.0615 158.529 30.0615C161.209 30.0615 162.58 31.1856 162.686 33.4603H160.543C160.442 32.4155 159.869 32.0276 158.498 32.0276C157.127 32.0276 156.514 32.3935 156.514 33.1297C156.504 33.4156 156.605 33.6945 156.795 33.908C156.986 34.1215 157.251 34.2533 157.537 34.2758L160.367 34.9106C162.13 35.2985 163.012 36.3433 163.012 38.0228C163.012 40.3151 161.601 41.3995 158.489 41.3995C155.518 41.4039 154.12 40.2313 154.059 37.7539Z" fill="white"/>
  <path d="M89.9806 46.3848H92.3523V60.5837H88.1159L81.9444 48.5095H81.4595V60.5837H79.0879V46.3848H83.3242L89.4957 58.4942H90.0071L89.9806 46.3848Z" fill="white"/>
  <path d="M104.933 55.8977H96.5886C96.7297 58.1283 97.5716 58.9262 99.7581 58.9262C101.457 58.9262 102.399 58.4148 102.584 57.3921H104.788C104.607 59.6844 102.826 60.8922 99.7361 60.8922C95.9935 60.8922 94.314 59.1289 94.314 55.1615C94.314 51.1941 95.9715 49.5322 99.6523 49.5322C103.333 49.5322 104.942 51.15 104.942 55.2629L104.933 55.8977ZM96.6283 53.9537H102.562C102.46 52.2345 101.623 51.5203 99.6567 51.5203C97.6907 51.5203 96.8884 52.1728 96.6283 53.9537Z" fill="white"/>
  <path d="M112.732 51.8072H109.496V57.0045C109.447 57.5263 109.587 58.0483 109.888 58.4768C110.048 58.6355 110.24 58.7571 110.452 58.8333C110.664 58.9095 110.89 58.9383 111.114 58.9176C111.682 58.912 112.239 58.7602 112.732 58.4768V60.4032C112.159 60.7299 111.508 60.8931 110.849 60.8749C108.332 60.8749 107.164 59.623 107.164 56.9868V51.8072H105.529V49.8631H107.164V47.0771H109.496V49.8631H112.732V51.8072Z" fill="white"/>
  <path d="M126.543 49.8633H128.747L126.785 60.5841H123.201L121.2 51.7676H121.054L119.049 60.5841H115.469L113.503 49.8633H115.707L117.325 58.6797H117.448L119.45 49.8633H122.826L124.832 58.6797H124.956L126.543 49.8633Z" fill="white"/>
  <path d="M129.342 55.2016C129.342 51.3356 131.043 49.5547 134.887 49.5547C138.652 49.5547 140.393 51.3577 140.393 55.2016C140.393 59.1294 138.674 60.8927 134.887 60.8927C131.101 60.8927 129.342 59.1294 129.342 55.2016ZM138.061 55.2016C138.061 52.5214 137.241 51.5208 134.887 51.5208C132.533 51.5208 131.674 52.5214 131.674 55.2016C131.674 57.8818 132.516 58.9266 134.887 58.9266C137.259 58.9266 138.061 57.9215 138.061 55.2016Z" fill="white"/>
  <path d="M144.497 52.4818C145.216 50.5377 146.485 49.5547 148.284 49.5547V51.9087C145.749 51.9087 144.665 53.0548 144.497 56.0833V60.5841H142.165V49.8809H144.497V52.4818Z" fill="white"/>
  <path d="M156.739 60.5835L154.019 55.9504H152.093V60.5747H149.761V45.0312H152.093V54.0152H154.138L156.593 49.8627H159.093L156.007 55.0379L159.26 60.5835H156.739Z" fill="white"/>
  <path d="M53.2865 20.2975H50.5094C50.5093 18.3487 50.0234 16.4306 49.0955 14.7168C48.1676 13.0031 46.8271 11.5477 45.1951 10.4824C43.5632 9.41715 41.6915 8.77556 39.7492 8.61573C37.8069 8.4559 35.8555 8.78286 34.0714 9.56703C32.2873 10.3512 30.7268 11.5678 29.5313 13.1069C28.3357 14.6459 27.5427 16.4587 27.2241 18.3813C26.9055 20.3039 27.0713 22.2756 27.7064 24.118C28.3416 25.9604 29.4261 27.6154 30.8619 28.9332V32.4333C28.9222 31.1771 27.3137 29.4719 26.1727 27.4623C25.0317 25.4526 24.3917 23.1976 24.3068 20.8882C24.3068 20.6942 24.3068 20.4959 24.3068 20.2975C24.3039 18.3942 24.6764 16.509 25.4029 14.7497C26.1294 12.9905 27.1957 11.3918 28.5407 10.0452C29.8857 8.69849 31.4831 7.63027 33.2415 6.90163C34.9998 6.173 36.8845 5.79825 38.7879 5.79883C42.6317 5.8035 46.3168 7.33253 49.0348 10.0505C51.7528 12.7686 53.2819 16.4536 53.2865 20.2975Z" fill="#B860AC"/>
  <path d="M53.2866 46.5127C53.2877 47.5308 53.1798 48.5461 52.9648 49.5412C52.2022 53.0272 50.1804 56.1093 47.2866 58.1974C44.3929 60.2855 40.8306 61.2327 37.2819 60.8576C33.7333 60.4825 30.4477 58.8116 28.0544 56.1647C25.6611 53.5178 24.3283 50.0811 24.3113 46.5127H27.0885C27.0858 48.3866 27.5325 50.2338 28.391 51.8994C29.2495 53.565 30.4949 55.0005 32.0226 56.0856C33.5503 57.1706 35.316 57.8736 37.1714 58.1355C39.0269 58.3975 40.9181 58.2108 42.6865 57.591C44.4549 56.9713 46.049 55.9366 47.335 54.5738C48.6211 53.2109 49.5616 51.5596 50.0779 49.7582C50.5941 47.9569 50.6709 46.058 50.3019 44.2209C49.9329 42.3837 49.1288 40.6618 47.957 39.1995C47.7682 38.0112 47.3316 36.8758 46.6754 35.8673C46.0192 34.8587 45.1582 33.9995 44.1483 33.3454L44.4437 33.1426C46.9757 34.2191 49.1505 35.9916 50.7158 38.2544C52.281 40.5172 53.1724 43.1774 53.2866 45.9264C53.2822 46.1204 53.2866 46.3144 53.2866 46.5127Z" fill="#B860AC"/>
  <path d="M47.957 39.2001C47.7682 38.0117 47.3315 36.8764 46.6754 35.8679C46.0192 34.8593 45.1582 34.0001 44.1483 33.3459L44.4436 33.1432C45.9288 32.088 47.0399 30.5877 47.6162 28.8594C48.1926 27.1311 48.2043 25.2643 47.6497 23.5289C47.0951 21.7935 46.003 20.2794 44.5312 19.2057C43.0594 18.1319 41.2842 17.554 39.4623 17.5557H30.9148V17.7761H30.8619V49.0348H30.9148V49.1539H39.4623C41.7403 49.1515 43.9242 48.2456 45.535 46.6348C47.1457 45.0241 48.0516 42.8401 48.054 40.5622C48.0605 40.1062 48.0281 39.6505 47.957 39.2001ZM33.6391 20.3329H39.4623C40.9773 20.3746 42.4162 21.0057 43.473 22.092C44.5298 23.1783 45.1211 24.634 45.1211 26.1495C45.1211 27.665 44.5298 29.1208 43.473 30.2071C42.4162 31.2933 40.9773 31.9245 39.4623 31.9662H33.6391V20.3329ZM39.4623 46.3767H33.6391V34.7434H39.4623C40.9773 34.7851 42.4162 35.4162 43.473 36.5025C44.5298 37.5888 45.1211 39.0445 45.1211 40.56C45.1211 42.0755 44.5298 43.5313 43.473 44.6176C42.4162 45.7038 40.9773 46.335 39.4623 46.3767Z" fill="#B860AC"/>
  <path d="M64.1661 51.7457V15.0692C65.5471 14.7298 66.7561 13.8965 67.5646 12.7265C68.373 11.5565 68.7251 10.1309 68.5542 8.71911C68.3832 7.30727 67.7012 6.00691 66.6369 5.06367C65.5725 4.12042 64.1996 3.59961 62.7775 3.59961C61.3553 3.59961 59.9824 4.12042 58.9181 5.06367C57.8538 6.00691 57.1717 7.30727 57.0008 8.71911C56.8299 10.1309 57.1819 11.5565 57.9904 12.7265C58.7989 13.8965 60.0078 14.7298 61.3889 15.0692V51.7457C60.8168 51.884 60.2696 52.11 59.7666 52.4157L53.2777 45.9268C53.2777 46.1208 53.2777 46.3147 53.2777 46.5131C53.2789 47.5312 53.171 48.5465 52.9559 49.5416L57.805 54.3906C57.1711 55.4403 56.885 56.6635 56.9876 57.8854C57.0902 59.1074 57.5763 60.2657 58.3763 61.195C59.1764 62.1243 60.2496 62.7771 61.4427 63.0602C62.6358 63.3433 63.8879 63.2423 65.0202 62.7715C66.1524 62.3007 67.107 61.4842 67.7477 60.4386C68.3883 59.393 68.6823 58.1717 68.5876 56.9491C68.4929 55.7265 68.0143 54.5651 67.2203 53.6307C66.4263 52.6962 65.3573 52.0365 64.1661 51.7457ZM59.7358 9.42669C59.7381 8.6207 60.0593 7.84839 60.6292 7.27847C61.1992 6.70854 61.9715 6.38734 62.7775 6.38501C63.261 6.38435 63.7374 6.50081 64.1661 6.72444C64.7642 7.04056 65.2398 7.54706 65.5178 8.16383C65.7958 8.7806 65.8602 9.47244 65.7009 10.1299C65.5416 10.7874 65.1676 11.373 64.6382 11.7942C64.1087 12.2153 63.4539 12.4479 62.7775 12.4551C62.3777 12.4551 61.9818 12.3763 61.6124 12.2232C61.2431 12.0701 60.9076 11.8456 60.6251 11.5627C60.3426 11.2798 60.1187 10.944 59.9661 10.5744C59.8135 10.2049 59.7352 9.80886 59.7358 9.40905V9.42669ZM64.1661 60.1213C64.0251 60.1987 63.8776 60.2636 63.7252 60.3153C63.4229 60.411 63.1078 60.4601 62.7907 60.4607C61.9843 60.4596 61.2114 60.1387 60.6412 59.5686C60.071 58.9984 59.7502 58.2254 59.749 57.4191C59.7497 57.102 59.7987 56.7868 59.8945 56.4845C60.0927 55.872 60.4795 55.3378 60.9998 54.9585C61.52 54.5793 62.1469 54.3743 62.7907 54.373C63.2742 54.3723 63.7506 54.4888 64.1793 54.7124C64.6775 54.9671 65.0956 55.3543 65.3876 55.8316C65.6796 56.3088 65.8342 56.8574 65.8342 57.4169C65.8342 57.9763 65.6796 58.525 65.3876 59.0022C65.0956 59.4794 64.6775 59.8667 64.1793 60.1213H64.1661Z" fill="#B860AC"/>
  <path d="M17.8135 14.3947L24.3068 20.888C24.3068 20.694 24.3068 20.4957 24.3068 20.2973C24.2965 19.2777 24.3926 18.2597 24.5934 17.26L19.7443 12.433C20.3788 11.3827 20.6653 10.1589 20.563 8.93616C20.4606 7.7134 19.9746 6.55423 19.1744 5.62407C18.3741 4.6939 17.3005 4.04029 16.1068 3.75651C14.913 3.47273 13.6601 3.57329 12.5269 4.04383C11.3937 4.51437 10.438 5.33085 9.79637 6.37674C9.15472 7.42263 8.85984 8.64447 8.95382 9.8679C9.04779 11.0913 9.52582 12.2538 10.3197 13.1894C11.1135 14.125 12.1827 14.786 13.3744 15.0779V51.7544C12.0242 52.0879 10.8412 52.901 10.0462 54.0423C9.43388 54.9138 9.0721 55.9365 9.00021 56.9992C8.92832 58.062 9.14907 59.1241 9.63846 60.0701C10.1279 61.0162 10.8672 61.8101 11.7761 62.3654C12.685 62.9208 13.7287 63.2164 14.7939 63.2202C15.1325 63.2198 15.4704 63.1888 15.8034 63.1276C17.1178 62.8959 18.3126 62.2197 19.188 61.2122C20.0634 60.2048 20.5662 58.9272 20.6121 57.5933C20.6581 56.2595 20.2445 54.9503 19.4405 53.885C18.6365 52.8197 17.491 52.0628 16.1957 51.7412V15.0691C16.7667 14.9296 17.3125 14.7021 17.8135 14.3947ZM16.5528 54.9063C16.8798 55.1362 17.1582 55.4284 17.3722 55.766C17.5862 56.1037 17.7315 56.4802 17.7999 56.8741C17.8683 57.2679 17.8583 57.6714 17.7706 58.0614C17.683 58.4514 17.5193 58.8203 17.2889 59.147C17.0081 59.5509 16.6308 59.8782 16.1913 60.0992C15.7619 60.3232 15.2848 60.4402 14.8005 60.4402C14.3162 60.4402 13.8391 60.3232 13.4097 60.0992C13.2834 60.0374 13.1625 59.9651 13.0482 59.8832C12.6203 59.5813 12.2774 59.1742 12.0527 58.7012C11.828 58.2281 11.729 57.7052 11.7653 57.1827C11.8017 56.6603 11.9721 56.1561 12.2601 55.7187C12.5482 55.2813 12.9441 54.9256 13.4097 54.6859C13.8418 54.4634 14.3211 54.3485 14.8071 54.3509C15.2891 54.3507 15.764 54.4672 16.1913 54.6903C16.3171 54.7531 16.4379 54.8253 16.5528 54.9063ZM14.7895 12.4595C14.113 12.4522 13.4583 12.2196 12.9288 11.7985C12.3993 11.3774 12.0254 10.7917 11.866 10.1342C11.7067 9.47675 11.7711 8.78491 12.0491 8.16814C12.3271 7.55137 12.8028 7.04487 13.4009 6.72876C13.5416 6.65083 13.6892 6.58591 13.8417 6.5348C14.1425 6.43902 14.4562 6.38995 14.7719 6.38932C15.579 6.38932 16.3531 6.70964 16.9242 7.27994C17.4953 7.85024 17.8168 8.62389 17.8179 9.431C17.8172 9.74954 17.7682 10.0661 17.6725 10.37C17.4717 10.9748 17.0865 11.5016 16.571 11.8764C16.0555 12.2512 15.4356 12.4551 14.7983 12.4595H14.7895Z" fill="#B860AC"/>
</svg>