<svg width="26" height="26" viewBox="0 0 26 26" fill="none" xmlns="http://www.w3.org/2000/svg">
<path d="M6.66634 13.9999H19.333V11.9999H6.66634V13.9999ZM13.002 25.6666C11.25 25.6666 9.60323 25.3341 8.06167 24.6693C6.52012 24.0044 5.17923 23.102 4.03901 21.9623C2.89879 20.8225 1.99601 19.4821 1.33067 17.9413C0.665563 16.4004 0.333008 14.754 0.333008 13.0023C0.333008 11.2503 0.665452 9.60347 1.33034 8.06192C1.99523 6.52036 2.89756 5.17947 4.03734 4.03925C5.17712 2.89903 6.51745 1.99625 8.05834 1.33092C9.59923 0.665807 11.2456 0.333252 12.9973 0.333252C14.7493 0.333252 16.3961 0.665696 17.9377 1.33058C19.4792 1.99547 20.8201 2.89781 21.9603 4.03759C23.1006 5.17736 24.0033 6.5177 24.6687 8.05859C25.3338 9.59947 25.6663 11.2458 25.6663 12.9976C25.6663 14.7496 25.3339 16.3964 24.669 17.9379C24.0041 19.4795 23.1018 20.8204 21.962 21.9606C20.8222 23.1008 19.4819 24.0036 17.941 24.6689C16.4001 25.334 14.7538 25.6666 13.002 25.6666ZM12.9997 23.6666C15.9775 23.6666 18.4997 22.6333 20.5663 20.5666C22.633 18.4999 23.6663 15.9777 23.6663 12.9999C23.6663 10.0221 22.633 7.49992 20.5663 5.43325C18.4997 3.36659 15.9775 2.33325 12.9997 2.33325C10.0219 2.33325 7.49967 3.36659 5.43301 5.43325C3.36634 7.49992 2.33301 10.0221 2.33301 12.9999C2.33301 15.9777 3.36634 18.4999 5.43301 20.5666C7.49967 22.6333 10.0219 23.6666 12.9997 23.6666Z" fill="#B860AC"/>
</svg>
