<svg width="35" height="35" viewBox="0 0 35 35" fill="none" xmlns="http://www.w3.org/2000/svg">
<path d="M29.5312 0H5.46875C2.44844 0 0 2.44844 0 5.46875V29.5312C0 32.5516 2.44844 35 5.46875 35H29.5312C32.5516 35 35 32.5516 35 29.5312V5.46875C35 2.44844 32.5516 0 29.5312 0Z" fill="#530D80"/>
<g clip-path="url(#clip0_275_78)">
<path d="M26.34 14.9802C26.34 15.3302 26.22 15.5902 25.8 15.5702C25.7 15.5702 25.59 15.5702 25.48 15.5202C25.07 15.5202 24.66 15.4602 24.24 15.4402C23.4066 15.3951 22.5721 15.5071 21.78 15.7702C20.9762 16.0366 20.2274 16.4466 19.57 16.9802L19.37 17.1402C18.9377 17.5159 18.5487 17.9385 18.21 18.4002C17.8686 18.8417 17.6141 19.3439 17.46 19.8802C17.275 20.4688 17.1543 21.0757 17.1 21.6902V22.4602C17.1 23.0102 17.1 23.5602 17.1 24.1102C17.0849 24.3934 17.0849 24.6771 17.1 24.9602C17.1149 25.1132 17.1149 25.2673 17.1 25.4202L17.04 25.6502C17.0438 25.6801 17.0438 25.7104 17.04 25.7402C17.04 25.7402 16.99 25.7402 16.97 25.7402C16.95 25.7402 16.84 25.7402 16.79 25.7402C16.74 25.7402 16.74 25.5402 16.79 25.4602C16.7949 25.4271 16.7949 25.3934 16.79 25.3602C16.774 25.4704 16.7438 25.5779 16.7 25.6802C16.6636 25.7911 16.6168 25.8983 16.56 26.0002C16.4072 26.296 16.2228 26.5743 16.01 26.8302C15.93 26.9402 15.86 27.0502 15.77 27.1602C15.5906 27.3649 15.3775 27.5373 15.14 27.6702C14.88 27.8302 14.6 27.9602 14.34 28.1302L13.51 28.6302L13.12 28.8602C13.12 28.8602 13.12 17.0602 13.12 17.0402V13.5402C13.12 13.3802 13.12 13.2102 13.12 13.0502L14.02 12.6302C14.32 12.4902 14.65 12.3702 14.93 12.2102C15.04 12.1502 15.13 12.0502 15.25 11.9802C15.3519 11.9206 15.459 11.8704 15.57 11.8302C15.8358 11.7702 16.1075 11.74 16.38 11.7402C16.68 11.8702 16.69 12.1502 16.73 12.4102C16.7842 12.8529 16.9849 13.2647 17.3 13.5802C17.4344 13.7359 17.5989 13.8628 17.7835 13.9535C17.9681 14.0441 18.1691 14.0966 18.3745 14.1078C18.5799 14.119 18.7854 14.0887 18.9788 14.0187C19.1721 13.9486 19.3494 13.8403 19.5 13.7002C19.64 13.5902 19.73 13.4302 19.9 13.3602C19.9849 13.3352 20.0751 13.3352 20.16 13.3602C20.5103 13.4932 20.8942 13.5096 21.2545 13.4069C21.6149 13.3042 21.9324 13.0879 22.16 12.7902C22.8944 12.8231 23.6194 12.9681 24.31 13.2202C24.8694 13.3586 25.3917 13.6181 25.84 13.9802C25.993 14.0987 26.1174 14.2501 26.204 14.4233C26.2905 14.5964 26.337 14.7867 26.34 14.9802Z" fill="white"/>
<path d="M13.68 8.60018C13.7688 8.71314 13.8916 8.79453 14.0303 8.83235C14.1689 8.87016 14.3161 8.86239 14.45 8.81018C14.45 8.81018 14.26 8.53018 14.24 8.49018C14.182 8.37947 14.1384 8.26187 14.11 8.14018C14.045 7.87071 14.045 7.58966 14.11 7.32018C14.11 7.13018 14.25 6.98018 14.47 7.01018C14.4974 7.21665 14.5702 7.41448 14.6831 7.58946C14.7961 7.76444 14.9464 7.91222 15.1233 8.02217C15.3002 8.13213 15.4993 8.20153 15.7062 8.2254C15.9131 8.24926 16.1227 8.22699 16.32 8.16018C16.7996 8.0822 17.2842 8.03875 17.77 8.03018C18.2764 8.04599 18.7781 8.13352 19.26 8.29018C19.4449 8.34611 19.6228 8.42329 19.79 8.52018C19.9559 8.62979 20.1337 8.72036 20.32 8.79018C20.4735 8.83961 20.6128 8.92545 20.726 9.04038C20.8392 9.15531 20.9229 9.2959 20.97 9.45018C20.9681 9.48057 20.9589 9.51005 20.9433 9.53616C20.9276 9.56226 20.9059 9.58422 20.88 9.60018C20.78 9.66018 20.66 9.66018 20.57 9.72018C20.4717 9.80215 20.357 9.86197 20.2335 9.89556C20.1101 9.92916 19.9808 9.93574 19.8546 9.91486C19.7283 9.89398 19.6081 9.84613 19.502 9.77457C19.396 9.70301 19.3066 9.60942 19.24 9.50018C19.0016 9.32403 18.7035 9.24861 18.41 9.29018C18.1699 9.29319 17.9336 9.35054 17.7188 9.45792C17.5041 9.5653 17.3164 9.71992 17.17 9.91018C17.1391 9.96729 17.1022 10.0209 17.06 10.0702C16.79 10.4002 16.78 10.9402 16.24 11.0702C16.06 11.0702 15.86 11.0702 15.68 11.0702L15.1 11.1302C14.7082 11.1802 14.3117 11.1802 13.92 11.1302H13.38C13.3608 10.9884 13.3889 10.8443 13.46 10.7202C13.53 10.5602 13.57 10.3902 13.63 10.2402C13.667 10.1585 13.6861 10.0699 13.6861 9.98018C13.6861 9.89051 13.667 9.80187 13.63 9.72018C13.5767 9.61837 13.5016 9.52959 13.41 9.46018C13.3543 9.42763 13.3066 9.38325 13.27 9.33018C13.1521 9.14641 13.0674 8.94331 13.02 8.73018C13.0051 8.62404 13.0051 8.51633 13.02 8.41018L13.12 8.06018L13.68 8.60018Z" fill="white"/>
<path d="M17.84 10.4499C17.9476 10.2372 18.1276 10.07 18.3476 9.97829C18.5677 9.88662 18.8132 9.87654 19.04 9.94989L19.17 10.0699C19.502 10.5076 19.6964 11.0341 19.7285 11.5825C19.7605 12.1309 19.6288 12.6765 19.35 13.1499C18.63 13.7399 18.16 13.6299 17.79 12.7699C17.5014 12.02 17.5194 11.1867 17.84 10.4499Z" fill="white"/>
<path d="M20.57 10.3401C20.6951 10.2452 20.8479 10.1938 21.005 10.1938C21.1621 10.1938 21.3148 10.2452 21.44 10.3401C21.7716 10.8415 21.9199 11.442 21.86 12.0401C21.62 12.4701 21.59 13.1601 20.86 13.0401C20.4 12.9701 20.07 12.0401 20.19 11.3801C20.2568 11.0144 20.3853 10.6627 20.57 10.3401Z" fill="white"/>
</g>
<defs>
<clipPath id="clip0_275_78">
<rect width="13.34" height="21.85" fill="white" transform="translate(13 7)"/>
</clipPath>
</defs>
</svg>
