<svg xmlns="http://www.w3.org/2000/svg" width="42" height="40" viewBox="0 0 42 40" fill="none">
  <path d="M25.7345 32.7831C29.2473 32.1177 31.7164 29.5585 33.1418 25.1056C33.8545 22.9047 34.2109 20.7294 34.2109 18.5797C34.2109 18.3237 34.2109 18.0934 34.2109 17.8887C34.16 17.7351 34.1091 17.3512 34.0582 16.737L25.7345 16.737L25.7345 -1.42197e-06L42 0L42 15.4319C42 23.007 40.4982 28.842 37.4945 32.9367C34.4909 37.0313 30.5709 39.3858 25.7345 40L25.7345 32.7831ZM6.30921e-07 32.7831C2.8 32.3225 4.93818 30.7358 6.41454 28.023C7.84 25.3103 8.55273 22.1881 8.55273 18.6564C8.55273 18.3493 8.55273 18.0422 8.55273 17.7351C8.50182 17.428 8.42546 17.0953 8.32364 16.737L2.03371e-06 16.737L3.49691e-06 -3.67176e-06L16.3418 -2.24311e-06L16.3418 15.4319C16.3418 21.5227 15.0691 26.9482 12.5236 31.7083C9.97818 36.5195 5.80363 39.2834 0 40L6.30921e-07 32.7831Z" fill="#B860AC"/>
</svg>