<svg xmlns="http://www.w3.org/2000/svg" width="65" height="64" viewBox="0 0 65 64" fill="none">
  <path d="M57.588 54.8978C56.7347 54.8978 55.8529 54.8978 54.9996 54.8978C54.1462 54.8978 54.4307 54.8978 54.4307 54.3289C54.4307 49.8631 54.4307 45.3974 54.4307 40.96C54.4307 40.0783 54.2031 39.68 53.6911 39.68C53.1791 39.68 52.8947 40.0498 52.8947 40.9031V54.4143C52.8947 54.8125 52.8947 54.8978 52.4396 54.8978H47.348C47.0351 54.8978 46.8929 54.8978 46.8929 54.4711V29.8667C46.8929 29.4116 47.0351 29.2694 47.4618 29.2694C49.0831 29.2694 50.7044 29.2694 52.2973 29.2694C52.7524 29.2694 52.9231 29.2694 52.8947 29.8667V37.4329C52.8945 37.6167 52.9655 37.7934 53.0928 37.926C53.2201 38.0585 53.3937 38.1367 53.5773 38.144C53.7541 38.1791 53.9376 38.1458 54.0908 38.0507C54.2439 37.9557 54.3552 37.806 54.4022 37.632C54.4303 37.4625 54.4303 37.2895 54.4022 37.12C54.4022 34.6738 54.4022 32.256 54.4022 29.8383C54.4456 29.5519 54.4211 29.2593 54.3306 28.9841C54.2402 28.7089 54.0864 28.4589 53.8815 28.2541C53.6767 28.0492 53.4266 27.8954 53.1515 27.805C52.8763 27.7145 52.5837 27.69 52.2973 27.7334H47.5756C46.0111 27.7334 45.3569 28.3591 45.3569 29.952V54.4427C45.3569 54.784 45.3569 54.9263 44.9302 54.8978C44.4471 54.8694 43.9627 54.8694 43.4796 54.8978C42.996 54.8978 42.8253 54.8978 42.8538 54.3005V35.3565C42.881 35.0821 42.8465 34.805 42.7527 34.5457C42.659 34.2863 42.5085 34.0512 42.3121 33.8576C42.1157 33.664 41.8786 33.5167 41.6179 33.4266C41.3573 33.3365 41.0798 33.3059 40.8058 33.3369H35.9987C34.4058 33.3369 33.7516 33.9911 33.7516 35.5556V52.0249C33.7516 52.8498 33.7516 53.7031 33.7516 54.528C33.7516 54.8409 33.7516 54.9263 33.3818 54.8978C32.8322 54.8694 32.2816 54.8694 31.732 54.8978C31.3338 54.8978 31.22 54.8978 31.22 54.4143C31.22 51.5698 31.22 48.4978 31.22 45.5396V40.8747C31.2356 40.63 31.2007 40.3847 31.1177 40.1539C31.0346 39.9232 30.9051 39.712 30.7371 39.5334C30.5691 39.3547 30.3663 39.2124 30.1411 39.1154C29.9159 39.0183 29.6732 38.9684 29.428 38.9689H23.9667C23.7364 38.9613 23.507 38.9997 23.2918 39.0817C23.0765 39.1637 22.8797 39.2878 22.7129 39.4466C22.5461 39.6055 22.4126 39.796 22.3202 40.007C22.2278 40.218 22.1783 40.4453 22.1747 40.6756V47.4454C22.1668 47.6078 22.2128 47.7682 22.3053 47.9019C22.3979 48.0356 22.5319 48.1351 22.6867 48.1849C22.8161 48.254 22.9651 48.2775 23.1095 48.2517C23.254 48.2259 23.3855 48.1523 23.4831 48.0427C23.5771 47.9405 23.6465 47.8182 23.6859 47.6851C23.7254 47.552 23.7338 47.4116 23.7107 47.2747C23.7107 45.2267 23.7107 43.1503 23.7107 41.1023C23.7107 40.6471 23.7107 40.4765 24.2796 40.5049H29.1436C29.5987 40.5049 29.7409 40.5049 29.7409 41.0738V54.4427C29.7409 54.8125 29.7409 54.9263 29.2858 54.8978H24.1373C23.7676 54.8978 23.6538 54.8978 23.6822 54.4427C23.6822 53.3049 23.6822 52.1387 23.6822 51.0009V50.6596C23.6822 50.1191 23.3978 49.8063 22.9427 49.8063C22.8319 49.8015 22.7213 49.8207 22.6186 49.8627C22.516 49.9047 22.4236 49.9684 22.3479 50.0495C22.2723 50.1306 22.215 50.2271 22.1802 50.3324C22.1454 50.4378 22.1338 50.5494 22.1462 50.6596V54.4996C22.1462 54.8409 22.1462 54.9263 21.748 54.8978C21.2174 54.8694 20.6857 54.8694 20.1551 54.8978C19.7284 54.8978 19.6431 54.8978 19.6431 54.4143C19.6431 51.7974 19.6431 49.2089 19.6431 46.592C19.6808 46.318 19.6546 46.0389 19.5664 45.7767C19.4783 45.5145 19.3306 45.2762 19.135 45.0806C18.9394 44.885 18.7011 44.7373 18.4389 44.6492C18.1767 44.561 17.8976 44.5348 17.6236 44.5725H12.5889C12.3148 44.5348 12.0358 44.561 11.7735 44.6492C11.5113 44.7373 11.2731 44.885 11.0775 45.0806C10.8819 45.2762 10.7342 45.5145 10.646 45.7767C10.5579 46.0389 10.5316 46.318 10.5693 46.592C10.5693 49.2374 10.5693 51.8543 10.5693 54.4427C10.5693 54.8125 10.5693 54.9263 10.1142 54.9263C9.09022 54.9263 8.06622 54.9263 7.04222 54.9263C6.939 54.9224 6.83607 54.9395 6.73958 54.9763C6.64309 55.0132 6.55504 55.0692 6.48068 55.1409C6.40633 55.2126 6.3472 55.2986 6.30684 55.3936C6.26647 55.4887 6.24571 55.591 6.24578 55.6943C6.24178 55.7962 6.2589 55.8978 6.29608 55.9928C6.33326 56.0878 6.38969 56.1741 6.46182 56.2462C6.53395 56.3183 6.62022 56.3748 6.71521 56.412C6.8102 56.4491 6.91185 56.4663 7.01378 56.4623H57.588C57.8048 56.4873 58.0244 56.459 58.2277 56.3796C58.431 56.3003 58.6117 56.1724 58.7542 56.0071V55.4667C58.6304 55.2743 58.4562 55.1196 58.2506 55.0193C58.045 54.919 57.8158 54.877 57.588 54.8978ZM18.1071 54.528C18.1071 54.8125 18.1071 54.8978 17.7373 54.8978H12.5889C12.2191 54.8978 12.2191 54.7556 12.2191 54.4996V46.6774C12.2191 46.2791 12.2191 46.08 12.7596 46.08C14.4093 46.08 16.0591 46.08 17.6804 46.08C18.0787 46.08 18.2209 46.08 18.2209 46.592C18.0787 49.2658 18.1071 51.8827 18.1071 54.528ZM41.3178 54.528C41.3178 54.8978 41.3178 55.0116 40.8342 55.0116C39.156 55.0116 37.4778 55.0116 35.7711 55.0116C35.4013 55.0116 35.2876 55.0116 35.2876 54.5565V35.5556C35.2876 35.072 35.2876 34.8729 35.9133 34.8729C37.5062 34.8729 39.1276 34.8729 40.7489 34.8729C41.1756 34.8729 41.3178 35.0436 41.3178 35.4703C41.2988 41.7849 41.2988 48.1091 41.3178 54.4427V54.528Z" fill="#B860AC"/>
  <path d="M48.6849 18.8018L47.9169 11.0649C47.9169 10.6951 47.7462 10.7235 47.4902 10.8089L39.9525 12.8L41.4316 13.8524C42.1996 14.3929 42.2849 14.6489 41.7729 15.4453C40.647 17.2389 39.3101 18.891 37.7907 20.3662C37.7186 20.4503 37.6291 20.5179 37.5285 20.5641C37.4278 20.6104 37.3184 20.6344 37.2076 20.6344C37.0968 20.6344 36.9873 20.6104 36.8867 20.5641C36.786 20.5179 36.6966 20.4503 36.6245 20.3662C36.5403 20.2941 36.4728 20.2047 36.4265 20.104C36.3802 20.0034 36.3563 19.8939 36.3563 19.7831C36.3563 19.6723 36.3802 19.5628 36.4265 19.4622C36.4728 19.3615 36.5403 19.2721 36.6245 19.2C37.8651 17.97 38.9888 16.6273 39.9809 15.1893C40.18 14.9333 40.1516 14.7911 39.9809 14.6204L37.7907 13.1129C37.6422 13.0373 37.5212 12.917 37.4447 12.7691C37.3681 12.6211 37.3399 12.4528 37.364 12.288C37.4139 12.1077 37.5217 11.9488 37.6707 11.8357C37.8197 11.7226 38.0018 11.6617 38.1889 11.6622L48.2867 9.04533C49.0262 8.84622 49.396 9.04533 49.4813 9.89866C49.8227 13.3404 50.164 16.7822 50.5338 20.2524C50.5667 20.4185 50.5459 20.5908 50.4743 20.7443C50.4027 20.8977 50.284 21.0243 50.1356 21.1058C50.0037 21.2028 49.8442 21.2551 49.6805 21.2551C49.5167 21.2551 49.3572 21.2028 49.2253 21.1058C48.5142 20.5938 47.8031 20.1387 47.092 19.5982C46.8076 19.3991 46.6938 19.4275 46.4662 19.5982C43.4167 23.4779 39.6387 26.7244 35.3445 29.1556C30.661 31.88 25.5256 33.7395 20.1836 34.6453C18.3347 34.9867 16.4858 35.1858 14.4947 35.3564C14.1425 35.4075 13.7832 35.3472 13.467 35.184C13.1508 35.0208 12.8935 34.7628 12.7311 34.4462C12.544 34.1689 12.4441 33.8421 12.4441 33.5075C12.4441 33.173 12.544 32.8462 12.7311 32.5689C13.0234 32.2065 13.4383 31.9637 13.8973 31.8862C17.1205 30.8814 20.267 29.6456 23.3125 28.1884C27.049 26.424 30.5549 24.2077 33.7516 21.5893L34.3773 21.3333C34.4465 21.2593 34.5302 21.2002 34.6232 21.1598C34.7162 21.1194 34.8164 21.0986 34.9178 21.0986C35.0191 21.0986 35.1194 21.1194 35.2124 21.1598C35.3054 21.2002 35.389 21.2593 35.4582 21.3333C35.5413 21.4 35.6083 21.4844 35.6544 21.5804C35.7004 21.6764 35.7243 21.7815 35.7243 21.888C35.7243 21.9945 35.7004 22.0996 35.6544 22.1956C35.6083 22.2916 35.5413 22.376 35.4582 22.4427C34.6618 23.0969 33.8938 23.7227 33.0689 24.32C28.0678 27.9367 22.5424 30.7665 16.6849 32.7111L14.6085 33.3938C14.6085 33.3938 14.2671 33.3938 14.324 33.6782C14.3809 33.9627 14.5516 33.8204 14.6938 33.6782C23.303 33.227 31.5907 30.26 38.5302 25.1449C41.1672 23.1056 43.5204 20.7237 45.5276 18.0622C46.1533 17.2089 46.3809 17.1804 47.2342 17.7778L48.5427 18.6595L48.6849 18.8018Z" fill="#B860AC"/>
</svg>