<svg width="65" height="64" viewBox="0 0 65 64" fill="none" xmlns="http://www.w3.org/2000/svg">
<path d="M57.76 45.6533C57.5195 44.1347 56.9065 42.6994 55.9758 41.4755C55.0452 40.2517 53.8258 39.2775 52.4266 38.64C51.0209 37.9442 49.4595 37.6228 47.8933 37.7066C47.36 37.7066 47.36 37.7066 47.52 37.2267C48.4445 34.6664 48.6925 31.9108 48.24 29.2267C48.0803 28.318 47.8393 27.4255 47.52 26.56C47.52 26.3466 47.3333 26.08 47.7066 26.1333C48.1941 26.1868 48.6859 26.1868 49.1733 26.1333C51.4582 25.9517 53.5995 24.9474 55.2 23.3066C56.8043 21.7407 57.7569 19.6259 57.8666 17.3866C58.0373 15.8132 57.8269 14.2217 57.2533 12.7466C57.0383 12.1874 56.7515 11.6585 56.4 11.1733C56.2819 11.0103 56.1084 10.896 55.912 10.8518C55.7156 10.8076 55.5098 10.8366 55.3333 10.9333C55.1517 11.035 55.0135 11.1995 54.9448 11.396C54.876 11.5924 54.8814 11.8072 54.96 12C55.0327 12.1939 55.1219 12.3813 55.2266 12.56C55.9546 13.8735 56.2982 15.3655 56.218 16.8651C56.1379 18.3647 55.6372 19.8115 54.7733 21.04C54.5333 21.3866 54.5066 21.3866 54.32 21.04C53.8562 19.971 53.1093 19.049 52.16 18.3733C52.0846 18.3368 52.0175 18.2852 51.9628 18.2217C51.9081 18.1583 51.867 18.0843 51.8421 18.0043C51.8171 17.9244 51.8087 17.8402 51.8176 17.7569C51.8264 17.6735 51.8521 17.5929 51.8933 17.52C52.3202 16.2482 52.3202 14.8718 51.8933 13.6C51.6775 12.9459 51.2838 12.365 50.7562 11.9222C50.2287 11.4794 49.5882 11.1924 48.9066 11.0933C48.2236 10.9271 47.5065 10.9677 46.8466 11.2098C46.1866 11.452 45.6135 11.8848 45.2 12.4533C44.6641 13.1703 44.3234 14.0141 44.2112 14.9022C44.099 15.7903 44.2192 16.6922 44.56 17.52C44.6299 17.6629 44.6441 17.8268 44.5997 17.9797C44.5553 18.1325 44.4556 18.2634 44.32 18.3466C43.3485 19.0194 42.575 19.9403 42.08 21.0133C42.08 21.0133 42.08 21.2533 41.8933 21.2533C41.7066 21.2533 41.76 21.2533 41.7066 21.0933C40.5792 19.556 40.0572 17.6576 40.24 15.76C40.3593 13.8234 41.2072 12.0037 42.6133 10.6666C43.8852 9.4317 45.5314 8.65422 47.2931 8.45632C49.0548 8.25843 50.8324 8.65133 52.3466 9.57332C52.5455 9.6904 52.7502 9.79721 52.96 9.89332C53.1509 10.0029 53.3776 10.0322 53.5902 9.9747C53.8027 9.91719 53.9837 9.7776 54.0933 9.58665C54.2029 9.39569 54.2322 9.16901 54.1747 8.95647C54.1172 8.74393 53.9776 8.56294 53.7866 8.45332C53.4785 8.20952 53.1482 7.99525 52.8 7.81332C51.6874 7.19173 50.4462 6.8358 49.1733 6.77332C49.0806 6.81293 48.9808 6.83335 48.88 6.83335C48.7791 6.83335 48.6794 6.81293 48.5866 6.77332H47.2C46.0031 6.84356 44.8349 7.16759 43.7728 7.7239C42.7108 8.28021 41.7792 9.05607 41.04 9.99998C40.1882 10.9461 39.5384 12.0561 39.1304 13.262C38.7223 14.4679 38.5645 15.7444 38.6666 17.0133C38.6666 17.28 38.6666 17.28 38.3733 17.2H38.1066C35.8389 16.4154 33.4257 16.1422 31.04 16.4C29.7756 16.4926 28.5292 16.7526 27.3333 17.1733C27.12 17.1733 26.9066 17.1733 26.96 16.96C27.0275 16.4734 27.0275 15.9799 26.96 15.4933C26.7956 13.7471 26.1573 12.0789 25.114 10.669C24.0706 9.25903 22.6619 8.16095 21.04 7.49332C20.1984 7.11254 19.2951 6.8867 18.3733 6.82665H16.0266C15.6266 6.82665 15.2 6.82665 14.7733 6.98665C12.6595 7.50139 10.7807 8.71322 9.43998 10.4266C8.32376 11.7871 7.63693 13.4485 7.46664 15.2V15.4933C7.50626 15.586 7.52668 15.6858 7.52668 15.7866C7.52668 15.8875 7.50626 15.9873 7.46664 16.08V17.5466C7.46664 17.9733 7.46664 18.4 7.67998 18.8C8.00487 20.0487 8.57549 21.2202 9.35846 22.2458C10.1414 23.2715 11.121 24.1307 12.24 24.7733C13.8455 25.7385 15.7025 26.2028 17.5733 26.1066C18.16 26.1066 18.1866 26.1066 17.9733 26.64C17.1904 28.9081 16.9173 31.3209 17.1733 33.7066C17.2777 34.9432 17.5376 36.1617 17.9466 37.3333C17.9466 37.52 17.9466 37.7333 17.76 37.6533C17.1782 37.5466 16.5818 37.5466 16 37.6533C13.5555 37.9069 11.3022 39.0908 9.70664 40.96C8.41623 42.3943 7.62967 44.2109 7.46664 46.1333V48.48C7.46664 48.9067 7.46664 49.3333 7.65331 49.7333C7.94508 50.9751 8.47875 52.1472 9.22381 53.1826C9.96886 54.218 10.9107 55.0964 11.9955 55.7675C13.0802 56.4387 14.2866 56.8895 15.5457 57.0941C16.8048 57.2987 18.0919 57.2531 19.3333 56.96C20.6709 56.6825 21.9319 56.1163 23.0281 55.3011C24.1243 54.4859 25.0293 53.4412 25.68 52.24C26.6084 50.6223 27.044 48.7686 26.9333 46.9067C26.9333 46.56 26.9333 46.5333 27.3866 46.6933C29.9539 47.5871 32.7039 47.8254 35.3866 47.3867C36.3025 47.2467 37.1979 46.9959 38.0533 46.64C38.32 46.64 38.5066 46.64 38.4266 46.9333C38.3603 47.4021 38.3603 47.8779 38.4266 48.3466C38.5586 49.7288 38.9839 51.0669 39.6741 52.2715C40.3644 53.4762 41.3037 54.5198 42.4294 55.3325C43.5551 56.1452 44.8412 56.7084 46.2019 56.9845C47.5626 57.2605 48.9666 57.2431 50.32 56.9333C52.0698 56.5881 53.6711 55.7129 54.9066 54.4266C56.091 53.329 56.975 51.9467 57.4744 50.4111C57.9738 48.8755 58.0721 47.2376 57.76 45.6533ZM46 14.6133C46.0408 14.0286 46.304 13.4817 46.7354 13.085C47.1669 12.6882 47.7339 12.4717 48.32 12.48C48.9153 12.4858 49.4862 12.7177 49.917 13.1286C50.3477 13.5396 50.6062 14.0989 50.64 14.6933V15.52C50.6764 15.83 50.6764 16.1433 50.64 16.4533C50.5211 16.9938 50.215 17.4748 49.7759 17.8115C49.3368 18.1482 48.7928 18.3188 48.24 18.2933C47.6771 18.2684 47.143 18.0372 46.7397 17.6437C46.3364 17.2503 46.0921 16.7221 46.0533 16.16C45.9822 15.6476 45.9643 15.1293 46 14.6133ZM45.7866 19.2266C45.8665 19.1639 45.9651 19.1298 46.0666 19.1298C46.1682 19.1298 46.2668 19.1639 46.3466 19.2266C46.9347 19.593 47.6138 19.7872 48.3066 19.7872C48.9995 19.7872 49.6786 19.593 50.2666 19.2266C50.3465 19.1639 50.4451 19.1298 50.5466 19.1298C50.6482 19.1298 50.7468 19.1639 50.8266 19.2266C51.4173 19.5699 51.9336 20.0272 52.3457 20.572C52.7577 21.1168 53.0572 21.7382 53.2266 22.4C53.273 22.5065 53.2767 22.6267 53.237 22.7359C53.1973 22.8451 53.1173 22.9348 53.0133 22.9866C51.6357 23.9707 49.9862 24.5019 48.2933 24.5066C46.6237 24.4853 44.9985 23.9653 43.6266 23.0133C43.5043 22.9655 43.4054 22.872 43.3507 22.7526C43.2959 22.6332 43.2897 22.4972 43.3333 22.3733C43.4969 21.7197 43.7885 21.105 44.1913 20.5648C44.5941 20.0247 45.1001 19.5699 45.68 19.2266H45.7866ZM36.7466 19.4667C36.8665 19.2698 37.0319 19.1046 37.2289 18.985C37.4258 18.8653 37.6486 18.7947 37.8785 18.779C38.1085 18.7633 38.3388 18.8031 38.5502 18.8949C38.7616 18.9867 38.9478 19.1279 39.0933 19.3066C39.1621 19.3952 39.2161 19.4942 39.2533 19.6C39.7347 20.9341 40.5057 22.1449 41.5108 23.1455C42.516 24.146 43.7304 24.9114 45.0666 25.3867C45.1644 25.4299 45.2526 25.4922 45.3259 25.5701C45.3992 25.648 45.4561 25.7397 45.4933 25.84C46.3634 27.656 46.8275 29.6398 46.8533 31.6533C46.8533 33.2266 46.8533 33.2267 45.44 33.7066C44.7315 33.9539 43.9983 34.1238 43.2533 34.2133C42.9804 34.2672 42.6996 34.2672 42.4266 34.2133C41.9733 34.2133 41.8133 33.8133 41.92 33.3066C42.0428 32.7482 42.1941 32.1963 42.3733 31.6533C42.9145 30.0393 42.9424 28.2972 42.4533 26.6666C41.8568 24.9841 40.6732 23.5732 39.12 22.6933C38.3733 22.2133 37.6 21.76 36.8533 21.2533C36.1066 20.7466 35.8933 20.2933 36.64 19.4667H36.7466ZM10.9866 21.52C9.77047 20.0981 9.09113 18.295 9.06677 16.4241C9.04241 14.5532 9.67457 12.733 10.8533 11.28C12.2183 9.62857 14.1834 8.58703 16.3163 8.38449C17.3724 8.2842 18.4379 8.39291 19.452 8.70442C20.4661 9.01592 21.4089 9.52411 22.2266 10.2C23.0443 10.8759 23.7209 11.7062 24.2177 12.6435C24.7145 13.5808 25.0219 14.6069 25.1221 15.663C25.2224 16.7191 25.1137 17.7846 24.8022 18.7987C24.4907 19.8128 23.9825 20.7556 23.3066 21.5733C22.8796 20.3515 22.1228 19.2716 21.12 18.4533C20.88 18.2933 20.5066 18.16 20.4266 17.9466C20.3466 17.7333 20.64 17.4133 20.72 17.1466C21.0262 15.9843 21.0262 14.7624 20.72 13.6C20.4477 12.7555 19.8876 12.0333 19.1373 11.5597C18.3869 11.086 17.4941 10.8909 16.6146 11.0084C15.7351 11.1259 14.9247 11.5485 14.325 12.2025C13.7253 12.8565 13.3743 13.7003 13.3333 14.5866C13.1575 15.6521 13.2965 16.7457 13.7333 17.7333C13.7333 17.92 13.7333 18 13.7333 18.08C12.4176 18.8675 11.4107 20.0814 10.88 21.52H10.9866ZM14.8266 14.24C14.977 13.74 15.2917 13.3053 15.7197 13.0063C16.1478 12.7073 16.6641 12.5614 17.1854 12.5923C17.7066 12.6231 18.2022 12.8289 18.5919 13.1763C18.9817 13.5237 19.2429 13.9924 19.3333 14.5066C19.3999 15.0647 19.3999 15.6286 19.3333 16.1866C19.2136 16.716 18.9122 17.1866 18.4814 17.5166C18.0506 17.8467 17.5178 18.0152 16.9755 17.993C16.4333 17.9709 15.916 17.7593 15.5137 17.3951C15.1113 17.031 14.8493 16.5373 14.7733 16C14.76 15.7335 14.76 15.4665 14.7733 15.2C14.7576 14.879 14.7755 14.5573 14.8266 14.24ZM17.0666 24.5066C15.384 24.4895 13.7466 23.9592 12.3733 22.9866C12.2757 22.9352 12.2002 22.85 12.1609 22.7469C12.1216 22.6438 12.1213 22.53 12.16 22.4266C12.5142 21.1033 13.364 19.967 14.5333 19.2533C14.6215 19.1863 14.7292 19.15 14.84 19.15C14.9507 19.15 15.0585 19.1863 15.1466 19.2533C15.7255 19.6181 16.3958 19.8116 17.08 19.8116C17.7642 19.8116 18.4344 19.6181 19.0133 19.2533C19.1015 19.1863 19.2092 19.15 19.32 19.15C19.4307 19.15 19.5385 19.1863 19.6266 19.2533C20.7798 19.9479 21.6276 21.053 22 22.3466C22.0479 22.4748 22.0473 22.6162 21.9982 22.7439C21.949 22.8716 21.8548 22.977 21.7333 23.04C20.3591 23.984 18.7338 24.4948 17.0666 24.5066ZM21.76 54.1333C20.3738 55.0937 18.7263 55.6056 17.04 55.6C15.3515 55.5926 13.7087 55.0512 12.3466 54.0533C12.3023 54.0384 12.2613 54.0147 12.2264 53.9836C12.1914 53.9525 12.1631 53.9146 12.1431 53.8722C12.1232 53.8299 12.112 53.7839 12.1104 53.7371C12.1087 53.6903 12.1165 53.6437 12.1333 53.6C12.4755 52.2282 13.3483 51.0485 14.56 50.32C14.6482 50.2529 14.7559 50.2166 14.8666 50.2166C14.9774 50.2166 15.0851 50.2529 15.1733 50.32C15.7513 50.6735 16.4157 50.8606 17.0933 50.8606C17.7709 50.8606 18.4353 50.6735 19.0133 50.32C19.1072 50.2546 19.2189 50.2195 19.3333 50.2195C19.4477 50.2195 19.5594 50.2546 19.6533 50.32C20.7912 50.9884 21.6307 52.0663 22 53.3333C22.0515 53.3974 22.0867 53.473 22.1024 53.5537C22.1182 53.6344 22.1141 53.7177 22.0905 53.7965C22.0669 53.8752 22.0244 53.947 21.9668 54.0057C21.9093 54.0644 21.8383 54.1082 21.76 54.1333ZM14.8266 45.3333C14.9582 44.7954 15.2779 44.3224 15.7278 43.9996C16.1778 43.6768 16.7283 43.5256 17.28 43.5733C17.8138 43.6082 18.3181 43.8308 18.7037 44.2017C19.0892 44.5726 19.3311 45.0679 19.3866 45.6C19.4665 46.1571 19.4665 46.7228 19.3866 47.28C19.3391 47.8646 19.0694 48.4088 18.6329 48.8007C18.1964 49.1925 17.6263 49.4022 17.04 49.3867C16.454 49.3676 15.8963 49.1298 15.4768 48.7202C15.0573 48.3106 14.8063 47.7587 14.7733 47.1733C14.76 46.9335 14.76 46.6931 14.7733 46.4533C14.7505 46.0792 14.7683 45.7036 14.8266 45.3333ZM23.36 52.6133C23.1733 52.4533 23.1733 52.24 23.0933 52.0533C22.5645 50.9028 21.7238 49.9235 20.6666 49.2266C20.4533 49.2266 20.3466 49.0133 20.48 48.7467C21.0459 47.4568 21.1124 46.0028 20.6666 44.6666C20.3956 43.847 19.8489 43.1467 19.1196 42.6848C18.3903 42.2229 17.5235 42.028 16.6666 42.1333C15.7892 42.2641 14.9855 42.6988 14.3957 43.3616C13.806 44.0244 13.4678 44.8732 13.44 45.76C13.2649 46.8192 13.4136 47.9066 13.8666 48.88C13.8666 49.0133 13.8666 49.12 13.8666 49.1733C12.6146 49.9977 11.6756 51.2184 11.2 52.64C9.92068 51.1439 9.23785 49.2287 9.28213 47.2608C9.32641 45.2929 10.0947 43.4103 11.44 41.9733C12.8938 40.4996 14.8549 39.6357 16.9236 39.5577C18.9923 39.4798 21.0128 40.1935 22.5735 41.5536C24.1342 42.9137 25.1175 44.8177 25.3231 46.8776C25.5287 48.9375 24.9411 50.9983 23.68 52.64L23.36 52.6133ZM38.8533 44.6133C37.8789 45.0713 36.8603 45.4287 35.8133 45.68C34.8685 45.8983 33.903 46.0145 32.9333 46.0266C30.7418 46.0622 28.5711 45.5971 26.5866 44.6666C26.4725 44.6257 26.3696 44.5586 26.2862 44.4705C26.2029 44.3825 26.1413 44.2761 26.1066 44.16C25.8875 43.5438 25.6013 42.9536 25.2533 42.4C25.12 42.2133 25.2533 42.1333 25.2533 42.08C26.1249 41.8451 27.0186 41.7021 27.92 41.6533C28.324 41.6333 28.7265 41.7156 29.0901 41.8928C29.4538 42.0699 29.7668 42.3361 30 42.6666L30.24 42.96C30.6942 43.688 31.3822 44.2402 32.1913 44.526C33.0004 44.8119 33.8826 44.8145 34.6933 44.5333C35.7726 44.1858 36.8785 43.9272 38 43.76C38.2131 43.7466 38.4269 43.7466 38.64 43.76C38.8266 43.76 39.1466 43.6266 39.1733 43.8933C39.1937 44.0275 39.1742 44.1648 39.1174 44.288C39.0605 44.4113 38.9687 44.5151 38.8533 44.5866V44.6133ZM34.6933 42.9333L34.08 43.0933C33.589 43.248 33.0605 43.235 32.5778 43.0564C32.095 42.8778 31.6854 42.5436 31.4133 42.1067C31.1245 41.626 30.7378 41.2114 30.2784 40.8898C29.819 40.5682 29.2971 40.3468 28.7466 40.24C27.9713 40.0929 27.1753 40.0929 26.4 40.24L24.3466 40.6933C24.2747 40.7382 24.1915 40.7621 24.1066 40.7621C24.0218 40.7621 23.9386 40.7382 23.8666 40.6933C22.8678 39.6704 21.6444 38.8943 20.2933 38.4266C20.2216 38.4045 20.1556 38.3667 20.1003 38.316C20.045 38.2653 20.0016 38.2029 19.9733 38.1333C19.4989 37.1564 19.1409 36.1271 18.9066 35.0666C19.7745 35.3596 20.667 35.5738 21.5733 35.7066C22.1046 35.773 22.642 35.773 23.1733 35.7066C23.7333 35.7066 24 35.3866 23.9733 34.96C23.9466 34.5333 23.68 34.2667 23.1466 34.2667C21.7471 34.2472 20.3634 33.9669 19.0666 33.44C18.9379 33.399 18.8263 33.3167 18.7491 33.2058C18.672 33.0949 18.6336 32.9616 18.64 32.8267C18.4921 30.4142 18.9505 28.0032 19.9733 25.8133C20.0219 25.6963 20.0944 25.5907 20.1863 25.5035C20.2781 25.4162 20.3873 25.3491 20.5066 25.3066C22.4941 24.5477 24.1731 23.1501 25.28 21.3333C25.3316 21.219 25.4201 21.1253 25.5313 21.0673C25.6425 21.0093 25.77 20.9903 25.8933 21.0133C26.7142 21.0611 27.5232 21.2319 28.2933 21.52C29.2266 21.8933 29.36 22.2666 28.9333 23.1733C28.5808 23.8148 28.3034 24.4949 28.1066 25.2C27.9712 25.7768 27.9859 26.3787 28.1493 26.9483C28.3127 27.5178 28.6193 28.036 29.04 28.4533L29.44 28.8267C30.2133 29.52 30.2933 29.9733 29.7066 30.88C29.017 31.8563 28.1023 32.6521 27.04 33.2L26.4266 33.4933C25.92 33.76 25.76 34.1066 25.9466 34.5066C25.9834 34.6084 26.0436 34.7002 26.1222 34.7746C26.2008 34.849 26.2958 34.9039 26.3995 34.935C26.5031 34.9662 26.6127 34.9725 26.7193 34.9537C26.8258 34.9349 26.9266 34.8914 27.0133 34.8267C28.3511 34.2761 29.5457 33.428 30.5066 32.3466C31.0297 31.7839 31.3974 31.0946 31.5733 30.3466C31.6609 29.9537 31.6481 29.5449 31.5363 29.1582C31.4244 28.7714 31.2171 28.4189 30.9333 28.1333L30.4266 27.6533C29.9968 27.3375 29.7009 26.872 29.5973 26.3488C29.4936 25.8256 29.5897 25.2825 29.8666 24.8267C30.0533 24.3733 30.2933 23.9466 30.48 23.4933C30.6276 23.223 30.7171 22.9249 30.7429 22.618C30.7687 22.3111 30.7302 22.0022 30.6298 21.7111C30.5294 21.4199 30.3693 21.1529 30.1599 20.9272C29.9504 20.7014 29.6961 20.5219 29.4133 20.4C28.5112 19.9285 27.5219 19.6471 26.5066 19.5733H26.1866C26.1866 19.36 26.1866 19.28 26.4533 19.2C29.3595 17.7845 32.6631 17.408 35.8133 18.1333C35.4895 18.475 35.2034 18.8504 34.96 19.2533C34.7043 19.6744 34.6044 20.1718 34.6774 20.659C34.7505 21.1462 34.992 21.5924 35.36 21.92C35.8081 22.3284 36.3 22.6861 36.8266 22.9866C37.44 23.36 38.08 23.7333 38.6666 24.1333C39.7637 24.7714 40.5973 25.7797 41.0177 26.9772C41.438 28.1747 41.4176 29.4829 40.96 30.6666C40.7733 31.3067 40.5866 31.9733 40.4266 32.64C39.9466 34.48 41.0933 35.68 43.0933 35.6C44.0824 35.5802 45.0626 35.4093 46 35.0933L46.56 34.9333C46.3257 35.9938 45.9677 37.0231 45.4933 38C45.4558 38.0969 45.3985 38.1849 45.325 38.2583C45.2515 38.3318 45.1635 38.3891 45.0666 38.4266C43.1513 39.1103 41.5061 40.3909 40.3733 42.08C40.3733 42.24 40.16 42.3733 39.92 42.32C38.156 42.1607 36.3781 42.3603 34.6933 42.9067V42.9333ZM52.96 54.08C51.5874 55.0873 49.9292 55.6305 48.2266 55.6305C46.5241 55.6305 44.8659 55.0873 43.4933 54.08C43.3916 54.0189 43.3145 53.9241 43.2755 53.812C43.2365 53.6999 43.2381 53.5777 43.28 53.4666C43.4454 52.7996 43.7461 52.1737 44.1636 51.6278C44.581 51.0819 45.1063 50.6277 45.7066 50.2933C45.7823 50.2327 45.8764 50.1997 45.9733 50.1997C46.0703 50.1997 46.1643 50.2327 46.24 50.2933C46.8229 50.6604 47.4978 50.8552 48.1866 50.8552C48.8755 50.8552 49.5504 50.6604 50.1333 50.2933C50.2173 50.2284 50.3205 50.1933 50.4266 50.1933C50.5328 50.1933 50.636 50.2284 50.72 50.2933C51.926 51.0156 52.7981 52.1848 53.1466 53.5467C53.1688 53.592 53.1816 53.6413 53.1842 53.6917C53.1868 53.7421 53.1791 53.7925 53.1617 53.8399C53.1442 53.8873 53.1174 53.9306 53.0827 53.9673C53.048 54.004 53.0063 54.0332 52.96 54.0533V54.08ZM50.48 47.6267C50.3502 48.1643 50.0367 48.6398 49.5936 48.9708C49.1505 49.3019 48.6057 49.4679 48.0533 49.44C47.5095 49.4059 46.995 49.1814 46.6 48.806C46.2051 48.4306 45.9549 47.9281 45.8933 47.3867C45.8533 46.8274 45.8533 46.2659 45.8933 45.7066C45.941 45.1243 46.2117 44.5829 46.6489 44.1954C47.0862 43.8078 47.6562 43.6041 48.24 43.6267C48.8282 43.6324 49.3923 43.8615 49.8181 44.2675C50.2439 44.6734 50.4995 45.226 50.5333 45.8133V46.56C50.5529 46.9076 50.535 47.2562 50.48 47.6V47.6267ZM54.4266 52.6933C53.942 51.2766 53.005 50.0585 51.76 49.2266C51.5466 49.0933 51.6 48.9866 51.76 48.8C52.2959 47.5325 52.3714 46.1173 51.9733 44.8C51.7118 43.9629 51.1678 43.2426 50.4343 42.762C49.7007 42.2813 48.8231 42.0702 47.9512 42.1646C47.0794 42.2591 46.2673 42.6532 45.6537 43.2797C45.04 43.9062 44.6629 44.7263 44.5866 45.6C44.3932 46.72 44.5419 47.8724 45.0133 48.9067C45.0133 48.9067 45.0133 49.0933 45.0133 49.1733C43.701 49.9822 42.7039 51.2145 42.1866 52.6666C40.9216 51.1577 40.2574 49.2351 40.3214 47.2671C40.3853 45.299 41.1729 43.4236 42.5333 42C43.969 40.3945 45.9837 39.4252 48.1341 39.3052C50.2845 39.1851 52.3945 39.9243 54 41.36C55.6054 42.7957 56.5748 44.8104 56.6948 46.9608C56.8148 49.1112 56.0757 51.2212 54.64 52.8267L54.4266 52.6933Z" fill="#B860AC"/>
<path d="M55.2266 29.3333C55.4082 29.3068 55.5727 29.212 55.6867 29.0683C55.8007 28.9245 55.8555 28.7427 55.84 28.56C55.84 28.1866 55.84 27.8133 55.6533 27.4666C55.6215 27.2757 55.5151 27.1052 55.3576 26.9927C55.2001 26.8801 55.0043 26.8348 54.8133 26.8666C54.6224 26.8985 54.4519 27.0048 54.3394 27.1624C54.2268 27.3199 54.1815 27.5157 54.2133 27.7066C54.2355 28.0855 54.2981 28.461 54.4 28.8266C54.4442 29.0024 54.5555 29.1538 54.71 29.2485C54.8645 29.3432 55.05 29.3736 55.2266 29.3333Z" fill="#B860AC"/>
<path d="M56.0533 32.5867C56.0666 32.3914 56.0666 32.1954 56.0533 32V31.4134C56.0533 31.2224 55.9775 31.0393 55.8424 30.9042C55.7074 30.7692 55.5243 30.6934 55.3333 30.6934C55.1424 30.6934 54.9592 30.7692 54.8242 30.9042C54.6892 31.0393 54.6133 31.2224 54.6133 31.4134C54.5336 31.8453 54.5336 32.2881 54.6133 32.72C54.6229 32.807 54.6503 32.891 54.6936 32.9669C54.737 33.0429 54.7955 33.1092 54.8654 33.1616C54.9354 33.2141 55.0154 33.2517 55.1005 33.2721C55.1855 33.2924 55.2738 33.2951 55.36 33.28C55.4542 33.2934 55.5501 33.2846 55.6403 33.2545C55.7305 33.2244 55.8125 33.1737 55.8798 33.1065C55.947 33.0392 55.9977 32.9572 56.0278 32.867C56.0579 32.7768 56.0667 32.6809 56.0533 32.5867Z" fill="#B860AC"/>
<path d="M36.8533 53.4666L35.9467 53.6266C35.8482 53.6397 35.7533 53.6722 35.6676 53.7224C35.5818 53.7726 35.507 53.8394 35.4474 53.9188C35.3878 53.9983 35.3446 54.0889 35.3205 54.1852C35.2963 54.2816 35.2916 54.3818 35.3067 54.48C35.3067 54.8533 35.68 55.12 36.2133 55.12C36.7467 55.12 36.8 55.12 37.1467 54.9066C37.3337 54.874 37.5002 54.7689 37.6101 54.614C37.72 54.4592 37.7643 54.2673 37.7333 54.08C37.6944 53.8838 37.581 53.7103 37.4169 53.5959C37.2529 53.4816 37.0508 53.4352 36.8533 53.4666Z" fill="#B860AC"/>
<path d="M29.3067 53.6533C28.9567 53.5566 28.6002 53.4853 28.24 53.4399C28.0673 53.4423 27.9008 53.5045 27.7688 53.6158C27.6368 53.7271 27.5475 53.8808 27.5161 54.0506C27.4846 54.2204 27.513 54.3958 27.5964 54.547C27.6798 54.6982 27.813 54.8159 27.9733 54.8799C28.3205 54.9831 28.6784 55.0457 29.04 55.0666C29.1332 55.0816 29.2284 55.0775 29.3199 55.0544C29.4114 55.0313 29.4973 54.9898 29.5722 54.9323C29.6471 54.8749 29.7094 54.8028 29.7555 54.7204C29.8015 54.6381 29.8303 54.5471 29.84 54.4533C29.8594 54.3656 29.8608 54.2749 29.8443 54.1867C29.8277 54.0984 29.7935 54.0144 29.7437 53.9397C29.6939 53.865 29.6295 53.8011 29.5544 53.7519C29.4793 53.7027 29.395 53.6691 29.3067 53.6533Z" fill="#B860AC"/>
<path d="M33.28 53.92C32.8149 53.8138 32.3318 53.8138 31.8667 53.92C31.7007 53.9523 31.5543 54.049 31.4594 54.1889C31.3644 54.3288 31.3287 54.5005 31.36 54.6667C31.3588 54.8305 31.418 54.989 31.5262 55.1119C31.6344 55.2349 31.7841 55.3137 31.9467 55.3334C32.142 55.3467 32.338 55.3467 32.5333 55.3334C32.7465 55.3467 32.9602 55.3467 33.1733 55.3334C33.3407 55.3199 33.4969 55.2438 33.6106 55.1202C33.7243 54.9966 33.7872 54.8346 33.7867 54.6667C33.818 54.5005 33.7822 54.3288 33.6873 54.1889C33.5924 54.049 33.4459 53.9523 33.28 53.92Z" fill="#B860AC"/>
<path d="M54.8 37.1466C54.8931 37.1657 54.9892 37.1655 55.0822 37.1459C55.1752 37.1264 55.2633 37.0879 55.3408 37.0328C55.4183 36.9778 55.4837 36.9075 55.5329 36.8261C55.5821 36.7447 55.614 36.6541 55.6267 36.5599C55.7147 36.2184 55.777 35.8707 55.8133 35.5199C55.825 35.4166 55.8141 35.3119 55.7815 35.2132C55.7488 35.1145 55.6952 35.024 55.6242 34.948C55.5533 34.8719 55.4667 34.8122 55.3704 34.7728C55.2742 34.7335 55.1706 34.7154 55.0667 34.7199C54.9144 34.7155 54.7652 34.7633 54.6439 34.8555C54.5226 34.9477 54.4365 35.0787 54.4 35.2266C54.2931 35.5831 54.2216 35.9493 54.1867 36.3199C54.1716 36.4146 54.1755 36.5113 54.1984 36.6045C54.2212 36.6976 54.2623 36.7852 54.3195 36.8622C54.3766 36.9393 54.4485 37.0041 54.531 37.0529C54.6136 37.1017 54.705 37.1336 54.8 37.1466Z" fill="#B860AC"/>
<path d="M10.08 34.6667C9.8934 34.6933 9.72465 34.7919 9.60997 34.9415C9.4953 35.0911 9.44384 35.2796 9.46666 35.4667C9.48885 35.8456 9.55143 36.2211 9.65333 36.5867C9.67196 36.6756 9.70855 36.7597 9.76084 36.8339C9.81313 36.9081 9.88003 36.9708 9.95743 37.0183C10.0348 37.0657 10.1211 37.0969 10.211 37.1098C10.3008 37.1227 10.3924 37.1171 10.48 37.0934C10.6593 37.0732 10.8236 36.9839 10.9382 36.8445C11.0527 36.7051 11.1083 36.5265 11.0933 36.3467C11.0933 35.9467 11.0933 35.5734 10.9067 35.2267C10.868 35.0446 10.7603 34.8846 10.6062 34.7802C10.452 34.6757 10.2635 34.6351 10.08 34.6667Z" fill="#B860AC"/>
<path d="M10.5333 26.6667C10.4403 26.6433 10.3434 26.6395 10.2488 26.6554C10.1542 26.6714 10.064 26.7068 9.98375 26.7594C9.90355 26.8121 9.83514 26.8808 9.78285 26.9612C9.73056 27.0416 9.69554 27.132 9.67999 27.2267C9.58338 27.5677 9.51208 27.9153 9.46665 28.2667C9.44962 28.4558 9.5027 28.6445 9.6158 28.7969C9.7289 28.9493 9.89412 29.0549 10.08 29.0934C10.1693 29.1129 10.2616 29.1147 10.3516 29.0984C10.4416 29.0822 10.5275 29.0483 10.6043 28.9987C10.6811 28.9492 10.7474 28.8849 10.7993 28.8096C10.8512 28.7343 10.8877 28.6495 10.9067 28.56C10.9067 28.2134 11.04 27.84 11.12 27.4934C11.1441 27.307 11.0972 27.1185 10.9884 26.9652C10.8797 26.812 10.7172 26.7054 10.5333 26.6667Z" fill="#B860AC"/>
<path d="M9.22665 31.2266C9.21327 31.4219 9.21327 31.6179 9.22665 31.8133C9.2133 32.0264 9.2133 32.2401 9.22665 32.4533C9.24635 32.623 9.32801 32.7794 9.45597 32.8926C9.58392 33.0058 9.74915 33.0677 9.91998 33.0666C10.0859 33.0896 10.2543 33.0467 10.3889 32.9469C10.5235 32.8472 10.6136 32.6987 10.64 32.5333C10.7334 32.0668 10.7334 31.5864 10.64 31.1199C10.5965 30.9603 10.4973 30.8214 10.3603 30.7285C10.2234 30.6356 10.0578 30.5947 9.89331 30.6133C9.72537 30.6127 9.5634 30.6756 9.43981 30.7893C9.31621 30.903 9.24008 31.0592 9.22665 31.2266Z" fill="#B860AC"/>
<path d="M28.9333 10.2667C29.68 10.1333 29.9733 9.91999 29.9733 9.46665C29.9785 9.36021 29.9599 9.25394 29.919 9.15554C29.8781 9.05713 29.8159 8.96903 29.7368 8.8976C29.6577 8.82617 29.5637 8.77318 29.4617 8.74247C29.3596 8.71175 29.252 8.70407 29.1467 8.71999L28.1067 8.90665C28.0064 8.93092 27.9122 8.97572 27.8301 9.03822C27.748 9.10071 27.6797 9.17955 27.6296 9.26976C27.5795 9.35996 27.5486 9.45957 27.5389 9.56231C27.5292 9.66505 27.5409 9.76867 27.5733 9.86665C27.76 10.32 28.08 10.4 28.9333 10.2667Z" fill="#B860AC"/>
<path d="M35.9733 10.16C36.3066 10.2512 36.6449 10.3224 36.9867 10.3733C37.0935 10.4097 37.2071 10.4222 37.3193 10.41C37.4315 10.3978 37.5397 10.3612 37.6363 10.3028C37.7329 10.2443 37.8155 10.1655 37.8783 10.0717C37.9411 9.9779 37.9827 9.8715 38 9.75996C38.031 9.57266 37.9867 9.38071 37.8768 9.22589C37.7669 9.07107 37.6004 8.96591 37.4133 8.93329C37.0718 8.8453 36.7242 8.78291 36.3733 8.74663C36.2802 8.73161 36.1849 8.73577 36.0934 8.75886C36.0019 8.78195 35.9161 8.82347 35.8412 8.88089C35.7663 8.93831 35.7039 9.01042 35.6578 9.0928C35.6118 9.17517 35.583 9.26608 35.5733 9.35996C35.529 9.51917 35.5454 9.68917 35.6193 9.837C35.6932 9.98482 35.8194 10.0999 35.9733 10.16Z" fill="#B860AC"/>
<path d="M31.9733 9.89328C32.4564 9.99956 32.9569 9.99956 33.44 9.89328C33.5225 9.87446 33.6005 9.83944 33.6694 9.79027C33.7383 9.7411 33.7968 9.67875 33.8414 9.60682C33.8861 9.53489 33.916 9.45483 33.9295 9.37125C33.943 9.28768 33.9398 9.20226 33.92 9.11995C33.914 8.9637 33.851 8.81504 33.743 8.70205C33.6349 8.58905 33.4892 8.51953 33.3333 8.50661C33.1291 8.49226 32.9242 8.49226 32.72 8.50661C32.4979 8.49448 32.2754 8.49448 32.0533 8.50661C31.8885 8.53227 31.7384 8.6165 31.6307 8.74385C31.5229 8.8712 31.4647 9.03314 31.4667 9.19995C31.4559 9.35669 31.5008 9.51221 31.5935 9.63906C31.6862 9.76591 31.8207 9.85594 31.9733 9.89328Z" fill="#B860AC"/>
</svg>
