<svg width="197" height="12" viewBox="0 0 197 12" fill="none" xmlns="http://www.w3.org/2000/svg">
<path d="M50.0674 3.45508C51.8835 3.45508 52.5589 4.3302 52.5589 6.68398V11.6329H50.1124V6.75942C50.1124 5.80886 49.6471 5.35621 48.8667 5.35621C48.0261 5.35621 47.5609 6.005 47.5609 7.1668V11.6329H45.1144V3.6814H47.5609V4.99409C48.0862 3.89264 48.8817 3.45508 50.0674 3.45508Z" fill="white"/>
<path d="M42.0209 2.39904C40.9402 2.39904 40.655 2.14254 40.655 1.22215C40.655 0.27159 40.9402 0 42.0209 0C43.1165 0 43.4167 0.256502 43.4167 1.22215C43.4167 2.14254 43.1165 2.39904 42.0209 2.39904ZM43.2516 11.6331H40.8051V3.68155H43.2516V11.6331Z" fill="white"/>
<path d="M34.9625 11.8593C31.9156 11.8593 30.5948 10.5768 30.5948 7.63454C30.5948 4.78285 31.9457 3.45508 34.9625 3.45508C37.9643 3.45508 39.3001 4.78285 39.3001 7.63454C39.3001 10.5768 37.9793 11.8593 34.9625 11.8593ZM36.8536 7.63454C36.8536 6.005 36.3884 5.41656 34.9625 5.41656C33.5366 5.41656 33.0563 6.005 33.0563 7.63454C33.0563 9.32443 33.5366 9.89779 34.9625 9.89779C36.3884 9.89779 36.8536 9.32443 36.8536 7.63454Z" fill="white"/>
<path d="M25.3018 11.8593C22.345 11.8593 21.0092 10.5315 21.0092 7.61945C21.0092 4.73759 22.345 3.45508 25.3018 3.45508C27.8383 3.45508 29.2792 4.61688 29.4143 6.7896H27.0578C26.9978 5.86921 26.4274 5.41656 25.3468 5.41656C23.966 5.41656 23.4707 6.005 23.4707 7.63454C23.4707 9.30935 23.966 9.89779 25.3468 9.89779C26.4274 9.89779 27.0128 9.38479 27.0879 8.35878H29.4443C29.3092 10.6371 27.8683 11.8593 25.3018 11.8593Z" fill="white"/>
<path d="M19.91 3.68155V5.62794H17.6136V8.49473C17.6136 8.99264 17.6887 9.33967 17.8538 9.566C18.199 9.98847 19.0695 9.98847 19.91 9.55091V11.4671C19.5048 11.7236 18.9645 11.8594 18.259 11.8594C16.0527 11.8594 15.1521 10.8485 15.1521 8.49473V5.62794H13.9214V3.68155H15.1521V1.6748H17.6136V3.68155H19.91Z" fill="white"/>
<path d="M11.5336 2.39904C10.4529 2.39904 10.1677 2.14254 10.1677 1.22215C10.1677 0.27159 10.4529 0 11.5336 0C12.6292 0 12.9294 0.256502 12.9294 1.22215C12.9294 2.14254 12.6292 2.39904 11.5336 2.39904ZM12.7643 11.6331H10.3178V3.68155H12.7643V11.6331Z" fill="white"/>
<path d="M7.34428 5.88412V6.1708C8.22982 6.51783 8.83018 7.39295 8.83018 8.67546C8.83018 10.7426 7.73452 11.6328 5.09291 11.6328H0.500122V1.11621H5.16796C7.31426 1.11621 8.39492 1.99133 8.39492 3.72649C8.39492 4.73741 8.04971 5.46165 7.34428 5.88412ZM2.9316 3.09278V5.32585H4.94282C5.66326 5.32585 5.97845 4.97882 5.97845 4.19423C5.97845 3.40964 5.60322 3.09278 4.80774 3.09278H2.9316ZM2.9316 7.18172V9.67129H5.04789C5.99346 9.67129 6.39871 9.30917 6.39871 8.41896C6.39871 7.5891 5.94843 7.18172 5.04789 7.18172H2.9316Z" fill="white"/>
<path d="M122.554 11.7763C120.333 11.7763 119.192 10.871 119.117 9.07545H121.338C121.383 9.70916 121.849 10.026 122.719 10.026C123.47 10.026 123.845 9.78461 123.845 9.30178C123.845 8.90948 123.665 8.66807 123.32 8.59263L121.443 8.15507C119.958 7.79295 119.267 7.0838 119.267 5.80129C119.267 4.15666 120.378 3.37207 122.734 3.37207C124.806 3.37207 125.886 4.20193 125.991 5.87673H123.785C123.68 5.28829 123.395 5.10723 122.689 5.10723C121.984 5.10723 121.624 5.31846 121.624 5.75602C121.624 6.08797 121.834 6.2992 122.239 6.40482L124.115 6.84238C125.556 7.18941 126.246 7.89857 126.246 9.18107C126.246 10.9464 125.076 11.7763 122.554 11.7763Z" fill="white"/>
<path d="M117.944 3.59854V5.54494H115.648V8.41172C115.648 8.90963 115.723 9.25666 115.888 9.48299C116.233 9.90546 117.104 9.90546 117.944 9.4679V11.3841C117.539 11.6406 116.999 11.7764 116.293 11.7764C114.087 11.7764 113.186 10.7655 113.186 8.41172V5.54494H111.956V3.59854H113.186V1.5918H115.648V3.59854H117.944Z" fill="white"/>
<path d="M108.351 3.37207C110.167 3.37207 110.842 4.24719 110.842 6.60097V11.5499H108.396V6.67641C108.396 5.72585 107.931 5.2732 107.15 5.2732C106.31 5.2732 105.844 5.922 105.844 7.0838V11.5499H103.398V3.5984H105.844V4.91108C106.37 3.80963 107.165 3.37207 108.351 3.37207Z" fill="white"/>
<path d="M101.902 7.55154V8.15507H95.8985C96.0036 9.49793 96.5139 9.98075 97.7296 9.98075C98.8553 9.98075 99.3506 9.70917 99.4557 9.06037H101.767C101.647 10.871 100.281 11.7763 97.6846 11.7763C94.7578 11.7763 93.437 10.4334 93.437 7.52136C93.437 4.66967 94.7428 3.37207 97.6696 3.37207C100.596 3.37207 101.902 4.57914 101.902 7.55154ZM97.6846 5.16758C96.5289 5.16758 96.0486 5.57497 95.9135 6.70659H99.4407C99.3956 5.60514 98.8853 5.16758 97.6846 5.16758Z" fill="white"/>
<path d="M89.4941 4.866V0.0830078H91.9405V11.5501H89.4941V10.2073C88.9837 11.2484 88.0682 11.7765 86.7624 11.7765C84.3759 11.7765 83.2803 10.4487 83.2803 7.55173C83.2803 4.70003 84.3759 3.37226 86.7624 3.37226C88.0832 3.37226 88.9987 3.87018 89.4941 4.866ZM87.5879 9.86024C88.8637 9.86024 89.5841 9.01529 89.5841 7.68752V7.3254C89.5391 6.05798 88.8336 5.28848 87.5729 5.28848C86.2671 5.28848 85.7418 5.93728 85.7418 7.55173C85.7418 9.19635 86.2671 9.86024 87.5879 9.86024Z" fill="white"/>
<path d="M79.3003 8.0638V3.59766H81.7468V11.5492H79.3003V10.2365C78.775 11.338 77.9795 11.7755 76.7938 11.7755C74.9777 11.7755 74.3022 10.9004 74.3022 8.54662V3.59766H76.7487V8.47118C76.7487 9.42175 77.214 9.87439 77.9945 9.87439C78.835 9.87439 79.3003 9.2256 79.3003 8.0638Z" fill="white"/>
<path d="M72.8142 3.59854V5.54494H70.5178V8.41172C70.5178 8.90963 70.5929 9.25666 70.758 9.48299C71.1032 9.90546 71.9737 9.90546 72.8142 9.4679V11.3841C72.409 11.6406 71.8686 11.7764 71.1632 11.7764C68.9569 11.7764 68.0563 10.7655 68.0563 8.41172V5.54494H66.8256V3.59854H68.0563V1.5918H70.5178V3.59854H72.8142Z" fill="white"/>
<path d="M61.7875 11.7758C59.0558 11.7758 57.645 10.5386 57.5399 8.06412H59.9264C59.9864 9.22592 60.4967 9.66348 61.8625 9.66348C62.9282 9.66348 63.4685 9.27119 63.4685 8.47151C63.4685 7.80762 63.2434 7.46059 62.538 7.32479L60.3316 6.87214C58.4855 6.49494 57.7951 5.66508 57.7951 3.97519C57.7951 1.92318 59.1759 0.806641 61.8025 0.806641C64.324 0.806641 65.6448 1.93826 65.7799 4.20151H63.3935C63.2884 3.23586 62.8982 2.90392 61.7425 2.90392C60.7669 2.90392 60.2866 3.23586 60.2866 3.91483C60.2866 4.42784 60.6018 4.74469 61.2172 4.8654L63.3785 5.31805C65.1796 5.69526 65.975 6.66091 65.975 8.41115C65.975 10.5839 64.5041 11.7758 61.7875 11.7758Z" fill="white"/>
<path d="M196.5 11.5501H193.888L192.282 8.39667H191.172V11.5501H188.725V0.0830078H191.172V6.45028H192.418L193.813 3.59859H196.38L194.444 7.50646L196.5 11.5501Z" fill="white"/>
<path d="M184.591 3.61348V5.69567C185.131 4.14157 186.047 3.37207 187.322 3.37207V5.86164C185.506 5.86164 184.711 6.57079 184.591 8.62281V11.5499H182.144V3.61348H184.591Z" fill="white"/>
<path d="M176.302 11.7763C173.255 11.7763 171.934 10.4938 171.934 7.55153C171.934 4.69984 173.285 3.37207 176.302 3.37207C179.304 3.37207 180.64 4.69984 180.64 7.55153C180.64 10.4938 179.319 11.7763 176.302 11.7763ZM178.193 7.55153C178.193 5.92199 177.728 5.33355 176.302 5.33355C174.876 5.33355 174.396 5.92199 174.396 7.55153C174.396 9.24143 174.876 9.81478 176.302 9.81478C177.728 9.81478 178.193 9.24143 178.193 7.55153Z" fill="white"/>
<path d="M167.97 9.61789L168.886 3.59766H171.167L169.816 11.5492H166.394L165.238 5.92125L164.068 11.5492H160.645L159.295 3.59766H161.576L162.507 9.61789H162.612L163.872 3.59766H166.589L167.85 9.61789H167.97Z" fill="white"/>
<path d="M158.347 3.59855V5.54494H156.05V8.41172C156.05 8.90963 156.125 9.25666 156.291 9.48299C156.636 9.90546 157.506 9.90546 158.347 9.4679V11.3841C157.942 11.6406 157.401 11.7764 156.696 11.7764C154.489 11.7764 153.589 10.7655 153.589 8.41172V5.54494H152.358V3.59855H153.589V1.5918H156.05V3.59855H158.347Z" fill="white"/>
<path d="M151.642 7.55153V8.15507H145.638C145.743 9.49793 146.254 9.98075 147.469 9.98075C148.595 9.98075 149.09 9.70916 149.195 9.06037H151.507C151.387 10.871 150.021 11.7763 147.424 11.7763C144.497 11.7763 143.177 10.4334 143.177 7.52136C143.177 4.66967 144.482 3.37207 147.409 3.37207C150.336 3.37207 151.642 4.57913 151.642 7.55153ZM147.424 5.16758C146.269 5.16758 145.788 5.57496 145.653 6.70659H149.18C149.135 5.60514 148.625 5.16758 147.424 5.16758Z" fill="white"/>
<path d="M139.167 9.18089V1.0332H141.554V11.5498H137.501L133.914 3.41716H133.599V11.5498H131.227V1.0332H135.25L138.852 9.18089H139.167Z" fill="white"/>
</svg>
