<svg xmlns="http://www.w3.org/2000/svg" width="57" height="64" viewBox="0 0 57 64" fill="none">
  <path d="M39.84 41.9901C39.5621 41.8883 39.3302 41.6896 39.187 41.4306C39.0437 41.1716 38.9986 40.8697 39.06 40.5801C39.0823 40.4619 39.078 40.3402 39.0474 40.2239C39.0168 40.1076 38.9607 39.9996 38.8831 39.9076C38.8055 39.8157 38.7085 39.7422 38.599 39.6925C38.4895 39.6427 38.3703 39.618 38.25 39.6201C37.74 39.6201 37.44 40.0101 37.41 40.6101V42.7101C37.41 43.5501 37.41 43.5501 36.6 43.5801C36.2469 43.5681 35.8949 43.6263 35.5644 43.7514C35.2339 43.8764 34.9316 44.0658 34.6748 44.3086C34.4181 44.5514 34.2121 44.8427 34.0688 45.1657C33.9255 45.4887 33.8477 45.8369 33.84 46.1901C33.84 47.0501 33.84 47.9201 33.84 48.8001C33.8399 49.0574 33.8915 49.312 33.9917 49.549C34.0919 49.7859 34.2387 50.0003 34.4234 50.1794C34.6081 50.3585 34.8269 50.4987 35.0668 50.5915C35.3067 50.6844 35.5629 50.7281 35.82 50.7201C36.21 50.7201 36.63 50.7201 37.02 50.7201C37.41 50.7201 37.41 50.7201 37.41 51.1101V54.7401C37.41 55.0701 37.41 55.1601 37.02 55.1601C35.4584 55.1052 33.8949 55.1553 32.34 55.3101C29.5436 55.5241 26.7992 56.1824 24.21 57.2601C23.73 57.4701 23.67 57.2601 23.67 56.8701C23.67 50.5701 23.67 44.3001 23.67 38.0001C23.6526 37.8353 23.6903 37.6694 23.7771 37.5283C23.864 37.3872 23.9951 37.2788 24.15 37.2201C28.1643 35.5167 32.516 34.7572 36.87 35.0001C37.26 35.0001 37.41 35.2101 37.41 35.5701V36.6201C37.4139 36.7304 37.4395 36.8389 37.4853 36.9394C37.5311 37.0398 37.5963 37.1302 37.6771 37.2055C37.7579 37.2807 37.8527 37.3392 37.9562 37.3778C38.0596 37.4163 38.1697 37.4341 38.28 37.4301C38.3864 37.4262 38.491 37.4014 38.5878 37.3571C38.6846 37.3128 38.7717 37.2498 38.8441 37.1718C38.9166 37.0938 38.9729 37.0023 39.01 36.9024C39.047 36.8026 39.064 36.6965 39.06 36.5901V35.2701C39.0629 35.0428 39.016 34.8177 38.9227 34.6104C38.8294 34.4031 38.692 34.2187 38.52 34.0701C38.3158 33.9085 38.1583 33.6956 38.0634 33.4531C37.9685 33.2107 37.9397 32.9473 37.98 32.6901C38.0031 32.394 37.9612 32.0965 37.8574 31.8183C37.7536 31.5401 37.5902 31.2879 37.3788 31.0793C37.1674 30.8708 36.913 30.7109 36.6334 30.6108C36.3538 30.5108 36.0557 30.473 35.76 30.5001H34.77C34.2473 30.5941 33.7109 30.5786 33.1945 30.4546C32.6781 30.3307 32.1931 30.101 31.77 29.7801C31.3775 29.5544 30.9659 29.3636 30.54 29.2101C29.4097 28.8051 28.2449 28.5038 27.06 28.3101C26.6425 28.2266 26.2584 28.0232 25.9547 27.7248C25.651 27.4265 25.4409 27.046 25.35 26.6301C25.2961 26.4859 25.2968 26.3269 25.3521 26.1832C25.4073 26.0395 25.5133 25.921 25.65 25.8501C26.5646 25.2874 27.3447 24.5311 27.9356 23.6344C28.5265 22.7377 28.9137 21.7225 29.07 20.6601C29.0729 20.564 29.1066 20.4714 29.1659 20.3959C29.2253 20.3203 29.3074 20.2657 29.4 20.2401C29.8722 20.1101 30.2851 19.8213 30.5692 19.4224C30.8534 19.0235 30.9914 18.5388 30.96 18.0501C30.96 16.6401 30.96 15.2301 30.96 13.8501C30.96 12.4701 30.96 10.8501 30.96 9.26011C31.0012 8.6043 30.7815 7.95879 30.3488 7.46427C29.9161 6.96975 29.3055 6.66632 28.65 6.62011C28.41 6.62011 28.26 6.62011 28.26 6.26011C28.213 5.68326 27.9799 5.13729 27.5958 4.70443C27.2116 4.27157 26.6972 3.97525 26.13 3.86011H18C17.8957 3.90467 17.7834 3.92764 17.67 3.92764C17.5566 3.92764 17.4443 3.90467 17.34 3.86011C16.77 4.07011 16.14 4.16011 15.57 4.40011C14.6179 4.78685 13.7709 5.3935 13.0983 6.17042C12.4256 6.94734 11.9465 7.87246 11.7 8.87011C11.6629 8.97434 11.6476 9.08507 11.655 9.19545C11.6624 9.30583 11.6923 9.41354 11.7429 9.51192C11.7935 9.6103 11.8637 9.69727 11.9492 9.76748C12.0347 9.83768 12.1337 9.88962 12.24 9.92011C12.4587 9.97578 12.6904 9.94432 12.8863 9.83238C13.0822 9.72043 13.227 9.53675 13.29 9.32011C13.2802 9.18028 13.2802 9.03994 13.29 8.90011C13.5876 7.89016 14.2109 7.00704 15.0629 6.38842C15.9148 5.76979 16.9475 5.45043 18 5.48011H25.71C25.8441 5.45818 25.9813 5.4659 26.1121 5.50271C26.2429 5.53953 26.364 5.60455 26.4669 5.69319C26.5699 5.78184 26.6521 5.89197 26.708 6.01582C26.7638 6.13968 26.7918 6.27427 26.79 6.41011C26.7939 6.65044 26.8451 6.88764 26.9407 7.10817C27.0363 7.32871 27.1744 7.52825 27.3471 7.6954C27.5199 7.86255 27.7238 7.99404 27.9474 8.08235C28.1709 8.17067 28.4097 8.21408 28.65 8.21011C28.8782 8.22535 29.0919 8.32686 29.248 8.49402C29.404 8.66118 29.4905 8.88145 29.49 9.11011V14.0001C29.4917 14.094 29.4701 14.1868 29.4273 14.2703C29.3845 14.3538 29.3217 14.4255 29.2445 14.4789C29.1674 14.5323 29.0782 14.5659 28.985 14.5765C28.8917 14.5872 28.7973 14.5747 28.71 14.5401C28.5505 14.5179 28.3988 14.4571 28.2681 14.363C28.1374 14.2689 28.0317 14.1443 27.96 14.0001C27.7778 13.6687 27.4892 13.4084 27.1408 13.2615C26.7923 13.1145 26.4045 13.0893 26.04 13.1901C25.315 13.3104 24.575 13.3104 23.85 13.1901C22.2353 12.9521 20.7464 12.1813 19.62 11.0001C19.2659 10.5091 18.757 10.1513 18.1751 9.98429C17.5932 9.81724 16.9721 9.85061 16.4114 10.079C15.8508 10.3074 15.3831 10.7176 15.0836 11.2438C14.7842 11.7699 14.6702 12.3814 14.76 12.9801C14.76 13.5501 14.76 14.0901 14.76 14.6301C14.76 15.1701 14.76 14.9001 14.76 14.9601C14.3919 14.9731 14.0314 14.8528 13.7448 14.6213C13.4582 14.3898 13.2648 14.0627 13.2 13.7001C13.23 13.4309 13.23 13.1593 13.2 12.8901C13.1924 12.7876 13.1646 12.6875 13.1183 12.5958C13.0719 12.504 13.0078 12.4223 12.9297 12.3554C12.8517 12.2885 12.7612 12.2377 12.6634 12.2059C12.5656 12.1741 12.4625 12.1619 12.36 12.1701C12.259 12.1661 12.1583 12.1825 12.0638 12.2184C11.9693 12.2542 11.883 12.3088 11.8102 12.3789C11.7373 12.4489 11.6794 12.533 11.6398 12.626C11.6003 12.719 11.5799 12.819 11.58 12.9201C11.6117 13.734 11.4578 14.5445 11.13 15.2901C10.9942 16.0541 10.9942 16.8361 11.13 17.6001C11.0938 18.2113 11.276 18.8154 11.6443 19.3045C12.0125 19.7937 12.5427 20.1359 13.14 20.2701C13.2596 20.2841 13.3704 20.34 13.4528 20.4278C13.5351 20.5157 13.5837 20.6299 13.59 20.7501C13.7474 21.7007 14.0941 22.6101 14.6094 23.4243C15.1247 24.2385 15.7982 24.941 16.59 25.4901C16.6964 25.56 16.7792 25.6604 16.8274 25.7782C16.8756 25.896 16.8869 26.0257 16.86 26.1501C16.8532 26.7135 16.6325 27.2532 16.2425 27.6599C15.8526 28.0665 15.3226 28.3097 14.76 28.3401C13.5725 28.5503 12.4073 28.8717 11.28 29.3001C10.541 29.7672 9.75706 30.1591 8.94 30.4701C8.04225 30.5601 7.13775 30.5601 6.24 30.4701C5.71208 30.47 5.20532 30.6777 4.82922 31.0482C4.45312 31.4187 4.23788 31.9222 4.23 32.4501V33.2301C4.24455 33.3293 4.22955 33.4306 4.18686 33.5213C4.14418 33.612 4.0757 33.6881 3.99 33.7401C3.68383 33.9439 3.43308 34.2205 3.26027 34.5452C3.08747 34.8698 2.99804 35.2323 3 35.6001C3 37.2501 3 38.9001 3 40.5501C3.03842 40.8454 2.9803 41.1452 2.83431 41.4047C2.68832 41.6643 2.46231 41.8696 2.19 41.9901C1.58648 42.2841 1.08593 42.7537 0.754001 43.3373C0.422076 43.9208 0.274282 44.5911 0.330005 45.2601C0.330005 45.8901 0.330005 46.5201 0.330005 47.1501C0.309818 47.8789 0.523062 48.5951 0.93862 49.1941C1.35418 49.7932 1.9503 50.2438 2.64 50.4801C2.94 50.4801 2.97 50.7801 2.97 51.0501V54.8901C2.94147 55.1492 2.97152 55.4114 3.05792 55.6573C3.14432 55.9032 3.28487 56.1266 3.46918 56.3109C3.6535 56.4952 3.87687 56.6358 4.12279 56.7222C4.36872 56.8086 4.63091 56.8386 4.89 56.8101C6.52152 56.7697 8.15403 56.8198 9.78 56.9601C12.9257 57.1908 15.9898 58.0692 18.78 59.5401C19.4631 59.938 20.2395 60.1477 21.03 60.1477C21.8205 60.1477 22.5969 59.938 23.28 59.5401C24.5163 58.8579 25.8242 58.3146 27.18 57.9201C30.3811 57.0323 33.7007 56.6477 37.02 56.7801C37.3017 56.831 37.5915 56.814 37.8653 56.7305C38.1391 56.647 38.3891 56.4994 38.5944 56.2999C38.7997 56.1004 38.9545 55.8549 39.0459 55.5836C39.1373 55.3123 39.1627 55.0232 39.12 54.7401C39.12 53.5101 39.12 52.3101 39.12 51.1101C39.12 50.7501 39.12 50.5701 39.54 50.4201C40.1958 50.1883 40.7626 49.757 41.1607 49.1866C41.5589 48.6163 41.7684 47.9356 41.76 47.2401C41.76 46.5801 41.76 45.9201 41.76 45.2601C41.815 44.5838 41.6602 43.9069 41.3166 43.3218C40.973 42.7366 40.4574 42.2716 39.84 41.9901ZM15 20.0001C15 19.0101 14.73 18.8601 13.77 18.8601C13.6168 18.8739 13.4625 18.8539 13.3179 18.8015C13.1734 18.7491 13.042 18.6656 12.9333 18.5568C12.8246 18.4481 12.741 18.3168 12.6886 18.1722C12.6362 18.0276 12.6162 17.8733 12.63 17.7201V15.8901L14.25 16.4601C14.4967 16.5638 14.7659 16.6024 15.0318 16.572C15.2976 16.5417 15.5512 16.4434 15.7681 16.2868C15.9851 16.1301 16.1581 15.9202 16.2705 15.6774C16.3829 15.4346 16.4309 15.1669 16.41 14.9001C16.41 14.1801 16.41 13.4301 16.41 12.7101C16.41 11.9901 16.41 11.6901 17.01 11.4801C17.61 11.2701 17.94 11.4801 18.33 11.9301C19.6969 13.5176 21.5748 14.5786 23.64 14.9301C24.4545 15.065 25.2855 15.065 26.1 14.9301C26.1546 14.8997 26.2149 14.881 26.2771 14.8752C26.3393 14.8694 26.402 14.8766 26.4613 14.8963C26.5205 14.9161 26.575 14.948 26.6213 14.9899C26.6676 15.0319 26.7046 15.083 26.73 15.1401C26.9681 15.5271 27.3125 15.8375 27.722 16.0343C28.1316 16.2311 28.5891 16.306 29.04 16.2501C29.37 16.2501 29.37 16.2501 29.37 16.5801C29.37 16.9101 29.37 17.6001 29.37 18.1101C29.37 18.6201 29.16 18.7701 28.71 18.7701C27.81 18.7701 27.66 18.9801 27.57 19.8801C27.4762 21.4737 26.7809 22.9723 25.6246 24.073C24.4683 25.1736 22.9373 25.7943 21.341 25.8095C19.7447 25.8248 18.2022 25.2334 17.0251 24.155C15.848 23.0767 15.1242 21.5916 15 20.0001ZM24.6 29.0001C23.5413 29.6407 22.3274 29.9794 21.09 29.9794C19.8526 29.9794 18.6387 29.6407 17.58 29.0001C17.4 28.8501 17.34 28.7601 17.58 28.5801C17.9831 28.0303 18.2504 27.393 18.36 26.7201C20.0101 27.3982 21.8443 27.483 23.55 26.9601C23.76 26.9601 23.85 26.9601 23.88 27.1701C24.0264 27.7998 24.3369 28.3794 24.78 28.8501C24.96 29.0001 24.75 29.0001 24.6 29.0001ZM15 29.9001C15.279 29.815 15.5744 29.7978 15.8614 29.85C16.1484 29.9022 16.4188 30.0222 16.65 30.2001C18.0368 31.1789 19.6926 31.7044 21.39 31.7044C23.0874 31.7044 24.7432 31.1789 26.13 30.2001C26.13 30.2001 26.4 29.9301 26.61 29.9901C27.7888 30.1664 28.9453 30.4681 30.06 30.8901L27.36 31.4601C25.3278 31.8987 23.3883 32.6907 21.63 33.8001C21.451 33.9294 21.2358 33.9991 21.015 33.9991C20.7942 33.9991 20.579 33.9294 20.4 33.8001C17.9312 32.2667 15.1559 31.2938 12.27 30.9501C12.27 30.9501 12.06 30.9501 11.97 30.8001C12.9567 30.4266 13.9694 30.1258 15 29.9001ZM1.95 47.1801V44.9901C1.95541 44.6601 2.05787 44.3391 2.2446 44.067C2.43133 43.7949 2.69406 43.5838 3 43.4601C3.04588 43.9669 3.28804 44.4357 3.67479 44.7664C4.06154 45.0971 4.56224 45.2635 5.07 45.2301C6.33 45.2301 6.63 45.5301 6.63 46.7901V48.4701C6.63 48.8901 6.63 49.1001 6.06 49.0701H3.84C3.59069 49.0742 3.3431 49.028 3.11196 48.9345C2.88083 48.841 2.67086 48.7019 2.49454 48.5256C2.31822 48.3493 2.17916 48.1393 2.08561 47.9081C1.99207 47.677 1.94595 47.4294 1.95 47.1801ZM18.33 39.3801V56.7501C18.33 57.4701 18.33 57.4401 17.7 57.2001C15.1301 56.17 12.4197 55.5328 9.66 55.3101C8.11516 55.1553 6.56161 55.1051 5.01 55.1601C4.68 55.1601 4.59 55.1601 4.59 54.7701C4.59 53.5401 4.59 52.3401 4.59 51.1401C4.59 50.7801 4.59 50.6901 5.04 50.7201C5.49 50.7501 5.85 50.7201 6.24 50.7201C6.73899 50.7204 7.21847 50.5263 7.57687 50.1791C7.93526 49.8319 8.14441 49.3589 8.16 48.8601C8.21998 47.9611 8.21998 47.0591 8.16 46.1601C8.15252 45.8055 8.07366 45.456 7.92813 45.1326C7.7826 44.8091 7.57339 44.5183 7.31298 44.2775C7.05257 44.0367 6.74631 43.8509 6.41249 43.731C6.07866 43.6112 5.72411 43.5599 5.37 43.5801C4.53 43.5801 4.59 43.5801 4.59 42.7701V35.7801C4.59 35.0301 4.59 34.9701 5.43 34.9401C9.14954 34.8269 12.859 35.3859 16.38 36.5901C17.059 36.7225 17.6906 37.0331 18.21 37.4901C18.57 38.0001 18.33 38.7501 18.33 39.3801ZM22.02 38.9901V57.6801C22.02 58.4001 22.02 58.4301 21.27 58.4901C21.1418 58.5207 21.0082 58.5207 20.88 58.4901C20.04 58.4901 19.98 58.4901 19.98 57.5601V38.8701C19.98 38.5101 19.98 38.3001 20.46 38.4501C20.8714 38.5701 21.3086 38.5701 21.72 38.4501C21.93 38.4501 22.05 38.4501 22.05 38.6901C22.0264 38.7883 22.0163 38.8892 22.02 38.9901ZM22.02 36.5001C21.7169 36.7131 21.3555 36.8274 20.985 36.8274C20.6145 36.8274 20.2531 36.7131 19.95 36.5001C17.2565 34.9084 14.2646 33.8872 11.16 33.5001C9.49065 33.2609 7.80641 33.1406 6.12 33.1401C5.85 33.1401 5.55 33.1401 5.61 32.7501C5.67 32.3601 5.61 31.9701 6.12 31.9701H7.8C11.0966 31.997 14.3605 32.6274 17.43 33.8301C18.1776 34.1669 18.8995 34.5579 19.59 35.0001C20.0221 35.3262 20.5487 35.5026 21.09 35.5026C21.6313 35.5026 22.1579 35.3262 22.59 35.0001C24.9793 33.5377 27.6643 32.6256 30.45 32.3301C32.1681 32.0783 33.9039 31.968 35.64 32.0001C35.7666 31.984 35.8952 32.0033 36.0114 32.0559C36.1277 32.1085 36.2271 32.1923 36.2986 32.298C36.3701 32.4037 36.4109 32.5271 36.4164 32.6546C36.422 32.7821 36.3921 32.9086 36.33 33.0201C36.33 33.2601 36.06 33.0201 35.94 33.0201C33.9913 33.0196 32.0455 33.1701 30.12 33.4701C27.2662 33.9393 24.5336 34.9691 22.08 36.5001H22.02ZM40.02 47.2701C40.0203 47.7293 39.842 48.1707 39.523 48.5009C39.2039 48.8312 38.769 49.0245 38.31 49.0401C37.53 49.0401 36.72 49.0401 35.91 49.0401C35.8446 49.0504 35.7778 49.045 35.7148 49.0245C35.6519 49.004 35.5947 48.969 35.5479 48.9222C35.5012 48.8754 35.4661 48.8182 35.4456 48.7553C35.4251 48.6924 35.4198 48.6255 35.43 48.5601C35.43 47.8101 35.43 47.0301 35.43 46.2501C35.4256 46.1085 35.4507 45.9674 35.5038 45.836C35.557 45.7047 35.6369 45.5858 35.7385 45.487C35.8401 45.3882 35.9612 45.3117 36.094 45.2623C36.2269 45.2129 36.3685 45.1917 36.51 45.2001C36.6195 45.1849 36.7305 45.1849 36.84 45.2001C37.1026 45.2335 37.3692 45.2138 37.6241 45.1424C37.879 45.0709 38.1169 44.9491 38.3239 44.7841C38.5309 44.619 38.7026 44.4142 38.8291 44.1816C38.9555 43.9491 39.034 43.6935 39.06 43.4301C39.3365 43.5642 39.5701 43.7729 39.7345 44.0326C39.8988 44.2923 39.9873 44.5928 39.99 44.9001L40.02 47.2701Z" fill="#B860AC"/>
  <path d="M18 3.83008C17.9078 3.9083 17.7909 3.95123 17.67 3.95123C17.5491 3.95123 17.4322 3.9083 17.34 3.83008H18Z" fill="#B860AC"/>
  <path d="M33.93 39.8001C34.149 39.7701 34.371 39.7701 34.59 39.8001C34.8048 39.8001 35.0109 39.8854 35.1628 40.0373C35.3147 40.1892 35.4 40.3953 35.4 40.6101C35.4 40.8249 35.3147 41.031 35.1628 41.1829C35.0109 41.3348 34.8048 41.4201 34.59 41.4201H32.46C30.5268 41.5928 28.6167 41.9647 26.76 42.5301H26.55C26.4443 42.5785 26.3297 42.6044 26.2134 42.6061C26.0971 42.6079 25.9818 42.5855 25.8746 42.5404C25.7675 42.4953 25.6708 42.4284 25.5909 42.344C25.5109 42.2596 25.4493 42.1595 25.41 42.0501C25.3739 41.9378 25.3618 41.8192 25.3746 41.7019C25.3873 41.5847 25.4246 41.4714 25.4841 41.3695C25.5435 41.2677 25.6237 41.1794 25.7195 41.1106C25.8153 41.0418 25.9245 40.9939 26.04 40.9701C27.1875 40.5957 28.3605 40.305 29.55 40.1001C31.0019 39.9049 32.465 39.8047 33.93 39.8001Z" fill="#B860AC"/>
</svg>