<svg xmlns="http://www.w3.org/2000/svg" width="65" height="64" viewBox="0 0 65 64" fill="none">
  <path d="M58.5551 42.5245C58.491 42.1057 58.3418 41.7045 58.1167 41.3457C57.8915 40.9868 57.5952 40.6779 57.246 40.4381C56.8969 40.1982 56.5022 40.0324 56.0865 39.9509C55.6708 39.8695 55.2428 39.8741 54.8289 39.9645C54.5729 39.9645 54.4307 39.9645 54.3169 39.6516C54.2097 39.1208 53.9642 38.6278 53.6051 38.2225C53.246 37.8172 52.7862 37.514 52.2722 37.3436C51.7582 37.1733 51.2083 37.1418 50.6783 37.2524C50.1482 37.3629 49.6568 37.6117 49.2538 37.9734C48.4858 38.5707 47.7462 39.2534 47.0067 39.8791L37.9898 47.7582C37.9322 47.8367 37.8534 47.897 37.7628 47.9323C37.6721 47.9675 37.5732 47.9762 37.4778 47.9574L32.5 46.7342C32.2762 46.6809 32.0709 46.5682 31.9057 46.408C31.7405 46.2478 31.6216 46.0461 31.5613 45.824C31.5089 45.6485 31.4916 45.4643 31.5104 45.282C31.5292 45.0998 31.5837 44.923 31.6709 44.7618C31.7581 44.6007 31.8762 44.4583 32.0185 44.3428C32.1607 44.2274 32.3244 44.1411 32.5 44.0889L38.1889 42.496C38.6714 42.3826 39.1185 42.1519 39.4906 41.8244C39.8627 41.497 40.1484 41.0829 40.3222 40.6187C40.5549 40.0781 40.6142 39.4787 40.492 38.903C40.3697 38.3274 40.0719 37.8038 39.6396 37.4045C39.2464 36.9286 38.7091 36.5935 38.1087 36.4498C37.5084 36.3061 36.8776 36.3617 36.3116 36.608L21.7765 41.2445C19.9375 41.734 18.3214 42.8381 17.1969 44.3734C16.9991 44.7565 16.6789 45.0626 16.2873 45.243C15.8956 45.4234 15.4549 45.4677 15.0351 45.3689C14.7222 45.3689 14.6938 45.3689 14.6938 44.9991C14.6938 44.6294 14.6938 43.8045 14.6938 43.2071C14.6938 42.6098 14.4378 42.2969 13.7551 42.2969H7.24135C6.72935 42.2969 6.38802 42.5529 6.38802 43.0365C6.38802 45.2267 6.38802 47.4169 6.38802 49.6071C6.3877 49.7055 6.4078 49.8029 6.44704 49.8931C6.48628 49.9833 6.54381 50.0644 6.61599 50.1312C6.68817 50.198 6.77343 50.2492 6.86638 50.2814C6.95934 50.3136 7.05796 50.3261 7.15602 50.3182C7.63957 50.3182 7.92402 50.0054 7.92402 49.408V44.2311C7.92402 43.9182 7.92402 43.8045 8.29379 43.8045H12.5889C12.9587 43.8045 13.0156 43.8045 13.0156 44.2311V56.9742C13.0156 57.2587 13.0156 57.3725 12.6458 57.3725C11.1951 57.3725 9.80135 57.3725 8.2369 57.3725C7.95246 57.3725 7.86713 57.3725 7.89557 57.0027C7.89557 56.2062 7.89557 55.4382 7.89557 54.6702C7.89557 53.9022 7.63957 53.7885 7.12757 53.76C6.61557 53.7316 6.35957 54.0445 6.35957 54.6702C6.35957 55.296 6.35957 56.7751 6.35957 57.8276C6.33379 58.037 6.37154 58.2493 6.46791 58.4369C6.56428 58.6246 6.71483 58.779 6.90002 58.88H14.0396C14.1446 58.8661 14.2458 58.8314 14.3373 58.7779C14.4287 58.7243 14.5086 58.6531 14.5721 58.5683C14.6357 58.4836 14.6817 58.387 14.7075 58.2842C14.7333 58.1814 14.7383 58.0745 14.7222 57.9698V57.3725C14.7222 56.3769 14.7222 56.3769 15.7178 56.3769C20.98 56.3769 26.1854 56.3769 31.4191 56.3769C35.5436 56.3769 39.6965 56.3769 43.8493 56.3769C44.6054 56.4037 45.3448 56.1504 45.9258 55.6658C46.7222 55.0685 47.4618 54.3574 48.2582 53.6747C50.42 51.7974 52.5249 49.8916 54.7151 47.9858C55.7107 47.0756 56.82 46.1938 57.7871 45.1414C58.0449 44.9085 58.2495 44.6228 58.3869 44.3037C58.5244 43.9847 58.5914 43.6398 58.5836 43.2925C58.5551 43.1787 58.612 42.8374 58.5551 42.5245ZM56.4218 44.4018L45.044 54.3574C44.6396 54.6972 44.1208 54.8701 43.5933 54.8409L24.1658 54.6987H15.1489C14.7222 54.6987 14.5516 54.6987 14.58 54.1298C14.58 51.8827 14.58 49.6356 14.58 47.4169C14.58 47.0471 14.58 46.9049 15.0351 46.9334H16.7702C16.9612 46.939 17.1495 46.888 17.3115 46.7868C17.4735 46.6855 17.6019 46.5386 17.6805 46.3645C18.1821 45.4255 18.8694 44.5983 19.7007 43.9333C20.532 43.2683 21.4898 42.7793 22.516 42.496C27.2662 41.0454 32.0165 39.6516 36.7382 38.0018C36.9445 37.9179 37.1669 37.8807 37.3892 37.893C37.6116 37.9052 37.8285 37.9666 38.0243 38.0727C38.2201 38.1787 38.39 38.3269 38.5218 38.5064C38.6535 38.686 38.7438 38.8925 38.7862 39.1111C38.8511 39.2977 38.8756 39.4959 38.858 39.6926C38.8405 39.8893 38.7814 40.08 38.6845 40.2521C38.5877 40.4243 38.4554 40.5739 38.2964 40.691C38.1374 40.8081 37.9553 40.8901 37.7622 40.9316C35.8659 41.4436 34.0455 41.984 32.3009 42.5529C31.633 42.668 31.0282 43.0179 30.5954 43.5393C30.1626 44.0608 29.9302 44.7197 29.94 45.3974C29.9332 46.0876 30.1776 46.7567 30.6277 47.28C31.0778 47.8034 31.7028 48.1452 32.3862 48.2418L42.1427 50.6027C42.6365 50.7292 43.1539 50.7332 43.6496 50.6142C44.1453 50.4953 44.6045 50.2569 44.9871 49.92C45.9827 49.0667 47.0067 48.1849 47.9738 47.3031C48.0718 47.2455 48.1551 47.1661 48.2174 47.0711C48.2797 46.9761 48.3193 46.868 48.333 46.7552C48.3468 46.6424 48.3344 46.5279 48.2967 46.4207C48.2591 46.3135 48.1973 46.2164 48.116 46.1369C47.8316 45.7956 47.3765 45.7956 46.9498 46.1369L44.1054 48.64C43.8908 48.857 43.6212 49.0113 43.3255 49.0865C43.0298 49.1617 42.7192 49.1548 42.4271 49.0667L39.5827 48.3556L44.1338 44.3449C46.1534 42.6098 48.1445 40.8462 50.164 39.1396C50.3054 38.967 50.4834 38.8279 50.6851 38.7324C50.8867 38.6369 51.1071 38.5873 51.3302 38.5873C51.5534 38.5873 51.7737 38.6369 51.9754 38.7324C52.1771 38.8279 52.3551 38.967 52.4965 39.1396C52.654 39.3096 52.7739 39.511 52.8484 39.7305C52.9229 39.95 52.9503 40.1827 52.9288 40.4135C52.9073 40.6443 52.8375 40.868 52.7238 41.07C52.6101 41.272 52.4551 41.4477 52.2689 41.5858L50.5054 43.0934C50.4267 43.1628 50.3636 43.2481 50.3205 43.3437C50.2773 43.4394 50.255 43.5431 50.255 43.648C50.255 43.7529 50.2773 43.8567 50.3205 43.9523C50.3636 44.0479 50.4267 44.1333 50.5054 44.2027C50.5716 44.291 50.6575 44.3627 50.7562 44.4121C50.855 44.4614 50.9638 44.4871 51.0742 44.4871C51.1846 44.4871 51.2935 44.4614 51.3923 44.4121C51.491 44.3627 51.5769 44.291 51.6431 44.2027L54.4876 41.7565C54.629 41.5838 54.8069 41.4448 55.0086 41.3493C55.2103 41.2538 55.4306 41.2042 55.6538 41.2042C55.8769 41.2042 56.0973 41.2538 56.299 41.3493C56.5006 41.4448 56.6786 41.5838 56.82 41.7565C57.0128 41.9361 57.1589 42.1599 57.2456 42.4087C57.3324 42.6574 57.3573 42.9236 57.3181 43.1841C57.2789 43.4446 57.1767 43.6916 57.0206 43.9038C56.8644 44.116 56.6589 44.2869 56.4218 44.4018Z" fill="#B860AC"/>
  <path d="M51.5293 18.4889C51.5424 20.4367 51.0846 22.3589 50.1948 24.0917C49.3051 25.8245 48.0098 27.3167 46.4193 28.4411C44.8287 29.5656 42.99 30.2891 41.0596 30.5499C39.1293 30.8108 37.1645 30.6013 35.3325 29.9394C33.5006 29.2774 31.8557 28.1826 30.5379 26.7481C29.2202 25.3136 28.2686 23.5819 27.7642 21.7004C27.2598 19.819 27.2174 17.8435 27.6409 15.9422C28.0643 14.0409 28.9408 12.27 30.196 10.7804C30.6511 10.24 31.0493 10.1546 31.4475 10.5244C31.8458 10.8942 31.8173 11.2355 31.4475 11.7475C29.839 13.6113 28.9327 15.9788 28.8856 18.4403C28.8384 20.9017 29.6534 23.3022 31.1893 25.2262C32.7253 27.1502 34.8856 28.4767 37.2964 28.976C39.7071 29.4753 42.2166 29.116 44.3904 27.9603C46.5642 26.8046 48.2655 24.9253 49.1998 22.6475C50.1342 20.3698 50.2428 17.8371 49.5069 15.4878C48.7709 13.1384 47.2368 11.1203 45.1699 9.7828C43.103 8.44526 40.6335 7.87245 38.1889 8.16352C37.0952 8.2825 36.0286 8.58039 35.0315 9.0453C34.4626 9.3013 34.0929 9.0453 33.8653 8.73241C33.6378 8.41952 33.8653 7.90752 34.3773 7.65152C36.0915 6.85528 37.9685 6.47209 39.8577 6.53271C41.7468 6.59333 43.5954 7.09607 45.255 8.00057C46.9147 8.90507 48.3391 10.1861 49.4139 11.7409C50.4887 13.2956 51.184 15.0807 51.444 16.9529C51.4724 17.4933 51.4724 18.0622 51.5293 18.4889Z" fill="#B860AC"/>
  <path d="M42.9391 18.8017C42.6831 18.5742 42.6831 18.4604 42.9391 18.2044C43.2516 17.8545 43.4859 17.442 43.6264 16.9945C43.7669 16.5469 43.8103 16.0745 43.7537 15.6088C43.6972 15.1431 43.542 14.6948 43.2986 14.2939C43.0551 13.8929 42.7289 13.5485 42.3418 13.2835C42.0751 13.1351 41.8609 12.9078 41.7285 12.6328C41.5961 12.3578 41.552 12.0486 41.6022 11.7475C41.6022 11.0933 41.3462 10.7804 40.8058 10.8088C40.2653 10.8373 40.0662 11.0933 40.0662 11.7475C40.0662 12.4017 40.0662 12.5724 39.412 12.5724C38.7578 12.5724 38.7578 12.5724 38.7578 11.8897V11.4915C38.7628 11.3956 38.7466 11.2997 38.7104 11.2107C38.6742 11.1217 38.6188 11.0418 38.5482 10.9766C38.4776 10.9115 38.3935 10.8626 38.3019 10.8336C38.2103 10.8047 38.1135 10.7962 38.0182 10.8088C37.9257 10.7925 37.8306 10.7962 37.7396 10.8199C37.6487 10.8435 37.5638 10.8865 37.4909 10.9459C37.4181 11.0053 37.3588 11.0797 37.3173 11.164C37.2758 11.2483 37.2529 11.3406 37.2502 11.4346C37.2081 11.6411 37.2081 11.8539 37.2502 12.0604C37.2502 12.4871 37.2502 12.6008 36.7382 12.6008C36.2262 12.6008 35.7142 12.8 35.7142 13.5964V23.7795C35.7142 24.3484 35.9702 24.6897 36.3969 24.7466C36.8236 24.8035 37.0796 24.7466 37.1933 24.7466C37.3071 24.7466 37.1933 25.3155 37.1933 25.6284C37.2275 25.8033 37.3213 25.9608 37.4588 26.0741C37.5964 26.1873 37.769 26.2493 37.9471 26.2493C38.1253 26.2493 38.2979 26.1873 38.4354 26.0741C38.5729 25.9608 38.6668 25.8033 38.7009 25.6284V25.0595C38.7009 24.8604 38.7009 24.7751 38.9853 24.7466C39.9809 24.7466 39.9809 24.7466 40.0093 25.6853C40.0093 25.7848 40.0293 25.8834 40.0682 25.975C40.1072 26.0667 40.1642 26.1495 40.2359 26.2186C40.3076 26.2876 40.3925 26.3415 40.4856 26.3769C40.5786 26.4124 40.6779 26.4287 40.7773 26.4248C40.8745 26.4287 40.9714 26.4133 41.0626 26.3796C41.1538 26.3459 41.2374 26.2946 41.3088 26.2285C41.3801 26.1625 41.4377 26.083 41.4783 25.9947C41.5189 25.9063 41.5417 25.8109 41.5453 25.7137C41.5736 25.4966 41.5736 25.2767 41.5453 25.0595C41.5285 24.9959 41.5248 24.9296 41.5345 24.8646C41.5442 24.7995 41.567 24.7372 41.6016 24.6812C41.6363 24.6253 41.6819 24.5771 41.7358 24.5394C41.7897 24.5017 41.8507 24.4755 41.9151 24.4622C42.44 24.2387 42.901 23.8884 43.2569 23.4425C43.6127 22.9967 43.8522 22.4694 43.9537 21.9081C44.0553 21.3468 44.0157 20.7691 43.8386 20.2268C43.6615 19.6846 43.3524 19.1949 42.9391 18.8017ZM37.2502 15.9573C37.2502 15.4453 37.2502 14.9048 37.2502 14.3644C37.2502 13.824 37.2502 14.0515 37.5631 14.0515H40.4076C40.8693 14.1082 41.2943 14.3319 41.6026 14.6803C41.9108 15.0287 42.081 15.4779 42.081 15.9431C42.081 16.4083 41.9108 16.8574 41.6026 17.2058C41.2943 17.5542 40.8693 17.7779 40.4076 17.8346H37.5631C37.2218 17.8346 37.1365 17.8346 37.1649 17.408C37.1933 16.9813 37.1649 16.4693 37.1649 15.9857L37.2502 15.9573ZM40.8627 23.2106H37.5062C37.2218 23.2106 37.1649 23.2106 37.1649 22.8693C37.1649 21.8168 37.1649 20.7928 37.1649 19.7404C37.1649 19.4844 37.1649 19.3991 37.5062 19.3991H40.7205C41.2086 19.4278 41.6677 19.6403 42.0055 19.9939C42.3433 20.3475 42.5346 20.8159 42.5409 21.3048C42.5495 21.7915 42.3716 22.263 42.0437 22.6226C41.7158 22.9823 41.2627 23.2028 40.7773 23.2391L40.8627 23.2106Z" fill="#B860AC"/>
  <path d="M45.7551 34.8444V37.8595C45.7551 38.4284 45.4707 38.7413 44.9871 38.7413C44.5035 38.7413 44.2476 38.4284 44.2191 37.888V31.8577C44.2114 31.7508 44.2253 31.6434 44.2601 31.542C44.2949 31.4406 44.3498 31.3473 44.4215 31.2676C44.4932 31.1879 44.5803 31.1235 44.6775 31.0783C44.7746 31.0331 44.88 31.0079 44.9871 31.0044C45.4707 31.0044 45.7551 31.3173 45.7551 31.8862V34.8444Z" fill="#B860AC"/>
  <path d="M34.9178 33.1662C34.9178 33.6497 34.9178 34.1333 34.9178 34.6169C34.926 34.7136 34.9134 34.811 34.881 34.9025C34.8485 34.9941 34.7969 35.0776 34.7296 35.1476C34.6623 35.2176 34.5809 35.2724 34.4907 35.3084C34.4005 35.3445 34.3037 35.3608 34.2067 35.3564C34.1039 35.369 33.9997 35.3589 33.9012 35.327C33.8028 35.2951 33.7125 35.2421 33.6367 35.1716C33.5608 35.1012 33.5013 35.0151 33.4621 34.9193C33.423 34.8234 33.4053 34.7202 33.4102 34.6169C33.4102 33.6782 33.4102 32.7111 33.4102 31.7724C33.3885 31.6612 33.3917 31.5465 33.4195 31.4367C33.4474 31.3268 33.4992 31.2245 33.5712 31.137C33.6433 31.0495 33.7338 30.9791 33.8363 30.9307C33.9387 30.8824 34.0507 30.8573 34.164 30.8573C34.2773 30.8573 34.3892 30.8824 34.4917 30.9307C34.5942 30.9791 34.6847 31.0495 34.7568 31.137C34.8288 31.2245 34.8806 31.3268 34.9085 31.4367C34.9363 31.5465 34.9395 31.6612 34.9178 31.7724V33.1377V33.1662Z" fill="#B860AC"/>
  <path d="M40.3506 33.4791V34.6453C40.355 34.7424 40.3387 34.8392 40.3027 34.9294C40.2667 35.0195 40.2118 35.101 40.1418 35.1683C40.0718 35.2356 39.9883 35.2872 39.8968 35.3197C39.8052 35.3521 39.7078 35.3646 39.6111 35.3565C39.5185 35.3728 39.4235 35.3691 39.3325 35.3454C39.2415 35.3218 39.1567 35.2788 39.0838 35.2194C39.0109 35.16 38.9517 35.0856 38.9101 35.0013C38.8686 34.917 38.8457 34.8247 38.8431 34.7307C38.7862 33.9163 38.7862 33.0989 38.8431 32.2845C38.8431 31.8293 39.1844 31.6302 39.6111 31.6302C39.7093 31.6262 39.8072 31.6426 39.8988 31.6783C39.9903 31.7141 40.0735 31.7684 40.143 31.8379C40.2124 31.9074 40.2668 31.9905 40.3025 32.0821C40.3383 32.1736 40.3547 32.2716 40.3506 32.3698V33.4791Z" fill="#B860AC"/>
  <path d="M11.1667 46.4213C11.1669 46.6202 11.0899 46.8113 10.9519 46.9546C10.814 47.0978 10.6259 47.182 10.4272 47.1893C10.2235 47.1893 10.0281 47.1084 9.88412 46.9644C9.74009 46.8204 9.65918 46.625 9.65918 46.4213C9.65918 46.2176 9.74009 46.0223 9.88412 45.8783C10.0281 45.7342 10.2235 45.6533 10.4272 45.6533C10.6259 45.6607 10.814 45.7448 10.9519 45.8881C11.0899 46.0313 11.1669 46.2225 11.1667 46.4213Z" fill="#B860AC"/>
</svg>