<svg xmlns="http://www.w3.org/2000/svg" width="36" height="36" viewBox="0 0 36 36" fill="none">
  <path d="M30.0312 0.407227H5.96875C2.94844 0.407227 0.5 2.85567 0.5 5.87598V29.9385C0.5 32.9588 2.94844 35.4072 5.96875 35.4072H30.0312C33.0516 35.4072 35.5 32.9588 35.5 29.9385V5.87598C35.5 2.85567 33.0516 0.407227 30.0312 0.407227Z" fill="#43E660"/>
  <path d="M11.5 15.5029H15.7325L12.7236 12.5005L14.3885 10.7089L17.257 13.7952V9.40723H19.7443V13.7952L22.6127 10.7159L24.2763 12.5005L21.2688 15.4959H25.5V17.9733H21.2447L24.2724 21.0526L22.6127 22.8023L18.5007 18.4772L14.3885 22.8023L12.7236 21.0597L15.7525 17.9803H11.5V15.5029ZM17.2502 21.5284H19.7377V27.4072H17.2502V21.5284Z" fill="black"/>
</svg>